<svg width="40" height="38" viewBox="0 0 40 38" fill="none" xmlns="http://www.w3.org/2000/svg">
<g clip-path="url(#clip0_3745_726)">
<path fill-rule="evenodd" clip-rule="evenodd" d="M7.99679 14.3774C7.99679 16.5854 6.20622 18.3759 3.99835 18.3759C1.79058 18.3759 0 16.5854 0 14.3774H7.99679ZM39.9938 14.3774C39.9938 16.5854 38.2032 18.3759 35.9955 18.3759C33.7876 18.3759 31.9971 16.5854 31.9971 14.3774H39.9938Z" fill="#FF902A"/>
<path fill-rule="evenodd" clip-rule="evenodd" d="M9.70505 0.972168L0 14.3775H8.00017L13.8663 0.972168H10.0361C9.83284 0.972168 9.65133 1.06545 9.5318 1.21143L9.70505 0.972168Z" fill="#019934"/>
<path fill-rule="evenodd" clip-rule="evenodd" d="M13.8651 0.972168L7.99902 14.3775H15.999L18.0262 0.972168H13.8651Z" fill="white"/>
<path fill-rule="evenodd" clip-rule="evenodd" d="M18.0272 0.972168L16 14.3775H24.0002L22.1884 0.972168H18.0272Z" fill="#019934"/>
<path fill-rule="evenodd" clip-rule="evenodd" d="M22.1875 0.972168L23.9993 14.3775H31.9993L26.3487 0.972168H22.1875Z" fill="white"/>
<path fill-rule="evenodd" clip-rule="evenodd" d="M30.178 0.972168H26.3496L32.0003 14.3775H40.0004L30.6691 1.19577C30.5496 1.0587 30.3738 0.972168 30.178 0.972168Z" fill="#019934"/>
<path fill-rule="evenodd" clip-rule="evenodd" d="M15.9957 14.3774C15.9957 16.5854 14.2052 18.3759 11.9974 18.3759C9.78951 18.3759 7.99902 16.5854 7.99902 14.3774H15.9957Z" fill="#EBEBEB"/>
<path fill-rule="evenodd" clip-rule="evenodd" d="M23.9968 14.3774C23.9968 16.5854 22.2062 18.3759 19.9984 18.3759C17.7906 18.3759 16 16.5854 16 14.3774H23.9968Z" fill="#FF902A"/>
<path fill-rule="evenodd" clip-rule="evenodd" d="M31.9938 14.3774C31.9938 16.5854 30.2032 18.3759 27.9954 18.3759C25.7875 18.3759 23.9971 16.5854 23.9971 14.3774H31.9938Z" fill="#EBEBEB"/>
<path fill-rule="evenodd" clip-rule="evenodd" d="M24.4179 24.2487C27.7653 20.903 32.5078 19.7994 36.7756 20.9381C37.9148 25.2038 36.8108 29.944 33.4635 33.2897C31.0633 35.6887 27.9459 36.9343 24.8008 37.0277C24.3366 37.0238 23.9613 36.6462 23.9613 36.181C23.9613 36.1332 23.9653 36.0864 23.9729 36.0409C24.9635 32.3896 26.9067 29.13 29.5192 26.5454C25.5217 28.615 22.4533 32.2307 21.1059 36.6004C19.9665 32.3346 21.0705 27.5944 24.4179 24.2487Z" fill="#FF902A"/>
<path fill-rule="evenodd" clip-rule="evenodd" d="M6.70136 17.3224C6.60704 17.4091 6.50851 17.4912 6.40622 17.5686C5.82599 18.3355 4.97575 18.8866 3.99707 19.0806V29.2878C4.00363 31.4539 5.06838 33.3715 6.70136 34.5506C7.07918 34.8235 7.48756 35.0568 7.92023 35.2445C8.71375 35.5887 9.58912 35.7796 10.5091 35.7796H15.3422C13.2925 34.253 13.1326 31.5823 13.7967 29.0956C15.6738 28.5948 18.1037 28.9137 19.6978 30.1748C21.151 23.2315 28.6897 17.887 35.9942 19.8358V19.0797C35.0214 18.8856 34.1759 18.3384 33.597 17.5776C33.5683 17.5561 33.5401 17.5344 33.5121 17.5121C32.5883 16.7797 31.9958 15.6476 31.9958 14.3774H31.9925C31.9925 16.5854 30.202 18.3759 27.9942 18.3759C25.7862 18.3759 23.9958 16.5854 23.9958 14.3774C23.9958 16.5854 22.2053 18.3759 19.9974 18.3759C17.7896 18.3759 15.9991 16.5854 15.9991 14.3774H15.9958C15.9958 16.5854 14.2053 18.3759 11.9974 18.3759C9.78956 18.3759 7.99908 16.5854 7.99908 14.3774H7.9957C7.99551 15.5426 7.49685 16.5915 6.70136 17.3224ZM20.2323 35.7796C20.2501 35.7434 20.2678 35.7072 20.2857 35.671C20.295 35.7072 20.3044 35.7435 20.3138 35.7796H20.2323Z" fill="#019934"/>
<path fill-rule="evenodd" clip-rule="evenodd" d="M14.4185 29.9175C16.2397 29.4315 18.2634 29.9025 19.6918 31.33C21.1202 32.7577 21.5913 34.7802 21.1052 36.6004C20.5302 34.7358 19.2208 33.1931 17.515 32.3099C18.6298 33.4128 19.459 34.8036 19.8818 36.3616C19.8851 36.381 19.8866 36.4011 19.8866 36.4215C19.8866 36.62 19.7266 36.7812 19.5285 36.7828C18.1864 36.7429 16.8561 36.2114 15.832 35.1877C14.4035 33.7602 13.9324 31.7376 14.4185 29.9175Z" fill="#FF902A"/>
<path fill-rule="evenodd" clip-rule="evenodd" d="M19.999 18.3757C19.0741 18.3757 18.2224 18.0614 17.5449 17.5339C18.222 18.1979 19.0745 18.5938 20.0007 18.5938C20.9328 18.5938 21.7905 18.1928 22.4695 17.521C21.7895 18.0563 20.9315 18.3757 19.999 18.3757Z" fill="white"/>
</g>
<defs>
<clipPath id="clip0_3745_726">
<rect width="40" height="38" fill="white"/>
</clipPath>
</defs>
</svg>
