<svg width="19" height="18" viewBox="0 0 19 18" fill="none" xmlns="http://www.w3.org/2000/svg">
<path d="M15.4519 4.125L14.9633 11.6438C14.8384 13.5648 14.7761 14.5253 14.2699 15.2159C14.0195 15.5573 13.6974 15.8454 13.3236 16.062C12.5678 16.5 11.5561 16.5 9.53271 16.5C7.50669 16.5 6.49366 16.5 5.73733 16.0611C5.3634 15.8442 5.04108 15.5556 4.79088 15.2136C4.28485 14.5219 4.2238 13.56 4.10171 11.6364L3.625 4.125" stroke="#C52127" stroke-width="1.25" stroke-linecap="round"/>
<path d="M7.1731 8.80078H11.9039" stroke="#C52127" stroke-width="1.25" stroke-linecap="round"/>
<path d="M8.35571 11.7402H10.7211" stroke="#C52127" stroke-width="1.25" stroke-linecap="round"/>
<path d="M2.44238 4.125H16.6347M12.7361 4.125L12.1979 3.0688C11.8404 2.3672 11.6615 2.01639 11.3532 1.79761C11.2848 1.74908 11.2124 1.70591 11.1366 1.66853C10.7951 1.5 10.3853 1.5 9.56558 1.5C8.72532 1.5 8.30522 1.5 7.95806 1.67559C7.88112 1.71451 7.8077 1.75943 7.73856 1.80988C7.4266 2.03753 7.25234 2.40117 6.90383 3.12845L6.42627 4.125" stroke="#C52127" stroke-width="1.25" stroke-linecap="round"/>
</svg>
