<svg width="185" height="37" viewBox="0 0 185 37" fill="none" xmlns="http://www.w3.org/2000/svg">
<path d="M59.6462 15.2059C59.5657 14.9076 59.4473 14.6448 59.2911 14.4175C59.1348 14.1855 58.9431 13.989 58.7158 13.828C58.4885 13.667 58.2281 13.5463 57.9346 13.4658C57.641 13.3806 57.319 13.338 56.9686 13.338C56.2632 13.338 55.6524 13.5084 55.1363 13.8493C54.6249 14.1902 54.2295 14.6874 53.9502 15.3408C53.6708 15.9895 53.5311 16.7778 53.5311 17.7059C53.5311 18.6386 53.6661 19.4341 53.936 20.0922C54.2059 20.7504 54.5965 21.2523 55.1078 21.5979C55.6192 21.9436 56.2395 22.1164 56.9686 22.1164C57.6126 22.1164 58.1571 22.0122 58.6022 21.8039C59.052 21.5908 59.3929 21.2901 59.6249 20.9019C59.8569 20.5136 59.9729 20.0567 59.9729 19.5311L60.6263 19.6093H57.0894V17.0454H63.3607V18.9701C63.3607 20.2722 63.0837 21.3872 62.5297 22.3152C61.9805 23.2433 61.2229 23.9559 60.257 24.453C59.2958 24.9502 58.1902 25.1988 56.9402 25.1988C55.5529 25.1988 54.3337 24.8981 53.2826 24.2968C52.2314 23.6954 51.4123 22.8384 50.8252 21.7258C50.2381 20.6083 49.9445 19.2826 49.9445 17.7485C49.9445 16.5553 50.1221 15.4971 50.4772 14.5738C50.8323 13.6457 51.3271 12.8597 51.9615 12.2158C52.6007 11.5719 53.3394 11.0842 54.1775 10.7527C55.0203 10.4213 55.927 10.2556 56.8976 10.2556C57.7404 10.2556 58.524 10.3763 59.2485 10.6178C59.9776 10.8593 60.6216 11.2002 61.1803 11.6405C61.7437 12.0809 62.2007 12.6041 62.551 13.2101C62.9014 13.8162 63.1192 14.4814 63.2044 15.2059H59.6462ZM65.4328 24.9999V14.0908H68.8064V16.0794H68.92C69.1189 15.3597 69.4432 14.8247 69.893 14.4743C70.3428 14.1192 70.866 13.9417 71.4626 13.9417C71.6236 13.9417 71.7893 13.9535 71.9598 13.9772C72.1302 13.9961 72.2888 14.0269 72.4356 14.0695V17.088C72.2699 17.0311 72.0521 16.9862 71.7822 16.953C71.5171 16.9199 71.2803 16.9033 71.072 16.9033C70.66 16.9033 70.2884 16.9956 69.9569 17.1803C69.6302 17.3602 69.3722 17.6135 69.1828 17.9402C68.9981 18.2622 68.9058 18.641 68.9058 19.0766V24.9999H65.4328ZM78.3767 25.2059C77.2308 25.2059 76.246 24.9715 75.4221 24.5027C74.603 24.0293 73.9709 23.3711 73.5258 22.5283C73.0855 21.6808 72.8653 20.6983 72.8653 19.5809C72.8653 18.4587 73.0855 17.4762 73.5258 16.6334C73.9709 15.7859 74.603 15.1277 75.4221 14.659C76.246 14.1855 77.2308 13.9488 78.3767 13.9488C79.5225 13.9488 80.505 14.1855 81.3241 14.659C82.148 15.1277 82.7801 15.7859 83.2204 16.6334C83.6655 17.4762 83.888 18.4587 83.888 19.5809C83.888 20.6983 83.6655 21.6808 83.2204 22.5283C82.7801 23.3711 82.148 24.0293 81.3241 24.5027C80.505 24.9715 79.5225 25.2059 78.3767 25.2059ZM78.398 22.5851C78.8146 22.5851 79.1674 22.4573 79.4562 22.2016C79.745 21.9459 79.9652 21.5908 80.1167 21.1363C80.273 20.6817 80.3511 20.1561 80.3511 19.5596C80.3511 18.9535 80.273 18.4232 80.1167 17.9687C79.9652 17.5141 79.745 17.159 79.4562 16.9033C79.1674 16.6476 78.8146 16.5198 78.398 16.5198C77.9671 16.5198 77.6025 16.6476 77.3042 16.9033C77.0107 17.159 76.7858 17.5141 76.6295 17.9687C76.478 18.4232 76.4022 18.9535 76.4022 19.5596C76.4022 20.1561 76.478 20.6817 76.6295 21.1363C76.7858 21.5908 77.0107 21.9459 77.3042 22.2016C77.6025 22.4573 77.9671 22.5851 78.398 22.5851ZM90.7595 25.2059C89.6089 25.2059 88.6217 24.9691 87.7978 24.4956C86.9787 24.0222 86.349 23.364 85.9086 22.5212C85.4683 21.6737 85.2481 20.6936 85.2481 19.5809C85.2481 18.4634 85.4683 17.4833 85.9086 16.6405C86.3537 15.793 86.9858 15.1325 87.8049 14.659C88.6288 14.1855 89.6113 13.9488 90.7524 13.9488C91.7609 13.9488 92.6392 14.1311 93.3873 14.4956C94.1402 14.8602 94.7273 15.3763 95.1487 16.0439C95.5748 16.7068 95.7997 17.4857 95.8234 18.3806H92.5777C92.5114 17.8219 92.322 17.3839 92.0095 17.0667C91.7017 16.7494 91.2993 16.5908 90.8021 16.5908C90.3996 16.5908 90.0469 16.7044 89.7439 16.9317C89.4408 17.1543 89.2041 17.4857 89.0336 17.926C88.8679 18.3616 88.785 18.9014 88.785 19.5454C88.785 20.1893 88.8679 20.7338 89.0336 21.1789C89.2041 21.6192 89.4408 21.953 89.7439 22.1803C90.0469 22.4028 90.3996 22.5141 90.8021 22.5141C91.1241 22.5141 91.4082 22.4454 91.6544 22.3081C91.9053 22.1708 92.1113 21.9696 92.2723 21.7044C92.4333 21.4346 92.535 21.1079 92.5777 20.7243H95.8234C95.7903 21.624 95.5654 22.4099 95.1487 23.0823C94.7368 23.7546 94.1567 24.2778 93.4086 24.6519C92.6653 25.0212 91.7822 25.2059 90.7595 25.2059ZM102.7 25.2059C101.559 25.2059 100.574 24.981 99.7456 24.5311C98.9218 24.0766 98.2873 23.4303 97.8422 22.5922C97.4019 21.7494 97.1817 20.748 97.1817 19.588C97.1817 18.4611 97.4042 17.4762 97.8493 16.6334C98.2944 15.7859 98.9218 15.1277 99.7314 14.659C100.541 14.1855 101.495 13.9488 102.594 13.9488C103.37 13.9488 104.08 14.0695 104.724 14.311C105.368 14.5525 105.925 14.9099 106.393 15.3834C106.862 15.8569 107.227 16.4417 107.487 17.1377C107.748 17.829 107.878 18.6221 107.878 19.5169V20.3834H98.3962V18.3664H104.646C104.641 17.9971 104.554 17.668 104.383 17.3792C104.213 17.0903 103.979 16.8654 103.68 16.7044C103.387 16.5387 103.048 16.4559 102.665 16.4559C102.276 16.4559 101.928 16.5435 101.621 16.7187C101.313 16.8891 101.069 17.1235 100.889 17.4218C100.709 17.7153 100.614 18.0491 100.605 18.4232V20.4758C100.605 20.9208 100.693 21.3115 100.868 21.6476C101.043 21.9791 101.292 22.2371 101.614 22.4218C101.935 22.6064 102.319 22.6988 102.764 22.6988C103.072 22.6988 103.351 22.6561 103.602 22.5709C103.853 22.4857 104.069 22.3602 104.248 22.1945C104.428 22.0288 104.563 21.8252 104.653 21.5837L107.842 21.676C107.71 22.391 107.418 23.0136 106.969 23.5439C106.524 24.0695 105.939 24.4791 105.214 24.7726C104.49 25.0615 103.652 25.2059 102.7 25.2059ZM109.652 24.9999V14.0908H113.025V16.0794H113.139C113.338 15.3597 113.662 14.8247 114.112 14.4743C114.562 14.1192 115.085 13.9417 115.681 13.9417C115.842 13.9417 116.008 13.9535 116.179 13.9772C116.349 13.9961 116.508 14.0269 116.654 14.0695V17.088C116.489 17.0311 116.271 16.9862 116.001 16.953C115.736 16.9199 115.499 16.9033 115.291 16.9033C114.879 16.9033 114.507 16.9956 114.176 17.1803C113.849 17.3602 113.591 17.6135 113.402 17.9402C113.217 18.2622 113.125 18.641 113.125 19.0766V24.9999H109.652ZM120.525 29.0908C120.108 29.0908 119.715 29.0577 119.346 28.9914C118.977 28.9298 118.66 28.847 118.394 28.7428L119.161 26.2215C119.502 26.3351 119.81 26.4014 120.085 26.4204C120.364 26.4393 120.603 26.3943 120.802 26.2854C121.006 26.1812 121.162 25.9942 121.271 25.7243L121.406 25.3976L117.528 14.0908H121.164L123.174 21.8749H123.288L125.326 14.0908H128.984L124.872 26.0439C124.673 26.6405 124.391 27.1661 124.027 27.6206C123.667 28.0799 123.2 28.4398 122.627 28.7002C122.059 28.9606 121.358 29.0908 120.525 29.0908ZM142.475 14.8152C142.427 14.2944 142.217 13.8896 141.843 13.6008C141.473 13.3072 140.945 13.1604 140.259 13.1604C139.804 13.1604 139.425 13.2196 139.122 13.338C138.819 13.4563 138.592 13.6197 138.441 13.828C138.289 14.0316 138.211 14.266 138.206 14.5311C138.197 14.749 138.239 14.9407 138.334 15.1064C138.433 15.2722 138.576 15.4189 138.76 15.5468C138.95 15.6699 139.177 15.7788 139.442 15.8735C139.707 15.9682 140.005 16.051 140.337 16.1221L141.587 16.4061C142.307 16.5624 142.941 16.7707 143.49 17.0311C144.044 17.2916 144.508 17.6017 144.882 17.9615C145.261 18.3214 145.548 18.7357 145.742 19.2044C145.936 19.6732 146.035 20.1988 146.04 20.7811C146.035 21.6997 145.803 22.4881 145.344 23.1462C144.885 23.8044 144.224 24.3086 143.362 24.659C142.505 25.0094 141.471 25.1846 140.259 25.1846C139.042 25.1846 137.981 25.0023 137.077 24.6377C136.173 24.2731 135.469 23.7191 134.968 22.9758C134.466 22.2324 134.208 21.2925 134.193 20.1561H137.56C137.588 20.6249 137.714 21.0155 137.936 21.328C138.159 21.6405 138.464 21.8773 138.853 22.0383C139.246 22.1992 139.7 22.2797 140.216 22.2797C140.69 22.2797 141.092 22.2158 141.424 22.088C141.76 21.9601 142.018 21.7826 142.198 21.5553C142.378 21.328 142.47 21.0676 142.475 20.774C142.47 20.4994 142.385 20.2651 142.219 20.0709C142.053 19.8721 141.798 19.7016 141.452 19.5596C141.111 19.4128 140.675 19.2778 140.145 19.1547L138.625 18.7996C137.366 18.5108 136.374 18.0444 135.649 17.4005C134.925 16.7518 134.565 15.8758 134.57 14.7726C134.565 13.873 134.807 13.0847 135.294 12.4076C135.782 11.7305 136.457 11.2026 137.318 10.8238C138.18 10.445 139.163 10.2556 140.266 10.2556C141.393 10.2556 142.371 10.4473 143.199 10.8309C144.032 11.2097 144.679 11.7423 145.138 12.4289C145.597 13.1154 145.832 13.9109 145.841 14.8152H142.475ZM151.289 18.7783V24.9999H147.816V10.4544H151.175V16.0937H151.296C151.542 15.4213 151.944 14.8957 152.503 14.5169C153.067 14.1382 153.755 13.9488 154.57 13.9488C155.337 13.9488 156.005 14.1192 156.573 14.4601C157.141 14.7963 157.581 15.2722 157.894 15.8877C158.211 16.5032 158.367 17.2229 158.362 18.0468V24.9999H154.889V18.7286C154.894 18.1225 154.743 17.649 154.435 17.3081C154.127 16.9672 153.694 16.7968 153.135 16.7968C152.771 16.7968 152.449 16.8773 152.169 17.0383C151.895 17.1945 151.679 17.4194 151.523 17.713C151.371 18.0065 151.293 18.3616 151.289 18.7783ZM165.623 25.2059C164.477 25.2059 163.492 24.9715 162.668 24.5027C161.849 24.0293 161.217 23.3711 160.772 22.5283C160.332 21.6808 160.111 20.6983 160.111 19.5809C160.111 18.4587 160.332 17.4762 160.772 16.6334C161.217 15.7859 161.849 15.1277 162.668 14.659C163.492 14.1855 164.477 13.9488 165.623 13.9488C166.769 13.9488 167.751 14.1855 168.57 14.659C169.394 15.1277 170.026 15.7859 170.467 16.6334C170.912 17.4762 171.134 18.4587 171.134 19.5809C171.134 20.6983 170.912 21.6808 170.467 22.5283C170.026 23.3711 169.394 24.0293 168.57 24.5027C167.751 24.9715 166.769 25.2059 165.623 25.2059ZM165.644 22.5851C166.061 22.5851 166.413 22.4573 166.702 22.2016C166.991 21.9459 167.211 21.5908 167.363 21.1363C167.519 20.6817 167.597 20.1561 167.597 19.5596C167.597 18.9535 167.519 18.4232 167.363 17.9687C167.211 17.5141 166.991 17.159 166.702 16.9033C166.413 16.6476 166.061 16.5198 165.644 16.5198C165.213 16.5198 164.849 16.6476 164.55 16.9033C164.257 17.159 164.032 17.5141 163.876 17.9687C163.724 18.4232 163.648 18.9535 163.648 19.5596C163.648 20.1561 163.724 20.6817 163.876 21.1363C164.032 21.5908 164.257 21.9459 164.55 22.2016C164.849 22.4573 165.213 22.5851 165.644 22.5851ZM172.913 29.0908V14.0908H176.351V15.9587H176.457C176.599 15.6273 176.801 15.3077 177.061 14.9999C177.326 14.6921 177.662 14.4412 178.069 14.2471C178.481 14.0482 178.974 13.9488 179.547 13.9488C180.304 13.9488 181.012 14.1476 181.67 14.5454C182.333 14.9431 182.868 15.5562 183.275 16.3848C183.683 17.2134 183.886 18.2693 183.886 19.5525C183.886 20.7883 183.69 21.8228 183.297 22.6561C182.909 23.4895 182.383 24.1145 181.72 24.5311C181.062 24.9478 180.33 25.1561 179.525 25.1561C178.976 25.1561 178.5 25.0662 178.098 24.8863C177.695 24.7063 177.357 24.4696 177.082 24.176C176.812 23.8825 176.604 23.5676 176.457 23.2314H176.386V29.0908H172.913ZM176.315 19.5454C176.315 20.1325 176.393 20.6438 176.55 21.0794C176.711 21.5151 176.94 21.8536 177.239 22.0951C177.542 22.3318 177.904 22.4502 178.325 22.4502C178.751 22.4502 179.114 22.3318 179.412 22.0951C179.71 21.8536 179.935 21.5151 180.087 21.0794C180.243 20.6438 180.321 20.1325 180.321 19.5454C180.321 18.9582 180.243 18.4492 180.087 18.0184C179.935 17.5875 179.71 17.2537 179.412 17.0169C179.118 16.7802 178.756 16.6618 178.325 16.6618C177.899 16.6618 177.537 16.7778 177.239 17.0098C176.94 17.2419 176.711 17.5733 176.55 18.0042C176.393 18.435 176.315 18.9488 176.315 19.5454Z" fill="white"/>
<path fill-rule="evenodd" clip-rule="evenodd" d="M7.99679 13.4053C7.99679 15.6132 6.20622 17.4037 3.99835 17.4037C1.79058 17.4037 0 15.6132 0 13.4053H7.99679ZM39.9938 13.4053C39.9938 15.6132 38.2032 17.4037 35.9955 17.4037C33.7876 17.4037 31.9971 15.6132 31.9971 13.4053H39.9938Z" fill="#FF902A"/>
<path fill-rule="evenodd" clip-rule="evenodd" d="M9.70505 0L0 13.4053H8.00017L13.8663 0H10.0361C9.83284 0 9.65134 0.0932837 9.5318 0.239256L9.70505 0Z" fill="#019934"/>
<path fill-rule="evenodd" clip-rule="evenodd" d="M13.8652 0L7.99911 13.4053H15.9991L18.0263 0H13.8652Z" fill="white"/>
<path fill-rule="evenodd" clip-rule="evenodd" d="M18.0272 0L16 13.4053H24.0002L22.1884 0H18.0272Z" fill="#019934"/>
<path fill-rule="evenodd" clip-rule="evenodd" d="M22.1875 0L23.9993 13.4053H31.9993L26.3487 0H22.1875Z" fill="white"/>
<path fill-rule="evenodd" clip-rule="evenodd" d="M30.178 0H26.3496L32.0003 13.4053H40.0004L30.6691 0.2236C30.5496 0.0865343 30.3738 0 30.178 0Z" fill="#019934"/>
<path fill-rule="evenodd" clip-rule="evenodd" d="M15.9958 13.4053C15.9958 15.6132 14.2053 17.4037 11.9975 17.4037C9.78961 17.4037 7.99911 15.6132 7.99911 13.4053H15.9958Z" fill="#EBEBEB"/>
<path fill-rule="evenodd" clip-rule="evenodd" d="M23.9968 13.4053C23.9968 15.6132 22.2062 17.4037 19.9984 17.4037C17.7906 17.4037 16 15.6132 16 13.4053H23.9968Z" fill="#FF902A"/>
<path fill-rule="evenodd" clip-rule="evenodd" d="M31.9936 13.4053C31.9936 15.6132 30.203 17.4037 27.9952 17.4037C25.7872 17.4037 23.9969 15.6132 23.9969 13.4053H31.9936Z" fill="#EBEBEB"/>
<path fill-rule="evenodd" clip-rule="evenodd" d="M24.4179 23.2765C27.7653 19.9308 32.5078 18.8272 36.7756 19.9659C37.9148 24.2316 36.8108 28.9718 33.4635 32.3175C31.0633 34.7165 27.9459 35.9621 24.8008 36.0555C24.3366 36.0516 23.9613 35.674 23.9613 35.2088C23.9613 35.161 23.9653 35.1143 23.9729 35.0687C24.9635 31.4174 26.9067 28.1578 29.5192 25.5732C25.5217 27.6429 22.4533 31.2585 21.1059 35.6282C19.9665 31.3624 21.0705 26.6222 24.4179 23.2765Z" fill="#FF902A"/>
<path fill-rule="evenodd" clip-rule="evenodd" d="M6.70159 16.3502C6.60727 16.4369 6.50874 16.5191 6.40645 16.5964C5.82622 17.3633 4.97598 17.9145 3.9973 18.1085V28.3156C4.00386 30.4817 5.06861 32.3993 6.70159 33.5784C7.07941 33.8513 7.48779 34.0846 7.92046 34.2723C8.71398 34.6166 9.58934 34.8074 10.5093 34.8074H15.3425C13.2927 33.2809 13.1328 30.6101 13.797 28.1235C15.6741 27.6226 18.1039 27.9416 19.698 29.2026C21.1513 22.2593 28.69 16.9148 35.9944 18.8636V18.1075C35.0216 17.9134 34.1762 17.3662 33.5973 16.6054C33.5686 16.5839 33.5403 16.5622 33.5123 16.5399C32.5886 15.8075 31.9961 14.6754 31.9961 13.4053H31.9928C31.9928 15.6132 30.2022 17.4037 27.9944 17.4037C25.7865 17.4037 23.9961 15.6132 23.9961 13.4053C23.9961 15.6132 22.2055 17.4037 19.9976 17.4037C17.7899 17.4037 15.9993 15.6132 15.9993 13.4053H15.996C15.996 15.6132 14.2055 17.4037 11.9977 17.4037C9.78979 17.4037 7.99931 15.6132 7.99931 13.4053H7.99593C7.99574 14.5704 7.49707 15.6193 6.70159 16.3502ZM20.2326 34.8074C20.2503 34.7712 20.268 34.7351 20.2859 34.6989C20.2952 34.7351 20.3046 34.7713 20.314 34.8074H20.2326Z" fill="#019934"/>
<path fill-rule="evenodd" clip-rule="evenodd" d="M14.4185 28.9448C16.2397 28.4589 18.2634 28.9298 19.6918 30.3574C21.1202 31.7851 21.5913 33.8076 21.1052 35.6278C20.5302 33.7632 19.2208 32.2205 17.515 31.3373C18.6298 32.4402 19.459 33.831 19.8818 35.389C19.8851 35.4084 19.8866 35.4285 19.8866 35.4489C19.8866 35.6474 19.7266 35.8085 19.5285 35.8102C18.1864 35.7703 16.8561 35.2388 15.832 34.2151C14.4035 32.7876 13.9324 30.765 14.4185 28.9448Z" fill="#FF902A"/>
<path fill-rule="evenodd" clip-rule="evenodd" d="M19.9988 17.4036C19.0739 17.4036 18.2221 17.0893 17.5447 16.5618C18.2218 17.2258 19.0743 17.6216 20.0004 17.6216C20.9326 17.6216 21.7903 17.2207 22.4693 16.5488C21.7892 17.0842 20.9313 17.4036 19.9988 17.4036Z" fill="white"/>
</svg>
