<svg width="71" height="70" viewBox="0 0 71 70" fill="none" xmlns="http://www.w3.org/2000/svg">
<rect x="0.5" width="70" height="70" rx="35" fill="white"/>
<g clip-path="url(#clip0_1034_11004)">
<path d="M52.9915 57.0019C53.7167 57.0019 54.3096 56.4135 54.3096 55.6836V49.9414H56.6816C57.4097 49.9414 57.9999 49.3511 57.9999 48.623V23.2051C57.9999 22.477 57.4097 21.8867 56.6816 21.8867H34.0879C33.3598 21.8867 32.7695 22.477 32.7695 23.2051V48.623C32.7695 49.3511 33.3598 49.9414 34.0879 49.9414H45.3847L52.0591 56.6157C52.1815 56.7382 52.3268 56.8354 52.4868 56.9016C52.6468 56.9679 52.8183 57.002 52.9915 57.0019Z" fill="#00B6FF"/>
<path d="M52.9915 57.0019C53.7167 57.0019 54.3096 56.4135 54.3096 55.6836V49.9414H56.6816C57.4097 49.9414 58 49.3511 58 48.623V23.2051C58 22.477 57.4097 21.8867 56.6816 21.8867H45.3848V49.9414L52.0591 56.6157C52.1815 56.7382 52.3269 56.8354 52.4869 56.9016C52.6469 56.9679 52.8183 57.002 52.9915 57.0019Z" fill="#4893FF"/>
<path d="M50.8985 41.2408L48.4166 31.3129C48.2481 30.636 47.8577 30.0351 47.3078 29.606C46.7579 29.1768 46.08 28.9442 45.3825 28.9453C44.6851 28.9445 44.0075 29.1772 43.4578 29.6063C42.9081 30.0354 42.518 30.6363 42.3496 31.313L39.8678 41.2408C39.6912 41.9472 40.1207 42.6629 40.8271 42.8395C41.5335 43.0161 42.2493 42.5866 42.4258 41.8803L42.8822 40.0547H47.8842L48.3405 41.8803C48.5171 42.5866 49.2329 43.0161 49.9393 42.8395C50.6456 42.6629 51.0751 41.9472 50.8985 41.2408ZM43.5413 37.418L44.9076 31.9524C44.9341 31.8463 44.9954 31.7521 45.0818 31.685C45.1681 31.6178 45.2744 31.5816 45.3838 31.5819C45.493 31.5818 45.599 31.6181 45.6851 31.6853C45.7711 31.7524 45.8322 31.8465 45.8586 31.9524L47.2249 37.418H43.5413Z" fill="#F5FAFF"/>
<path d="M18.0084 47.1152C17.2833 47.1152 16.6904 46.5268 16.6904 45.7968V40.0547H14.3184C13.5903 40.0547 13 39.4644 13 38.7363V13.3184C13 12.5903 13.5903 12 14.3184 12H36.9121C37.6401 12 38.2304 12.5903 38.2304 13.3184V38.7363C38.2304 39.4644 37.6401 40.0547 36.9121 40.0547H25.6152L18.9409 46.7291C18.8185 46.8516 18.6731 46.9487 18.5131 47.015C18.3531 47.0812 18.1816 47.1153 18.0084 47.1152Z" fill="#FFCB00"/>
<path d="M36.9121 12H25.6152V40.0547H36.9121C37.6402 40.0547 38.2304 39.4644 38.2304 38.7363V13.3184C38.2304 12.5903 37.6403 12 36.9121 12Z" fill="#FF9D22"/>
<path d="M31.6365 31.8238C30.1434 31.3809 28.7484 30.6574 27.5262 29.6921C29.1732 27.8039 30.3395 25.5455 30.9256 23.1094H31.2621C31.9902 23.1094 32.5804 22.5192 32.5804 21.7911C32.5804 21.063 31.9902 20.4727 31.2621 20.4727H26.932V18.9668C26.932 18.2387 26.3417 17.6484 25.6136 17.6484C24.8855 17.6484 24.2952 18.2387 24.2952 18.9668V20.4726H19.9652C19.2371 20.4726 18.6469 21.0629 18.6469 21.791C18.6469 22.5191 19.2371 23.1093 19.9652 23.1093H28.1959C27.6786 24.8698 26.7755 26.4734 25.6137 27.8382C25.3401 27.5047 25.1099 27.1598 24.8715 26.7965L23.8916 25.3038C23.4919 24.6952 22.6745 24.5256 22.066 24.9253C21.4573 25.3249 21.2878 26.1423 21.6874 26.7508L22.6672 28.2432C22.9929 28.739 23.348 29.2149 23.7306 29.6682C21.8927 31.0957 20.203 31.6193 19.5502 31.8364C18.8591 32.0656 18.4847 32.8117 18.7138 33.5028C18.8973 34.0562 19.4121 34.4065 19.965 34.4065C20.368 34.4065 23.0969 33.5813 25.6136 31.5367C28.1288 33.6212 30.8527 34.4065 31.2625 34.4065C31.8314 34.4065 32.3563 34.0353 32.5261 33.4622C32.7329 32.7641 32.3346 32.0305 31.6365 31.8238Z" fill="#F5FAFF"/>
<path d="M31.6381 31.8239C30.145 31.381 28.75 30.6575 27.5278 29.6922C29.1749 27.804 30.3411 25.5457 30.9273 23.1096H31.2637C31.9918 23.1096 32.5821 22.5193 32.5821 21.7912C32.5821 21.0631 31.9918 20.4728 31.2637 20.4728H26.9336V18.9669C26.9336 18.2388 26.3433 17.6486 25.6152 17.6486V23.1096H28.1975C27.6801 24.87 26.7771 26.4737 25.6152 27.8384V31.5371C28.1304 33.6216 30.8543 34.4068 31.2641 34.4068C31.8331 34.4068 32.3579 34.0357 32.5277 33.4625C32.7346 32.7643 32.3362 32.0306 31.6381 31.8239ZM48.3422 41.8804C48.5187 42.5867 49.2345 43.0162 49.9409 42.8396C50.6473 42.663 51.0768 41.9472 50.9002 41.2409L48.4184 31.313C48.2499 30.6362 47.8596 30.0354 47.3098 29.6062C46.7599 29.1771 46.0823 28.9445 45.3848 28.9454V31.5821L45.3855 31.582C45.4947 31.5819 45.6008 31.6182 45.6868 31.6854C45.7729 31.7525 45.834 31.8466 45.8603 31.9525L47.2267 37.4181H45.3848V40.0548H47.8858L48.3422 41.8804Z" fill="#DFE9EE"/>
</g>
<defs>
<clipPath id="clip0_1034_11004">
<rect width="45" height="45" fill="white" transform="translate(13 12)"/>
</clipPath>
</defs>
</svg>
