<svg width="71" height="70" viewBox="0 0 71 70" fill="none" xmlns="http://www.w3.org/2000/svg">
<rect x="0.5" width="70" height="70" rx="35" fill="white"/>
<path d="M48.3783 27.2005L45.1942 31.4776C44.9487 31.8073 44.5638 32.0033 44.1531 32.0077C43.741 32.0131 43.3534 31.8242 43.101 31.4999L39.8268 27.2917C39.3801 26.7175 39.4827 25.8893 40.056 25.4418C40.6293 24.9943 41.4563 25.097 41.903 25.6713L42.778 26.7959V21.5688C42.778 20.8408 43.3673 20.2507 44.0941 20.2507C44.8209 20.2507 45.4102 20.8408 45.4102 21.5688V26.7773L46.2681 25.6247C46.5265 25.2776 46.9228 25.0944 47.3242 25.0944C47.5978 25.0944 47.8737 25.1796 48.1099 25.3559C48.6926 25.7911 48.8128 26.617 48.3783 27.2005Z" fill="#9C1EFF"/>
<path d="M57.0775 17.9596L53.8934 13.6826C53.648 13.3529 53.263 13.1569 52.8524 13.1525C52.4403 13.147 52.0526 13.3359 51.8002 13.6603L48.5261 17.8685C48.0793 18.4427 48.1819 19.2709 48.7552 19.7184C49.3285 20.1658 50.1555 20.0631 50.6023 19.4889L51.4773 18.3643V23.5914C51.4773 24.3193 52.0665 24.9095 52.7933 24.9095C53.5201 24.9095 54.1094 24.3193 54.1094 23.5914V18.3828L54.9673 19.5353C55.2257 19.8824 55.622 20.0657 56.0234 20.0657C56.297 20.0657 56.5729 19.9805 56.8091 19.8042C57.3918 19.369 57.5119 18.5432 57.0775 17.9596Z" fill="#9C1EFF"/>
<path d="M45.4136 26.172V30.6996C45.4136 31.4261 44.8437 32.046 44.1184 32.0572C43.8225 32.0618 43.55 31.9689 43.3281 31.8087C43.6598 31.5697 43.8756 31.1796 43.8756 30.7393V25.9818C43.8756 25.5228 44.4598 25.3286 44.7337 25.6967C44.91 25.9339 45.1513 26.0947 45.4136 26.172Z" fill="#9B1CFF"/>
<path d="M54.112 19.0549V23.5812C54.112 24.3041 53.5484 24.9233 52.8267 24.9399C52.5281 24.9467 52.2509 24.8536 52.0273 24.6915C52.3581 24.4525 52.5739 24.0624 52.5739 23.6221V18.8646C52.5739 18.4056 53.1581 18.2115 53.432 18.5796C53.6084 18.8168 53.8488 18.9767 54.112 19.0549Z" fill="#9B1CFF"/>
<path d="M56.8107 19.8044C56.5747 19.9801 56.2984 20.0654 56.0255 20.0654C55.7517 20.0654 55.4806 19.981 55.2543 19.8176C55.2604 19.8132 55.2666 19.8088 55.2727 19.8044C55.8553 19.3694 55.9755 18.5434 55.5412 17.96L52.3572 13.6823C52.2756 13.5734 52.1782 13.4785 52.0703 13.4011C52.2958 13.2377 52.5695 13.1489 52.8538 13.1524C53.2644 13.1568 53.6496 13.3528 53.8952 13.6823L57.0792 17.96C57.5135 18.5435 57.3933 19.3694 56.8107 19.8044Z" fill="#9B1CFF"/>
<path d="M40.9013 33.9641C38.6586 30.9423 34.9889 28.2695 34.9889 28.2695C34.9817 28.2695 23.5142 28.2695 23.507 28.2695C23.507 28.2695 19.8373 30.9423 17.5946 33.9641C14.5041 38.1281 12.3812 44.5391 14.5224 49.6771C17.2086 56.1223 24.2154 56.9254 30.2944 56.8332C35.661 56.7519 41.716 55.094 43.9735 49.6771C46.1147 44.5391 43.9918 38.1281 40.9013 33.9641Z" fill="#9C1EFF"/>
<path d="M43.9812 49.6771C41.7237 55.0935 35.6681 56.7517 30.3012 56.8334C29.6686 56.8431 29.0255 56.8431 28.3789 56.8272C33.6703 56.6893 39.5443 54.9933 41.7597 49.6771C43.9013 44.5391 41.7781 38.128 38.688 33.9637C36.4446 30.9417 32.7754 28.2695 32.7754 28.2695H34.996C34.996 28.2695 38.6661 30.9417 40.9086 33.9637C43.9987 38.128 46.122 44.5391 43.9812 49.6771Z" fill="#9B1CFF"/>
<path d="M37.0824 16.582H21.4078C20.4624 16.582 19.714 17.3838 19.7772 18.3286C20.0557 22.4922 23.4994 24.8739 23.4994 24.8739H34.9908C34.9908 24.8739 38.4345 22.4921 38.713 18.3286C38.7764 17.3839 38.0279 16.582 37.0824 16.582Z" fill="#9C1EFF"/>
<path d="M38.715 18.3289C38.436 22.4923 34.9923 24.8746 34.9923 24.8746H32.8945C32.8945 24.8746 36.3382 22.4923 36.6163 18.3289C36.6795 17.3843 35.9311 16.582 34.9862 16.582H37.084C38.0298 16.582 38.7782 17.3843 38.715 18.3289Z" fill="#9B1CFF"/>
<path d="M23.498 24.8438H34.9894V28.2411H23.498V24.8438Z" fill="#9B1CFF"/>
<path d="M54.5778 56.8607H42.7053C41.6772 56.8607 40.8438 56.026 40.8438 54.9963V53.6493C40.8438 52.6196 41.6772 51.7849 42.7053 51.7849H54.5778C55.6059 51.7849 56.4393 52.6196 56.4393 53.6493V54.9963C56.4394 56.026 55.6059 56.8607 54.5778 56.8607Z" fill="#9C1EFF"/>
<path d="M54.5778 46.7047H42.7053C41.6772 46.7047 40.8438 45.87 40.8438 44.8403V43.4933C40.8438 42.4636 41.6772 41.6289 42.7053 41.6289H54.5778C55.6059 41.6289 56.4393 42.4636 56.4393 43.4933V44.8403C56.4394 45.87 55.6059 46.7047 54.5778 46.7047Z" fill="#9C1EFF"/>
<path d="M54.5778 51.763H42.7053C41.6772 51.763 40.8438 50.9283 40.8438 49.8987V48.5517C40.8438 47.522 41.6772 46.6873 42.7053 46.6873H54.5778C55.6059 46.6873 56.4393 47.522 56.4393 48.5517V49.8987C56.4394 50.9283 55.6059 51.763 54.5778 51.763Z" fill="#9C1EFF"/>
<path d="M54.5778 41.607H42.7053C41.6772 41.607 40.8438 40.7723 40.8438 39.7426V38.3956C40.8438 37.366 41.6772 36.5312 42.7053 36.5312H54.5778C55.6059 36.5312 56.4393 37.366 56.4393 38.3956V39.7426C56.4394 40.7722 55.6059 41.607 54.5778 41.607Z" fill="#9C1EFF"/>
<path d="M56.4356 53.6487V54.9958C56.4356 56.0256 55.6021 56.8604 54.5739 56.8604H52.748C53.7763 56.8604 54.6098 56.0256 54.6098 54.9958V53.6487C54.6098 52.6197 53.7763 51.7849 52.748 51.7849H54.5739C55.6021 51.7849 56.4356 52.6197 56.4356 53.6487Z" fill="#9B1CFF"/>
<path d="M56.4356 43.4936V44.8406C56.4356 45.8696 55.6021 46.7044 54.5739 46.7044H52.748C53.7763 46.7044 54.6098 45.8696 54.6098 44.8406V43.4936C54.6098 42.4637 53.7763 41.6289 52.748 41.6289H54.5739C55.6021 41.629 56.4356 42.4638 56.4356 43.4936Z" fill="#9B1CFF"/>
<path d="M40.2499 48.5519V49.899C40.2499 50.9289 41.0834 51.7637 42.1117 51.7637H43.9375C42.9092 51.7637 42.0757 50.9289 42.0757 49.899V48.5519C42.0757 47.522 42.9092 46.6873 43.9375 46.6873H42.1117C41.0834 46.6873 40.2499 47.522 40.2499 48.5519Z" fill="#9B1CFF"/>
<path d="M40.4941 38.395V39.7421C40.4941 40.772 41.3276 41.6068 42.3558 41.6068H44.1816C43.1534 41.6068 42.3199 40.772 42.3199 39.7421V38.395C42.3199 37.366 43.1534 36.5312 44.1816 36.5312H42.3558C41.3276 36.5313 40.4941 37.3661 40.4941 38.395Z" fill="#9B1CFF"/>
<path d="M24.7617 43.8777C24.7617 44.2417 25.0563 44.5368 25.4197 44.5368H26.8235C27.6472 46.9039 29.8967 48.6078 32.5374 48.6078C32.7423 48.6078 32.9464 48.5973 33.1443 48.5767C33.5058 48.5391 33.7684 48.2152 33.7309 47.8532C33.6934 47.4912 33.3704 47.2277 33.0085 47.2657C32.8556 47.2816 32.6972 47.2896 32.5375 47.2896C30.6359 47.2896 28.9936 46.1603 28.2414 44.5367H31.7422C32.1057 44.5367 32.4003 44.2416 32.4003 43.8777C32.4003 43.5137 32.1057 43.2186 31.7422 43.2186H27.8514C27.8202 42.9994 27.8031 42.7757 27.8031 42.548C27.8031 42.3202 27.8202 42.0965 27.8514 41.8772H31.7422C32.1057 41.8772 32.4002 41.5822 32.4002 41.2182C32.4002 40.8542 32.1057 40.5592 31.7422 40.5592H28.2413C28.9935 38.9356 30.6358 37.8064 32.5374 37.8064C32.9009 37.8064 33.1954 37.5113 33.1954 37.1473C33.1954 36.7834 32.9009 36.4883 32.5374 36.4883C29.8967 36.4883 27.6472 38.192 26.8235 40.5592H25.4197C25.0563 40.5592 24.7617 40.8542 24.7617 41.2182C24.7617 41.5822 25.0563 41.8772 25.4197 41.8772H26.525C26.5006 42.0976 26.4871 42.3212 26.4871 42.548C26.4871 42.7747 26.5007 42.9983 26.525 43.2186H25.4197C25.0563 43.2187 24.7617 43.5138 24.7617 43.8777Z" fill="white"/>
</svg>
