<svg width="71" height="70" viewBox="0 0 71 70" fill="none" xmlns="http://www.w3.org/2000/svg">
<rect x="0.5" width="70" height="70" rx="35" fill="white"/>
<path d="M48.1886 55.6892H22.8321C22.7993 55.6645 22.7629 55.645 22.7242 55.6312C20.7722 55.1336 19.7606 53.8411 19.7617 51.8386C19.7617 46.3792 19.7635 40.9199 19.7671 35.4605C19.7671 30.5903 19.77 25.7194 19.7757 20.8478C19.7757 19.9833 19.9688 19.1832 20.4875 18.4721C21.6469 16.8847 23.3098 16.8911 25.0537 17.0209C25.0537 17.51 25.0537 17.9765 25.0537 18.4431C25.0763 20.4585 26.4352 21.8013 28.4659 21.8024C33.1759 21.8024 37.8851 21.8024 42.5936 21.8024C44.6298 21.8024 46.0037 20.4252 46.0059 18.397C46.0059 17.9336 46.0059 17.4713 46.0059 17.0134C46.7608 17.0134 47.4693 16.9308 48.152 17.0295C50.0102 17.2987 51.2493 18.7874 51.2493 20.659C51.2493 28.31 51.2464 35.9639 51.2407 43.6206C51.2407 46.3771 51.2385 49.1336 51.2342 51.8901C51.2342 53.2062 50.7521 54.3045 49.6359 55.0435C49.2056 55.332 48.675 55.4779 48.1886 55.6892ZM40.2458 45.0857C38.8331 45.0857 37.4203 45.0857 36.0086 45.0857C35.2688 45.0857 34.7145 45.622 34.7145 46.2902C34.7145 46.9584 35.2731 47.4915 36.0086 47.4926C38.8201 47.499 41.6317 47.5054 44.4432 47.4808C44.7741 47.465 45.0922 47.3486 45.3545 47.1472C45.7546 46.834 45.8527 46.3707 45.678 45.8773C45.5076 45.4021 45.0482 45.0889 44.4831 45.0857C43.0703 45.0857 41.6586 45.0857 40.2458 45.0857ZM40.2361 31.4394C41.6381 31.4394 43.0347 31.4459 44.4335 31.4394C45.1884 31.4394 45.7114 30.93 45.7093 30.2306C45.7071 29.5313 45.1862 29.0337 44.4238 29.0326C41.6252 29.0272 38.8266 29.024 36.028 29.0401C35.7486 29.0494 35.4763 29.1303 35.2375 29.275C34.7867 29.5506 34.6282 30.0783 34.7781 30.5749C34.9355 31.0994 35.3939 31.433 35.9978 31.4394C37.4084 31.4448 38.8212 31.4394 40.2361 31.4394ZM40.2361 39.4698C41.6489 39.4698 43.0617 39.4783 44.4745 39.4698C45.2035 39.4633 45.7114 38.9463 45.7093 38.262C45.7124 38.104 45.6833 37.9469 45.6237 37.8003C45.5642 37.6537 45.4754 37.5207 45.3627 37.4091C45.2501 37.2976 45.1159 37.2099 44.9682 37.1513C44.8206 37.0927 44.6625 37.0645 44.5036 37.0683C41.6514 37.0568 38.7989 37.0568 35.9461 37.0683C35.6882 37.0649 35.4361 37.1437 35.2266 37.2934C35.0172 37.443 34.8615 37.6554 34.7824 37.8995C34.5247 38.6954 35.1059 39.4622 35.9957 39.4698C37.4084 39.4783 38.8212 39.4698 40.2361 39.4698ZM27.9774 29.8381C27.7067 29.5303 27.5223 29.2814 27.299 29.0733C27.0809 28.8597 26.7882 28.7381 26.4821 28.7342C26.176 28.7302 25.8802 28.844 25.6565 29.0519C25.5394 29.1542 25.444 29.2787 25.376 29.4183C25.308 29.5578 25.2687 29.7094 25.2606 29.8643C25.2524 30.0191 25.2756 30.174 25.3286 30.3198C25.3816 30.4656 25.4634 30.5994 25.5692 30.7133C26.0858 31.2743 26.6304 31.8138 27.1955 32.3275C27.3012 32.4327 27.4271 32.5158 27.5657 32.5717C27.7043 32.6276 27.8528 32.6553 28.0023 32.6531C28.1519 32.6509 28.2995 32.6189 28.4364 32.5589C28.5732 32.4989 28.6966 32.4122 28.7992 32.3039C30.0466 31.0883 31.2817 29.8588 32.5047 28.6153C32.6123 28.504 32.6966 28.3726 32.753 28.2287C32.8093 28.0848 32.8365 27.9312 32.833 27.7768C32.8295 27.6225 32.7953 27.4703 32.7325 27.3291C32.6697 27.1879 32.5795 27.0604 32.467 26.9539C32.3536 26.8437 32.2194 26.7569 32.0721 26.6985C31.9248 26.6402 31.7674 26.6114 31.6088 26.6139C31.4503 26.6164 31.2938 26.6501 31.1485 26.713C31.0031 26.776 30.8717 26.867 30.7619 26.9808C30.0868 27.6329 29.4257 28.2989 28.7668 28.9661C28.5123 29.2181 28.2826 29.4959 27.9752 29.8381H27.9774ZM27.9439 38.4186C27.711 38.1591 27.5223 37.9113 27.2969 37.7054C27.0695 37.4849 26.7633 37.3633 26.4458 37.3673C26.1283 37.3714 25.8254 37.5007 25.6037 37.7268C25.382 37.953 25.2598 38.2574 25.2638 38.5732C25.2679 38.889 25.3979 39.1903 25.6253 39.4108C26.1084 39.9113 26.6023 40.4029 27.1071 40.8855C27.6463 41.4025 28.3322 41.41 28.8692 40.8855C30.075 39.7057 31.2677 38.5077 32.4605 37.3128C32.5988 37.1844 32.7035 37.0244 32.7655 36.8467C32.8275 36.6689 32.845 36.4788 32.8164 36.2928C32.7463 35.8166 32.4842 35.4691 32.0216 35.3275C31.8049 35.249 31.5698 35.2356 31.3455 35.2888C31.1212 35.342 30.9175 35.4595 30.7598 35.6267L27.9439 38.4186ZM27.9547 46.4372C27.7455 46.2098 27.5686 45.9931 27.368 45.8001C26.8288 45.2799 26.0868 45.2702 25.6069 45.7657C25.127 46.2613 25.1518 46.9606 25.6673 47.4872C26.1267 47.957 26.5941 48.4218 27.0693 48.8816C27.6592 49.4522 28.3289 49.4511 28.9199 48.8751C29.5109 48.2991 30.1192 47.6856 30.7166 47.0904C31.3141 46.4951 31.9029 45.9245 32.4799 45.3281C32.6696 45.1443 32.792 44.9026 32.8276 44.6415C32.8632 44.3805 32.8099 44.1151 32.6762 43.8877C32.5578 43.6674 32.3688 43.4927 32.1393 43.3912C31.9098 43.2898 31.6528 43.2675 31.409 43.3278C31.1404 43.4024 30.8952 43.5433 30.6961 43.7375C29.7827 44.6063 28.8984 45.5008 27.9526 46.4404L27.9547 46.4372Z" fill="#9A19FF"/>
<path d="M35.5139 19.3918H28.4522C27.7447 19.3918 27.4525 19.1012 27.4492 18.3922C27.4492 17.4555 27.4492 16.5191 27.4492 15.5831C27.4492 14.8699 27.7415 14.5781 28.4468 14.5781H42.6101C43.3176 14.5781 43.5926 14.843 43.5958 15.537C43.6001 16.5145 43.6001 17.4909 43.5958 18.4662C43.5958 19.1097 43.3046 19.3918 42.6565 19.3918H35.5139Z" fill="#9A19FF"/>
</svg>
