<svg width="57" height="57" viewBox="0 0 57 57" fill="none" xmlns="http://www.w3.org/2000/svg">
<rect x="0.839844" y="0.5" width="56" height="56" rx="8" fill="#FF7C03" fill-opacity="0.07"/>
<rect x="1.33984" y="1" width="55" height="55" rx="7.5" stroke="#FF7C03" stroke-opacity="0.15"/>
<g clip-path="url(#clip0_1029_3642)">
<path d="M29.7694 15.3143L30.5276 17.6476H32.9808C33.0768 17.6476 33.1704 17.678 33.2481 17.7344C33.3258 17.7909 33.3836 17.8705 33.4133 17.9618C33.443 18.0531 33.443 18.1515 33.4133 18.2428C33.3837 18.3341 33.3258 18.4137 33.2482 18.4702L31.2633 19.9124L32.0215 22.2456C32.0512 22.337 32.0512 22.4354 32.0215 22.5267C31.9918 22.618 31.934 22.6976 31.8563 22.7541C31.7786 22.8105 31.685 22.8409 31.589 22.8409C31.4929 22.8409 31.3994 22.8105 31.3217 22.754L29.3369 21.3118L27.3522 22.754C27.2745 22.8105 27.1809 22.8409 27.0849 22.8409C26.9889 22.8409 26.8953 22.8105 26.8176 22.7541C26.7399 22.6976 26.6821 22.618 26.6524 22.5267C26.6227 22.4354 26.6227 22.337 26.6524 22.2456L27.4105 19.9122L25.4257 18.4701C25.348 18.4136 25.2902 18.334 25.2606 18.2427C25.2309 18.1513 25.2309 18.053 25.2606 17.9616C25.2903 17.8703 25.3481 17.7907 25.4258 17.7343C25.5035 17.6778 25.597 17.6474 25.6931 17.6474H28.1463L28.9044 15.3142C28.9341 15.2228 28.992 15.1432 29.0697 15.0868C29.1474 15.0304 29.241 15 29.337 15C29.433 15 29.5266 15.0304 29.6043 15.0869C29.682 15.1434 29.7398 15.223 29.7694 15.3143ZM20.6285 19.5778L21.2288 21.4262H23.1723C23.2483 21.4262 23.3224 21.4503 23.3839 21.495C23.4454 21.5397 23.4912 21.6027 23.5147 21.6751C23.5382 21.7474 23.5382 21.8253 23.5148 21.8976C23.4913 21.9699 23.4456 22.033 23.3841 22.0777L21.8118 23.2197L22.4121 25.0681C22.4355 25.1404 22.4355 25.2183 22.412 25.2907C22.3884 25.363 22.3426 25.426 22.2811 25.4707C22.2195 25.5154 22.1454 25.5395 22.0694 25.5395C21.9933 25.5395 21.9192 25.5154 21.8577 25.4707L20.2854 24.3283L18.713 25.4707C18.6515 25.5154 18.5774 25.5394 18.5014 25.5394C18.4253 25.5394 18.3512 25.5153 18.2897 25.4706C18.2282 25.426 18.1824 25.3629 18.1588 25.2906C18.1353 25.2183 18.1353 25.1404 18.1587 25.0681L18.759 23.2197L17.1867 22.0777C17.1252 22.033 17.0795 21.9699 17.056 21.8976C17.0326 21.8253 17.0326 21.7474 17.0561 21.6751C17.0796 21.6028 17.1253 21.5398 17.1868 21.495C17.2483 21.4503 17.3224 21.4262 17.3984 21.4262H19.3419L19.9422 19.5778C19.9654 19.505 20.0112 19.4415 20.0729 19.3964C20.1345 19.3514 20.209 19.3271 20.2854 19.3271C20.3618 19.3271 20.4362 19.3514 20.4979 19.3964C20.5595 19.4415 20.6053 19.505 20.6285 19.5778ZM15.8904 27.1912L16.4907 29.0396H18.4344C18.5105 29.0396 18.5845 29.0637 18.646 29.1084C18.7075 29.1531 18.7533 29.2162 18.7768 29.2885C18.8003 29.3608 18.8003 29.4387 18.7768 29.511C18.7534 29.5833 18.7076 29.6463 18.6461 29.6911L17.0738 30.8331L17.6741 32.6815C17.6976 32.7538 17.6975 32.8317 17.674 32.904C17.6505 32.9763 17.6047 33.0393 17.5431 33.084C17.4816 33.1287 17.4075 33.1528 17.3315 33.1528C17.2554 33.1528 17.1813 33.1288 17.1198 33.0841L15.5478 31.9423L13.9755 33.0847C13.9139 33.1294 13.8398 33.1535 13.7638 33.1535C13.6877 33.1535 13.6136 33.1294 13.5521 33.0847C13.4905 33.04 13.4447 32.977 13.4212 32.9046C13.3976 32.8323 13.3976 32.7544 13.4211 32.682L14.0214 30.8337L12.4491 29.6917C12.3876 29.6469 12.3418 29.5839 12.3184 29.5116C12.2949 29.4392 12.2949 29.3613 12.3184 29.289C12.3419 29.2167 12.3877 29.1537 12.4492 29.109C12.5107 29.0643 12.5848 29.0402 12.6608 29.0401H14.6046L15.2049 27.1918C15.2283 27.1193 15.274 27.0561 15.3356 27.0112C15.3971 26.9664 15.4713 26.9422 15.5474 26.9421C15.6236 26.9421 15.6978 26.9661 15.7594 27.0109C15.821 27.0556 15.8669 27.1188 15.8904 27.1912ZM43.4157 27.1912L44.016 29.0396H45.9597C46.0358 29.0396 46.1098 29.0637 46.1713 29.1084C46.2328 29.1531 46.2786 29.2162 46.3021 29.2885C46.3256 29.3608 46.3256 29.4387 46.3021 29.511C46.2787 29.5833 46.2329 29.6463 46.1715 29.6911L44.5991 30.8331L45.1994 32.6815C45.2229 32.7538 45.2228 32.8317 45.1993 32.904C45.1758 32.9763 45.13 33.0393 45.0685 33.084C45.0069 33.1287 44.9328 33.1528 44.8568 33.1528C44.7807 33.1528 44.7066 33.1288 44.6451 33.0841L43.0728 31.9417L41.5008 33.0847C41.4392 33.1294 41.3651 33.1535 41.2891 33.1535C41.213 33.1535 41.1389 33.1294 41.0774 33.0847C41.0158 33.04 40.97 32.977 40.9465 32.9046C40.923 32.8323 40.9229 32.7544 40.9464 32.682L41.5467 30.8337L39.9744 29.6917C39.9129 29.6469 39.8671 29.5839 39.8437 29.5116C39.8202 29.4392 39.8202 29.3613 39.8437 29.289C39.8672 29.2167 39.913 29.1537 39.9745 29.109C40.036 29.0643 40.1101 29.0402 40.1862 29.0401H42.1296L42.7299 27.1918C42.7532 27.1192 42.799 27.0559 42.8605 27.0109C42.9221 26.966 42.9964 26.9418 43.0726 26.9417C43.1488 26.9416 43.2231 26.9657 43.2848 27.0106C43.3464 27.0554 43.3923 27.1186 43.4157 27.1912ZM38.7305 19.5778L39.3308 21.4262H41.2746C41.3506 21.4262 41.4247 21.4503 41.4862 21.495C41.5477 21.5398 41.5934 21.6028 41.6169 21.6751C41.6404 21.7474 41.6404 21.8253 41.617 21.8976C41.5935 21.9699 41.5478 22.033 41.4863 22.0777L39.914 23.2197L40.5143 25.0681C40.5377 25.1404 40.5377 25.2183 40.5142 25.2906C40.4906 25.3629 40.4448 25.426 40.3833 25.4706C40.3218 25.5153 40.2477 25.5394 40.1716 25.5394C40.0956 25.5394 40.0215 25.5154 39.96 25.4707L38.3876 24.3283L36.8156 25.4713C36.7541 25.516 36.68 25.5401 36.6039 25.5401C36.5279 25.5401 36.4538 25.516 36.3922 25.4713C36.3307 25.4266 36.2848 25.3636 36.2613 25.2913C36.2378 25.2189 36.2378 25.141 36.2612 25.0687L36.8615 23.2203L35.2892 22.0783C35.2277 22.0335 35.182 21.9705 35.1585 21.8982C35.1351 21.8258 35.1351 21.748 35.1586 21.6756C35.1821 21.6033 35.2279 21.5403 35.2894 21.4956C35.3509 21.4509 35.425 21.4268 35.501 21.4268H37.4445L38.0447 19.5784C38.0681 19.5058 38.1138 19.4425 38.1754 19.3976C38.2369 19.3526 38.3112 19.3284 38.3874 19.3283C38.4637 19.3282 38.538 19.3524 38.5996 19.3972C38.6613 19.442 38.7071 19.5053 38.7305 19.5778Z" fill="#FF7C03"/>
<path d="M20.8398 32H25.8398V41H20.8398V32Z" fill="#019934"/>
<path d="M36.6398 31.76H31.8398V27.92C31.8398 27.4108 31.6502 26.9224 31.3126 26.5624C30.9751 26.2023 30.5172 26 30.0398 26H28.8398L28.6193 27.6466C28.5023 28.5209 28.1882 29.3518 27.7041 30.0682C27.22 30.7846 26.5803 31.3651 25.8398 31.76V40.72L26.3837 41.1068C27.2028 41.6892 28.1651 42 29.1494 42H36.0398C36.3581 42 36.6633 41.8651 36.8884 41.6251C37.1134 41.385 37.2398 41.0595 37.2398 40.72C37.2398 40.3805 37.1134 40.0549 36.8884 39.8149C36.6633 39.5749 36.3581 39.44 36.0398 39.44C36.3581 39.44 36.6633 39.3051 36.8884 39.0651C37.1134 38.825 37.2398 38.4995 37.2398 38.16C37.2398 37.8205 37.1134 37.4949 36.8884 37.2549C36.6633 37.0149 36.3581 36.88 36.0398 36.88C36.3581 36.88 36.6633 36.7451 36.8884 36.5051C37.1134 36.265 37.2398 35.9395 37.2398 35.6C37.2398 35.2605 37.1134 34.9349 36.8884 34.6949C36.6633 34.4549 36.3581 34.32 36.0398 34.32H36.6398C36.9581 34.32 37.2633 34.1851 37.4884 33.9451C37.7134 33.705 37.8398 33.3795 37.8398 33.04C37.8398 32.7005 37.7134 32.3749 37.4884 32.1349C37.2633 31.8949 36.9581 31.76 36.6398 31.76Z" fill="#FFB067"/>
</g>
<defs>
<clipPath id="clip0_1029_3642">
<rect width="35" height="35" fill="white" transform="translate(11.8398 11)"/>
</clipPath>
</defs>
</svg>
