<svg width="71" height="70" viewBox="0 0 71 70" fill="none" xmlns="http://www.w3.org/2000/svg">
<rect x="0.5" width="70" height="70" rx="35" fill="white"/>
<path d="M35.4044 39.7618C41.8379 39.7618 47.3312 40.7817 47.3312 44.8632C47.3312 48.9429 41.8732 50 35.4044 50C28.971 50 23.4777 48.9801 23.4777 44.9003C23.4777 40.8189 28.9357 39.7618 35.4044 39.7618ZM45.6908 37.3041C48.1503 37.2586 50.7946 37.5963 51.7717 37.8361C53.8417 38.243 55.2033 39.0738 55.7674 40.2812C56.2442 41.2724 56.2442 42.4224 55.7674 43.4119C54.9045 45.2846 52.1226 45.8858 51.0414 46.0412C50.8181 46.0749 50.6384 45.8807 50.6619 45.6561C51.2143 40.467 46.8206 38.0066 45.684 37.4409C45.6354 37.4156 45.6253 37.3768 45.6303 37.3531C45.6337 37.3362 45.6538 37.3092 45.6908 37.3041ZM25.3105 37.3048C25.3474 37.3099 25.3659 37.3369 25.3693 37.3521C25.3743 37.3774 25.3642 37.4146 25.3172 37.4416C24.1789 38.0073 19.7853 40.4676 20.3377 45.6551C20.3612 45.8814 20.1832 46.0739 19.9599 46.0418C18.8787 45.8865 16.0968 45.2853 15.2339 43.4126C14.7554 42.4214 14.7554 41.2731 15.2339 40.2819C15.798 39.0745 17.1579 38.2437 19.2279 37.8351C20.2067 37.597 22.8493 37.2592 25.3105 37.3048ZM35.4044 20C39.7846 20 43.2968 23.5293 43.2968 27.9366C43.2968 32.3423 39.7846 35.8749 35.4044 35.8749C31.0242 35.8749 27.512 32.3423 27.512 27.9366C27.512 23.5293 31.0242 20 35.4044 20ZM46.1189 21.3236C50.3497 21.3236 53.6722 25.3273 52.5406 29.787C51.7767 32.7894 49.0116 34.7837 45.9308 34.7026C45.6219 34.6942 45.3181 34.6655 45.0242 34.6148C44.811 34.5777 44.7036 34.3362 44.8245 34.1572C45.9997 32.4179 46.6695 30.3257 46.6695 28.0798C46.6695 25.736 45.9376 23.5509 44.6666 21.7592C44.6264 21.7035 44.5961 21.6174 44.6364 21.5532C44.67 21.5009 44.7321 21.4738 44.7909 21.4603C45.219 21.3725 45.6589 21.3236 46.1189 21.3236ZM24.8799 21.3234C25.3399 21.3234 25.7797 21.3724 26.2095 21.4602C26.2666 21.4737 26.3304 21.5024 26.364 21.553C26.4026 21.6172 26.3741 21.7033 26.3338 21.7591C25.0629 23.5507 24.3309 25.7358 24.3309 28.0796C24.3309 30.3255 25.0007 32.4177 26.176 34.157C26.2968 34.336 26.1894 34.5775 25.9762 34.6147C25.6807 34.667 25.3785 34.694 25.0696 34.7025C21.9888 34.7835 19.2237 32.7892 18.4598 29.7868C17.3266 25.3271 20.6491 21.3234 24.8799 21.3234Z" fill="#263EF4"/>
</svg>
