<svg width="56" height="57" viewBox="0 0 56 57" fill="none" xmlns="http://www.w3.org/2000/svg">
<rect y="0.5" width="56" height="56" rx="8" fill="#3B58FB" fill-opacity="0.1"/>
<rect x="0.5" y="1" width="55" height="55" rx="7.5" stroke="#3B58FB" stroke-opacity="0.15"/>
<g clip-path="url(#clip0_1029_3653)">
<path fill-rule="evenodd" clip-rule="evenodd" d="M28.7148 16.124L29.8169 19.0268C29.8323 19.0689 29.8599 19.1054 29.8961 19.1317C29.9324 19.1581 29.9757 19.173 30.0204 19.1746L33.1217 19.3258C33.1684 19.3275 33.2133 19.3437 33.2504 19.3721C33.2875 19.4004 33.3149 19.4396 33.3289 19.4842C33.3438 19.5284 33.3447 19.5762 33.3313 19.621C33.318 19.6657 33.2911 19.7052 33.2544 19.7341L30.8342 21.6793C30.799 21.7069 30.7728 21.7444 30.7589 21.787C30.7451 21.8296 30.7442 21.8754 30.7565 21.9184L31.5711 24.9146C31.5966 25.0085 31.5632 25.1034 31.4845 25.1606C31.4058 25.2177 31.3052 25.2202 31.2238 25.167L28.6259 23.4664C28.5887 23.4414 28.5449 23.428 28.5001 23.428C28.4554 23.428 28.4116 23.4414 28.3744 23.4664L25.7766 25.167C25.7378 25.193 25.6919 25.2063 25.6453 25.2052C25.5986 25.204 25.5534 25.1885 25.516 25.1606C25.4779 25.1336 25.4491 25.0954 25.4336 25.0514C25.4181 25.0073 25.4166 24.9596 25.4293 24.9146L26.2439 21.9184C26.2562 21.8754 26.2553 21.8296 26.2415 21.787C26.2277 21.7444 26.2014 21.7069 26.1662 21.6793L23.7461 19.7341C23.7093 19.7053 23.6824 19.6657 23.6691 19.621C23.6557 19.5762 23.6566 19.5284 23.6716 19.4842C23.6855 19.4396 23.7129 19.4004 23.75 19.3721C23.7871 19.3437 23.8321 19.3275 23.8787 19.3258L26.98 19.1746C27.0248 19.173 27.068 19.1581 27.1043 19.1317C27.1405 19.1054 27.1681 19.0689 27.1834 19.0268L28.2855 16.124C28.3201 16.033 28.4029 15.9759 28.5002 15.9759C28.5975 15.9759 28.6803 16.033 28.7148 16.124ZM22.7085 15.2108L24.6483 16.9574C24.756 17.0535 24.8975 17.1031 25.0417 17.0951C25.1859 17.0872 25.321 17.0225 25.4176 16.9152C25.5142 16.8078 25.5644 16.6666 25.5571 16.5224C25.5498 16.3782 25.4857 16.2427 25.3788 16.1456L23.4391 14.399C23.3313 14.3029 23.1898 14.2533 23.0457 14.2612C22.9015 14.2692 22.7663 14.3339 22.6697 14.4412C22.5731 14.5485 22.5229 14.6898 22.5302 14.834C22.5375 14.9782 22.6016 15.1137 22.7085 15.2108ZM33.5612 14.399L31.6101 16.1558C31.5032 16.2529 31.4391 16.3884 31.4318 16.5326C31.4246 16.6768 31.4747 16.818 31.5713 16.9254C31.6679 17.0327 31.8031 17.0974 31.9473 17.1053C32.0915 17.1132 32.2329 17.0637 32.3407 16.9676L34.2918 15.2108C34.3987 15.1137 34.4628 14.9782 34.4701 14.834C34.4774 14.6898 34.4272 14.5485 34.3306 14.4412C34.234 14.3339 34.0988 14.2692 33.9546 14.2612C33.8105 14.2533 33.669 14.3029 33.5612 14.399ZM29.0471 13.9445C29.0471 14.0895 28.9894 14.2286 28.8869 14.3312C28.7843 14.4337 28.6452 14.4913 28.5002 14.4913C28.3551 14.4913 28.216 14.4337 28.1135 14.3312C28.0109 14.2286 27.9533 14.0895 27.9533 13.9445V11.9375C27.9533 11.7925 28.0109 11.6534 28.1135 11.5508C28.216 11.4482 28.3551 11.3906 28.5002 11.3906C28.6452 11.3906 28.7843 11.4482 28.8869 11.5508C28.9894 11.6534 29.0471 11.7925 29.0471 11.9375V13.9445ZM28.5002 26.9217C30.6193 26.9217 32.3371 28.6395 32.3371 30.7585C32.3371 32.8776 30.6193 34.5955 28.5002 34.5955C26.3811 34.5955 24.6633 32.8776 24.6633 30.7585C24.6633 28.6395 26.3811 26.9217 28.5002 26.9217ZM36.0451 42.0512C35.6377 38.2442 32.4153 35.2791 28.5002 35.2791C24.585 35.2791 21.3626 38.2442 20.9552 42.0513V43.5852C20.9552 44.7021 21.8662 45.6132 22.9832 45.6132H34.0171C35.1341 45.6132 36.0451 44.7021 36.0451 43.5852V42.0512ZM39.9673 29.708C41.5527 29.708 42.8378 30.9932 42.8378 32.5785C42.8378 34.1638 41.5527 35.449 39.9673 35.449C38.382 35.449 37.0969 34.1638 37.0969 32.5785C37.0968 30.9932 38.3819 29.708 39.9673 29.708ZM17.033 29.708C18.6184 29.708 19.9035 30.9932 19.9035 32.5785C19.9035 34.1638 18.6184 35.449 17.033 35.449C15.4477 35.449 14.1626 34.1638 14.1626 32.5785C14.1626 30.9932 15.4477 29.708 17.033 29.708ZM17.033 36.2157C18.7059 36.2157 20.2097 36.9393 21.2488 38.0904C20.5155 39.2007 20.0292 40.4928 19.8725 41.8932H12.8483C12.4227 41.8932 12.0564 41.7081 11.8038 41.3655C11.5512 41.0229 11.4828 40.6183 11.6087 40.2116C12.3255 37.897 14.483 36.2157 17.033 36.2157ZM39.9673 36.2157C42.5174 36.2157 44.6748 37.897 45.3915 40.2116C45.5174 40.6183 45.449 41.0228 45.1964 41.3655C44.9438 41.7082 44.5776 41.8932 44.1519 41.8932H37.1277C36.971 40.4928 36.4847 39.2008 35.7515 38.0904C36.7906 36.9393 38.2944 36.2157 39.9673 36.2157ZM16.602 16.124L17.7041 19.0268C17.7195 19.0689 17.7471 19.1054 17.7833 19.1317C17.8196 19.1581 17.8629 19.173 17.9076 19.1746L21.0089 19.3258C21.0556 19.3275 21.1005 19.3437 21.1376 19.3721C21.1747 19.4004 21.2021 19.4396 21.2161 19.4842C21.231 19.5284 21.2319 19.5762 21.2185 19.621C21.2052 19.6657 21.1783 19.7052 21.1416 19.7341L18.7214 21.6793C18.6862 21.7069 18.66 21.7444 18.6461 21.787C18.6323 21.8296 18.6314 21.8754 18.6437 21.9184L19.4583 24.9146C19.4838 25.0085 19.4504 25.1034 19.3717 25.1606C19.293 25.2177 19.1924 25.2202 19.111 25.167L16.5131 23.4664C16.4759 23.4414 16.4321 23.428 16.3873 23.428C16.3426 23.428 16.2988 23.4414 16.2616 23.4664L13.6638 25.167C13.625 25.193 13.5791 25.2063 13.5325 25.2052C13.4858 25.204 13.4406 25.1885 13.4032 25.1606C13.3651 25.1336 13.3363 25.0954 13.3208 25.0514C13.3053 25.0073 13.3038 24.9596 13.3165 24.9146L14.1311 21.9184C14.1434 21.8754 14.1425 21.8296 14.1287 21.787C14.1149 21.7444 14.0886 21.7069 14.0534 21.6793L11.6333 19.734C11.5965 19.7052 11.5696 19.6657 11.5563 19.6209C11.5429 19.5761 11.5438 19.5284 11.5587 19.4841C11.5727 19.4395 11.6001 19.4004 11.6372 19.372C11.6743 19.3436 11.7193 19.3275 11.7659 19.3257L14.8672 19.1746C14.912 19.1729 14.9552 19.158 14.9915 19.1317C15.0277 19.1053 15.0553 19.0688 15.0706 19.0267L16.1728 16.124C16.2073 16.033 16.2902 15.9759 16.3875 15.9759C16.4847 15.9759 16.5675 16.033 16.602 16.124ZM40.7914 16.124L41.8935 19.0268C41.9089 19.0689 41.9365 19.1054 41.9727 19.1317C42.009 19.1581 42.0522 19.173 42.097 19.1746L45.1983 19.3258C45.2449 19.3275 45.2899 19.3437 45.327 19.3721C45.3641 19.4004 45.3915 19.4396 45.4055 19.4842C45.4204 19.5284 45.4212 19.5762 45.4079 19.621C45.3945 19.6657 45.3677 19.7052 45.3309 19.7341L42.9108 21.6793C42.8756 21.7069 42.8493 21.7444 42.8355 21.787C42.8217 21.8296 42.8208 21.8754 42.8331 21.9184L43.6477 24.9146C43.6604 24.9596 43.6589 25.0073 43.6434 25.0514C43.6279 25.0954 43.5992 25.1336 43.5611 25.1606C43.5236 25.1885 43.4785 25.204 43.4318 25.2052C43.3851 25.2063 43.3392 25.193 43.3004 25.167L40.7025 23.4664C40.6654 23.4414 40.6216 23.428 40.5768 23.428C40.532 23.428 40.4882 23.4414 40.451 23.4664L37.8532 25.167C37.7719 25.2202 37.6712 25.2177 37.5925 25.1606C37.5138 25.1034 37.4804 25.0084 37.5059 24.9146L38.3205 21.9184C38.3328 21.8754 38.3319 21.8296 38.3181 21.787C38.3042 21.7444 38.278 21.7069 38.2428 21.6793L35.8226 19.7341C35.7859 19.7053 35.759 19.6657 35.7457 19.621C35.7323 19.5762 35.7332 19.5284 35.7481 19.4842C35.7621 19.4396 35.7895 19.4004 35.8266 19.3721C35.8637 19.3437 35.9086 19.3275 35.9553 19.3258L39.0566 19.1746C39.1013 19.173 39.1446 19.1581 39.1809 19.1317C39.2171 19.1054 39.2447 19.0689 39.26 19.0268L40.3621 16.124C40.3966 16.033 40.4795 15.9759 40.5768 15.9759C40.674 15.9759 40.7569 16.033 40.7914 16.124Z" fill="#3B58FB"/>
</g>
<defs>
<clipPath id="clip0_1029_3653">
<rect width="35" height="35" fill="white" transform="translate(11 11)"/>
</clipPath>
</defs>
</svg>
