<svg width="71" height="70" viewBox="0 0 71 70" fill="none" xmlns="http://www.w3.org/2000/svg">
<rect x="0.5" width="70" height="70" rx="35" fill="white"/>
<g clip-path="url(#clip0_1034_10993)">
<mask id="mask0_1034_10993" style="mask-type:luminance" maskUnits="userSpaceOnUse" x="13" y="13" width="45" height="45">
<path d="M13 13H58V58H13V13Z" fill="white"/>
</mask>
<g mask="url(#mask0_1034_10993)">
<path d="M47.877 49.5625H52.377V53.3125H41.127V42.0625H44.877V47.1813C48.3082 44.425 50.502 40.225 50.502 35.5C50.502 27.8687 44.7645 21.55 37.377 20.6313V16.8438C46.8457 17.7812 54.252 25.7687 54.252 35.5C54.252 41.1062 51.777 46.1313 47.877 49.5625ZM20.502 35.5C20.502 30.775 22.6957 26.5563 26.127 23.8187V28.9375H29.877V17.6875H18.627V21.4375H23.127C21.1237 23.1919 19.5186 25.3542 18.4191 27.7795C17.3196 30.2048 16.7512 32.8371 16.752 35.5C16.752 45.2312 24.1582 53.2188 33.627 54.1563V50.3688C26.2395 49.45 20.502 43.1313 20.502 35.5ZM43.452 28.2062L32.8395 38.8188L27.5332 33.5125L24.8895 36.1562L32.8395 44.1063L46.0957 30.85L43.452 28.2062Z" fill="#F31515"/>
</g>
</g>
<defs>
<clipPath id="clip0_1034_10993">
<rect width="45" height="45" fill="white" transform="translate(13 13)"/>
</clipPath>
</defs>
</svg>
