<svg width="56" height="57" viewBox="0 0 56 57" fill="none" xmlns="http://www.w3.org/2000/svg">
<rect y="0.5" width="56" height="56" rx="8" fill="#00CB33" fill-opacity="0.1"/>
<rect x="0.5" y="1" width="55" height="55" rx="7.5" stroke="#00CB33" stroke-opacity="0.15"/>
<g clip-path="url(#clip0_1029_3661)">
<path d="M28.5 11C21.8653 11 16.4688 16.3966 16.4688 23.0312C16.4688 29.6659 21.8653 35.0625 28.5 35.0625C35.1325 35.0625 40.5312 29.6659 40.5312 23.0312C40.5312 16.3966 35.1325 11 28.5 11ZM34.8241 21.3294L32.7459 23.9325L32.9734 27.3341C32.9863 27.5208 32.9508 27.7077 32.8703 27.8767C32.7899 28.0457 32.6671 28.191 32.5141 28.2987C32.3284 28.4296 32.1068 28.4999 31.8797 28.5C31.7353 28.5 31.5887 28.4716 31.4531 28.4125L28.5 27.1591L25.5491 28.4125C25.1991 28.5613 24.7966 28.5197 24.4881 28.2987C24.3358 28.1904 24.2136 28.0449 24.1332 27.876C24.0528 27.7072 24.0169 27.5207 24.0288 27.3341L24.2563 23.9325L22.1781 21.3294C21.9462 21.0406 21.8784 20.6534 21.9944 20.3012C22.1103 19.9491 22.3969 19.6822 22.7556 19.5881L25.8575 18.7766L27.5594 15.9109C27.9531 15.2459 29.0469 15.2459 29.4384 15.9109L31.1403 18.7766L34.2444 19.5881C34.6009 19.6822 34.8875 19.9513 35.0056 20.3012C35.1238 20.6512 35.0537 21.0384 34.8241 21.3294Z" fill="#00CB33"/>
<path d="M16.1945 30.125L11.1458 38.8903C10.9248 39.2753 10.9576 39.7544 11.2267 40.1044C11.4958 40.4544 11.9486 40.6119 12.3773 40.4937L18.7998 38.7678L20.5083 45.1903C20.622 45.6169 20.9829 45.9341 21.4204 45.9931C21.4686 45.9975 21.5189 45.9997 21.5648 45.9997C21.7568 45.9997 21.9454 45.9491 22.1117 45.8531C22.2779 45.7571 22.416 45.6191 22.512 45.4528L27.2873 37.1884C22.5426 36.7859 18.4651 34.045 16.1945 30.125ZM45.8548 38.8903L40.8039 30.125C38.5354 34.045 34.4558 36.7859 29.7111 37.1884L34.4864 45.4528C34.6833 45.7941 35.0464 45.9997 35.4336 45.9997C35.4795 45.9997 35.5298 45.9975 35.5758 45.9909C36.0154 45.9319 36.3742 45.6147 36.4901 45.1881L38.1986 38.7656L44.6211 40.4916C45.0498 40.6097 45.5004 40.4522 45.7717 40.1022C46.0429 39.7544 46.0736 39.2753 45.8548 38.8903Z" fill="#00CB33"/>
</g>
<defs>
<clipPath id="clip0_1029_3661">
<rect width="35" height="35" fill="white" transform="translate(11 11)"/>
</clipPath>
</defs>
</svg>
