<svg width="71" height="70" viewBox="0 0 71 70" fill="none" xmlns="http://www.w3.org/2000/svg">
<rect x="0.5" width="70" height="70" rx="35" fill="white"/>
<path d="M17.5 19.6457C17.7461 19.1842 17.9322 18.6674 18.2516 18.2713C19.113 17.1974 20.2376 16.7842 21.5312 17.107C22.7751 17.4176 23.598 18.2703 23.9841 19.5824C24.0912 19.9453 24.0499 20.0067 23.7023 20.0067C21.7495 20.0067 19.7964 20.0067 17.8429 20.0067C17.7279 19.9976 17.6138 19.978 17.5019 19.9483L17.5 19.6457Z" fill="#0097E2"/>
<path d="M19.2098 26.9187L18.6264 26.9649V27.4214C18.6264 30.8399 18.6264 34.2584 18.6264 37.6769C18.6264 38.1374 18.4385 38.4531 18.1153 38.421C17.903 38.3999 17.7048 38.2008 17.5 38.0821V26.1173C17.6813 25.8157 17.9415 25.7051 18.2741 25.7353C18.5869 25.7624 18.9016 25.7614 19.2135 25.7725L19.2051 25.7624L19.1985 26.9317L19.2098 26.9187Z" fill="#0097E2"/>
<path d="M23.8105 17.0078H24.0924C30.9467 17.0078 37.8009 17.0078 44.6552 17.0078C46.0888 17.0078 47.2162 18.0002 47.4943 19.5053C47.5277 19.728 47.5409 19.9536 47.5337 20.179C47.5337 29.5839 47.5337 38.9889 47.5337 48.3938V48.7648H33.2051C32.3042 48.7648 32.0374 49.0112 31.9115 49.9573C31.6926 51.6072 30.2459 52.9425 28.6478 52.9736C27.0498 53.0048 25.5748 51.7188 25.3146 50.0578C25.267 49.7366 25.2438 49.4118 25.2451 49.0866C25.2451 39.7319 25.2473 30.3769 25.2517 21.0216C25.2517 19.5013 24.8759 18.1872 23.8472 17.1164C23.8331 17.1084 23.8322 17.0782 23.8105 17.0078ZM39.4732 22.9399C38.0559 22.9399 36.6379 22.9399 35.2193 22.9399C34.7919 22.9399 34.542 23.1521 34.5298 23.511C34.5176 23.87 34.7881 24.1294 35.2222 24.1294C38.0587 24.1334 40.8946 24.1334 43.7299 24.1294C44.1761 24.1294 44.4363 23.8941 44.4344 23.5261C44.4326 23.1581 44.178 22.9389 43.7271 22.9379L39.4732 22.9399ZM39.4798 27.9823C38.0499 27.9823 36.6201 27.9823 35.1912 27.9823C34.8529 27.9823 34.6199 28.113 34.5448 28.4769C34.4621 28.8791 34.7599 29.1747 35.2512 29.1757C38.0753 29.1757 40.8993 29.1757 43.7233 29.1757C44.1695 29.1757 44.4316 28.9455 44.4344 28.5795C44.4373 28.2135 44.1817 27.9853 43.7336 27.9853C42.3169 27.9853 40.8993 27.9859 39.4807 27.9873L39.4798 27.9823ZM39.4798 33.0246C38.0499 33.0246 36.62 33.0246 35.1902 33.0246C34.8031 33.0246 34.5739 33.2186 34.5326 33.5554C34.4922 33.9315 34.7712 34.213 35.2193 34.214C38.0546 34.218 40.8905 34.218 43.7271 34.214C44.1733 34.214 44.4335 33.9818 44.4335 33.6107C44.4335 33.2397 44.1798 33.0216 43.728 33.0205C42.3113 33.0252 40.8943 33.0283 39.4769 33.0296L39.4798 33.0246ZM39.4798 39.2583C40.9096 39.2583 42.3385 39.2583 43.7684 39.2583C44.1846 39.2583 44.4391 39.009 44.4363 38.6551C44.4335 38.3011 44.1827 38.0719 43.7618 38.0709H35.2193C34.7919 38.0709 34.5429 38.2831 34.5317 38.643C34.5204 39.003 34.7815 39.2392 35.1893 39.2614C35.2832 39.2614 35.3772 39.2614 35.4711 39.2614L39.4798 39.2583ZM39.4798 43.1092C38.0505 43.1092 36.621 43.1092 35.1912 43.1092C34.805 43.1092 34.5749 43.3032 34.5335 43.6391C34.4931 44.0151 34.7712 44.2976 35.2203 44.2986C38.0556 44.3027 40.8911 44.3027 43.7271 44.2986C44.1752 44.2986 44.4344 44.0654 44.4344 43.6954C44.4344 43.3254 44.1799 43.1072 43.7289 43.1062L39.4798 43.1092ZM30.1134 23.7443C29.8315 23.3944 29.591 23.0737 29.3299 22.772C29.2829 22.7118 29.2252 22.6621 29.1602 22.6259C29.0952 22.5896 29.0241 22.5675 28.9511 22.5609C28.8781 22.5543 28.8045 22.5632 28.7347 22.5872C28.6649 22.6112 28.6003 22.6497 28.5445 22.7006C28.4883 22.7516 28.4423 22.8141 28.4092 22.8844C28.376 22.9548 28.3565 23.0316 28.3516 23.1102C28.3468 23.1888 28.3568 23.2677 28.3811 23.3421C28.4053 23.4165 28.4433 23.4849 28.4928 23.5432C28.8761 24.0459 29.2679 24.5487 29.6718 25.0363C29.9462 25.3671 30.2834 25.3721 30.5512 25.0363C31.1562 24.2882 31.7512 23.5305 32.3361 22.763C32.3851 22.705 32.4223 22.6368 32.4454 22.5626C32.4685 22.4885 32.477 22.4101 32.4703 22.3322C32.4637 22.2544 32.4421 22.1789 32.4069 22.1104C32.3717 22.042 32.3236 21.9821 32.2657 21.9345C32.0317 21.7244 31.6907 21.7616 31.4568 22.0491C31.0153 22.5941 30.5821 23.1531 30.1134 23.7443ZM30.1134 28.7866C29.8315 28.4337 29.5816 28.1029 29.3111 27.7942C29.2156 27.6816 29.0831 27.6127 28.9413 27.6021C28.7995 27.5914 28.6594 27.6397 28.5501 27.7369C28.4405 27.8326 28.3705 27.9705 28.355 28.121C28.3395 28.2715 28.3799 28.4224 28.4674 28.5413C28.8705 29.0792 29.2848 29.6071 29.715 30.1198C29.9415 30.3893 30.2721 30.4054 30.4929 30.1369C31.1345 29.3567 31.7565 28.5574 32.3718 27.752C32.5362 27.5368 32.509 27.2805 32.3464 27.0572C32.2765 26.9542 32.1755 26.8802 32.0605 26.8478C31.9454 26.8153 31.8234 26.8265 31.7152 26.8793C31.58 26.9523 31.4628 27.0584 31.3732 27.189C30.9551 27.7148 30.5455 28.2407 30.1143 28.7886L30.1134 28.7866ZM30.1134 33.8319C29.8315 33.4831 29.6004 33.1724 29.3487 32.8768C29.0969 32.5812 28.7728 32.5701 28.5388 32.7933C28.3049 33.0165 28.2824 33.3513 28.4994 33.6369C28.8836 34.1396 29.2745 34.6423 29.6794 35.129C29.9433 35.4467 30.2768 35.4598 30.5333 35.1451C31.1487 34.39 31.7462 33.6178 32.3436 32.8466C32.4204 32.7474 32.4645 32.6238 32.469 32.4951C32.4736 32.3663 32.4383 32.2396 32.3688 32.1344C32.2993 32.0292 32.1994 31.9515 32.0845 31.9132C31.9695 31.8749 31.846 31.8782 31.733 31.9226C31.5963 31.9916 31.4774 32.0952 31.3863 32.2242C30.9645 32.7461 30.553 33.2749 30.1124 33.834L30.1134 33.8319ZM30.1134 38.8743C29.8362 38.5264 29.5948 38.2066 29.3345 37.904C29.288 37.8434 29.2307 37.7932 29.1659 37.7564C29.1011 37.7196 29.0302 37.6969 28.9572 37.6896C28.8841 37.6823 28.8105 37.6905 28.7405 37.7139C28.6704 37.7372 28.6054 37.7752 28.5492 37.8256C28.4926 37.8759 28.446 37.938 28.4123 38.008C28.3786 38.078 28.3585 38.1546 28.353 38.2331C28.3476 38.3117 28.357 38.3906 28.3807 38.4652C28.4044 38.5397 28.4419 38.6084 28.4909 38.6671C28.8742 39.1699 29.266 39.6726 29.669 40.1602C29.9443 40.494 30.2806 40.5031 30.5484 40.1723C31.1543 39.4252 31.7452 38.6641 32.3333 37.901C32.5316 37.6456 32.5278 37.3701 32.3202 37.1167C32.0966 36.8422 31.717 36.8583 31.4634 37.17C31.0171 37.72 30.585 38.278 30.1124 38.8763L30.1134 38.8743ZM30.1134 43.9156C29.8437 43.5787 29.6014 43.259 29.3421 42.9564C29.1157 42.6909 28.7878 42.6547 28.5576 42.8558C28.3115 43.068 28.2758 43.4309 28.5041 43.7255C28.8799 44.2212 29.265 44.7119 29.6596 45.1905C29.9461 45.5384 30.2834 45.5434 30.5643 45.1905C31.1609 44.4515 31.7433 43.6984 32.3277 42.9473C32.4194 42.8471 32.4729 42.7138 32.4776 42.5735C32.4822 42.4333 32.4379 42.2962 32.3531 42.1892C32.1323 41.8735 31.7255 41.8815 31.4483 42.2224C31.004 42.7784 30.5746 43.3374 30.1134 43.9176V43.9156Z" fill="#0097E2"/>
<path d="M31.5547 52.9752C32.1898 52.3106 32.6304 51.6289 32.8634 50.8095C32.9376 50.5481 32.9385 50.158 33.1001 50.0554C33.3199 49.9146 33.6638 49.98 33.9522 49.98C40.3129 49.98 46.6737 49.98 53.0345 49.98C53.5559 49.98 53.5793 50.0172 53.4055 50.5561C52.9358 52.017 51.6657 52.9692 50.1738 52.9762C46.9646 52.9809 43.7548 52.9809 40.5444 52.9762H31.5547V52.9752Z" fill="#0097E2"/>
<path d="M19.1997 26.9312H21.5672V49.2521H19.2053C19.1988 49.1244 19.1875 49.0027 19.1875 48.8821C19.1875 41.6844 19.1875 34.4861 19.1875 27.2871C19.1875 27.1634 19.2035 27.0387 19.2129 26.9141C19.209 26.9202 19.2046 26.926 19.1997 26.9312Z" fill="#0097E2"/>
<path d="M19.2155 25.7731C19.2079 25.2875 19.1769 24.7999 19.1995 24.3162C19.2173 23.9291 19.5358 23.6335 19.9398 23.5974C20.2311 23.5717 20.524 23.5717 20.8153 23.5974C21.2935 23.6386 21.5725 23.9684 21.5857 24.4872C21.596 24.8893 21.5857 25.2855 21.5857 25.7631H19.206L19.2155 25.7731Z" fill="#0097E2"/>
<path d="M19.3926 50.4922H21.3654L20.4382 52.9887L20.3339 53.0048C20.0305 52.1823 19.7242 51.3639 19.3926 50.4922Z" fill="#0097E2"/>
</svg>
