<svg width="71" height="70" viewBox="0 0 71 70" fill="none" xmlns="http://www.w3.org/2000/svg">
<rect x="0.5" width="70" height="70" rx="35" fill="white"/>
<path fill-rule="evenodd" clip-rule="evenodd" d="M24.1469 20.8212C24.1752 20.5946 24.2853 20.386 24.4566 20.2348C24.6278 20.0836 24.8484 20.0001 25.0769 20H45.925C46.1535 20.0001 46.374 20.0836 46.5453 20.2348C46.7165 20.386 46.8267 20.5946 46.855 20.8212L48.4956 33.9462C48.5121 34.0781 48.5004 34.212 48.4612 34.339C48.422 34.466 48.3562 34.5832 48.2683 34.6829C48.1803 34.7825 48.0722 34.8623 47.951 34.917C47.8299 34.9717 47.6985 35 47.5656 35H41.4812C41.8525 36.08 42.5631 37.3794 43.8063 38.75H51.4375C52.1834 38.75 52.8988 39.0463 53.4262 39.5738C53.9537 40.1012 54.25 40.8166 54.25 41.5625V47.1875C54.25 47.9334 53.9537 48.6488 53.4262 49.1762C52.8988 49.7037 52.1834 50 51.4375 50H19.5625C18.8166 50 18.1012 49.7037 17.5738 49.1762C17.0463 48.6488 16.75 47.9334 16.75 47.1875V41.5625C16.75 40.8166 17.0463 40.1012 17.5738 39.5738C18.1012 39.0463 18.8166 38.75 19.5625 38.75H27.1975C28.4406 37.3794 29.1494 36.08 29.5225 35H23.4362C23.3033 35 23.172 34.9717 23.0508 34.917C22.9297 34.8623 22.8216 34.7825 22.7336 34.6829C22.6457 34.5832 22.5799 34.466 22.5407 34.339C22.5015 34.212 22.4898 34.0781 22.5062 33.9462L24.1469 20.8212ZM26.6219 31.25L27.5594 23.75H43.4406L44.3781 31.25H26.6219ZM37.5869 35C37.8921 36.3265 38.4141 37.5935 39.1319 38.75H31.8681C32.5858 37.5935 33.1078 36.3265 33.4131 35H37.5869ZM35.5 42.5C35.0027 42.5 34.5258 42.6975 34.1742 43.0492C33.8225 43.4008 33.625 43.8777 33.625 44.375C33.625 44.8723 33.8225 45.3492 34.1742 45.7008C34.5258 46.0525 35.0027 46.25 35.5 46.25C35.9973 46.25 36.4742 46.0525 36.8258 45.7008C37.1775 45.3492 37.375 44.8723 37.375 44.375C37.375 43.8777 37.1775 43.4008 36.8258 43.0492C36.4742 42.6975 35.9973 42.5 35.5 42.5Z" fill="#00A65F"/>
</svg>
