<svg width="200" height="43" viewBox="0 0 200 43" fill="none" xmlns="http://www.w3.org/2000/svg">
<path d="M66.4435 31.5408C65.1235 31.5408 63.9902 31.3408 63.0435 30.9408C62.0968 30.5275 61.3568 29.9142 60.8235 29.1008C60.2902 28.2875 60.0035 27.2808 59.9635 26.0808C59.9502 25.5208 59.9435 24.9208 59.9435 24.2808C59.9435 23.6275 59.9502 23.0142 59.9635 22.4408C60.0035 21.2808 60.2902 20.3075 60.8235 19.5208C61.3702 18.7342 62.1235 18.1408 63.0835 17.7408C64.0435 17.3408 65.1635 17.1408 66.4435 17.1408C67.4702 17.1408 68.3835 17.2608 69.1835 17.5008C69.9835 17.7408 70.6635 18.0675 71.2235 18.4808C71.7968 18.8942 72.2302 19.3608 72.5235 19.8808C72.8302 20.3875 72.9902 20.9142 73.0035 21.4608C73.0035 21.5808 72.9568 21.6875 72.8635 21.7808C72.7835 21.8608 72.6835 21.9008 72.5635 21.9008H68.8835C68.7502 21.9008 68.6435 21.8808 68.5635 21.8408C68.4835 21.7875 68.4102 21.7208 68.3435 21.6408C68.2768 21.5075 68.1702 21.3542 68.0235 21.1808C67.8902 21.0075 67.6968 20.8608 67.4435 20.7408C67.1902 20.6075 66.8568 20.5408 66.4435 20.5408C65.8168 20.5408 65.3302 20.7008 64.9835 21.0208C64.6368 21.3408 64.4502 21.8475 64.4235 22.5408C64.3835 23.6608 64.3835 24.8075 64.4235 25.9808C64.4502 26.7408 64.6435 27.2942 65.0035 27.6408C65.3768 27.9742 65.8768 28.1408 66.5035 28.1408C66.9168 28.1408 67.2835 28.0742 67.6035 27.9408C67.9368 27.8075 68.1968 27.6008 68.3835 27.3208C68.5702 27.0275 68.6635 26.6542 68.6635 26.2008V26.0008H67.2435C67.0968 26.0008 66.9702 25.9475 66.8635 25.8408C66.7702 25.7342 66.7235 25.6142 66.7235 25.4808V23.6208C66.7235 23.4742 66.7702 23.3542 66.8635 23.2608C66.9702 23.1542 67.0968 23.1008 67.2435 23.1008H72.5035C72.6502 23.1008 72.7768 23.1542 72.8835 23.2608C72.9902 23.3542 73.0435 23.4742 73.0435 23.6208V26.0608C73.0435 27.2342 72.7635 28.2275 72.2035 29.0408C71.6435 29.8542 70.8702 30.4742 69.8835 30.9008C68.8968 31.3275 67.7502 31.5408 66.4435 31.5408ZM75.3901 31.3408C75.2434 31.3408 75.1167 31.2942 75.0101 31.2008C74.9167 31.0942 74.8701 30.9675 74.8701 30.8208V21.4608C74.8701 21.3142 74.9167 21.1942 75.0101 21.1008C75.1167 20.9942 75.2434 20.9408 75.3901 20.9408H78.2901C78.4367 20.9408 78.5567 20.9942 78.6501 21.1008C78.7567 21.1942 78.8101 21.3142 78.8101 21.4608V22.2008C79.2101 21.8142 79.6634 21.5075 80.1701 21.2808C80.6901 21.0542 81.2567 20.9408 81.8701 20.9408H82.7701C82.9167 20.9408 83.0434 20.9942 83.1501 21.1008C83.2567 21.1942 83.3101 21.3142 83.3101 21.4608V24.0408C83.3101 24.1875 83.2567 24.3142 83.1501 24.4208C83.0434 24.5275 82.9167 24.5808 82.7701 24.5808H80.5301C80.0501 24.5808 79.6834 24.7075 79.4301 24.9608C79.1767 25.2008 79.0501 25.5608 79.0501 26.0408V30.8208C79.0501 30.9675 78.9967 31.0942 78.8901 31.2008C78.7967 31.2942 78.6767 31.3408 78.5301 31.3408H75.3901ZM89.7776 31.5408C88.6042 31.5408 87.6109 31.3675 86.7976 31.0208C85.9976 30.6742 85.3842 30.1675 84.9576 29.5008C84.5309 28.8208 84.2909 28.0075 84.2376 27.0608C84.2242 26.7808 84.2176 26.4742 84.2176 26.1408C84.2176 25.8075 84.2242 25.5008 84.2376 25.2208C84.2909 24.2608 84.5442 23.4475 84.9976 22.7808C85.4509 22.1142 86.0776 21.6075 86.8776 21.2608C87.6909 20.9142 88.6576 20.7408 89.7776 20.7408C90.8976 20.7408 91.8576 20.9142 92.6576 21.2608C93.4709 21.6075 94.1042 22.1142 94.5576 22.7808C95.0109 23.4475 95.2642 24.2608 95.3176 25.2208C95.3442 25.5008 95.3576 25.8075 95.3576 26.1408C95.3576 26.4742 95.3442 26.7808 95.3176 27.0608C95.2642 28.0075 95.0242 28.8208 94.5976 29.5008C94.1709 30.1675 93.5509 30.6742 92.7376 31.0208C91.9376 31.3675 90.9509 31.5408 89.7776 31.5408ZM89.7776 28.7208C90.2709 28.7208 90.6109 28.5742 90.7976 28.2808C90.9842 27.9875 91.0909 27.5475 91.1176 26.9608C91.1309 26.7608 91.1376 26.4875 91.1376 26.1408C91.1376 25.7942 91.1309 25.5208 91.1176 25.3208C91.0909 24.7475 90.9842 24.3142 90.7976 24.0208C90.6109 23.7142 90.2709 23.5608 89.7776 23.5608C89.2976 23.5608 88.9642 23.7142 88.7776 24.0208C88.5909 24.3142 88.4776 24.7475 88.4376 25.3208C88.4242 25.5208 88.4176 25.7942 88.4176 26.1408C88.4176 26.4875 88.4242 26.7608 88.4376 26.9608C88.4776 27.5475 88.5909 27.9875 88.7776 28.2808C88.9642 28.5742 89.2976 28.7208 89.7776 28.7208ZM102.117 31.5408C101.117 31.5408 100.217 31.3675 99.4171 31.0208C98.6304 30.6608 97.9971 30.1408 97.5171 29.4608C97.0504 28.7675 96.7904 27.9342 96.7371 26.9608C96.7238 26.7475 96.7171 26.4808 96.7171 26.1608C96.7171 25.8408 96.7238 25.5675 96.7371 25.3408C96.7904 24.3542 97.0504 23.5208 97.5171 22.8408C97.9838 22.1475 98.6171 21.6275 99.4171 21.2808C100.217 20.9208 101.117 20.7408 102.117 20.7408C103.104 20.7408 103.944 20.8808 104.637 21.1608C105.344 21.4408 105.91 21.7875 106.337 22.2008C106.777 22.6142 107.104 23.0275 107.317 23.4408C107.53 23.8542 107.644 24.2008 107.657 24.4808C107.67 24.6275 107.617 24.7542 107.497 24.8608C107.39 24.9675 107.27 25.0208 107.137 25.0208H103.917C103.77 25.0208 103.657 24.9875 103.577 24.9208C103.497 24.8408 103.424 24.7342 103.357 24.6008C103.224 24.3075 103.07 24.0942 102.897 23.9608C102.724 23.8142 102.49 23.7408 102.197 23.7408C101.784 23.7408 101.477 23.8875 101.277 24.1808C101.077 24.4608 100.97 24.8808 100.957 25.4408C100.93 26.0008 100.93 26.4742 100.957 26.8608C100.984 27.4342 101.09 27.8608 101.277 28.1408C101.477 28.4075 101.784 28.5408 102.197 28.5408C102.53 28.5408 102.777 28.4742 102.937 28.3408C103.097 28.1942 103.237 27.9742 103.357 27.6808C103.41 27.5475 103.477 27.4475 103.557 27.3808C103.65 27.3008 103.77 27.2608 103.917 27.2608H107.137C107.27 27.2608 107.39 27.3142 107.497 27.4208C107.617 27.5275 107.67 27.6542 107.657 27.8008C107.644 27.9875 107.57 28.2408 107.437 28.5608C107.317 28.8675 107.124 29.1942 106.857 29.5408C106.604 29.8742 106.264 30.1942 105.837 30.5008C105.41 30.8075 104.89 31.0608 104.277 31.2608C103.664 31.4475 102.944 31.5408 102.117 31.5408ZM114.306 31.5408C112.639 31.5408 111.313 31.1142 110.326 30.2608C109.353 29.3942 108.853 28.0742 108.826 26.3008C108.826 26.2475 108.826 26.1808 108.826 26.1008C108.826 26.0075 108.826 25.9408 108.826 25.9008C108.866 24.7942 109.106 23.8608 109.546 23.1008C109.999 22.3275 110.626 21.7408 111.426 21.3408C112.239 20.9408 113.193 20.7408 114.286 20.7408C115.513 20.7408 116.526 20.9875 117.326 21.4808C118.139 21.9608 118.746 22.6075 119.146 23.4208C119.546 24.2208 119.746 25.1208 119.746 26.1208V26.6808C119.746 26.8142 119.693 26.9342 119.586 27.0408C119.479 27.1475 119.353 27.2008 119.206 27.2008H113.046C113.046 27.2008 113.046 27.2142 113.046 27.2408C113.046 27.2675 113.046 27.2942 113.046 27.3208C113.046 27.6408 113.086 27.9275 113.166 28.1808C113.259 28.4208 113.399 28.6142 113.586 28.7608C113.773 28.8942 113.999 28.9608 114.266 28.9608C114.439 28.9608 114.586 28.9342 114.706 28.8808C114.826 28.8275 114.926 28.7608 115.006 28.6808C115.099 28.5875 115.179 28.5008 115.246 28.4208C115.366 28.3008 115.466 28.2275 115.546 28.2008C115.626 28.1608 115.746 28.1408 115.906 28.1408H119.046C119.166 28.1408 119.266 28.1808 119.346 28.2608C119.439 28.3408 119.479 28.4408 119.466 28.5608C119.453 28.8008 119.339 29.0942 119.126 29.4408C118.913 29.7742 118.593 30.1008 118.166 30.4208C117.753 30.7408 117.219 31.0075 116.566 31.2208C115.913 31.4342 115.159 31.5408 114.306 31.5408ZM113.046 24.9608H115.526V24.9208C115.526 24.5608 115.479 24.2542 115.386 24.0008C115.293 23.7475 115.153 23.5608 114.966 23.4408C114.779 23.3075 114.553 23.2408 114.286 23.2408C114.019 23.2408 113.793 23.3075 113.606 23.4408C113.419 23.5608 113.279 23.7475 113.186 24.0008C113.093 24.2542 113.046 24.5608 113.046 24.9208V24.9608ZM121.914 31.3408C121.767 31.3408 121.64 31.2942 121.534 31.2008C121.44 31.0942 121.394 30.9675 121.394 30.8208V21.4608C121.394 21.3142 121.44 21.1942 121.534 21.1008C121.64 20.9942 121.767 20.9408 121.914 20.9408H124.814C124.96 20.9408 125.08 20.9942 125.174 21.1008C125.28 21.1942 125.334 21.3142 125.334 21.4608V22.2008C125.734 21.8142 126.187 21.5075 126.694 21.2808C127.214 21.0542 127.78 20.9408 128.394 20.9408H129.294C129.44 20.9408 129.567 20.9942 129.674 21.1008C129.78 21.1942 129.834 21.3142 129.834 21.4608V24.0408C129.834 24.1875 129.78 24.3142 129.674 24.4208C129.567 24.5275 129.44 24.5808 129.294 24.5808H127.054C126.574 24.5808 126.207 24.7075 125.954 24.9608C125.7 25.2008 125.574 25.5608 125.574 26.0408V30.8208C125.574 30.9675 125.52 31.0942 125.414 31.2008C125.32 31.2942 125.2 31.3408 125.054 31.3408H121.914ZM133.12 35.1408C133 35.1408 132.893 35.1008 132.8 35.0208C132.72 34.9408 132.68 34.8408 132.68 34.7208C132.68 34.6942 132.68 34.6608 132.68 34.6208C132.693 34.5808 132.707 34.5342 132.72 34.4808L134.32 30.7008L130.46 21.6008C130.433 21.5208 130.42 21.4542 130.42 21.4008C130.447 21.2808 130.5 21.1742 130.58 21.0808C130.673 20.9875 130.78 20.9408 130.9 20.9408H133.72C133.92 20.9408 134.06 20.9942 134.14 21.1008C134.233 21.1942 134.3 21.2875 134.34 21.3808L136.3 26.5808L138.32 21.3808C138.373 21.2742 138.447 21.1742 138.54 21.0808C138.633 20.9875 138.773 20.9408 138.96 20.9408H141.76C141.867 20.9408 141.967 20.9875 142.06 21.0808C142.153 21.1608 142.2 21.2542 142.2 21.3608C142.2 21.4408 142.187 21.5208 142.16 21.6008L136.52 34.7008C136.467 34.8075 136.387 34.9075 136.28 35.0008C136.187 35.0942 136.047 35.1408 135.86 35.1408H133.12ZM152.68 31.5408C151.28 31.5408 150.114 31.3475 149.18 30.9608C148.26 30.5608 147.567 30.0475 147.1 29.4208C146.647 28.7808 146.407 28.1075 146.38 27.4008C146.38 27.2808 146.42 27.1808 146.5 27.1008C146.58 27.0208 146.68 26.9808 146.8 26.9808H149.98C150.167 26.9808 150.314 27.0142 150.42 27.0808C150.527 27.1342 150.64 27.2142 150.76 27.3208C150.88 27.4675 151.02 27.6075 151.18 27.7408C151.34 27.8608 151.547 27.9608 151.8 28.0408C152.054 28.1075 152.347 28.1408 152.68 28.1408C153.294 28.1408 153.767 28.0608 154.1 27.9008C154.434 27.7275 154.6 27.4942 154.6 27.2008C154.6 26.9742 154.507 26.7875 154.32 26.6408C154.147 26.4942 153.847 26.3608 153.42 26.2408C152.994 26.1208 152.414 25.9942 151.68 25.8608C150.654 25.6875 149.767 25.4342 149.02 25.1008C148.274 24.7542 147.7 24.2942 147.3 23.7208C146.914 23.1342 146.72 22.4142 146.72 21.5608C146.72 20.6942 146.96 19.9275 147.44 19.2608C147.934 18.5942 148.614 18.0742 149.48 17.7008C150.36 17.3275 151.38 17.1408 152.54 17.1408C153.5 17.1408 154.347 17.2675 155.08 17.5208C155.827 17.7742 156.454 18.1075 156.96 18.5208C157.467 18.9208 157.854 19.3542 158.12 19.8208C158.387 20.2875 158.527 20.7342 158.54 21.1608C158.54 21.2808 158.494 21.3875 158.4 21.4808C158.32 21.5608 158.227 21.6008 158.12 21.6008H154.78C154.62 21.6008 154.48 21.5742 154.36 21.5208C154.254 21.4675 154.154 21.3808 154.06 21.2608C153.994 21.0742 153.827 20.9075 153.56 20.7608C153.294 20.6142 152.954 20.5408 152.54 20.5408C152.087 20.5408 151.74 20.6208 151.5 20.7808C151.26 20.9275 151.14 21.1475 151.14 21.4408C151.14 21.6408 151.214 21.8142 151.36 21.9608C151.507 22.1075 151.767 22.2408 152.14 22.3608C152.514 22.4675 153.034 22.5875 153.7 22.7208C154.967 22.9075 155.987 23.1742 156.76 23.5208C157.547 23.8675 158.12 24.3208 158.48 24.8808C158.84 25.4408 159.02 26.1408 159.02 26.9808C159.02 27.9275 158.747 28.7408 158.2 29.4208C157.654 30.1008 156.9 30.6275 155.94 31.0008C154.994 31.3608 153.907 31.5408 152.68 31.5408ZM161.054 31.3408C160.907 31.3408 160.781 31.2942 160.674 31.2008C160.581 31.0942 160.534 30.9675 160.534 30.8208V17.6608C160.534 17.5142 160.581 17.3942 160.674 17.3008C160.781 17.1942 160.907 17.1408 161.054 17.1408H164.294C164.427 17.1408 164.547 17.1942 164.654 17.3008C164.761 17.3942 164.814 17.5142 164.814 17.6608V22.0408C165.161 21.6408 165.594 21.3275 166.114 21.1008C166.647 20.8608 167.247 20.7408 167.914 20.7408C168.634 20.7408 169.294 20.9075 169.894 21.2408C170.507 21.5742 170.994 22.0742 171.354 22.7408C171.727 23.4075 171.914 24.2475 171.914 25.2608V30.8208C171.914 30.9675 171.861 31.0942 171.754 31.2008C171.647 31.2942 171.527 31.3408 171.394 31.3408H168.134C167.987 31.3408 167.861 31.2942 167.754 31.2008C167.661 31.0942 167.614 30.9675 167.614 30.8208V25.4008C167.614 24.9075 167.494 24.5275 167.254 24.2608C167.014 23.9942 166.674 23.8608 166.234 23.8608C165.794 23.8608 165.447 23.9942 165.194 24.2608C164.941 24.5275 164.814 24.9075 164.814 25.4008V30.8208C164.814 30.9675 164.761 31.0942 164.654 31.2008C164.547 31.2942 164.427 31.3408 164.294 31.3408H161.054ZM179.094 31.5408C177.921 31.5408 176.927 31.3675 176.114 31.0208C175.314 30.6742 174.701 30.1675 174.274 29.5008C173.847 28.8208 173.607 28.0075 173.554 27.0608C173.541 26.7808 173.534 26.4742 173.534 26.1408C173.534 25.8075 173.541 25.5008 173.554 25.2208C173.607 24.2608 173.861 23.4475 174.314 22.7808C174.767 22.1142 175.394 21.6075 176.194 21.2608C177.007 20.9142 177.974 20.7408 179.094 20.7408C180.214 20.7408 181.174 20.9142 181.974 21.2608C182.787 21.6075 183.421 22.1142 183.874 22.7808C184.327 23.4475 184.581 24.2608 184.634 25.2208C184.661 25.5008 184.674 25.8075 184.674 26.1408C184.674 26.4742 184.661 26.7808 184.634 27.0608C184.581 28.0075 184.341 28.8208 183.914 29.5008C183.487 30.1675 182.867 30.6742 182.054 31.0208C181.254 31.3675 180.267 31.5408 179.094 31.5408ZM179.094 28.7208C179.587 28.7208 179.927 28.5742 180.114 28.2808C180.301 27.9875 180.407 27.5475 180.434 26.9608C180.447 26.7608 180.454 26.4875 180.454 26.1408C180.454 25.7942 180.447 25.5208 180.434 25.3208C180.407 24.7475 180.301 24.3142 180.114 24.0208C179.927 23.7142 179.587 23.5608 179.094 23.5608C178.614 23.5608 178.281 23.7142 178.094 24.0208C177.907 24.3142 177.794 24.7475 177.754 25.3208C177.741 25.5208 177.734 25.7942 177.734 26.1408C177.734 26.4875 177.741 26.7608 177.754 26.9608C177.794 27.5475 177.907 27.9875 178.094 28.2808C178.281 28.5742 178.614 28.7208 179.094 28.7208ZM186.914 35.1408C186.767 35.1408 186.64 35.0875 186.534 34.9808C186.44 34.8875 186.394 34.7675 186.394 34.6208V21.4608C186.394 21.3142 186.44 21.1942 186.534 21.1008C186.64 20.9942 186.767 20.9408 186.914 20.9408H189.734C189.88 20.9408 190 20.9942 190.094 21.1008C190.2 21.1942 190.254 21.3142 190.254 21.4608V22.1208C190.574 21.7208 190.98 21.3942 191.474 21.1408C191.967 20.8742 192.574 20.7408 193.294 20.7408C193.92 20.7408 194.48 20.8342 194.974 21.0208C195.48 21.2075 195.92 21.4942 196.294 21.8808C196.667 22.2542 196.96 22.7342 197.174 23.3208C197.387 23.9075 197.514 24.5942 197.554 25.3808C197.567 25.6608 197.574 25.9142 197.574 26.1408C197.574 26.3675 197.567 26.6275 197.554 26.9208C197.527 27.6675 197.407 28.3275 197.194 28.9008C196.98 29.4742 196.687 29.9608 196.314 30.3608C195.94 30.7475 195.5 31.0408 194.994 31.2408C194.487 31.4408 193.92 31.5408 193.294 31.5408C192.68 31.5408 192.14 31.4408 191.674 31.2408C191.207 31.0275 190.82 30.7008 190.514 30.2608V34.6208C190.514 34.7675 190.46 34.8875 190.354 34.9808C190.247 35.0875 190.127 35.1408 189.994 35.1408H186.914ZM191.934 28.4208C192.28 28.4208 192.547 28.3542 192.734 28.2208C192.934 28.0742 193.074 27.8808 193.154 27.6408C193.247 27.3875 193.307 27.1008 193.334 26.7808C193.374 26.3542 193.374 25.9275 193.334 25.5008C193.307 25.1808 193.247 24.9008 193.154 24.6608C193.074 24.4075 192.934 24.2142 192.734 24.0808C192.547 23.9342 192.28 23.8608 191.934 23.8608C191.587 23.8608 191.307 23.9342 191.094 24.0808C190.894 24.2275 190.747 24.4208 190.654 24.6608C190.574 24.9008 190.527 25.1675 190.514 25.4608C190.5 25.7408 190.494 25.9942 190.494 26.2208C190.494 26.4342 190.5 26.6808 190.514 26.9608C190.527 27.2408 190.58 27.4875 190.674 27.7008C190.78 27.9142 190.934 28.0875 191.134 28.2208C191.334 28.3542 191.6 28.4208 191.934 28.4208Z" fill="white"/>
<path d="M48.6547 15.9785H40.5898L40.4036 15.4612H35.4354L35.6215 15.9785H28.0923L23.0666 2.0578C22.7309 1.13597 21.8458 0.515137 20.8664 0.515137C20.6019 0.515137 20.3377 0.563488 20.0755 0.655421C18.8663 1.08989 18.2364 2.4303 18.6731 3.64427L23.1286 15.9785H3.6651C2.82816 15.9785 2.03731 16.3072 1.4419 16.9026C0.846493 17.498 0.517578 18.2889 0.517578 19.1281C0.517578 20.7259 1.71543 22.0502 3.27648 22.2502L7.49065 39.0192C7.88608 40.601 9.3023 41.7069 10.9346 41.7069H41.3852C43.0152 41.7069 44.4314 40.6035 44.8314 39.0192L49.0433 22.2525C49.7354 22.1673 50.3744 21.8548 50.8779 21.3535C51.4756 20.7559 51.8045 19.965 51.8045 19.1281C51.8045 17.39 50.3905 15.9785 48.6547 15.9785ZM27.0967 25.0527C27.3473 25.301 27.4876 25.6345 27.4876 25.9861V37.1847C27.4876 37.9158 26.8922 38.5112 26.1588 38.5112C25.4276 38.5112 24.8345 37.9158 24.8345 37.1847V25.9861C24.8345 25.2549 25.4276 24.6595 26.1588 24.6595C26.5129 24.6595 26.8438 24.7975 27.0967 25.0527ZM15.7419 38.4007C15.6661 38.4168 15.5855 38.4236 15.5075 38.4236C14.866 38.4236 14.3166 37.9637 14.2015 37.3338L12.2106 26.3123C12.0819 25.5927 12.5624 24.9006 13.2843 24.7696C13.3555 24.7558 13.4314 24.7489 13.5187 24.7489C14.1487 24.7489 14.7096 25.2179 14.8224 25.8388L16.8134 36.8603C16.9421 37.5801 16.4615 38.272 15.7419 38.4007ZM38.8035 24.7492C38.8887 24.7492 38.9668 24.756 39.038 24.7698C39.3851 24.8318 39.6886 25.0297 39.8911 25.3217C40.0933 25.6136 40.1716 25.9654 40.1072 26.3102L38.1162 37.334C38.0036 37.9639 37.4563 38.4238 36.8126 38.4238C36.7345 38.4238 36.6539 38.417 36.5758 38.4009C36.231 38.3389 35.9275 38.1435 35.7253 37.8514C35.523 37.5594 35.4447 37.2076 35.5069 36.8605L37.4979 25.839C37.6102 25.2181 38.1711 24.7492 38.8035 24.7492Z" fill="#09160C"/>
<path d="M48.6542 15.4611H39.8536L40.2261 16.4935H48.6542C50.1004 16.4935 51.2867 17.6798 51.2867 19.1282C51.2867 19.8501 50.9902 20.51 50.5119 20.9882C50.0359 21.4617 49.3786 21.7607 48.6542 21.7607H48.6336L44.3297 38.8955C43.9895 40.2449 42.778 41.1899 41.3847 41.1899H10.9341C9.54312 41.1899 8.32937 40.2449 7.99138 38.8955L4.28545 24.1426L3.6855 21.7607H3.66484C2.21638 21.7607 1.03465 20.5744 1.03465 19.1282C1.03465 18.4041 1.33133 17.7442 1.80711 17.2682C2.28312 16.7899 2.94277 16.4935 3.66484 16.4935H23.864L19.158 3.46713C18.82 2.52691 19.3096 1.47842 20.25 1.14043C20.4546 1.06915 20.6616 1.03237 20.8661 1.03237C21.6109 1.03237 22.3123 1.49454 22.5813 2.2325L27.7289 16.4933H36.3572L35.9847 15.4609H28.4555L23.5512 1.88293C23.142 0.754079 22.0615 0 20.8659 0C20.5417 0 20.2199 0.0551596 19.9048 0.167749C18.4218 0.701189 17.6541 2.33805 18.1851 3.81625L22.3924 15.4609H3.66461C2.6899 15.4609 1.77011 15.8425 1.07596 16.5368C0.381577 17.2312 0 18.1508 0 19.1278C0 20.8704 1.22532 22.335 2.85764 22.7027L3.28304 24.3948L6.98897 39.1454C7.44182 40.957 9.06506 42.2239 10.9341 42.2239H41.3847C43.2515 42.2239 44.8745 40.957 45.3299 39.1479L49.4635 22.703C50.1301 22.5536 50.7439 22.2156 51.2429 21.7167C51.9373 21.0223 52.3188 20.1027 52.3188 19.128C52.3191 17.1048 50.6752 15.4611 48.6542 15.4611ZM36.4832 38.9088C36.5935 38.9295 36.7038 38.9388 36.8119 38.9388C37.6856 38.9388 38.4648 38.3112 38.6235 37.4261L40.6145 26.4023C40.7961 25.4069 40.1271 24.4436 39.1315 24.262C39.0189 24.2413 38.9109 24.2343 38.8028 24.2343C37.9314 24.2343 37.1499 24.8619 36.9889 25.747L34.9979 36.7685C34.8188 37.7662 35.4878 38.7295 36.4832 38.9088ZM38.8031 25.2664C38.8582 25.2664 38.902 25.271 38.9411 25.278C39.1572 25.317 39.341 25.4367 39.4652 25.616C39.5894 25.793 39.6377 26.0091 39.5985 26.2184L37.6075 37.2422C37.5407 37.6216 37.1982 37.9067 36.8121 37.9067C36.7637 37.9067 36.7156 37.9021 36.6673 37.8928C36.228 37.8147 35.9361 37.3916 36.0144 36.9526L38.0077 25.9311C38.0742 25.5515 38.4167 25.2664 38.8031 25.2664ZM26.1583 24.1421C25.1468 24.1421 24.3167 24.972 24.3167 25.986V37.1846C24.3167 38.2009 25.1466 39.0285 26.1583 39.0285C27.1745 39.0285 28.0022 38.2009 28.0022 37.1846V25.986C28.0022 25.4802 27.7954 25.0181 27.4596 24.6849C27.1285 24.3491 26.664 24.1421 26.1583 24.1421ZM25.3513 37.1846V25.986C25.3513 25.5399 25.7122 25.1768 26.1583 25.1768C26.3744 25.1768 26.5766 25.2596 26.7262 25.4135C26.8849 25.5699 26.97 25.7722 26.97 25.986V37.1846C26.97 37.6329 26.6068 37.9961 26.1585 37.9961C25.7122 37.9961 25.3513 37.6329 25.3513 37.1846ZM13.5183 24.234C13.4102 24.234 13.2999 24.2409 13.1896 24.2617C12.1917 24.4433 11.525 25.4067 11.7021 26.4021L13.693 37.4259C13.854 38.3109 14.6358 38.9386 15.507 38.9386C15.615 38.9386 15.7253 38.9295 15.8334 38.9086C16.8335 38.7293 17.5002 37.7659 17.3209 36.7683L15.3299 25.7467C15.1712 24.8617 14.3872 24.234 13.5183 24.234ZM15.6495 37.8926C15.6034 37.9019 15.5553 37.9064 15.507 37.9064C15.1206 37.9064 14.7781 37.6191 14.7093 37.2397L12.7183 26.2182C12.6402 25.7815 12.9344 25.3583 13.3737 25.278C13.4197 25.2712 13.4633 25.2664 13.5185 25.2664C13.9023 25.2664 14.2451 25.5515 14.3139 25.9308L16.3049 36.9524C16.3829 37.3914 16.0908 37.8145 15.6495 37.8926ZM17.3209 36.7685L15.3299 25.747C15.1712 24.8619 14.3872 24.2343 13.5183 24.2343C13.4102 24.2343 13.2999 24.2409 13.1896 24.2617C12.1917 24.4433 11.525 25.4067 11.7021 26.4021L13.693 37.4261C13.854 38.3112 14.6358 38.9388 15.507 38.9388C15.615 38.9388 15.7253 38.9295 15.8334 38.9086C16.8335 38.7293 17.5002 37.7662 17.3209 36.7685ZM15.6495 37.8926C15.6034 37.9019 15.5553 37.9064 15.507 37.9064C15.1206 37.9064 14.7781 37.6191 14.7093 37.2397L12.7183 26.2182C12.6402 25.7815 12.9344 25.3583 13.3737 25.278C13.4197 25.2712 13.4633 25.2664 13.5185 25.2664C13.9023 25.2664 14.2451 25.5515 14.3139 25.9308L16.3049 36.9524C16.3829 37.3914 16.0908 37.8145 15.6495 37.8926ZM39.1318 24.2617C39.0192 24.2411 38.9111 24.234 38.8031 24.234C37.9316 24.234 37.1501 24.8617 36.9891 25.7467L34.9982 36.7683C34.8188 37.7662 35.4878 38.7293 36.4834 38.9086C36.5937 38.9293 36.704 38.9386 36.8121 38.9386C37.6858 38.9386 38.4651 38.3109 38.6237 37.4259L40.6147 26.4021C40.7963 25.4067 40.1271 24.4433 39.1318 24.2617ZM36.8121 37.9064C36.7637 37.9064 36.7156 37.9019 36.6673 37.8926C36.228 37.8145 35.9361 37.3914 36.0144 36.9524L38.0077 25.9311C38.0744 25.5517 38.4169 25.2664 38.8031 25.2664C38.8582 25.2664 38.902 25.271 38.9411 25.278C39.1572 25.317 39.341 25.4367 39.4652 25.616C39.5894 25.793 39.6377 26.0091 39.5985 26.2184L37.6075 37.2422C37.5407 37.6213 37.1982 37.9064 36.8121 37.9064ZM27.4596 24.6846C27.1287 24.3489 26.664 24.1421 26.1583 24.1421C25.1468 24.1421 24.3169 24.972 24.3169 25.986V37.1846C24.3169 38.2009 25.1466 39.0285 26.1583 39.0285C27.1745 39.0285 28.0024 38.2009 28.0024 37.1846V25.986C28.0022 25.4802 27.7951 25.0181 27.4596 24.6846ZM25.3513 37.1846V25.986C25.3513 25.5399 25.7122 25.1768 26.1583 25.1768C26.3744 25.1768 26.5766 25.2596 26.7262 25.4135C26.8849 25.5699 26.97 25.7722 26.97 25.986V37.1846C26.97 37.6329 26.6068 37.9961 26.1585 37.9961C25.7122 37.9961 25.3513 37.6329 25.3513 37.1846ZM39.1318 24.2617C39.0192 24.2411 38.9111 24.234 38.8031 24.234C37.9316 24.234 37.1501 24.8617 36.9891 25.7467L34.9982 36.7683C34.8188 37.7662 35.4878 38.7293 36.4834 38.9086C36.5937 38.9293 36.704 38.9386 36.8121 38.9386C37.6858 38.9386 38.4651 38.3109 38.6237 37.4259L40.6147 26.4021C40.7963 25.4067 40.1271 24.4433 39.1318 24.2617ZM36.8121 37.9064C36.7637 37.9064 36.7156 37.9019 36.6673 37.8926C36.228 37.8145 35.9361 37.3914 36.0144 36.9524L38.0077 25.9311C38.0744 25.5517 38.4169 25.2664 38.8031 25.2664C38.8582 25.2664 38.902 25.271 38.9411 25.278C39.1572 25.317 39.341 25.4367 39.4652 25.616C39.5894 25.793 39.6377 26.0091 39.5985 26.2184L37.6075 37.2422C37.5407 37.6213 37.1982 37.9064 36.8121 37.9064ZM26.1583 24.1421C25.1468 24.1421 24.3167 24.972 24.3167 25.986V37.1846C24.3167 38.2009 25.1466 39.0285 26.1583 39.0285C27.1745 39.0285 28.0022 38.2009 28.0022 37.1846V25.986C28.0022 25.4802 27.7954 25.0181 27.4596 24.6849C27.1285 24.3491 26.664 24.1421 26.1583 24.1421ZM25.3513 37.1846V25.986C25.3513 25.5399 25.7122 25.1768 26.1583 25.1768C26.3744 25.1768 26.5766 25.2596 26.7262 25.4135C26.8849 25.5699 26.97 25.7722 26.97 25.986V37.1846C26.97 37.6329 26.6068 37.9961 26.1585 37.9961C25.7122 37.9961 25.3513 37.6329 25.3513 37.1846ZM15.3299 25.747C15.1712 24.8619 14.3872 24.2343 13.5183 24.2343C13.4102 24.2343 13.2999 24.2409 13.1896 24.2617C12.1917 24.4433 11.525 25.4067 11.7021 26.4021L13.693 37.4261C13.854 38.3112 14.6358 38.9388 15.507 38.9388C15.615 38.9388 15.7253 38.9295 15.8334 38.9086C16.8335 38.7293 17.5002 37.7662 17.3209 36.7685L15.3299 25.747ZM15.6495 37.8926C15.6034 37.9019 15.5553 37.9064 15.507 37.9064C15.1206 37.9064 14.7781 37.6191 14.7093 37.2397L12.7183 26.2182C12.6402 25.7815 12.9344 25.3583 13.3737 25.278C13.4197 25.2712 13.4633 25.2664 13.5185 25.2664C13.9023 25.2664 14.2451 25.5515 14.3139 25.9308L16.3049 36.9524C16.3829 37.3914 16.0908 37.8145 15.6495 37.8926Z" fill="white"/>
<path d="M44.3191 15.4609H31.0537V16.4933H44.3191V15.4609Z" fill="#09160C"/>
<path d="M26.918 19.5969C25.9771 19.9367 24.9295 19.4448 24.5897 18.5039L19.1604 3.46865C18.8206 2.52776 19.3125 1.48017 20.2534 1.14036C21.1943 0.800547 22.2418 1.29245 22.5817 2.23334L28.0109 17.2686C28.3505 18.2095 27.8586 19.2573 26.918 19.5969Z" fill="#FF902A"/>
<path d="M51.2881 19.1282C51.2881 19.8514 50.9912 20.5099 50.5134 20.9875C50.0383 21.4626 49.3797 21.7598 48.6565 21.7598H3.66672C2.21803 21.7598 1.03516 20.5744 1.03516 19.1282C1.03516 18.405 1.33206 17.744 1.80739 17.2689C2.28522 16.791 2.94373 16.4941 3.66672 16.4941H48.6563C50.1027 16.4939 51.2881 17.6793 51.2881 19.1282Z" fill="#019934"/>
<path d="M3.6875 21.7598L7.99247 38.8945C8.33092 40.2451 9.54467 41.1904 10.9366 41.1904H41.3869C42.7789 41.1904 43.9901 40.2451 44.331 38.8945L48.636 21.7598H3.6875ZM15.8356 38.91C14.8389 39.0906 13.8755 38.4219 13.6948 37.425L11.7038 26.403C11.5257 25.4062 12.1944 24.4429 13.1914 24.2622C13.3024 24.2415 13.4109 24.2338 13.5194 24.2338C14.3897 24.2338 15.1721 24.8614 15.3324 25.7472L17.3233 36.7694C17.5013 37.7659 16.8351 38.7293 15.8356 38.91ZM28.0044 37.185C28.0044 38.1999 27.1754 39.0289 26.1605 39.0289C25.1481 39.0289 24.3191 38.1999 24.3191 37.185V25.9873C24.3191 24.9724 25.1481 24.1434 26.1605 24.1434C26.6667 24.1434 27.1289 24.35 27.4621 24.6857C27.7978 25.019 28.0044 25.4811 28.0044 25.9873V37.185ZM40.6172 26.403L38.6262 37.425C38.448 38.4217 37.4846 39.0906 36.4854 38.91C35.4887 38.7293 34.8197 37.7659 35.0004 36.7692L36.9914 25.7469C37.1514 24.8612 37.9341 24.2336 38.8044 24.2336C38.9129 24.2336 39.0214 24.2413 39.1324 24.2619C40.1291 24.4429 40.7981 25.4062 40.6172 26.403Z" fill="#019934"/>
<path d="M48.6356 21.7598L48.45 22.5L3.91161 22.6478L3.68848 21.7598H48.6356Z" fill="#09160C"/>
<path d="M40.9418 17.1226C41.1302 16.8013 41.2866 16.5314 41.4466 16.2614C41.6315 15.9484 41.8093 15.6321 42.0048 15.3257C42.1612 15.079 42.3372 14.8422 42.5061 14.602C42.8492 14.1101 43.1958 13.6199 43.5371 13.1281C43.8589 12.6644 44.1558 12.1857 44.5006 11.7386C44.794 11.3593 45.1762 11.038 45.4588 10.6538C46.065 9.83238 46.8561 9.17656 47.5973 8.47436C48.0986 7.99906 48.6142 7.53865 49.1386 7.08653C49.3306 6.92092 49.5688 6.80168 49.8354 6.62944C49.5848 6.53339 49.4301 6.50689 49.2488 6.63938C49.1101 6.7404 48.9235 6.78843 48.7582 6.85799C48.376 7.02029 47.9902 7.17596 47.6098 7.34489C47.2311 7.51381 46.8507 7.68274 46.4863 7.8765C46.2641 7.99574 46.0757 8.16964 45.8641 8.30544C45.5566 8.50086 45.2313 8.67475 44.9291 8.87846C44.698 9.03413 44.4829 9.21465 44.2713 9.39351C43.8287 9.76945 43.3683 10.1338 42.9576 10.5395C42.5914 10.9039 42.2857 11.3196 41.9479 11.7088C41.7613 11.9257 41.5533 12.1278 41.3737 12.3513C41.2031 12.5633 41.0555 12.7919 40.9062 13.0171C40.7587 13.239 40.6129 13.4609 40.4796 13.6895C40.316 13.9694 40.172 14.2592 40.012 14.5407C39.8414 14.8388 39.6672 15.1353 39.4823 15.4268C39.4592 15.4632 39.365 15.4914 39.317 15.4798C39.2548 15.4632 39.1641 15.4085 39.1552 15.3589C39.061 14.8686 38.6877 14.5275 38.3873 14.1648C38.0228 13.7226 37.5891 13.3235 37.15 12.9409C36.8745 12.7008 36.5367 12.5203 36.2238 12.3182C36.0159 12.1841 35.8096 12.0483 35.5928 11.929C35.3155 11.78 35.0292 11.6458 34.7448 11.5067C34.5422 11.409 34.3448 11.2931 34.1315 11.2235C33.8364 11.1291 33.5307 11.0679 33.2267 11.0016C33.1876 10.9933 33.1343 11.043 33.088 11.0662C33.1183 11.1043 33.1396 11.1523 33.1787 11.1788C33.5858 11.4587 34 11.7303 34.4017 12.0168C34.6293 12.1775 34.8408 12.358 35.0541 12.5352C35.5021 12.9078 35.9572 13.2755 36.3927 13.6597C36.7731 13.9959 37.1571 14.3321 37.4949 14.703C37.8184 15.0574 38.1064 15.4433 38.3695 15.8391C38.5544 16.1174 38.6663 16.437 38.8352 16.7864C38.4424 16.8626 38.1259 16.8957 37.8291 16.9885C36.8691 17.2882 35.8896 17.0994 34.919 17.1044C34.5973 17.1061 34.2737 16.9272 33.9502 16.8328C33.7351 16.7699 33.5058 16.7368 33.3049 16.6473C32.9192 16.4734 32.5441 16.2797 32.1761 16.076C31.6677 15.7944 31.2606 15.4019 30.9015 14.9697C30.7291 14.7627 30.5815 14.5341 30.4429 14.3039C30.1993 13.8965 29.954 13.4891 29.746 13.0668C29.634 12.8399 29.6038 12.5799 29.5274 12.3364C29.4314 12.035 29.2998 11.7402 29.2323 11.4339C29.1754 11.1672 29.1914 10.8857 29.1683 10.6124C29.1114 9.96984 29.0456 9.32892 28.9887 8.68635C28.9781 8.56711 28.9905 8.44787 28.9887 8.32862C28.9852 8.12823 29.0883 8.05868 29.3016 8.01396C30.4073 7.77714 31.5308 7.84504 32.6401 7.89969C33.1574 7.92453 33.7067 7.96262 34.2115 8.17295C34.4764 8.28391 34.7893 8.28888 35.0684 8.375C35.3101 8.44952 35.5394 8.56545 35.767 8.6731C36.1172 8.83871 36.4869 8.98279 36.8069 9.18981C37.2727 9.49122 37.7633 9.77111 38.0851 10.2348C38.245 10.465 38.4637 10.6604 38.6557 10.8724C38.6681 10.8857 38.6877 10.894 38.7019 10.9056C38.7979 10.9867 38.7748 11.2401 38.9757 11.1391C39.0734 11.091 39.0965 10.8857 39.1214 10.7466C39.1961 10.3292 39.2156 9.89863 39.3294 9.49288C39.4432 9.08713 39.6405 8.70125 39.8094 8.31041C39.9338 8.02224 40.0458 7.72414 40.2058 7.45419C40.4262 7.08488 40.6591 6.71391 40.94 6.38434C41.3026 5.96037 41.7044 5.56125 42.1204 5.18034C42.4901 4.84249 42.8901 4.53114 43.2989 4.23304C43.6847 3.9515 44.0864 3.68652 44.5024 3.44804C44.7815 3.28905 45.0997 3.18968 45.4001 3.06547C45.5424 3.00751 45.6828 2.94623 45.8268 2.89323C46.1468 2.77731 46.4703 2.66635 46.7921 2.55373C47.2205 2.40302 47.6418 2.22913 48.0791 2.10492C48.4257 2.00721 48.7937 1.97906 49.1475 1.90453C49.5545 1.82007 49.9563 1.71739 50.3598 1.62299C50.3972 1.61471 50.4345 1.60146 50.4736 1.5998C51.4442 1.53025 52.4166 1.464 53.3872 1.39113C53.892 1.35304 54.3951 1.29011 54.9 1.26195C55.2697 1.24208 55.4475 1.3961 55.4475 1.73892C55.4493 3.26421 55.4528 4.78949 55.4279 6.31478C55.4208 6.73875 55.3231 7.16106 55.2591 7.58337C55.2111 7.90135 55.1666 8.22098 55.0849 8.53233C55.0066 8.83374 54.8822 9.12522 54.7809 9.42332C54.7667 9.46638 54.772 9.51606 54.7578 9.55912C54.6476 9.90028 54.5338 10.2381 54.4253 10.5793C54.3507 10.8128 54.2902 11.0513 54.212 11.2831C54.1498 11.4637 54.0787 11.6442 53.9916 11.8164C53.9009 11.9986 53.7872 12.1725 53.6823 12.348C53.4867 12.6776 53.2965 13.0121 53.0903 13.3367C52.9392 13.5752 52.7792 13.8137 52.5979 14.034C52.4184 14.2526 52.221 14.4579 52.0113 14.6517C51.6877 14.9515 51.3607 15.2512 51.0105 15.5228C50.7118 15.753 50.3812 15.9468 50.0594 16.1521C49.8372 16.2946 49.6132 16.4337 49.3821 16.5612C49.2292 16.6457 49.0692 16.7252 48.9021 16.7798C48.6639 16.8577 48.4133 16.9057 48.1715 16.9785C47.864 17.0713 47.5636 17.1823 47.256 17.2733C47.0303 17.3396 46.7974 17.4274 46.5663 17.4373C45.2757 17.4953 43.9922 17.7288 42.6928 17.6095C42.259 17.5698 41.8235 17.5267 41.4022 17.4323C41.2244 17.3876 41.0715 17.2121 40.9418 17.1226Z" fill="#019934"/>
</svg>
