<svg width="56" height="57" viewBox="0 0 56 57" fill="none" xmlns="http://www.w3.org/2000/svg">
<rect y="0.5" width="56" height="56" rx="8" fill="#FB05EE" fill-opacity="0.1"/>
<rect x="0.5" y="1" width="55" height="55" rx="7.5" stroke="#FB05EE" stroke-opacity="0.15"/>
<g clip-path="url(#clip0_1029_3670)">
<path fill-rule="evenodd" clip-rule="evenodd" d="M28.9546 14.0078C26.0692 13.9109 23.226 14.7215 20.8254 16.3252C18.1262 18.1298 16.1494 20.828 15.2425 23.9456C14.9969 23.9156 14.7028 23.9288 14.3536 24.0276C13.0498 24.398 12.0697 25.4659 11.6288 26.4068C11.0564 27.633 10.8153 29.2551 11.0697 30.9288C11.3223 32.5977 12.0273 33.9734 12.9092 34.8274C13.7937 35.6819 14.7923 35.9597 15.7844 35.7511C17.2615 35.4359 17.9938 35.2 17.787 33.8243L16.7862 27.1533C16.8878 25.3376 17.4102 23.5705 18.3121 21.9914C19.2139 20.4123 20.4706 19.0645 21.9828 18.0545C24.0208 16.6911 26.4349 16.0011 28.8855 16.0814C31.3362 16.1618 33.6999 17.0085 35.6442 18.5025C36.9865 19.5317 38.0903 20.839 38.8799 22.3349C39.6695 23.8308 40.1262 25.4797 40.2187 27.1687L39.5185 31.8349C38.7588 33.9174 37.4243 35.7419 35.6697 37.0967C33.9151 38.4515 31.8123 39.2811 29.6054 39.4892H26.6221C26.4396 39.4888 26.2587 39.5245 26.09 39.5941C25.9213 39.6637 25.7679 39.766 25.6388 39.8951C25.5097 40.0241 25.4073 40.1774 25.3376 40.3461C25.2678 40.5148 25.2321 40.6956 25.2324 40.8781V41.6109C25.232 41.7935 25.2677 41.9744 25.3374 42.1431C25.4072 42.3118 25.5095 42.4652 25.6387 42.5942C25.7678 42.7233 25.9211 42.8256 26.0899 42.8953C26.2587 42.965 26.4395 43.0006 26.6221 43.0002H30.3836C30.566 43.0005 30.7466 42.9648 30.9151 42.8951C31.0836 42.8253 31.2367 42.723 31.3656 42.594C31.4944 42.4649 31.5965 42.3117 31.6659 42.143C31.7354 41.9744 31.7709 41.7937 31.7703 41.6114V41.2278C35.1498 40.4003 38.094 38.331 40.0172 35.4315L41.2222 35.7511C42.2028 36.0055 43.2134 35.6815 44.0974 34.8274C44.9793 33.9729 45.6838 32.5977 45.9369 30.9288C46.1927 29.2547 45.944 27.6356 45.3787 26.4068C44.8113 25.1779 43.966 24.3975 42.9903 24.1175C42.5815 23.9998 42.138 23.9566 41.7575 23.9456C40.9385 21.126 39.2409 18.6413 36.9118 16.8534C34.6224 15.0959 31.8394 14.1006 28.9546 14.0078Z" fill="#FB05EE"/>
<path fill-rule="evenodd" clip-rule="evenodd" d="M33.3582 26.0099C33.8361 26.0105 34.2942 26.2006 34.632 26.5385C34.9698 26.8764 35.1598 27.3345 35.1603 27.8124C35.1595 28.2901 34.9693 28.7481 34.6314 29.086C34.2936 29.4238 33.8356 29.614 33.3578 29.6148C32.8795 29.6149 32.4207 29.4252 32.0822 29.0872C31.7437 28.7492 31.5533 28.2907 31.5527 27.8124C31.5528 27.5754 31.5996 27.3409 31.6904 27.122C31.7812 26.9032 31.9142 26.7044 32.0818 26.537C32.2494 26.3696 32.4484 26.2368 32.6673 26.1463C32.8863 26.0558 33.1209 26.0093 33.3578 26.0094L33.3582 26.0099ZM28.5038 26.0099C28.8602 26.0101 29.2086 26.1159 29.5049 26.3141C29.8012 26.5122 30.032 26.7937 30.1684 27.1231C30.3047 27.4524 30.3402 27.8148 30.2706 28.1644C30.201 28.5139 30.0293 28.835 29.7773 29.087C29.5252 29.3391 29.2041 29.5107 28.8545 29.5802C28.5049 29.6497 28.1425 29.614 27.8132 29.4777C27.4839 29.3413 27.2024 29.1103 27.0043 28.814C26.8063 28.5176 26.7005 28.1692 26.7004 27.8128C26.7002 27.5759 26.7467 27.3413 26.8372 27.1224C26.9278 26.9035 27.0606 26.7046 27.2281 26.5371C27.3956 26.3696 27.5945 26.2368 27.8134 26.1462C28.0323 26.0557 28.2669 26.0097 28.5038 26.0099ZM23.6506 26.0099C23.8906 26.0046 24.1293 26.0473 24.3527 26.1355C24.576 26.2237 24.7795 26.3556 24.9511 26.5235C25.1228 26.6914 25.2592 26.8919 25.3523 27.1132C25.4454 27.3345 25.4934 27.5722 25.4934 27.8124C25.4934 28.0525 25.4454 28.2902 25.3523 28.5115C25.2592 28.7328 25.1228 28.9333 24.9511 29.1012C24.7795 29.2691 24.576 29.401 24.3527 29.4892C24.1293 29.5774 23.8906 29.6201 23.6506 29.6148C23.1774 29.6074 22.726 29.4142 22.394 29.077C22.062 28.7397 21.8759 28.2854 21.8759 27.8121C21.8759 27.3389 22.062 26.8846 22.394 26.5473C22.726 26.21 23.1774 26.0173 23.6506 26.0099ZM28.5038 18.2656C23.2172 18.2656 18.957 22.3856 18.957 27.8119C18.957 30.4182 19.9425 32.7215 21.5479 34.4116L20.9782 36.9653C20.7904 37.8057 21.3733 38.371 22.129 37.9503L24.6224 36.5593C25.8475 37.0897 27.1688 37.362 28.5038 37.3591C33.7921 37.3591 38.0496 33.2418 38.0496 27.8132C38.0496 22.3864 33.7921 18.2665 28.5038 18.2665V18.2656Z" fill="#FB05EE"/>
</g>
<defs>
<clipPath id="clip0_1029_3670">
<rect width="35" height="35" fill="white" transform="translate(11 11)"/>
</clipPath>
</defs>
</svg>
