<svg width="71" height="70" viewBox="0 0 71 70" fill="none" xmlns="http://www.w3.org/2000/svg">
<rect x="0.5" width="70" height="70" rx="35" fill="white"/>
<g clip-path="url(#clip0_1034_11078)">
<path d="M33.9273 57.9989C33.1351 57.8836 32.3429 57.7868 31.5507 57.6469C28.1664 57.0662 24.9659 55.6988 22.2072 53.6548C22.0937 53.5721 21.9731 53.4981 21.7953 53.3802C21.7742 53.7736 21.7618 54.1044 21.7363 54.4361C21.6738 55.2324 21.1202 55.7454 20.3605 55.7217C19.6273 55.6988 19.0825 55.1136 19.0939 54.3209C19.1115 53.0767 19.1409 51.8328 19.1819 50.5892C19.211 49.792 19.6669 49.2764 20.4433 49.1294C21.6486 48.9018 22.8548 48.6783 24.0618 48.4589C24.7757 48.3287 25.4341 48.7766 25.6066 49.5007C25.7633 50.1616 25.3276 50.8681 24.6384 51.0459C24.2784 51.1338 23.9087 51.1919 23.4941 51.3802C24.369 51.9222 25.2211 52.5074 26.1242 52.9975C29.2082 54.6831 32.6946 55.4934 36.2061 55.3407C40.6144 55.1876 44.8458 53.5696 48.2309 50.7427C51.616 47.9157 53.9616 44.0412 54.8966 39.7321C55.6685 36.2125 55.4714 32.7316 54.3561 29.3035C54.0806 28.4552 54.3482 27.7513 55.0445 27.4609C55.7548 27.1644 56.5936 27.5093 56.8049 28.2924C57.1887 29.7434 57.4976 31.2137 57.8171 32.6805C57.9131 33.1205 57.9421 33.5736 58.002 34.0206V37.0044C57.9664 37.1132 57.9396 37.2247 57.9219 37.3378C57.7053 40.1817 56.9933 42.9006 55.6879 45.433C52.2498 52.1009 46.8576 56.2135 39.4673 57.6487C38.6822 57.8009 37.8829 57.8853 37.0908 58.0006L33.9273 57.9989Z" fill="#FD9402"/>
<path d="M22.3869 35.4833C22.4301 28.1854 28.3557 22.2891 35.5901 22.3481C42.8246 22.407 48.6956 28.3578 48.6305 35.5528C48.5645 42.8498 42.6618 48.7258 35.4555 48.6686C28.221 48.6114 22.3447 42.6818 22.3869 35.4833ZM34.1932 41.4904C34.1932 41.808 34.1835 42.0694 34.1932 42.3307C34.2249 43.0654 34.768 43.6153 35.4713 43.6356C36.1931 43.6558 36.7705 43.1147 36.8224 42.3588C36.8406 42.1539 36.8406 41.9478 36.8224 41.7429C36.7837 41.4006 36.892 41.215 37.2229 41.039C39.3108 39.9426 39.7879 37.1789 38.222 35.4191C37.4993 34.6104 36.5786 34.2321 35.5056 34.1872C35.2616 34.1867 35.0258 34.0991 34.8407 33.9402C34.6556 33.7813 34.5334 33.5615 34.496 33.3205C34.4611 33.0943 34.505 32.863 34.6203 32.6653C34.7357 32.4676 34.9156 32.3156 35.1298 32.2347C35.3255 32.1776 35.529 32.1518 35.7327 32.1581C36.4369 32.1485 37.1411 32.1757 37.84 32.1458C38.6401 32.1124 39.1603 31.5404 39.1383 30.7837C39.1154 30.0587 38.5565 29.5413 37.7792 29.5307C37.4756 29.5307 37.1728 29.5307 36.8277 29.5307C36.8277 29.2237 36.8374 28.9641 36.8277 28.7045C36.7934 27.9452 36.2371 27.3847 35.5224 27.3741C34.8076 27.3635 34.2188 27.9504 34.195 28.7248C34.1879 28.9738 34.2258 29.2281 34.1818 29.4691C34.152 29.6365 34.057 29.7852 33.9177 29.8827C32.402 30.6931 31.6028 32.2769 31.9284 33.8704C32.2682 35.5361 33.644 36.7055 35.3991 36.8216C36.0989 36.8674 36.5434 37.2616 36.539 37.8414C36.539 38.4433 36.0681 38.8507 35.3542 38.8568C34.6404 38.863 33.9459 38.8472 33.247 38.8612C32.424 38.878 31.8624 39.4384 31.8765 40.2031C31.8897 40.9448 32.4592 41.4763 33.2558 41.4869C33.548 41.4904 33.8385 41.4904 34.1932 41.4904Z" fill="#FD9402"/>
<path d="M49.1961 17.5796C49.1961 17.2276 49.1837 16.9091 49.1961 16.5932C49.2304 15.8294 49.7814 15.2936 50.5164 15.2953C50.6893 15.293 50.861 15.3251 51.0213 15.3898C51.1817 15.4544 51.3276 15.5504 51.4505 15.672C51.5734 15.7936 51.6709 15.9385 51.7372 16.0982C51.8035 16.2579 51.8373 16.4291 51.8367 16.602C51.8543 17.8896 51.8543 19.1778 51.8367 20.4665C51.8279 21.1968 51.364 21.7353 50.6387 21.8884C49.3818 22.1536 48.1231 22.4102 46.8626 22.6584C46.265 22.7763 45.5916 22.2941 45.4543 21.6702C45.3734 21.332 45.4278 20.9756 45.6058 20.6768C45.7839 20.378 46.0715 20.1605 46.4076 20.0706C46.7816 19.9729 47.1637 19.9051 47.5421 19.8242L47.5941 19.6588C46.4797 19.0006 45.3988 18.2738 44.2431 17.6975C40.8772 16.0186 37.2894 15.3939 33.5573 15.7617C30.5956 16.0547 27.7377 17.0097 25.1951 18.5559C22.6525 20.1022 20.4902 22.2003 18.8683 24.6948C17.2464 27.1893 16.2064 30.0165 15.8252 32.9671C15.444 35.9177 15.7313 38.9162 16.666 41.7408C16.9433 42.5882 16.6291 43.3343 15.9064 43.5833C15.1706 43.8376 14.4021 43.4716 14.1882 42.6674C13.8256 41.3017 13.4269 39.9317 13.2315 38.5371C12.6382 34.3136 13.1725 30.2018 14.984 26.3364C18.3041 19.2487 23.816 14.8255 31.532 13.4018C37.836 12.2377 43.634 13.6446 48.8449 17.4045C48.9153 17.4555 48.9883 17.5039 49.0614 17.5523C49.1055 17.565 49.1505 17.5741 49.1961 17.5796Z" fill="#FD9402"/>
</g>
<defs>
<clipPath id="clip0_1034_11078">
<rect width="45" height="45" fill="white" transform="translate(13 13)"/>
</clipPath>
</defs>
</svg>
