<svg width="71" height="70" viewBox="0 0 71 70" fill="none" xmlns="http://www.w3.org/2000/svg">
<rect x="0.5" width="70" height="70" rx="35" fill="white"/>
<path d="M51.0959 51.875C49.2284 54.665 47.2484 57.3875 44.2334 57.4325C41.2184 57.5 40.2509 55.655 36.8309 55.655C33.3884 55.655 32.3309 57.3875 29.4734 57.5C26.5259 57.6125 24.2984 54.53 22.4084 51.8075C18.5609 46.25 15.6134 36.0125 19.5734 29.1275C21.5309 25.7075 25.0409 23.5475 28.8434 23.48C31.7234 23.435 34.4684 25.4375 36.2459 25.4375C38.0009 25.4375 41.3309 23.03 44.8184 23.39C46.2809 23.4575 50.3759 23.975 53.0084 27.845C52.8059 27.98 48.1259 30.725 48.1709 36.4175C48.2384 43.2125 54.1334 45.485 54.2009 45.5075C54.1334 45.665 53.2559 48.7475 51.0959 51.875ZM38.2484 15.875C39.8909 14.0075 42.6134 12.59 44.8634 12.5C45.1559 15.1325 44.0984 17.7875 42.5234 19.6775C40.9709 21.59 38.4059 23.075 35.8859 22.8725C35.5484 20.285 36.8084 17.585 38.2484 15.875Z" fill="#FD9402"/>
</svg>
