<svg width="71" height="70" viewBox="0 0 71 70" fill="none" xmlns="http://www.w3.org/2000/svg">
<rect x="0.5" width="70" height="70" rx="35" fill="white"/>
<path d="M21.0256 33.5721V17.9679C20.9987 17.3404 21.1959 16.7238 21.5819 16.2284C21.968 15.7329 22.5177 15.391 23.1327 15.2637C23.3232 15.2402 23.5158 15.2402 23.7063 15.2637C32.1581 15.2637 40.6061 15.2637 49.0501 15.2637C49.7388 15.2541 50.4038 15.5146 50.9027 15.9895C51.4016 16.4643 51.6947 17.1157 51.7192 17.804V49.2233C51.7391 49.5898 51.6821 49.9565 51.5519 50.2998C51.4218 50.643 51.2213 50.9553 50.9634 51.2165C50.7055 51.4778 50.3958 51.6822 50.0542 51.8167C49.7126 51.9512 49.3467 52.0128 48.9799 51.9976H23.7415C23.3778 52.0125 23.0149 51.9518 22.6759 51.8194C22.3368 51.687 22.0289 51.4857 21.7715 51.2283C21.5141 50.971 21.3129 50.663 21.1805 50.324C21.0481 49.9849 20.9873 49.6221 21.0022 49.2584L21.0256 33.5721ZM27.4874 45.8987H26.1764C25.3921 45.8987 25.0057 46.1914 25.0057 46.7767C25.0057 47.362 25.4038 47.6312 26.1764 47.6312H46.5333C47.4698 47.6312 47.7039 47.3737 47.7039 46.4606V33.022C47.7155 32.87 47.7155 32.7174 47.7039 32.5654C47.6796 32.3605 47.581 32.1716 47.4268 32.0345C47.2725 31.8974 47.0733 31.8217 46.867 31.8217C46.6606 31.8217 46.4614 31.8974 46.3072 32.0345C46.1529 32.1716 46.0542 32.3605 46.0299 32.5654C46.0125 32.7562 46.0125 32.9482 46.0299 33.139V45.8987H43.8292V45.3954C43.8292 43.1361 43.8292 40.8768 43.8292 38.6175C43.8292 37.9854 43.4663 37.5874 42.9512 37.5991C42.4361 37.6108 42.1201 38.0088 42.0967 38.6175V45.8987H40.013V45.4305C40.013 43.8736 40.013 42.3049 40.013 40.748C40.0281 40.6214 40.0142 40.493 39.9724 40.3726C39.9307 40.2521 39.8622 40.1426 39.772 40.0525C39.6819 39.9623 39.5724 39.8938 39.4519 39.8521C39.3315 39.8103 39.2031 39.7964 39.0765 39.8115C38.9567 39.8245 38.8407 39.8613 38.7354 39.9199C38.6301 39.9785 38.5376 40.0576 38.4634 40.1526C38.3892 40.2475 38.3347 40.3564 38.3033 40.4727C38.2719 40.5891 38.2641 40.7106 38.2805 40.83V45.8987H36.2319V42.1059C36.2319 41.4972 35.8924 41.1226 35.3774 41.1109C34.8623 41.0992 34.4994 41.4972 34.4994 42.1176C34.4994 43.2297 34.4994 44.3418 34.4994 45.4422V45.8987H32.7318V45.4305C32.7318 44.693 32.7318 43.9555 32.7318 43.218C32.7152 43.0142 32.6261 42.8232 32.4807 42.6795C32.3353 42.5358 32.1432 42.4491 31.9393 42.4349C31.7353 42.4208 31.533 42.4802 31.3692 42.6024C31.2053 42.7246 31.0907 42.9014 31.0461 43.1009C31.0283 43.3074 31.0283 43.515 31.0461 43.7214C31.0461 44.4355 31.0461 45.1612 31.0461 45.887H29.2902V45.3836C29.308 45.2085 29.308 45.032 29.2902 44.8568C29.2433 44.6562 29.1255 44.4792 28.9585 44.3585C28.7915 44.2378 28.5864 44.1815 28.3812 44.2001C28.1759 44.2186 27.9843 44.3106 27.8415 44.4593C27.6988 44.608 27.6146 44.8032 27.6045 45.009C27.4757 45.2549 27.4874 45.5475 27.4874 45.8987ZM37.2387 24.8277C37.2409 23.6193 36.8854 22.4373 36.2172 21.4305C35.5489 20.4238 34.5977 19.6373 33.4833 19.1701C32.3689 18.7029 31.1411 18.576 29.9547 18.8053C28.7683 19.0345 27.6762 19.6098 26.8161 20.4585C25.956 21.3072 25.3663 22.3915 25.1213 23.5748C24.8762 24.758 24.9868 25.9873 25.4391 27.1079C25.8914 28.2284 26.6651 29.1901 27.6629 29.8717C28.6606 30.5533 29.8378 30.9244 31.0461 30.9383C31.8554 30.9491 32.6588 30.7991 33.4097 30.4969C34.1605 30.1946 34.8439 29.7462 35.42 29.1777C35.9962 28.6092 36.4536 27.9319 36.7658 27.1852C37.078 26.4384 37.2388 25.6371 37.2387 24.8277ZM40.6569 33.9819C40.6403 34.0355 40.6167 34.0867 40.5866 34.1341L36.4778 37.9619C36.4204 37.9937 36.3559 38.0104 36.2904 38.0104C36.2249 38.0104 36.1605 37.9937 36.1031 37.9619C35.6817 37.7044 35.3071 37.3883 34.9325 37.1191C34.6721 36.9256 34.3588 36.8163 34.0345 36.8059C33.7102 36.7954 33.3905 36.8843 33.1181 37.0606C31.7017 37.962 30.3086 38.9101 28.9273 39.8583C28.7714 39.9487 28.6515 40.09 28.5875 40.2584C28.5236 40.4268 28.5195 40.6121 28.5761 40.7831C28.6155 40.9254 28.6902 41.0555 28.7932 41.1613C28.8963 41.2671 29.0243 41.3452 29.1655 41.3884C29.3067 41.4316 29.4565 41.4384 29.601 41.4083C29.7456 41.3782 29.8803 41.3122 29.9926 41.2163C31.1632 40.4085 32.404 39.6125 33.598 38.7931C33.8673 38.6058 34.0429 38.559 34.3004 38.7931C34.5882 39.0285 34.8891 39.2473 35.2018 39.4486C35.3723 39.5994 35.571 39.715 35.7863 39.789C36.0016 39.8629 36.2294 39.8937 36.4566 39.8796C36.6838 39.8655 36.906 39.8067 37.1105 39.7066C37.315 39.6066 37.4978 39.4672 37.6484 39.2964L41.7338 35.4919L42.0967 35.1642C42.0967 35.3515 42.0967 35.4568 42.0967 35.5622C42.0917 35.6788 42.1111 35.7952 42.1534 35.9039C42.1958 36.0127 42.2603 36.1115 42.3428 36.1941C42.4254 36.2766 42.5241 36.3411 42.6329 36.3834C42.7417 36.4258 42.858 36.4451 42.9746 36.4402C43.0888 36.442 43.2022 36.4202 43.3076 36.3762C43.413 36.3323 43.5082 36.2671 43.5872 36.1847C43.6663 36.1023 43.7276 36.0045 43.7672 35.8974C43.8068 35.7903 43.824 35.6762 43.8175 35.5622C43.8175 34.7779 43.8175 34.0053 43.8175 33.221C43.8175 32.6591 43.5365 32.2962 43.0449 32.2727C42.0264 32.2727 41.0197 32.2727 40.0013 32.2727C39.8914 32.2814 39.7843 32.3123 39.6865 32.3633C39.5888 32.4144 39.5023 32.4846 39.4324 32.5699C39.3624 32.6551 39.3104 32.7536 39.2794 32.8595C39.2484 32.9653 39.2392 33.0763 39.2521 33.1859C39.2566 33.295 39.2826 33.4022 39.3286 33.5013C39.3746 33.6005 39.4397 33.6896 39.5202 33.7635C39.6006 33.8374 39.6949 33.8948 39.7975 33.9322C39.9002 33.9697 40.0092 33.9866 40.1183 33.9819H40.6569ZM43.3844 29.1706H45.351C45.9129 29.1706 46.5216 29.1706 47.0367 29.1706C47.2364 29.1528 47.4217 29.0591 47.5545 28.9089C47.6873 28.7587 47.7576 28.5633 47.7508 28.3629C47.7586 28.1543 47.6887 27.9502 47.5546 27.7901C47.4205 27.6301 47.2318 27.5255 47.025 27.4967H46.6621H40.1301C40.011 27.4664 39.8862 27.4664 39.7672 27.4967C39.519 27.6111 39.3022 27.7838 39.1351 28C38.8307 28.5853 39.2755 29.1706 40.013 29.1706H43.3844ZM43.3844 23.938H39.9779C39.8557 23.9251 39.7322 23.9373 39.615 23.9738C39.4977 24.0104 39.3892 24.0706 39.296 24.1506C39.2028 24.2306 39.127 24.3288 39.0731 24.4392C39.0193 24.5496 38.9886 24.6698 38.9829 24.7925C38.9857 24.9166 39.0137 25.0388 39.0653 25.1517C39.117 25.2645 39.1911 25.3657 39.2831 25.4489C39.3751 25.5322 39.4832 25.5958 39.6006 25.6359C39.7181 25.676 39.8424 25.6918 39.9662 25.6822H46.7441C46.8675 25.6953 46.9923 25.6824 47.1105 25.6443C47.2287 25.6062 47.3376 25.5438 47.4303 25.4611C47.5229 25.3784 47.5971 25.2772 47.6483 25.1641C47.6995 25.051 47.7264 24.9284 47.7273 24.8043C47.7273 24.2775 47.3527 23.9497 46.7557 23.938H43.3844ZM45.1052 22.1587H46.8259C47.0557 22.1587 47.2761 22.0674 47.4385 21.9049C47.601 21.7425 47.6923 21.5222 47.6923 21.2924C47.6923 21.0627 47.601 20.8423 47.4385 20.6799C47.2761 20.5174 47.0557 20.4261 46.8259 20.4261C45.6553 20.4261 44.4847 20.4261 43.3141 20.4261C43.0844 20.4261 42.864 20.5174 42.7016 20.6799C42.5391 20.8423 42.4479 21.0627 42.4479 21.2924C42.4479 21.5222 42.5391 21.7425 42.7016 21.9049C42.864 22.0674 43.0844 22.1587 43.3141 22.1587H45.1052Z" fill="#FF5905"/>
<path d="M30.2505 20.5898V21.1634C30.2505 22.334 30.2505 23.5047 30.2505 24.6753C30.2505 25.4362 30.5665 25.7523 31.3274 25.7523H35.3426C35.3426 27.3443 33.3526 29.1236 31.3392 29.2641C30.2358 29.3063 29.1561 28.9367 28.3101 28.227C27.4641 27.5174 26.9124 26.5184 26.7621 25.4245C26.6168 24.3257 26.8971 23.2129 27.5457 22.314C28.1942 21.4152 29.1619 20.7984 30.2505 20.5898Z" fill="#FF5905"/>
<path d="M32.0195 20.5664C32.8524 20.734 33.6162 21.1468 34.2128 21.7517C34.8094 22.3566 35.2114 23.1261 35.3675 23.9612H32.0195V20.5664Z" fill="#FF5905"/>
</svg>
