<svg width="40" height="40" viewBox="0 0 40 40" fill="none" xmlns="http://www.w3.org/2000/svg">
<rect width="40" height="40" rx="20" fill="white" fill-opacity="0.22"/>
<path d="M21.0286 10.0012C21.7583 9.99843 22.488 10.0058 23.2176 10.0232L23.4116 10.0302C23.6356 10.0382 23.8566 10.0482 24.1236 10.0602C25.1876 10.1102 25.9136 10.2782 26.5506 10.5252C27.2106 10.7792 27.7666 11.1232 28.3226 11.6792C28.831 12.1788 29.2244 12.7832 29.4756 13.4502C29.7226 14.0872 29.8906 14.8142 29.9406 15.8782C29.9526 16.1442 29.9626 16.3662 29.9706 16.5902L29.9766 16.7842C29.9943 17.5134 30.002 18.2428 29.9996 18.9722L30.0006 19.7182V21.0282C30.003 21.758 29.9954 22.4877 29.9776 23.2172L29.9716 23.4112C29.9636 23.6352 29.9536 23.8562 29.9416 24.1232C29.8916 25.1872 29.7216 25.9132 29.4756 26.5502C29.2252 27.218 28.8317 27.8228 28.3226 28.3222C27.8225 28.8306 27.2179 29.224 26.5506 29.4752C25.9136 29.7222 25.1876 29.8902 24.1236 29.9402C23.8566 29.9522 23.6356 29.9622 23.4116 29.9702L23.2176 29.9762C22.4881 29.994 21.7583 30.0017 21.0286 29.9992L20.2826 30.0002H18.9736C18.2438 30.0027 17.5141 29.995 16.7846 29.9772L16.5906 29.9712C16.3532 29.9626 16.1158 29.9526 15.8786 29.9412C14.8146 29.8912 14.0886 29.7212 13.4506 29.4752C12.7833 29.2246 12.1788 28.8311 11.6796 28.3222C11.1706 27.8225 10.7768 27.2178 10.5256 26.5502C10.2786 25.9132 10.1106 25.1872 10.0606 24.1232C10.0494 23.8859 10.0394 23.6486 10.0306 23.4112L10.0256 23.2172C10.0071 22.4877 9.99881 21.758 10.0006 21.0282V18.9722C9.99779 18.2428 10.0051 17.5134 10.0226 16.7842L10.0296 16.5902C10.0376 16.3662 10.0476 16.1442 10.0596 15.8782C10.1096 14.8132 10.2776 14.0882 10.5246 13.4502C10.7759 12.7829 11.1705 12.1787 11.6806 11.6802C12.1795 11.171 12.7835 10.7768 13.4506 10.5252C14.0886 10.2782 14.8136 10.1102 15.8786 10.0602L16.5906 10.0302L16.7846 10.0252C17.5138 10.0068 18.2432 9.99847 18.9726 10.0002L21.0286 10.0012ZM20.0006 15.0012C19.3381 14.9919 18.6803 15.1143 18.0656 15.3613C17.4508 15.6083 16.8912 15.9751 16.4194 16.4403C15.9476 16.9055 15.573 17.4598 15.3173 18.071C15.0616 18.6822 14.9299 19.3382 14.9299 20.0007C14.9299 20.6633 15.0616 21.3192 15.3173 21.9305C15.573 22.5417 15.9476 23.096 16.4194 23.5612C16.8912 24.0264 17.4508 24.3931 18.0656 24.6402C18.6803 24.8872 19.3381 25.0096 20.0006 25.0002C21.3267 25.0002 22.5984 24.4734 23.5361 23.5358C24.4738 22.5981 25.0006 21.3263 25.0006 20.0002C25.0006 18.6741 24.4738 17.4024 23.5361 16.4647C22.5984 15.527 21.3267 15.0012 20.0006 15.0012ZM20.0006 17.0012C20.3991 16.9939 20.7951 17.066 21.1654 17.2134C21.5357 17.3608 21.8729 17.5806 22.1574 17.8598C22.4418 18.139 22.6678 18.4721 22.822 18.8396C22.9763 19.2071 23.0558 19.6016 23.0558 20.0002C23.0559 20.3988 22.9766 20.7934 22.8224 21.1609C22.6683 21.5285 22.4424 21.8617 22.1581 22.141C21.8737 22.4203 21.5366 22.6401 21.1663 22.7876C20.796 22.9352 20.4001 23.0074 20.0016 23.0002C19.2059 23.0002 18.4429 22.6842 17.8803 22.1216C17.3176 21.5589 17.0016 20.7959 17.0016 20.0002C17.0016 19.2046 17.3176 18.4415 17.8803 17.8789C18.4429 17.3163 19.2059 17.0002 20.0016 17.0002L20.0006 17.0012ZM25.2506 13.5012C24.928 13.5141 24.6229 13.6514 24.3992 13.8842C24.1755 14.117 24.0506 14.4274 24.0506 14.7502C24.0506 15.0731 24.1755 15.3834 24.3992 15.6163C24.6229 15.8491 24.928 15.9863 25.2506 15.9992C25.5821 15.9992 25.9 15.8675 26.1345 15.6331C26.3689 15.3987 26.5006 15.0808 26.5006 14.7492C26.5006 14.4177 26.3689 14.0998 26.1345 13.8653C25.9 13.6309 25.5821 13.4992 25.2506 13.4992V13.5012Z" fill="#019934"/>
</svg>
