<svg width="71" height="70" viewBox="0 0 71 70" fill="none" xmlns="http://www.w3.org/2000/svg">
<rect x="0.5" width="70" height="70" rx="35" fill="white"/>
<path d="M21.0051 17.0297C21.1259 17.0297 21.2602 17.0117 21.3945 17.0117C28.7052 17.0117 36.0122 17.0117 43.3154 17.0117C44.7545 17.0117 45.71 17.6869 46.0166 18.9225C46.0697 19.1701 46.0937 19.4232 46.0882 19.6764C46.0882 24.0966 46.0882 28.5167 46.0882 32.9368C46.0798 33.1523 45.9949 33.3575 45.8488 33.5153C44.315 35.0802 42.7708 36.6331 41.2162 38.174C41.045 38.326 40.8267 38.4135 40.5985 38.4215C38.0517 38.4373 35.5049 38.4215 32.9559 38.4215C32.8027 38.4148 32.6491 38.4215 32.497 38.4418C32.4193 38.4466 32.3435 38.4675 32.2742 38.5033C32.205 38.539 32.1439 38.5888 32.0947 38.6495C32.0455 38.7101 32.0092 38.7804 31.9884 38.8558C31.9675 38.9313 31.9624 39.0102 31.9734 39.0877C31.974 39.2384 32.0334 39.3827 32.1389 39.4897C32.2445 39.5966 32.3876 39.6576 32.5374 39.6594C32.6604 39.6706 32.7881 39.6594 32.9134 39.6594H39.6138L39.7123 39.8056C39.3839 40.0571 39.0756 40.334 38.7902 40.6338C38.4984 40.968 38.2633 41.3482 38.0943 41.7591C37.6467 42.9384 37.2505 44.138 36.8566 45.3376C36.7402 45.6909 36.691 46.0667 36.5993 46.4853H32.8372C32.2665 46.4853 31.9733 46.7104 31.9666 47.1133C31.9599 47.5161 32.2553 47.7547 32.8193 47.757C34.1621 47.757 35.5049 47.7457 36.8476 47.757C37.2751 47.757 37.7003 47.8672 38.1278 47.8807C38.4295 47.9002 38.7323 47.8674 39.023 47.7839C40.3121 47.3653 41.5966 46.9355 42.8656 46.4606C43.2525 46.3051 43.6058 46.0758 43.9062 45.7854C44.6223 45.1103 45.2938 44.3946 46.0525 43.6249C46.0704 43.8274 46.0882 43.9399 46.0882 44.0525C46.0882 46.4741 46.0882 48.8957 46.0882 51.3173C46.0882 52.4066 45.5153 52.9963 44.4366 52.9985C37.5929 52.9985 30.7478 52.9985 23.9011 52.9985C22.8 52.9985 22.2248 52.4022 22.2248 51.2971C22.2248 41.0345 22.2248 30.7718 22.2248 20.5091C22.2248 19.2488 21.9048 18.1235 21.0499 17.1783C21.0229 17.1465 20.9997 17.1118 20.9805 17.0747C20.9805 17.0747 20.9916 17.0748 21.0051 17.0297ZM30.2904 22.897C30.2904 22.2376 30.2904 21.5759 30.2904 20.9165C30.2904 20.3831 30.0554 20.1535 29.5183 20.1513C28.359 20.1513 27.1991 20.1513 26.0383 20.1513C25.5034 20.1513 25.255 20.3876 25.2505 20.912C25.2416 22.2308 25.2416 23.5511 25.2505 24.873C25.2505 25.3816 25.4975 25.6375 25.9913 25.6405C27.1849 25.6495 28.3733 25.6495 29.5564 25.6405C30.0577 25.6405 30.286 25.3906 30.2904 24.8775C30.286 24.2181 30.286 23.5564 30.286 22.897H30.2904ZM30.2904 47.174C30.2904 46.4989 30.2904 45.8237 30.2904 45.1485C30.2904 44.6399 30.0554 44.3968 29.5497 44.3923C28.3755 44.3923 27.2013 44.3923 26.0272 44.3923C25.5012 44.3923 25.2528 44.6399 25.2505 45.1665C25.2505 46.4876 25.2505 47.8087 25.2505 49.1275C25.2505 49.6339 25.5034 49.8792 26.0025 49.8815C27.196 49.8815 28.3836 49.8815 29.5653 49.8815C30.0487 49.8815 30.2837 49.6362 30.2904 49.1546C30.2971 48.4951 30.286 47.8357 30.286 47.174H30.2904ZM30.2904 39.0877C30.2904 38.4125 30.2904 37.7374 30.2904 37.0622C30.2904 36.5828 30.0845 36.3262 29.619 36.3195C28.3904 36.2992 27.1572 36.3015 25.9331 36.3195C25.8409 36.3109 25.748 36.3227 25.6609 36.3543C25.5738 36.3858 25.4946 36.4362 25.4291 36.5019C25.3635 36.5676 25.3132 36.6471 25.2816 36.7345C25.2499 36.822 25.2378 36.9155 25.246 37.0082C25.2341 38.372 25.2341 39.7351 25.246 41.0975C25.246 41.5588 25.4989 41.7862 25.9599 41.7884C27.161 41.7884 28.3621 41.7884 29.5631 41.7884C30.0554 41.7884 30.2771 41.5634 30.2838 41.0682C30.2972 40.4088 30.286 39.7471 30.286 39.0877H30.2904ZM30.2904 31.0013C30.2904 30.3261 30.2904 29.651 30.2904 28.9758C30.2904 28.4807 30.0666 28.2556 29.5721 28.2534C28.3785 28.2534 27.1849 28.2534 25.9913 28.2534C25.4788 28.2534 25.2416 28.4784 25.2394 28.9938C25.2394 30.3172 25.2394 31.6405 25.2394 32.9639C25.2394 33.4545 25.4632 33.7133 25.9488 33.72C27.1663 33.7358 28.3837 33.7381 29.6011 33.72C30.0666 33.72 30.2725 33.4635 30.2725 32.9909C30.2971 32.3247 30.286 31.663 30.286 31.0013H30.2904ZM37.5482 22.2623H33.2244C33.014 22.2623 32.8036 22.2623 32.5955 22.2623C32.51 22.2563 32.4243 22.2677 32.3434 22.2962C32.2625 22.3246 32.1883 22.3694 32.1253 22.4277C32.0622 22.4861 32.0117 22.5568 31.9768 22.6354C31.9419 22.7141 31.9233 22.7991 31.9222 22.8853C31.9212 22.9714 31.9376 23.0569 31.9705 23.1364C32.0035 23.216 32.0522 23.2879 32.1138 23.3477C32.1754 23.4076 32.2485 23.4543 32.3286 23.4847C32.4088 23.5152 32.4943 23.5288 32.5799 23.5249C32.6775 23.5305 32.7754 23.5305 32.8731 23.5249C35.9808 23.5249 39.0879 23.5249 42.1942 23.5249C42.3598 23.5249 42.5701 23.5474 42.6798 23.4596C42.8588 23.3156 43.0916 23.0815 43.0804 22.8992C43.0692 22.7169 42.8387 22.4671 42.6552 22.3073C42.5612 22.2263 42.362 22.2578 42.2076 22.2578L37.5482 22.2623ZM37.575 30.3644H32.7477C32.233 30.3644 31.9645 30.5737 31.9578 30.9676C31.951 31.3614 32.2151 31.6045 32.7208 31.6045C35.9226 31.6045 39.1259 31.6045 42.3307 31.6045C42.8208 31.6045 43.114 31.3547 43.1073 30.9721C43.1006 30.5895 42.8208 30.3644 42.315 30.3644H37.575Z" fill="#FF5905"/>
<path d="M52.3308 35.4898L43.6453 44.2243L40.3555 40.8957L49.0343 32.168L52.3308 35.4898Z" fill="#FF5905"/>
<path d="M20.9591 26.497H15.25V26.0469C15.25 23.9464 15.25 21.8458 15.25 19.7453C15.25 17.704 17.0113 16.4842 18.9136 17.2044C19.5084 17.4268 20.022 17.8257 20.3865 18.3481C20.751 18.8706 20.9491 19.492 20.9546 20.1302C20.9546 22.1557 20.9546 24.1564 20.9546 26.1684L20.9591 26.497Z" fill="#FF5905"/>
<path d="M53.3759 34.4718L50.0547 31.1274C50.7261 30.4522 51.3975 29.6983 52.1271 29.0051C52.3203 28.8243 52.5765 28.7272 52.8403 28.7348C53.1042 28.7424 53.3543 28.854 53.537 29.0456C54.186 29.6653 54.8179 30.3007 55.4326 30.9519C55.5304 31.0444 55.6089 31.1557 55.6634 31.2792C55.7178 31.4026 55.7471 31.5358 55.7496 31.6709C55.7521 31.8059 55.7278 31.9401 55.6779 32.0656C55.6281 32.191 55.5538 32.3051 55.4595 32.4012C54.7791 33.1214 54.054 33.8011 53.3759 34.4718Z" fill="#FF5905"/>
<path d="M42.6492 45.2452C41.331 45.6953 39.9793 46.1724 38.6208 46.6293C38.1732 46.7824 37.8062 46.4538 37.9494 45.9969C38.397 44.615 38.8848 43.2444 39.3503 41.8828L42.6492 45.2452Z" fill="#FF5905"/>
</svg>
