<svg width="71" height="70" viewBox="0 0 71 70" fill="none" xmlns="http://www.w3.org/2000/svg">
<rect x="0.5" width="70" height="70" rx="35" fill="white"/>
<path d="M21.2181 27.7822C19.8249 27.7815 18.6957 28.9135 18.6953 30.3057L18.697 40.8712C18.6969 41.2027 18.7621 41.531 18.8889 41.8372C19.0156 42.1435 19.2015 42.4218 19.4359 42.6562C19.6703 42.8906 19.9486 43.0766 20.2548 43.2034C20.5611 43.3302 20.8894 43.3954 21.2208 43.3954C21.5523 43.3957 21.8806 43.3307 22.1869 43.204C22.4932 43.0772 22.7715 42.8913 23.0058 42.6569C23.2401 42.4224 23.4258 42.144 23.5524 41.8377C23.679 41.5313 23.7438 41.203 23.7433 40.8715V30.3043C23.7426 29.6351 23.4762 28.9936 23.0027 28.5206C22.5292 28.0477 21.8873 27.7821 21.2181 27.7822ZM41.5653 18.294L43.3264 15.0783C43.3712 14.9967 43.3819 14.9006 43.3561 14.8112C43.3302 14.7218 43.27 14.6462 43.1885 14.6011C43.107 14.5568 43.0111 14.5466 42.9221 14.5729C42.833 14.5991 42.758 14.6596 42.7135 14.741L40.9346 17.9905C39.4379 17.3243 37.7628 16.951 35.9904 16.9527C34.2228 16.951 32.5484 17.3233 31.0579 17.9857L29.277 14.7445C29.2552 14.704 29.2257 14.6683 29.19 14.6393C29.1544 14.6104 29.1133 14.5888 29.0693 14.5758C29.0252 14.5628 28.979 14.5587 28.9334 14.5637C28.8877 14.5687 28.8435 14.5827 28.8033 14.6049C28.7627 14.6266 28.7268 14.6562 28.6978 14.6919C28.6688 14.7276 28.6472 14.7688 28.6342 14.8129C28.6213 14.8571 28.6173 14.9034 28.6225 14.9492C28.6277 14.9949 28.6419 15.0391 28.6644 15.0793L30.4261 18.293C26.9646 20.0781 24.6257 23.4778 24.6278 27.3811L47.3558 27.3783C47.3568 23.4764 45.0221 20.0836 41.5653 18.294ZM30.8211 23.2636C30.5683 23.2635 30.326 23.163 30.1473 22.9841C29.9687 22.8053 29.8684 22.5628 29.8686 22.3101C29.8687 22.0573 29.9692 21.815 30.1481 21.6363C30.3269 21.4577 30.5694 21.3574 30.8221 21.3575C31.0749 21.358 31.3172 21.4586 31.496 21.6373C31.6748 21.816 31.7755 22.0583 31.776 22.3111C31.7757 22.564 31.6749 22.8065 31.4958 22.9851C31.3167 23.1637 31.074 23.2639 30.8211 23.2636ZM41.1704 23.2616C41.0452 23.2617 40.9213 23.2371 40.8057 23.1893C40.6901 23.1414 40.585 23.0713 40.4965 22.9828C40.408 22.8943 40.3378 22.7893 40.2899 22.6737C40.2421 22.5581 40.2175 22.4342 40.2175 22.309C40.2189 22.0565 40.3197 21.8146 40.4981 21.6359C40.6765 21.4572 40.9182 21.3559 41.1707 21.3541C41.4231 21.3562 41.6644 21.4576 41.8424 21.6364C42.0205 21.8153 42.1209 22.057 42.1219 22.3094C42.122 22.4344 42.0975 22.5582 42.0497 22.6738C42.002 22.7893 41.9319 22.8943 41.8435 22.9827C41.7552 23.0712 41.6502 23.1413 41.5347 23.1892C41.4192 23.237 41.2954 23.2616 41.1704 23.2616ZM24.7206 28.259L24.7243 44.6335C24.7238 44.9872 24.7931 45.3375 24.9283 45.6644C25.0634 45.9912 25.2617 46.2882 25.5118 46.5382C25.7619 46.7883 26.0589 46.9866 26.3858 47.1217C26.7126 47.2567 27.0629 47.326 27.4166 47.3254L29.2498 47.3261L29.2519 52.9169C29.2515 54.3091 30.3832 55.4407 31.7733 55.4407C33.1675 55.4407 34.2971 54.308 34.2974 52.9152L34.2961 47.3258L37.7023 47.3248L37.7037 52.9152C37.7037 54.3063 38.8356 55.4404 40.2261 55.4376C41.6203 55.4386 42.7506 54.306 42.7502 52.9131L42.7485 47.3241L44.5883 47.3227C44.942 47.3227 45.2922 47.2531 45.619 47.1178C45.9458 46.9825 46.2427 46.7842 46.4928 46.5341C46.7429 46.284 46.9414 45.9872 47.0768 45.6604C47.2122 45.3337 47.2819 44.9834 47.2819 44.6298L47.2788 28.2552L24.7206 28.259ZM53.2979 30.3019C53.2978 29.9706 53.2325 29.6425 53.1057 29.3364C52.9788 29.0303 52.793 28.7522 52.5586 28.5179C52.3243 28.2836 52.0461 28.0978 51.74 27.9711C51.4339 27.8443 51.1058 27.7791 50.7744 27.7791C49.3812 27.7778 48.2523 28.909 48.2523 30.303L48.2544 40.8691C48.2542 41.2005 48.3193 41.5287 48.446 41.8348C48.5727 42.141 48.7585 42.4192 48.9928 42.6535C49.2271 42.8878 49.5053 43.0736 49.8115 43.2003C50.1176 43.327 50.4458 43.3921 50.7772 43.3919C51.1086 43.392 51.4367 43.3267 51.7429 43.1998C52.0491 43.073 52.3272 42.887 52.5615 42.6526C52.7958 42.4182 52.9815 42.1399 53.1082 41.8336C53.2348 41.5274 53.2999 41.1992 53.2996 40.8678L53.2979 30.3019Z" fill="#00A65F"/>
</svg>
