<svg width="71" height="70" viewBox="0 0 71 70" fill="none" xmlns="http://www.w3.org/2000/svg">
<rect x="0.5" width="70" height="70" rx="35" fill="white"/>
<path d="M29.6934 33.3008H18.4434C16.3809 33.3008 14.6934 31.6133 14.6934 29.5508V18.3008C14.6934 16.2383 16.3809 14.5508 18.4434 14.5508H29.6934C31.7559 14.5508 33.4434 16.2383 33.4434 18.3008V29.5508C33.4434 31.6133 31.7559 33.3008 29.6934 33.3008ZM18.4434 18.3008V29.5508H29.6934V18.3008H18.4434ZM29.6934 55.8008H18.4434C16.3809 55.8008 14.6934 54.1133 14.6934 52.0508V40.8008C14.6934 38.7383 16.3809 37.0508 18.4434 37.0508H29.6934C31.7559 37.0508 33.4434 38.7383 33.4434 40.8008V52.0508C33.4434 54.1133 31.7559 55.8008 29.6934 55.8008ZM18.4434 40.8008V52.0508H29.6934V40.8008H18.4434ZM52.1934 33.3008H40.9434C38.8809 33.3008 37.1934 31.6133 37.1934 29.5508V18.3008C37.1934 16.2383 38.8809 14.5508 40.9434 14.5508H52.1934C54.2559 14.5508 55.9434 16.2383 55.9434 18.3008V29.5508C55.9434 31.6133 54.2559 33.3008 52.1934 33.3008ZM40.9434 18.3008V29.5508H52.1934V18.3008H40.9434ZM54.0684 40.8008H39.0684C37.9434 40.8008 37.1934 40.0508 37.1934 38.9258C37.1934 37.8008 37.9434 37.0508 39.0684 37.0508H54.0684C55.1934 37.0508 55.9434 37.8008 55.9434 38.9258C55.9434 40.0508 55.1934 40.8008 54.0684 40.8008ZM54.0684 48.3008H46.5684C45.4434 48.3008 44.6934 47.5508 44.6934 46.4258C44.6934 45.3008 45.4434 44.5508 46.5684 44.5508H54.0684C55.1934 44.5508 55.9434 45.3008 55.9434 46.4258C55.9434 47.5508 55.1934 48.3008 54.0684 48.3008ZM54.0684 55.8008H39.0684C37.9434 55.8008 37.1934 55.0508 37.1934 53.9258C37.1934 52.8008 37.9434 52.0508 39.0684 52.0508H54.0684C55.1934 52.0508 55.9434 52.8008 55.9434 53.9258C55.9434 55.0508 55.1934 55.8008 54.0684 55.8008Z" fill="#00A65F"/>
</svg>
