<svg width="631" height="663" viewBox="0 0 631 663" fill="none" xmlns="http://www.w3.org/2000/svg">
<rect width="631" height="663" rx="8" fill="#EFF8E6"/>
<path d="M546.64 540.794C608.078 494.078 635.44 364.539 535.682 301.017C469.639 258.972 428.563 282.957 354.265 255.143C263.563 221.196 250.044 118.63 139.717 169.098C81.2668 195.826 40.7478 271.159 33.6195 356.776C26.6334 440.622 56.3499 498.153 117.077 537.521C259.682 543.588 402.573 542.488 546.64 540.794Z" fill="#11BF4B" fill-opacity="0.13"/>
<path d="M294.53 166.637C285.255 199.576 319.698 232.184 355.984 245.703C392.271 259.233 433.882 257.62 472.756 251.17C489.53 248.391 506.773 244.479 519.803 235.02C532.834 225.562 540.388 209.138 533.247 195.871C526.945 184.17 511.601 178.177 496.974 175.101C482.347 172.024 466.811 170.766 453.779 164.292C441.423 158.151 432.657 147.983 421.911 139.931C402.054 125.074 374.162 117.709 348.347 122.409C322.518 127.11 302.414 138.639 294.53 166.637Z" fill="#11BF4B" fill-opacity="0.13"/>
<path d="M577.911 343.703V315.515H567.222C565.939 310.587 563.981 305.94 561.474 301.66L569.032 294.09L549.099 274.157L541.529 281.714C537.249 279.207 532.602 277.251 527.673 275.967V265.279H499.486V275.967C494.558 277.251 489.911 279.207 485.63 281.714L478.061 274.157L458.127 294.09L465.685 301.66C463.178 305.939 461.234 310.586 459.937 315.515H449.25V343.703H459.937C461.234 348.63 463.178 353.277 465.685 357.558L458.127 365.128L478.061 385.061L485.63 377.503C489.91 380.011 494.557 381.955 499.486 383.251V393.939H527.673V383.251C532.601 381.955 537.248 380.011 541.529 377.503L549.099 385.061L569.032 365.128L561.474 357.558C563.981 353.279 565.937 348.632 567.222 343.703H577.911ZM513.589 354.03C500.098 354.03 489.16 343.092 489.16 329.601C489.16 316.125 500.098 305.188 513.589 305.188C527.065 305.188 538.002 316.125 538.002 329.601C538.002 343.093 527.065 354.03 513.589 354.03Z" fill="white"/>
<path d="M492.733 414.327L487.371 400.348L482.071 402.382C480.496 400.183 478.642 398.25 476.584 396.604L478.892 391.413L465.215 385.319L462.899 390.507C460.3 390.078 457.623 389.992 454.935 390.292L452.901 384.992L438.923 390.354L440.956 395.655C438.757 397.229 436.824 399.083 435.179 401.141L429.987 398.833L423.894 412.511L429.081 414.826C428.653 417.425 428.573 420.101 428.867 422.79L423.566 424.824L428.929 438.803L434.229 436.769C435.81 438.967 437.657 440.901 439.716 442.547L437.408 447.738L451.085 453.832L453.401 448.644C456 449.073 458.675 449.152 461.365 448.859L463.398 454.159L477.377 448.797L475.343 443.496C477.541 441.915 479.475 440.068 481.121 438.01L486.313 440.318L492.406 426.64L487.218 424.325C487.648 421.726 487.733 419.049 487.433 416.361L492.733 414.327ZM462.799 431.687C456.11 434.254 448.604 430.911 446.037 424.22C443.473 417.537 446.816 410.032 453.507 407.465C460.19 404.901 467.695 408.245 470.259 414.927C472.826 421.617 469.483 429.123 462.799 431.687Z" stroke="#F68A3D" stroke-miterlimit="10"/>
<path d="M446.933 365.295L443.31 355.85L439.729 357.224C438.665 355.737 437.411 354.432 436.021 353.32L437.58 349.811L428.337 345.694L426.772 349.2C425.015 348.911 423.207 348.852 421.39 349.055L420.016 345.474L410.571 349.098L411.945 352.679C410.458 353.743 409.153 354.996 408.04 356.386L404.532 354.827L400.415 364.069L403.921 365.634C403.631 367.391 403.577 369.199 403.776 371.016L400.195 372.39L403.819 381.835L407.4 380.462C408.469 381.947 409.717 383.253 411.108 384.366L409.549 387.875L418.791 391.991L420.357 388.485C422.113 388.775 423.921 388.829 425.738 388.63L427.112 392.211L436.558 388.587L435.184 385.006C436.669 383.939 437.976 382.689 439.087 381.3L442.595 382.859L446.712 373.617L443.206 372.051C443.496 370.294 443.554 368.486 443.351 366.669L446.933 365.295ZM426.707 377.024C422.187 378.758 417.116 376.499 415.381 371.979C413.649 367.462 415.907 362.392 420.428 360.657C424.943 358.925 430.014 361.184 431.746 365.7C433.482 370.221 431.222 375.292 426.707 377.024Z" stroke="#F68A3D" stroke-miterlimit="10"/>
<path d="M443.643 199.922C443.643 214.086 437.023 226.711 426.724 234.869C419.14 240.887 409.551 244.458 399.106 244.458C388.687 244.458 379.097 240.887 371.488 234.869C361.175 226.711 354.568 214.086 354.568 199.922C354.568 175.326 374.51 155.385 399.106 155.385C423.702 155.385 443.643 175.326 443.643 199.922Z" fill="#019934" stroke="#019934" stroke-miterlimit="10"/>
<path d="M400.902 199.744C408.894 198.758 414.572 191.481 413.586 183.49C412.6 175.5 405.322 169.822 397.331 170.808C389.34 171.794 383.661 179.071 384.647 187.062C385.633 195.053 392.911 200.731 400.902 199.744Z" fill="white"/>
<path d="M426.725 229.252C419.141 235.271 409.552 238.842 399.106 238.842C388.688 238.842 379.098 235.272 371.488 229.252C374.337 216.72 376.958 205.901 379.687 203.159C383.538 199.308 393.77 197.061 399.092 197.061C404.415 197.061 415.128 199.789 417.107 201.769C421.147 205.793 424.625 216.908 426.725 229.252Z" fill="white"/>
<path d="M335.1 309.712V287.719C335.1 281.716 339.964 276.852 345.967 276.852H415.258C421.261 276.852 426.125 281.716 426.125 287.719V309.712C426.125 315.715 421.261 320.579 415.258 320.579H345.98C339.977 320.592 335.1 315.715 335.1 309.712Z" fill="#019934"/>
<path d="M364.363 308.56L330.83 341.227L385.179 313.761" fill="#019934"/>
<path d="M343.51 287.175V287.059C343.51 286.166 344.234 285.441 345.127 285.441H379.384C380.277 285.441 381.001 286.166 381.001 287.059V287.175C381.001 288.068 380.277 288.792 379.384 288.792H345.127C344.234 288.792 343.51 288.068 343.51 287.175Z" fill="white"/>
<path d="M382.541 287.175V287.059C382.541 286.166 383.265 285.441 384.158 285.441H414.056C414.948 285.441 415.673 286.166 415.673 287.059V287.175C415.673 288.068 414.948 288.792 414.056 288.792H384.158C383.265 288.792 382.541 288.068 382.541 287.175Z" fill="white"/>
<path d="M369.488 294.536V294.42C369.488 293.527 370.213 292.803 371.105 292.803H414.057C414.949 292.803 415.674 293.527 415.674 294.42V294.536C415.674 295.429 414.949 296.153 414.057 296.153H371.105C370.213 296.153 369.488 295.429 369.488 294.536Z" fill="white"/>
<path d="M343.51 294.536V294.42C343.51 293.527 344.234 292.803 345.127 292.803H364.313C365.205 292.803 365.93 293.527 365.93 294.42V294.536C365.93 295.429 365.205 296.153 364.313 296.153H345.127C344.234 296.153 343.51 295.429 343.51 294.536Z" fill="white"/>
<path d="M375.451 301.898V301.781C375.451 300.889 376.176 300.164 377.068 300.164H414.056C414.948 300.164 415.673 300.889 415.673 301.781V301.898C415.673 302.79 414.948 303.515 414.056 303.515H377.068C376.176 303.515 375.451 302.79 375.451 301.898Z" fill="white"/>
<path d="M343.51 301.897V301.781C343.51 300.888 344.234 300.164 345.127 300.164H370.678C371.57 300.164 372.295 300.888 372.295 301.781V301.897C372.295 302.79 371.57 303.515 370.678 303.515H345.127C344.234 303.515 343.51 302.79 343.51 301.897Z" fill="white"/>
<path d="M343.51 309.259V309.143C343.51 308.25 344.234 307.525 345.127 307.525H354.61C355.502 307.525 356.227 308.25 356.227 309.143V309.259C356.227 310.152 355.502 310.876 354.61 310.876H345.127C344.234 310.876 343.51 310.152 343.51 309.259Z" fill="white"/>
<path d="M359.578 309.259V309.143C359.578 308.25 360.303 307.525 361.195 307.525H414.056C414.949 307.525 415.673 308.25 415.673 309.143V309.259C415.673 310.152 414.949 310.876 414.056 310.876H361.195C360.303 310.876 359.578 310.152 359.578 309.259Z" fill="white"/>
<path d="M164.07 278.579C174.054 257.123 164.754 231.636 143.298 221.652C121.842 211.668 96.3543 220.968 86.3704 242.424C76.3865 263.88 85.6867 289.368 107.143 299.352C128.599 309.335 154.086 300.035 164.07 278.579Z" fill="#019934"/>
<path d="M118.552 291.331C123.962 289.431 126.808 283.504 124.907 278.094C123.007 272.683 117.08 269.837 111.67 271.738C106.259 273.638 103.414 279.565 105.314 284.976C107.215 290.386 113.141 293.232 118.552 291.331Z" fill="white"/>
<path d="M109.656 285.259L109.154 278.674L114.607 274.948L120.561 277.806L121.062 284.391L115.61 288.118L109.656 285.259Z" fill="#019934"/>
<path d="M138.787 249.243C144.186 247.313 146.999 241.371 145.068 235.971C143.138 230.572 137.196 227.759 131.796 229.689C126.397 231.62 123.584 237.562 125.515 242.961C127.445 248.361 133.387 251.173 138.787 249.243Z" fill="white"/>
<path d="M130.152 242.571L130.509 234.198L136.819 228.683L142.772 231.542L142.415 239.915L136.105 245.428L130.152 242.571Z" fill="#019934"/>
<path d="M122.301 276.734L114.359 272.92L120.229 259.379C120.602 258.52 121.006 257.675 121.444 256.847L128.34 243.799L136.283 247.613L130.621 260.948C130.184 261.979 129.698 262.99 129.167 263.977L122.301 276.734Z" fill="white"/>
<path d="M154.969 283.556C156.499 282.845 181.084 283.967 181.084 283.967L163.362 267.697L154.969 283.556Z" fill="#019934"/>
<path d="M263.458 188.048C272.691 166.701 262.872 141.91 241.525 132.676C220.177 123.442 195.387 133.262 186.153 154.609C176.919 175.956 186.739 200.747 208.086 209.981C229.433 219.215 254.224 209.395 263.458 188.048Z" fill="#019934"/>
<path d="M226.217 135.442H223.404V170.81H226.217V135.442Z" fill="white"/>
<path d="M193.735 191.229L195.336 193.541L224.811 173.14L223.21 170.827L193.735 191.229Z" fill="white"/>
<path d="M228.687 171.331C228.687 173.472 226.953 175.207 224.812 175.207C222.67 175.207 220.936 173.472 220.936 171.331C220.936 169.19 222.67 167.455 224.812 167.455C226.953 167.455 228.687 169.191 228.687 171.331Z" fill="white"/>
<path d="M339.15 456.496C336.653 417.996 353.497 378.149 381.868 355.354C382.748 394.049 366.072 433.21 339.15 456.496Z" fill="#FEF0F1"/>
<path d="M377.237 365.716C365.284 387.994 354.947 411.307 346.357 435.357C335.916 464.556 327.701 495.579 309.822 520.056" stroke="#C52127" stroke-opacity="0.3" stroke-miterlimit="10" stroke-linecap="round"/>
<path d="M330.197 480.714C344.557 448.591 373.058 424.321 404.482 417.452C391.105 451.877 361.013 478.14 330.197 480.714Z" fill="#FEF0F1"/>
<path d="M396.772 424.528C375.309 443.416 353.484 461.774 331.297 479.588" stroke="#C52127" stroke-opacity="0.3" stroke-miterlimit="10" stroke-linecap="round"/>
<path d="M321.727 508.698C340.912 480.042 376.308 465.087 405.598 473.263C384.058 501.557 348.584 516.551 321.727 508.698Z" fill="#FEF0F1"/>
<path d="M398.571 475.334C373.421 491.065 346.292 502.683 318.322 509.669" stroke="#C52127" stroke-opacity="0.3" stroke-miterlimit="10" stroke-linecap="round"/>
<path d="M332.083 470.972C338.215 438.707 329.017 402.742 308.538 378.951C300.142 410.66 308.15 447.815 332.083 470.972Z" fill="#FEF0F1"/>
<path d="M310.646 387.179C314.683 417.193 321.863 445.306 332.989 472.784" stroke="#C52127" stroke-opacity="0.3" stroke-miterlimit="10" stroke-linecap="round"/>
<path d="M321.554 498.451C318.941 465.28 301.941 434.128 277.076 416.934C278.512 434.503 283.182 451.437 290.595 466.833C299.121 484.518 311.644 495.734 321.554 498.451Z" fill="#FEF0F1"/>
<path d="M280.764 423.648C290.544 451.308 304.62 476.949 322.175 499.149" stroke="#C52127" stroke-opacity="0.3" stroke-miterlimit="10" stroke-linecap="round"/>
<path d="M513.574 490.494C527.145 455.189 558.362 426.546 592.788 417.827C577.703 452.653 546.913 480.727 513.574 490.494Z" fill="#FEF0F1"/>
<path d="M584.444 425.162C564.754 440.13 546.047 456.676 528.608 474.594C507.417 496.355 487.429 520.624 461.594 535.14" stroke="#C52127" stroke-opacity="0.3" stroke-miterlimit="10" stroke-linecap="round"/>
<path d="M495.736 508.412C521.598 485.656 556.735 475.669 587.318 482.37C561.392 507.584 524.03 518.697 495.736 508.412Z" fill="#FEF0F1"/>
<path d="M577.601 485.54C550.886 493.612 524.067 501.051 497.158 507.869" stroke="#C52127" stroke-opacity="0.3" stroke-miterlimit="10" stroke-linecap="round"/>
<path d="M476.77 529.888C505.477 512.19 542.891 513.316 565.427 532.553C534.792 548.957 497.288 547.832 476.77 529.888Z" fill="#FEF0F1"/>
<path d="M558.378 531.518C529.709 535.27 500.95 534.546 473.381 529.358" stroke="#C52127" stroke-opacity="0.3" stroke-miterlimit="10" stroke-linecap="round"/>
<path d="M501.405 500.508C520.047 474.272 526.658 438.475 518.313 408.926C497.886 433.74 489.735 470.106 501.405 500.508Z" fill="#FEF0F1"/>
<path d="M516.799 417.103C508.054 445.487 502.892 473.457 501.469 502.488" stroke="#C52127" stroke-opacity="0.3" stroke-miterlimit="10" stroke-linecap="round"/>
<path d="M480.832 520.69C492.113 490.081 489.862 455.383 474.932 429.923C469.007 446.159 466.187 463.146 466.433 479.886C466.704 499.111 473.173 514.221 480.832 520.69Z" fill="#A2C7EB"/>
<path d="M475.425 437.401C472.734 466.031 474.662 494.622 481.079 521.557" stroke="#C52127" stroke-opacity="0.3" stroke-miterlimit="10" stroke-linecap="round"/>
<path d="M128.953 428.767C115.118 386.451 76.5094 352.259 31.5957 342.556C50.4787 379.165 84.7271 408.3 128.953 428.767Z" fill="#FEF0F1"/>
<path d="M131.297 435.331C100.992 418.194 63.0213 414.415 30.1055 425.248C60.6357 440.498 96.8104 444.747 131.297 435.331Z" fill="#FEF0F1"/>
<path d="M139.679 444.508C106.926 439.968 72.6273 448.042 46.0273 466.548C76.1902 477.513 112.377 470.402 139.679 444.508Z" fill="#FEF0F1"/>
<path d="M149.893 464.553C117.458 464.419 85.568 479.833 66.5039 504.863C80.9391 507.755 96.2683 506.026 109.511 500.029C122.753 494.03 133.848 483.796 149.893 464.553Z" fill="#FEF0F1"/>
<path d="M172.759 498.093C140.777 492.61 106.701 502.52 83.6406 524.015C97.4057 529.243 112.818 530.079 126.9 526.364C140.983 522.652 153.663 514.404 172.759 498.093Z" fill="#FEF0F1"/>
<path d="M138.229 430.771C117.11 402.305 111.379 363.947 123.377 331.314C132.539 346.83 140.445 363.234 144.134 380.67C147.824 398.108 147.107 416.699 138.229 430.771Z" fill="#FEF0F1"/>
<path d="M151.133 458.234C146.131 427.991 156.472 395.938 178.313 374.036C180.827 405.324 171.254 437.199 151.133 458.234Z" fill="#A2C7EB"/>
<path d="M41.4297 350.138C105.706 391.264 155.975 452.564 182.51 522.209" stroke="#C52127" stroke-opacity="0.3" stroke-miterlimit="10" stroke-linecap="round"/>
<path d="M125.375 346.321C133.193 378.067 137.95 410.479 139.559 442.986" stroke="#C52127" stroke-opacity="0.3" stroke-miterlimit="10" stroke-linecap="round"/>
<path d="M173.51 386.315C170.948 411.928 163.033 436.961 150.389 459.509" stroke="#C52127" stroke-opacity="0.3" stroke-miterlimit="10" stroke-linecap="round"/>
<path d="M43.6348 425.986C73.1029 431.589 103.055 434.627 133.012 435.073" stroke="#C52127" stroke-opacity="0.3" stroke-miterlimit="10" stroke-linecap="round"/>
<path d="M61.3945 464.031C88.5663 462.057 115.298 455.475 140.008 444.662" stroke="#C52127" stroke-opacity="0.3" stroke-miterlimit="10" stroke-linecap="round"/>
<path d="M77.6719 500.293C102.744 487.787 127.819 475.265 152.891 462.759" stroke="#C52127" stroke-opacity="0.3" stroke-miterlimit="10" stroke-linecap="round"/>
<path d="M93.9785 522.378C126.713 516.062 136.439 508.525 172.771 498.095" stroke="#C52127" stroke-opacity="0.3" stroke-miterlimit="10" stroke-linecap="round"/>
<path d="M301.218 462.421C301.218 462.421 304.051 488.386 307.221 490.468C312.887 494.207 378.479 502.849 378.479 502.849L376.331 519.913C376.331 519.913 286.496 527.986 282.679 523.497C276.055 515.709 264.412 478.139 264.412 478.139L301.218 462.421Z" fill="#FFB698"/>
<path d="M257.906 395.575L265.164 378.148C265.164 378.148 284.854 387.398 291.349 398.822C298.296 411.034 306.796 475.966 306.796 475.966C306.796 475.966 272.034 483.974 265.643 480.571C259.252 477.169 257.906 395.575 257.906 395.575Z" fill="#019934"/>
<path d="M202.624 314.692C197.54 312.829 192.158 311.199 186.711 311.613C181.265 312.027 175.702 314.912 173.852 319.699C172.532 323.089 173.14 327.086 171.058 330.139C169.065 333.063 165.107 334.279 161.407 334.525C157.694 334.784 153.955 334.292 150.268 334.771C138.883 336.284 130.759 348.652 134.497 358.782C135.985 362.818 139.038 366.674 138.34 370.878C137.602 375.38 132.88 378.343 130.94 382.522C128.365 388.085 131.444 394.825 136.528 398.615C141.613 402.393 148.224 403.829 154.64 404.786C163.476 406.106 172.597 406.727 181.33 404.864C190.062 403.001 198.407 398.395 202.922 391.202C204.927 388.02 206.143 384.423 208.472 381.435C213.284 375.264 221.81 372.871 228.524 368.498C235.86 363.698 241.241 354.358 236.92 347.048C232.755 340.023 221.913 338.458 217.566 331.537C215.768 328.677 215.341 325.275 214.177 322.157C212.987 319.026 210.141 317.448 202.624 314.692Z" fill="#0A2240"/>
<path d="M232.249 400.866C233.53 402.341 235.044 403.958 237.139 404.1C239.352 404.256 241.202 402.69 242.625 401.177C249.973 393.402 254.824 383.854 256.791 374.009C254.967 372.974 253.207 371.978 251.616 371.046C250.141 370.166 249.029 368.937 248.395 367.501C247.955 366.441 247.8 365.328 247.916 364.164C248.951 354.435 249.87 349.014 253.285 339.143C237.062 335.482 221.757 331.135 212.96 323.787C211.886 328.315 210.618 337.177 207.915 345.961C205.03 355.263 200.527 364.461 192.895 368.42C207.876 377.269 221.24 388.265 232.249 400.866Z" fill="#F9A07B"/>
<path d="M247.916 364.176C247.799 365.341 247.954 366.466 248.394 367.514C238.795 379.158 217.332 363.944 207.914 345.974C210.618 337.19 211.886 328.328 212.96 323.8C221.744 331.148 237.061 335.508 253.284 339.156C249.869 349.027 248.951 354.435 247.916 364.176Z" fill="#E06A58"/>
<path d="M274.644 504.932C272.522 518.982 287.684 534.105 288.06 541.609C255.859 541.609 188.405 543.575 154.057 538.905C152.492 530.237 169.452 510.741 169.452 491.491C169.452 488.942 169.349 486.148 169.142 483.146C168.598 474.556 167.331 464.336 165.92 453.857C162.091 425.744 156.994 395.678 160.759 389.443C168.133 377.295 185.378 369.041 193.929 365.496C196.866 364.28 198.781 363.62 198.923 363.543C209.648 381.836 231.473 397.438 239.714 396.739C242.004 396.558 248.796 394.191 253.285 371.59C255.031 372.586 256.778 373.504 258.511 374.397C267.037 378.834 275.032 382.496 277.335 388.201C283.415 403.221 289.379 441.088 288.06 454.555C286.727 468.139 281.268 478.515 277.438 492.15C276.546 495.346 275.731 498.735 275.071 502.384C274.903 503.199 274.773 504.053 274.644 504.932Z" fill="#11BF4B"/>
<path d="M288.06 541.609C255.859 541.609 188.405 543.575 154.057 538.905C152.492 530.237 169.452 510.741 169.452 491.49C169.452 488.942 169.349 486.147 169.142 483.146C168.598 474.556 167.331 464.335 165.92 453.856C172.014 460.286 180.902 433.118 184.835 441.074C206.116 484.026 222.895 495.32 252.056 495.32C260.749 495.32 268.77 494.117 277.438 492.15C276.546 495.346 275.731 498.735 275.071 502.383C274.916 503.211 274.773 504.065 274.644 504.945C272.522 518.969 287.684 534.092 288.06 541.609Z" fill="#11BF4B"/>
<path d="M258.51 374.397C257.125 384.449 253.024 397.994 241.096 401.565C224.977 406.39 201.651 376.273 193.928 365.496C196.864 364.28 198.779 363.62 198.921 363.543C209.646 381.836 231.471 397.438 239.712 396.739C242.002 396.558 248.794 394.191 253.283 371.59C255.03 372.573 256.776 373.491 258.51 374.397Z" fill="#019934"/>
<path d="M265.134 526.485L265.018 537.702L465.543 538.892L465.957 526.175L265.134 526.485Z" fill="#CBCBCB"/>
<path d="M552.453 426.417L547.99 421.889L401.93 420.932L328.654 526.899L332.484 529.978L552.453 426.417Z" fill="#CBCBCB"/>
<path d="M404.751 424.852L332.484 529.978L470.523 530.664L552.454 426.417L404.751 424.852Z" fill="#667085"/>
<path d="M446.5 496C451.747 496 456 491.747 456 486.5C456 481.253 451.747 477 446.5 477C441.253 477 437 481.253 437 486.5C437 491.747 441.253 496 446.5 496Z" fill="white"/>
<path d="M268.102 321.074C270.379 308.859 278.754 300.175 286.812 301.675C294.869 303.177 299.555 314.295 297.278 326.511C295.001 338.726 286.625 347.411 278.568 345.91C270.512 344.409 265.826 333.29 268.102 321.074Z" fill="#F68A3D"/>
<path d="M297.3 288.171C295.8 298.806 291.052 310.527 284.13 323.477C281.698 312.868 280.146 299.944 277.998 287.02C275.812 274.07 273.03 261.12 268.205 250.537C267.118 248.196 265.941 245.958 264.66 243.888C267.519 243.616 270.417 243.888 273.173 244.651C277.481 245.802 281.517 248.028 284.816 251.003C290.301 255.88 293.976 262.53 296.162 269.542C297.96 275.364 298.284 281.548 297.3 288.171Z" fill="#0B2D50"/>
<path d="M289.172 299.167C289.094 301.263 288.952 303.398 288.758 305.519C285.808 339.932 271.357 363.542 249.248 363.542C218.031 363.542 197.797 328.535 197.797 294.238C197.797 260.408 218.522 235.918 242.779 238.751C256.764 240.355 266.984 245 274.242 251.805C279.042 256.333 282.509 261.805 284.876 268.028C287.58 275.001 288.887 282.892 289.159 291.392C289.159 291.418 289.185 291.444 289.185 291.47C289.288 293.98 289.262 296.541 289.172 299.167Z" fill="#F9A07B"/>
<path d="M289.173 299.167C288.242 295.842 286.857 292.595 284.968 289.684C266.559 299.309 244.618 303.022 223.815 299.503C219.856 302.802 215.988 306.049 212.094 309.297C212.171 293.643 212.391 283.047 218.498 275.466C224.229 268.351 233.789 265.673 242.845 264.508C253.04 263.176 263.402 263.228 273.571 264.702C277.465 265.246 281.501 266.087 284.891 268.053C287.595 275.026 288.901 282.918 289.173 291.418C289.173 291.443 289.199 291.469 289.199 291.495C289.289 293.979 289.264 296.541 289.173 299.167Z" fill="#E06A58"/>
<path d="M293.676 277.977C289.394 281.599 284.025 284.601 277.996 287.033C260.842 293.954 238.551 296.244 221.176 295.403C212.638 314.162 209.184 320.889 206.997 337.255C198.653 329.428 191.861 315.093 189.843 303.825C187.85 292.596 188.045 280.81 191.175 269.775C196.104 252.374 208.537 243.06 217.153 238.532C219.301 237.354 221.241 236.539 222.742 235.944C233.751 231.688 246.158 232.076 257.452 235.53C263.61 237.445 268.798 240.679 273.158 244.664C281.968 252.62 287.414 263.397 290.933 271.47C292.046 273.941 292.939 276.179 293.676 277.977Z" fill="#0B2D50"/>
<path d="M297.297 288.171C296.586 284.407 295.525 280.758 294.024 277.239C293.183 275.247 292.148 273.32 290.945 271.457C287.025 265.299 281.32 260.227 274.424 257.989C272.458 255.233 270.388 252.75 268.215 250.55C260.388 242.594 251.202 238.04 241.474 236.449C233.375 235.142 224.953 235.88 217.178 238.519C219.325 237.341 221.266 236.526 222.767 235.931C233.776 231.675 246.183 232.063 257.477 235.517C263.635 237.432 268.823 240.666 273.182 244.651C277.49 245.802 281.527 248.028 284.826 251.003C290.311 255.88 293.985 262.53 296.172 269.542C297.957 275.364 298.28 281.548 297.297 288.171Z" fill="#225570"/>
<path d="M231.125 309.272C236.895 305.973 242.885 304.485 251.281 307.551" stroke="#0B2D50" stroke-width="2" stroke-miterlimit="10" stroke-linecap="round"/>
<path d="M270.633 309.039C275.575 305.351 282.897 304.976 286.714 309.039" stroke="#0B2D50" stroke-width="2" stroke-miterlimit="10" stroke-linecap="round"/>
<path d="M264.671 327.85C265.176 330.463 264.904 336.246 263.662 338.846" stroke="#CC454E" stroke-width="2" stroke-miterlimit="10" stroke-linecap="round"/>
<path d="M245.173 329.609C246.488 329.609 247.554 327.929 247.554 325.857C247.554 323.785 246.488 322.105 245.173 322.105C243.859 322.105 242.793 323.785 242.793 325.857C242.793 327.929 243.859 329.609 245.173 329.609Z" fill="#262D40"/>
<path d="M276.289 327.863C277.603 327.863 278.669 326.183 278.669 324.111C278.669 322.039 277.603 320.359 276.289 320.359C274.974 320.359 273.908 322.039 273.908 324.111C273.908 326.183 274.974 327.863 276.289 327.863Z" fill="#262D40"/>
<path d="M261.722 343.956C261.722 343.956 261.256 344.861 260.364 346.09C258.966 347.966 256.586 350.554 253.339 351.563H253.326C251.954 352.003 250.467 352.158 248.811 351.86C243.946 350.993 242.666 346.504 242.433 343.05C242.381 342.377 242.381 341.756 242.394 341.187C242.42 339.79 242.575 338.858 242.575 338.858C250.324 343.128 261.722 343.956 261.722 343.956Z" fill="#CC454E"/>
<path d="M261.723 343.956C261.723 343.956 261.257 344.861 260.364 346.09C256.405 346.038 248.307 344.007 242.395 341.187C242.42 339.79 242.576 338.858 242.576 338.858C250.325 343.128 261.723 343.956 261.723 343.956Z" fill="white"/>
<path d="M253.325 351.55C251.953 351.99 250.466 352.145 248.81 351.847C243.945 350.98 242.665 346.491 242.432 343.037C244.786 343.322 247.063 344.227 248.952 345.663C250.931 347.177 252.445 349.234 253.325 351.55Z" fill="#E8729B"/>
<path d="M207.076 303.334C207.076 303.334 206.805 287.201 213.519 271.172C221.941 251.055 239.108 242.452 255.759 241.869C275.824 241.158 288.386 254.625 288.386 254.625C288.386 254.625 281.853 243.098 268.967 239.786C260.506 237.613 247.738 237.264 237.491 241.43C226.935 245.712 213.778 257.601 209.017 270.163C204.269 282.725 201.953 302.286 201.953 302.286L207.076 303.334Z" fill="#019934"/>
<path d="M206.731 345.327C215.323 344.434 221.19 333.157 219.837 320.139C218.484 307.12 210.422 297.291 201.83 298.184C193.238 299.078 187.371 310.355 188.724 323.373C190.077 336.391 198.139 346.221 206.731 345.327Z" fill="#F68A3D"/>
<path d="M197.476 305.818C203.022 304.985 208.708 312.219 210.174 321.976C211.639 331.733 208.333 340.32 202.785 341.153C197.239 341.986 191.553 334.752 190.088 324.995C188.622 315.237 191.93 306.651 197.476 305.818Z" fill="#019934"/>
<path d="M255.886 364.022C260.488 364.022 264.218 361.699 264.218 358.834C264.218 355.969 260.488 353.646 255.886 353.646C251.285 353.646 247.555 355.969 247.555 358.834C247.555 361.699 251.285 364.022 255.886 364.022Z" fill="#6B04EE"/>
<path d="M214.035 341.485C214.035 341.485 226.274 357.217 247.555 358.834" stroke="#6B04EE" stroke-width="2" stroke-miterlimit="10" stroke-linecap="round"/>
<path d="M265.021 496.537L264.219 517.223C264.219 517.223 189.403 539.643 177.049 532.553C171.02 529.086 165.392 510.017 161.188 491.4C156.789 471.84 153.969 452.796 153.969 452.796L197.826 444.206C197.826 444.206 197.851 470.947 199.339 486.407C199.87 492.164 200.633 496.355 201.655 497.041C205.523 499.59 265.021 496.537 265.021 496.537Z" fill="#F9A07B"/>
<path d="M199.339 486.381C191.37 488.968 175.988 492.966 161.188 491.388C156.789 471.827 153.969 452.783 153.969 452.783L197.826 444.193C197.826 444.18 197.851 470.921 199.339 486.381Z" fill="#F9A07B"/>
<path d="M262.888 496.743C274.014 494.363 292.85 488.645 300.664 486.678C306.214 485.281 320.665 492.759 324.481 499.81C326.15 502.889 327.729 520.328 321.946 518.529C319.048 517.624 319.527 510.146 318.621 507.093C317.884 504.609 315.529 502.203 311.945 500.133C314.339 506.097 314.248 511.298 313.99 517.74C313.938 519.163 313.847 520.651 313.162 521.88C312.463 523.109 310.962 523.989 309.669 523.446C308.349 522.902 307.896 521.259 307.599 519.823C306.577 514.855 305.542 509.888 305.128 504.273C305.231 509.797 305.115 515.334 304.765 520.845C304.507 525.063 302.411 527.378 299.836 526.641C298.685 526.318 298.219 525.257 297.728 523.86C296.951 526.563 295.011 529.552 292.501 528.413C290.974 527.728 290.03 522.217 290.302 516.55C285.489 519.539 280.056 520.806 273.794 521.091C268.179 521.35 262.435 520.302 259.059 516.485C259.395 510.521 261.361 501.698 262.888 496.743Z" fill="#F9A07B"/>
<path d="M297.845 523.006C298.22 518.529 297.832 513.988 296.693 509.667" stroke="#CC454E" stroke-miterlimit="10" stroke-linecap="round"/>
<path d="M192.895 400.815C189.712 391.849 178.056 373.505 178.056 373.505C178.056 373.505 160.267 380.905 153.954 393.467C143.268 414.735 148.702 475.798 148.702 475.798C163.101 481.827 192.002 481.918 204.305 480.184C204.305 480.184 199.273 418.733 192.895 400.815Z" fill="#019934"/>
<path d="M195.16 404.566C200.012 427.788 202.612 449.445 203.44 470.662" stroke="white" stroke-opacity="0.39" stroke-miterlimit="10" stroke-linecap="round"/>
<path d="M575.896 535.205H65.8125V548H575.896V535.205Z" fill="#667085"/>
</svg>
