<svg width="71" height="70" viewBox="0 0 71 70" fill="none" xmlns="http://www.w3.org/2000/svg">
<rect x="0.5" width="70" height="70" rx="35" fill="white"/>
<path d="M25.0059 23.5088V33.4404C25.0059 34.46 25.832 35.2861 26.8516 35.2861H31.2812L31.2725 23.5H25.0059V23.5088Z" fill="#166EF7"/>
<path d="M35.9736 23.4961L35.9824 35.2822H40.5176C41.5371 35.2822 42.3633 34.4561 42.3633 33.4365V23.4961H35.9736Z" fill="#166EF7"/>
<path d="M35.9746 23.4961H31.2725V35.2822H35.9746V23.4961Z" fill="#F1F0FD"/>
<path d="M23.8633 19.2413C24.3027 18.793 24.9092 18.5382 25.542 18.5382H27.4932L27.2295 18.2657C26.333 17.3956 26.3154 15.963 27.1855 15.0753C28.0557 14.1788 29.4883 14.1612 30.376 15.0313C30.3848 15.0401 30.4023 15.0577 30.4111 15.0665L33.6279 18.2657L35.9834 15.9014C36.4053 15.4796 36.9766 15.2335 37.5742 15.2335C38.8223 15.2335 39.833 16.2442 39.833 17.4923C39.833 17.8438 39.7539 18.1954 39.5957 18.503H41.8105H41.8193C43.1289 18.503 44.1924 19.5665 44.1924 20.8761L44.2012 23.4952C44.2012 23.7852 43.9639 24.0225 43.6738 24.0225H42.8916V33.4356C42.8916 34.7452 41.8281 35.8087 40.5186 35.8087H26.8604C25.5508 35.8087 24.4873 34.7452 24.4873 33.4356V24.0225H23.7139C23.4238 24.0225 23.1865 23.7852 23.1865 23.4952L23.1777 20.92C23.1689 20.2872 23.415 19.6807 23.8633 19.2413ZM29.6641 15.8136C29.1895 15.3477 28.4336 15.3477 27.959 15.8223C27.4932 16.297 27.4932 17.0528 27.9678 17.5274L28.9521 18.5294H32.3887L29.6641 15.8136ZM38.4355 16.6397C38.207 16.4112 37.9082 16.2882 37.583 16.2882C37.2666 16.2882 36.959 16.4112 36.7305 16.6397L34.8584 18.5118L38.2861 18.4766L38.4355 18.3272C38.9014 17.8702 38.9014 17.1143 38.4355 16.6397ZM36.502 34.7628H40.5098C41.2393 34.7628 41.8281 34.1739 41.8281 33.4444V24.0225H36.4932L36.502 34.7628ZM36.502 22.9678H43.1465V20.8761C43.1465 20.1466 42.5576 19.5577 41.8281 19.5577L36.5107 19.5665L36.502 22.9678ZM31.8086 34.7628H35.4561L35.4473 24.0313H31.7998L31.8086 34.7628ZM31.7998 22.9678H35.4473V19.5753L31.7998 19.5841V22.9678ZM25.5332 33.4356C25.5332 34.1651 26.1221 34.754 26.8516 34.754H30.7539L30.7451 24.0225H25.5332V33.4356ZM24.2324 22.9678H30.7451V19.5841L25.542 19.5928C24.8125 19.5928 24.2236 20.1905 24.2236 20.92L24.2324 22.9678Z" fill="#166EF7"/>
<path d="M23.2676 39.893L23.2236 39.9808L26.959 41.9935C27.6533 41.3871 28.5586 41.018 29.5518 41.018H30.7207L27.6094 39.3305C26.2031 38.5131 24.4189 38.7416 23.2676 39.893Z" fill="#F1F0FD"/>
<path d="M18.8975 40.6639C19.5478 39.5213 21.0947 38.8709 22.2637 39.4685L26.957 41.9998C26.2891 42.5887 25.8232 43.3973 25.6738 44.3201L24.707 43.8103L18.8975 40.6639Z" fill="#F1F0FD"/>
<path d="M18.1963 40.2925L25.6758 44.3179C25.8252 43.395 26.291 42.5864 26.959 41.9976C27.6533 41.3911 28.5586 41.022 29.5518 41.022H30.7207H34.8252C35.7744 41.022 36.7061 40.8111 37.5498 40.398L38.0947 40.1343C41.0566 38.7017 44.5635 39.0445 47.1914 41.022L48.501 42.1909C49.2129 42.815 57.0352 46.814 57.0352 46.814L51.6475 55.0581L43.7285 50.5318C43.0693 50.1626 42.3047 50.0659 41.5752 50.2505L33.6562 51.7095C31.626 52.0786 29.5342 51.7798 27.6885 50.8657L13.9775 41.4527C14.8477 39.9937 16.7021 39.4839 18.1963 40.2925Z" fill="#166EF7"/>
<path d="M13.5201 41.177C14.5397 39.4807 16.7018 38.8919 18.4508 39.8323L18.732 39.9817C19.6549 38.8303 21.2809 38.3733 22.5113 38.9973C22.5113 38.9973 22.5201 38.9973 22.5201 39.0061L23.109 39.3225C24.4274 38.18 26.3434 37.9866 27.8639 38.8655L30.8522 40.4915H34.8248C34.8248 40.4915 34.8248 40.4915 34.8336 40.4915C35.6861 40.4915 36.5563 40.2893 37.3297 39.9202L37.8746 39.6565C41.0211 38.136 44.7213 38.4964 47.5162 40.5969C47.525 40.6057 47.5426 40.6145 47.5514 40.6233L48.861 41.7923C49.3356 42.2141 54.2838 44.8157 57.2809 46.3538C57.4127 46.4241 57.5094 46.5471 57.5533 46.6878C57.5885 46.8284 57.5709 46.9866 57.483 47.1096L52.0953 55.3538C51.9986 55.512 51.8229 55.5911 51.6559 55.5911C51.568 55.5911 51.4801 55.5647 51.3922 55.5208L43.4733 50.9944C42.9371 50.6956 42.3043 50.6077 41.7067 50.7571C41.6979 50.7571 41.6891 50.7659 41.6715 50.7659L33.7438 52.2249C31.6168 52.6116 29.3844 52.2952 27.442 51.3372C27.4156 51.3284 27.3981 51.3108 27.3805 51.302L13.6695 41.8889C13.441 41.7307 13.3707 41.4143 13.5201 41.177ZM22.0279 39.9378C21.2985 39.5686 20.3053 39.8323 19.6813 40.4915L25.3326 43.5325C25.4996 43.0227 25.7633 42.5481 26.1061 42.1262L22.0279 39.9378ZM27.3541 39.7884L27.3453 39.7796C26.3258 39.1907 25.0865 39.2434 24.1285 39.8675L26.8971 41.3616C27.4508 40.9485 28.0924 40.676 28.7692 40.553L27.3541 39.7884ZM27.943 50.4055C29.6656 51.2493 31.6608 51.5305 33.5504 51.1878L41.4606 49.7288C42.3219 49.5178 43.2184 49.6409 43.9918 50.0716L51.4801 54.3518L56.2701 47.0217C54.2486 45.9846 48.7994 43.1634 48.149 42.5833L46.857 41.4319C44.3785 39.5774 41.109 39.261 38.3229 40.6145L37.7779 40.8782C36.8639 41.3176 35.8444 41.555 34.8248 41.555H34.816H29.5426C28.7164 41.555 27.9254 41.8538 27.3014 42.3987C26.7125 42.9173 26.3258 43.6204 26.194 44.3938L30.0963 44.218C31.4762 44.1565 32.8737 44.218 34.2447 44.4114C34.5348 44.4553 34.7369 44.719 34.693 45.0091C34.649 45.2991 34.3854 45.5012 34.0953 45.4573C32.7858 45.2727 31.4586 45.2112 30.1403 45.2727L25.6403 45.4749H25.6139C25.482 45.4749 25.3502 45.4221 25.2535 45.3255C25.1481 45.2288 25.0865 45.0882 25.0865 44.9475C25.0865 44.8421 25.0865 44.7366 25.0953 44.6223L17.9322 40.7639C16.8336 40.1663 15.4977 40.43 14.6979 41.3264L27.943 50.4055Z" fill="#166EF7"/>
</svg>
