<svg width="40" height="40" viewBox="0 0 40 40" fill="none" xmlns="http://www.w3.org/2000/svg">
<rect width="40" height="40" rx="20" fill="white" fill-opacity="0.22"/>
<path d="M31.8966 13.4621C31.8966 12.4263 31.5518 11.5513 30.8621 10.8371C30.1725 10.1228 29.3449 9.76562 28.3794 9.76562H11.6208C10.6552 9.76562 9.82765 10.1228 9.138 10.8371C8.44834 11.5513 8.10352 12.4263 8.10352 13.4621V23.3728C8.10352 24.4085 8.44834 25.2835 9.138 25.9978C9.82765 26.7121 10.6552 27.0692 11.6208 27.0692H28.3794C29.3449 27.0692 30.1725 26.7121 30.8621 25.9978C31.5518 25.2835 31.8966 24.4085 31.8966 23.3728V13.4621ZM17.6208 22.6228V13.3013L24.4483 17.9621L17.6208 22.6228Z" fill="#019934"/>
</svg>
