<svg width="71" height="70" viewBox="0 0 71 70" fill="none" xmlns="http://www.w3.org/2000/svg">
<rect x="0.5" width="70" height="70" rx="35" fill="white"/>
<g clip-path="url(#clip0_1034_11165)">
<path d="M15.25 55.7491C15.25 55.5767 15.2779 55.4082 15.2779 55.2358V36.3867H34.118C34.118 36.5082 34.146 36.6336 34.146 36.7786V55.416C34.146 55.5336 34.146 55.6512 34.118 55.7687L15.25 55.7491ZM19.8073 44.2516H29.6207V41.6848H19.8073V44.2516Z" fill="#007AFF"/>
<path d="M36.8717 55.7491C36.8717 55.6042 36.8438 55.4592 36.8438 55.3181V36.3828H55.7238V36.8648C55.7238 42.9859 55.7238 49.1056 55.7238 55.224C55.7238 55.3965 55.7438 55.565 55.7518 55.7374L36.8717 55.7491ZM51.1945 41.6848H41.3811V44.2516H51.1945V41.6848Z" fill="#007AFF"/>
<path d="M26.0742 33.7072V15.25H45.801V33.7072H26.0742ZM41.2917 23.1266V20.5403H30.5995V23.1501L41.2917 23.1266Z" fill="#007AFF"/>
</g>
<defs>
<clipPath id="clip0_1034_11165">
<rect width="40.5" height="40.5" fill="white" transform="translate(15.25 15.25)"/>
</clipPath>
</defs>
</svg>
