<svg width="71" height="70" viewBox="0 0 71 70" fill="none" xmlns="http://www.w3.org/2000/svg">
<rect x="0.5" width="70" height="70" rx="35" fill="white"/>
<path d="M14.2374 31.2896C14.3613 31.1293 14.4952 30.9758 14.608 30.8089C15.4613 29.5405 16.3119 28.271 17.16 27.0003C17.2353 26.8898 17.3171 26.7793 17.4134 26.6445L33.5276 35.1435L29.5452 40.1343C28.9003 39.7675 28.2697 39.4106 27.6414 39.0515C23.2416 36.5367 18.843 34.0212 14.4454 31.505C14.3735 31.4641 14.306 31.4166 14.2363 31.3724L14.2374 31.2896Z" fill="#F824B1"/>
<path d="M19.7383 25.058L23.5967 23.1631C27.4375 21.2752 31.2775 19.3851 35.1168 17.4928C35.2154 17.4353 35.3272 17.4042 35.4413 17.4024C35.5554 17.4007 35.6681 17.4284 35.7684 17.4828C40.781 19.8554 45.7947 22.2251 50.8096 24.5918C50.8947 24.6315 50.9766 24.6757 51.1038 24.7398C50.9589 24.8304 50.8494 24.9056 50.7332 24.9696C45.7472 27.6995 40.7629 30.4312 35.7806 33.1647C35.525 33.305 35.3381 33.3238 35.0704 33.1824C30.1042 30.549 25.1366 27.9256 20.1675 25.3122C20.0359 25.2437 19.9131 25.163 19.7383 25.058Z" fill="#F824B1"/>
<path d="M18.2512 36.543C18.4104 36.6258 18.5432 36.6888 18.6704 36.7639L28.9582 42.6487C29.8686 43.1691 30.3752 43.0652 31.0235 42.2487C32.008 41.0068 32.9947 39.7671 33.9837 38.5296C34.0208 38.4737 34.0527 38.4145 34.0788 38.3528L34.1618 38.4092V53.1397C34.0512 53.09 33.9406 53.0514 33.8299 52.9972C28.7296 50.3093 23.6299 47.6182 18.531 44.9237C18.3939 44.8507 18.2346 44.653 18.2335 44.5126C18.2158 41.9228 18.2213 39.3329 18.2224 36.743C18.2281 36.6758 18.2377 36.609 18.2512 36.543Z" fill="#F824B1"/>
<path d="M52.5994 36.5352C52.6094 36.7351 52.6205 36.8567 52.6205 36.9771C52.6205 39.3195 52.6205 41.663 52.6205 44.0054C52.6205 44.2629 52.5696 44.4286 52.3185 44.5656C47.2078 47.3581 42.1004 50.1572 36.9963 52.9629C36.9034 53.0137 36.8061 53.0557 36.6777 53.1176V38.3163C37.2795 39.0687 37.826 39.7526 38.3702 40.4311C38.8702 41.0553 39.3658 41.6829 39.8669 42.3094C40.472 43.0629 40.9908 43.1568 41.8426 42.6707L52.1382 36.786C52.2731 36.7064 52.407 36.6357 52.5994 36.5352Z" fill="#F824B1"/>
<path d="M53.4291 26.2969L56.6448 31.3662L41.3039 40.1402L37.3027 35.1295L53.4291 26.2969Z" fill="#F824B1"/>
</svg>
