<svg width="71" height="70" viewBox="0 0 71 70" fill="none" xmlns="http://www.w3.org/2000/svg">
<rect x="0.5" width="70" height="70" rx="35" fill="white"/>
<path d="M14.125 35.0057C14.3429 34.7487 14.544 34.4469 14.7843 34.2289L24.9092 24.1042C25.5742 23.4392 25.982 23.4392 26.6469 24.1042L28.597 26.0543C28.7227 26.1424 28.8253 26.2594 28.8962 26.3956C28.967 26.5317 29.0039 26.683 29.0039 26.8365C29.0039 26.99 28.967 27.1412 28.8962 27.2774C28.8253 27.4135 28.7227 27.5307 28.597 27.6188C26.1682 30.0551 23.734 32.4893 21.294 34.9218C21.1879 35.0224 21.0872 35.1342 20.9699 35.2571L21.294 35.598L28.5132 42.7949C29.1782 43.4654 29.1838 43.879 28.5132 44.5327C27.8427 45.1865 27.2169 45.8346 26.5632 46.4828C26.4765 46.6096 26.3601 46.7132 26.2243 46.7848C26.0885 46.8565 25.9372 46.894 25.7837 46.894C25.6301 46.894 25.4789 46.8565 25.343 46.7848C25.2072 46.7132 25.0909 46.6096 25.0042 46.4828C21.5175 42.9998 18.0364 39.5167 14.5609 36.0338C14.4078 35.8551 14.2642 35.6686 14.1306 35.475L14.125 35.0057Z" fill="#0097E2"/>
<path d="M49.5737 35.2246C49.4174 35.1317 49.2697 35.0251 49.1323 34.9061C46.7184 32.5034 44.3102 30.0989 41.9075 27.6924C41.2537 27.0331 41.2537 26.6141 41.9075 25.9548L43.8632 24.0046C43.9513 23.8834 44.0668 23.7848 44.2004 23.7168C44.3339 23.6487 44.4816 23.6133 44.6315 23.6133C44.7813 23.6133 44.929 23.6487 45.0625 23.7168C45.1961 23.7848 45.3116 23.8834 45.3998 24.0046L55.8766 34.4815C56 34.5675 56.1008 34.6819 56.1703 34.8152C56.2399 34.9485 56.2762 35.0966 56.2762 35.247C56.2762 35.3973 56.2399 35.5455 56.1703 35.6787C56.1008 35.812 56 35.9266 55.8766 36.0126L45.3662 46.5229C45.2802 46.6417 45.1673 46.7385 45.0366 46.8052C44.906 46.872 44.7614 46.9069 44.6147 46.9069C44.468 46.9069 44.3234 46.872 44.1927 46.8052C44.0621 46.7385 43.9491 46.6417 43.8632 46.5229C43.1703 45.8356 42.4774 45.1483 41.7957 44.4554C41.6701 44.3679 41.5674 44.2513 41.4966 44.1156C41.4257 43.9799 41.3887 43.8291 41.3887 43.676C41.3887 43.5228 41.4257 43.372 41.4966 43.2363C41.5674 43.1006 41.6701 42.984 41.7957 42.8965C44.2133 40.464 46.6347 38.0426 49.0597 35.6325C49.2162 35.5319 49.339 35.4202 49.5737 35.2246Z" fill="#0097E2"/>
<path d="M41.4028 20.8143C41.3821 20.9333 41.3541 21.0508 41.3189 21.1663C38.4468 30.9038 35.5729 40.6394 32.6971 50.3731C32.4513 51.2224 32.0714 51.4179 31.2277 51.1721L29.8474 50.7642C29.0819 50.5295 28.8584 50.1328 29.0875 49.3673C29.6575 47.4041 30.2348 45.4466 30.8196 43.4946L37.6813 20.2388C37.7392 20.0463 37.8141 19.8593 37.9049 19.68C37.9739 19.5276 38.0931 19.4034 38.2425 19.3282C38.392 19.2529 38.5627 19.2312 38.7263 19.2665C39.4694 19.4509 40.207 19.6633 40.9278 19.9147C41.2854 20.0209 41.4307 20.3505 41.4028 20.8143Z" fill="#0097E2"/>
</svg>
