<svg width="71" height="70" viewBox="0 0 71 70" fill="none" xmlns="http://www.w3.org/2000/svg">
<rect x="0.5" width="70" height="70" rx="35" fill="white"/>
<path d="M18.1667 37.6667H31.1667C32.3583 37.6667 33.3333 36.6917 33.3333 35.5V18.1667C33.3333 16.975 32.3583 16 31.1667 16H18.1667C16.975 16 16 16.975 16 18.1667V35.5C16 36.6917 16.975 37.6667 18.1667 37.6667ZM18.1667 55H31.1667C32.3583 55 33.3333 54.025 33.3333 52.8333V44.1667C33.3333 42.975 32.3583 42 31.1667 42H18.1667C16.975 42 16 42.975 16 44.1667V52.8333C16 54.025 16.975 55 18.1667 55ZM39.8333 55H52.8333C54.025 55 55 54.025 55 52.8333V35.5C55 34.3083 54.025 33.3333 52.8333 33.3333H39.8333C38.6417 33.3333 37.6667 34.3083 37.6667 35.5V52.8333C37.6667 54.025 38.6417 55 39.8333 55ZM37.6667 18.1667V26.8333C37.6667 28.025 38.6417 29 39.8333 29H52.8333C54.025 29 55 28.025 55 26.8333V18.1667C55 16.975 54.025 16 52.8333 16H39.8333C38.6417 16 37.6667 16.975 37.6667 18.1667Z" fill="#4203E6"/>
</svg>
