<svg width="191" height="40" viewBox="0 0 191 40" fill="none" xmlns="http://www.w3.org/2000/svg">
<path d="M65.6463 18.206C65.5658 17.9077 65.4474 17.6449 65.2912 17.4176C65.1349 17.1856 64.9432 16.9891 64.7159 16.8281C64.4886 16.6671 64.2282 16.5464 63.9347 16.4659C63.6411 16.3807 63.3191 16.3381 62.9688 16.3381C62.2633 16.3381 61.6525 16.5085 61.1364 16.8494C60.625 17.1903 60.2296 17.6875 59.9503 18.3409C59.6709 18.9896 59.5312 19.7779 59.5312 20.706C59.5312 21.6387 59.6662 22.4342 59.9361 23.0923C60.206 23.7505 60.5966 24.2524 61.108 24.598C61.6193 24.9437 62.2396 25.1165 62.9688 25.1165C63.6127 25.1165 64.1572 25.0123 64.6023 24.804C65.0521 24.5909 65.393 24.2902 65.625 23.902C65.857 23.5137 65.973 23.0568 65.973 22.5312L66.6264 22.6094H63.0895V20.0455H69.3608V21.9702C69.3608 23.2723 69.0838 24.3873 68.5298 25.3153C67.9806 26.2434 67.223 26.956 66.2571 27.4531C65.2959 27.9503 64.1903 28.1989 62.9403 28.1989C61.553 28.1989 60.3338 27.8982 59.2827 27.2969C58.2315 26.6955 57.4124 25.8385 56.8253 24.7259C56.2382 23.6084 55.9446 22.2827 55.9446 20.7486C55.9446 19.5554 56.1222 18.4972 56.4773 17.5739C56.8324 16.6458 57.3272 15.8598 57.9616 15.2159C58.6009 14.572 59.3395 14.0843 60.1776 13.7528C61.0204 13.4214 61.9271 13.2557 62.8977 13.2557C63.7405 13.2557 64.5241 13.3764 65.2486 13.6179C65.9777 13.8594 66.6217 14.2003 67.1804 14.6406C67.7438 15.081 68.2008 15.6042 68.5511 16.2102C68.9015 16.8163 69.1193 17.4815 69.2045 18.206H65.6463ZM71.4329 28V17.0909H74.8065V19.0795H74.9201C75.119 18.3598 75.4433 17.8248 75.8931 17.4744C76.3429 17.1193 76.8661 16.9418 77.4627 16.9418C77.6237 16.9418 77.7894 16.9536 77.9599 16.9773C78.1303 16.9962 78.2889 17.027 78.4357 17.0696V20.0881C78.27 20.0312 78.0522 19.9863 77.7823 19.9531C77.5172 19.92 77.2804 19.9034 77.0721 19.9034C76.6602 19.9034 76.2885 19.9957 75.957 20.1804C75.6303 20.3603 75.3723 20.6136 75.1829 20.9403C74.9982 21.2623 74.9059 21.6411 74.9059 22.0767V28H71.4329ZM84.3768 28.206C83.2309 28.206 82.2461 27.9716 81.4222 27.5028C80.6031 27.0294 79.971 26.3712 79.5259 25.5284C79.0856 24.6809 78.8654 23.6984 78.8654 22.581C78.8654 21.4588 79.0856 20.4763 79.5259 19.6335C79.971 18.786 80.6031 18.1278 81.4222 17.6591C82.2461 17.1856 83.2309 16.9489 84.3768 16.9489C85.5226 16.9489 86.5051 17.1856 87.3242 17.6591C88.1481 18.1278 88.7802 18.786 89.2205 19.6335C89.6656 20.4763 89.8881 21.4588 89.8881 22.581C89.8881 23.6984 89.6656 24.6809 89.2205 25.5284C88.7802 26.3712 88.1481 27.0294 87.3242 27.5028C86.5051 27.9716 85.5226 28.206 84.3768 28.206ZM84.3981 25.5852C84.8147 25.5852 85.1675 25.4574 85.4563 25.2017C85.7451 24.946 85.9653 24.5909 86.1168 24.1364C86.2731 23.6818 86.3512 23.1562 86.3512 22.5597C86.3512 21.9536 86.2731 21.4233 86.1168 20.9688C85.9653 20.5142 85.7451 20.1591 85.4563 19.9034C85.1675 19.6477 84.8147 19.5199 84.3981 19.5199C83.9672 19.5199 83.6026 19.6477 83.3043 19.9034C83.0108 20.1591 82.7859 20.5142 82.6296 20.9688C82.4781 21.4233 82.4023 21.9536 82.4023 22.5597C82.4023 23.1562 82.4781 23.6818 82.6296 24.1364C82.7859 24.5909 83.0108 24.946 83.3043 25.2017C83.6026 25.4574 83.9672 25.5852 84.3981 25.5852ZM96.7596 28.206C95.609 28.206 94.6218 27.9692 93.7979 27.4957C92.9788 27.0223 92.3491 26.3641 91.9087 25.5213C91.4684 24.6738 91.2482 23.6937 91.2482 22.581C91.2482 21.4635 91.4684 20.4834 91.9087 19.6406C92.3538 18.7931 92.9859 18.1326 93.805 17.6591C94.6289 17.1856 95.6114 16.9489 96.7525 16.9489C97.761 16.9489 98.6393 17.1312 99.3874 17.4957C100.14 17.8603 100.727 18.3764 101.149 19.044C101.575 19.7069 101.8 20.4858 101.824 21.3807H98.5778C98.5115 20.822 98.3221 20.384 98.0096 20.0668C97.7018 19.7495 97.2994 19.5909 96.8022 19.5909C96.3997 19.5909 96.047 19.7045 95.744 19.9318C95.4409 20.1544 95.2042 20.4858 95.0337 20.9261C94.868 21.3617 94.7852 21.9015 94.7852 22.5455C94.7852 23.1894 94.868 23.7339 95.0337 24.179C95.2042 24.6193 95.4409 24.9531 95.744 25.1804C96.047 25.4029 96.3997 25.5142 96.8022 25.5142C97.1242 25.5142 97.4083 25.4455 97.6545 25.3082C97.9054 25.1709 98.1114 24.9697 98.2724 24.7045C98.4334 24.4347 98.5352 24.108 98.5778 23.7244H101.824C101.79 24.6241 101.565 25.41 101.149 26.0824C100.737 26.7547 100.157 27.2779 99.4087 27.652C98.6654 28.0213 97.7823 28.206 96.7596 28.206ZM108.7 28.206C107.559 28.206 106.574 27.9811 105.746 27.5312C104.922 27.0767 104.287 26.4304 103.842 25.5923C103.402 24.7495 103.182 23.7481 103.182 22.5881C103.182 21.4612 103.404 20.4763 103.849 19.6335C104.295 18.786 104.922 18.1278 105.732 17.6591C106.541 17.1856 107.495 16.9489 108.594 16.9489C109.37 16.9489 110.08 17.0696 110.724 17.3111C111.368 17.5526 111.925 17.91 112.393 18.3835C112.862 18.857 113.227 19.4418 113.487 20.1378C113.748 20.8291 113.878 21.6222 113.878 22.517V23.3835H104.396V21.3665H110.646C110.642 20.9972 110.554 20.6681 110.384 20.3793C110.213 20.0904 109.979 19.8655 109.68 19.7045C109.387 19.5388 109.048 19.456 108.665 19.456C108.277 19.456 107.929 19.5436 107.621 19.7188C107.313 19.8892 107.069 20.1236 106.889 20.4219C106.709 20.7154 106.615 21.0492 106.605 21.4233V23.4759C106.605 23.9209 106.693 24.3116 106.868 24.6477C107.043 24.9792 107.292 25.2372 107.614 25.4219C107.936 25.6065 108.319 25.6989 108.764 25.6989C109.072 25.6989 109.351 25.6562 109.602 25.571C109.853 25.4858 110.069 25.3603 110.249 25.1946C110.429 25.0289 110.563 24.8253 110.653 24.5838L113.842 24.6761C113.71 25.3911 113.419 26.0137 112.969 26.544C112.524 27.0696 111.939 27.4792 111.214 27.7727C110.49 28.0616 109.652 28.206 108.7 28.206ZM115.652 28V17.0909H119.025V19.0795H119.139C119.338 18.3598 119.662 17.8248 120.112 17.4744C120.562 17.1193 121.085 16.9418 121.681 16.9418C121.842 16.9418 122.008 16.9536 122.179 16.9773C122.349 16.9962 122.508 17.027 122.654 17.0696V20.0881C122.489 20.0312 122.271 19.9863 122.001 19.9531C121.736 19.92 121.499 19.9034 121.291 19.9034C120.879 19.9034 120.507 19.9957 120.176 20.1804C119.849 20.3603 119.591 20.6136 119.402 20.9403C119.217 21.2623 119.125 21.6411 119.125 22.0767V28H115.652ZM126.525 32.0909C126.109 32.0909 125.716 32.0578 125.346 31.9915C124.977 31.9299 124.66 31.8471 124.395 31.7429L125.162 29.2216C125.502 29.3352 125.81 29.4015 126.085 29.4205C126.364 29.4394 126.603 29.3944 126.802 29.2855C127.006 29.1813 127.162 28.9943 127.271 28.7244L127.406 28.3977L123.528 17.0909H127.164L129.174 24.875H129.288L131.326 17.0909H134.984L130.872 29.044C130.673 29.6406 130.391 30.1662 130.027 30.6207C129.667 31.08 129.2 31.4399 128.627 31.7003C128.059 31.9607 127.359 32.0909 126.525 32.0909ZM148.475 17.8153C148.427 17.2945 148.217 16.8897 147.843 16.6009C147.473 16.3073 146.945 16.1605 146.259 16.1605C145.804 16.1605 145.426 16.2197 145.123 16.3381C144.819 16.4564 144.592 16.6198 144.441 16.8281C144.289 17.0317 144.211 17.2661 144.206 17.5312C144.197 17.7491 144.239 17.9408 144.334 18.1065C144.434 18.2723 144.576 18.419 144.76 18.5469C144.95 18.67 145.177 18.7789 145.442 18.8736C145.707 18.9683 146.006 19.0511 146.337 19.1222L147.587 19.4062C148.307 19.5625 148.941 19.7708 149.49 20.0312C150.044 20.2917 150.508 20.6018 150.882 20.9616C151.261 21.3215 151.548 21.7358 151.742 22.2045C151.936 22.6733 152.035 23.1989 152.04 23.7812C152.035 24.6998 151.803 25.4882 151.344 26.1463C150.885 26.8045 150.224 27.3087 149.363 27.6591C148.506 28.0095 147.471 28.1847 146.259 28.1847C145.042 28.1847 143.981 28.0024 143.077 27.6378C142.173 27.2732 141.47 26.7192 140.968 25.9759C140.466 25.2325 140.208 24.2926 140.194 23.1562H143.56C143.588 23.625 143.714 24.0156 143.936 24.3281C144.159 24.6406 144.464 24.8774 144.853 25.0384C145.246 25.1993 145.7 25.2798 146.216 25.2798C146.69 25.2798 147.092 25.2159 147.424 25.0881C147.76 24.9602 148.018 24.7827 148.198 24.5554C148.378 24.3281 148.47 24.0677 148.475 23.7741C148.47 23.4995 148.385 23.2652 148.219 23.071C148.053 22.8722 147.798 22.7017 147.452 22.5597C147.111 22.4129 146.676 22.2779 146.145 22.1548L144.625 21.7997C143.366 21.5109 142.374 21.0445 141.65 20.4006C140.925 19.7519 140.565 18.8759 140.57 17.7727C140.565 16.8731 140.807 16.0848 141.294 15.4077C141.782 14.7306 142.457 14.2027 143.319 13.8239C144.18 13.4451 145.163 13.2557 146.266 13.2557C147.393 13.2557 148.371 13.4474 149.199 13.831C150.033 14.2098 150.679 14.7424 151.138 15.429C151.597 16.1155 151.832 16.911 151.841 17.8153H148.475ZM157.289 21.7784V28H153.816V13.4545H157.175V19.0938H157.296C157.542 18.4214 157.944 17.8958 158.503 17.517C159.067 17.1383 159.756 16.9489 160.57 16.9489C161.337 16.9489 162.005 17.1193 162.573 17.4602C163.141 17.7964 163.581 18.2723 163.894 18.8878C164.211 19.5033 164.367 20.223 164.363 21.0469V28H160.89V21.7287C160.894 21.1226 160.743 20.6491 160.435 20.3082C160.127 19.9673 159.694 19.7969 159.135 19.7969C158.771 19.7969 158.449 19.8774 158.169 20.0384C157.895 20.1946 157.679 20.4195 157.523 20.7131C157.372 21.0066 157.293 21.3617 157.289 21.7784ZM171.623 28.206C170.477 28.206 169.492 27.9716 168.668 27.5028C167.849 27.0294 167.217 26.3712 166.772 25.5284C166.332 24.6809 166.112 23.6984 166.112 22.581C166.112 21.4588 166.332 20.4763 166.772 19.6335C167.217 18.786 167.849 18.1278 168.668 17.6591C169.492 17.1856 170.477 16.9489 171.623 16.9489C172.769 16.9489 173.751 17.1856 174.57 17.6591C175.394 18.1278 176.026 18.786 176.467 19.6335C176.912 20.4763 177.134 21.4588 177.134 22.581C177.134 23.6984 176.912 24.6809 176.467 25.5284C176.026 26.3712 175.394 27.0294 174.57 27.5028C173.751 27.9716 172.769 28.206 171.623 28.206ZM171.644 25.5852C172.061 25.5852 172.414 25.4574 172.702 25.2017C172.991 24.946 173.211 24.5909 173.363 24.1364C173.519 23.6818 173.597 23.1562 173.597 22.5597C173.597 21.9536 173.519 21.4233 173.363 20.9688C173.211 20.5142 172.991 20.1591 172.702 19.9034C172.414 19.6477 172.061 19.5199 171.644 19.5199C171.213 19.5199 170.849 19.6477 170.55 19.9034C170.257 20.1591 170.032 20.5142 169.876 20.9688C169.724 21.4233 169.648 21.9536 169.648 22.5597C169.648 23.1562 169.724 23.6818 169.876 24.1364C170.032 24.5909 170.257 24.946 170.55 25.2017C170.849 25.4574 171.213 25.5852 171.644 25.5852ZM178.913 32.0909V17.0909H182.351V18.9588H182.457C182.599 18.6274 182.801 18.3078 183.061 18C183.326 17.6922 183.662 17.4413 184.07 17.2472C184.482 17.0483 184.974 16.9489 185.547 16.9489C186.304 16.9489 187.012 17.1477 187.67 17.5455C188.333 17.9432 188.868 18.5563 189.276 19.3849C189.683 20.2135 189.886 21.2694 189.886 22.5526C189.886 23.7884 189.69 24.8229 189.297 25.6562C188.909 26.4896 188.383 27.1146 187.72 27.5312C187.062 27.9479 186.33 28.1562 185.526 28.1562C184.976 28.1562 184.5 28.0663 184.098 27.8864C183.696 27.7064 183.357 27.4697 183.082 27.1761C182.812 26.8826 182.604 26.5677 182.457 26.2315H182.386V32.0909H178.913ZM182.315 22.5455C182.315 23.1326 182.393 23.6439 182.55 24.0795C182.711 24.5152 182.94 24.8537 183.239 25.0952C183.542 25.3319 183.904 25.4503 184.325 25.4503C184.751 25.4503 185.114 25.3319 185.412 25.0952C185.71 24.8537 185.935 24.5152 186.087 24.0795C186.243 23.6439 186.321 23.1326 186.321 22.5455C186.321 21.9583 186.243 21.4493 186.087 21.0185C185.935 20.5876 185.71 20.2538 185.412 20.017C185.118 19.7803 184.756 19.6619 184.325 19.6619C183.899 19.6619 183.537 19.7779 183.239 20.0099C182.94 20.242 182.711 20.5734 182.55 21.0043C182.393 21.4351 182.315 21.9489 182.315 22.5455Z" fill="white"/>
<path d="M37.1974 19.4439H31.0314L30.8891 19.0387H27.0907L27.233 19.4439H21.4766L17.6342 8.54034C17.3776 7.81831 16.7009 7.33203 15.9521 7.33203C15.7499 7.33203 15.5479 7.3699 15.3474 7.44191C14.4229 7.78221 13.9413 8.8321 14.2752 9.78296L17.6816 19.4439H2.80094C2.16107 19.4439 1.55643 19.7014 1.10122 20.1677C0.646 20.6341 0.394531 21.2535 0.394531 21.9108C0.394531 23.1623 1.31034 24.1996 2.50383 24.3562L5.72575 37.4908C6.02807 38.7297 7.11083 39.5959 8.35881 39.5959H31.6396C32.8858 39.5959 33.9686 38.7317 34.2744 37.4908L37.4945 24.358C38.0237 24.2914 38.5122 24.0465 38.8972 23.6539C39.3541 23.1858 39.6056 22.5664 39.6056 21.9108C39.6056 20.5494 38.5245 19.4439 37.1974 19.4439ZM20.7154 26.5513C20.907 26.7458 21.0143 27.007 21.0143 27.2824V36.0539C21.0143 36.6265 20.5591 37.0929 19.9983 37.0929C19.4393 37.0929 18.9858 36.6265 18.9858 36.0539V27.2824C18.9858 26.7097 19.4393 26.2434 19.9983 26.2434C20.2691 26.2434 20.5221 26.3515 20.7154 26.5513ZM12.0342 37.0063C11.9762 37.0189 11.9146 37.0243 11.8549 37.0243C11.3645 37.0243 10.9445 36.664 10.8565 36.1707L9.33433 27.5379C9.23592 26.9743 9.60332 26.4322 10.1552 26.3296C10.2097 26.3188 10.2677 26.3134 10.3345 26.3134C10.8161 26.3134 11.2449 26.6808 11.3312 27.167L12.8534 35.7998C12.9518 36.3636 12.5844 36.9055 12.0342 37.0063ZM29.6658 26.3136C29.7309 26.3136 29.7906 26.3189 29.8451 26.3298C30.1104 26.3783 30.3425 26.5334 30.4973 26.762C30.6519 26.9907 30.7118 27.2662 30.6625 27.5363L29.1403 36.1708C29.0542 36.6642 28.6358 37.0244 28.1436 37.0244C28.0839 37.0244 28.0223 37.0191 27.9626 37.0065C27.699 36.958 27.4669 36.8049 27.3123 36.576C27.1577 36.3474 27.0978 36.0718 27.1454 35.8L28.6676 27.1672C28.7535 26.6809 29.1823 26.3136 29.6658 26.3136Z" fill="white"/>
<path d="M37.1982 19.0378H30.4698L30.7546 19.8464H37.1982C38.3039 19.8464 39.2109 20.7756 39.2109 21.9101C39.2109 22.4755 38.9842 22.9924 38.6186 23.367C38.2546 23.7379 37.752 23.972 37.1982 23.972H37.1824L33.892 37.393C33.6318 38.45 32.7056 39.1902 31.6404 39.1902H8.35962C7.29612 39.1902 6.36816 38.45 6.10975 37.393L3.27641 25.8377L2.81772 23.972H2.80193C1.69452 23.972 0.791031 23.0429 0.791031 21.9101C0.791031 21.343 1.01786 20.8261 1.38161 20.4533C1.74554 20.0786 2.24987 19.8464 2.80193 19.8464H18.2451L14.6471 9.6434C14.3887 8.90697 14.763 8.08572 15.482 7.82099C15.6384 7.76516 15.7967 7.73635 15.953 7.73635C16.5224 7.73635 17.0587 8.09835 17.2644 8.67636L21.1999 19.8463H27.7966L27.5118 19.0376H21.7554L18.0059 8.40256C17.693 7.51837 16.8669 6.92773 15.9529 6.92773C15.705 6.92773 15.4589 6.97094 15.2181 7.05913C14.0843 7.47695 13.4973 8.75904 13.9033 9.91685L17.12 19.0376H2.80176C2.05654 19.0376 1.35332 19.3365 0.822615 19.8804C0.291732 20.4243 0 21.1445 0 21.9098C0 23.2747 0.936809 24.4219 2.18479 24.7099L2.51002 26.0352L5.34336 37.5888C5.68959 39.0078 6.93063 40.0001 8.35962 40.0001H31.6404C33.0676 40.0001 34.3085 39.0078 34.6566 37.5907L37.8169 24.7101C38.3267 24.5931 38.7959 24.3283 39.1774 23.9375C39.7083 23.3937 40 22.6734 40 21.91C40.0002 20.3253 38.7433 19.0378 37.1982 19.0378ZM27.893 37.4035C27.9773 37.4197 28.0616 37.427 28.1442 37.427C28.8122 37.427 29.408 36.9354 29.5293 36.2422L31.0515 27.6076C31.1904 26.828 30.6789 26.0734 29.9177 25.9312C29.8317 25.915 29.7491 25.9095 29.6664 25.9095C29.0002 25.9095 28.4027 26.4011 28.2796 27.0943L26.7574 35.7271C26.6205 36.5085 27.1319 37.2631 27.893 37.4035ZM29.6666 26.7179C29.7088 26.7179 29.7423 26.7215 29.7721 26.727C29.9373 26.7576 30.0779 26.8513 30.1729 26.9917C30.2678 27.1304 30.3047 27.2997 30.2747 27.4636L28.7525 36.0981C28.7015 36.3952 28.4396 36.6185 28.1444 36.6185C28.1075 36.6185 28.0707 36.615 28.0337 36.6077C27.6979 36.5465 27.4747 36.2151 27.5346 35.8713L29.0585 27.2385C29.1093 26.9412 29.3712 26.7179 29.6666 26.7179ZM19.9991 25.8373C19.2258 25.8373 18.5911 26.4873 18.5911 27.2815V36.053C18.5911 36.849 19.2256 37.4972 19.9991 37.4972C20.7761 37.4972 21.4089 36.849 21.4089 36.053V27.2815C21.4089 26.8854 21.2508 26.5234 20.9941 26.2624C20.7409 25.9995 20.3858 25.8373 19.9991 25.8373ZM19.3822 36.053V27.2815C19.3822 26.9322 19.6581 26.6477 19.9991 26.6477C20.1643 26.6477 20.319 26.7126 20.4333 26.8331C20.5547 26.9556 20.6197 27.1141 20.6197 27.2815V36.053C20.6197 36.4041 20.3421 36.6886 19.9993 36.6886C19.6581 36.6886 19.3822 36.4041 19.3822 36.053ZM10.3353 25.9093C10.2527 25.9093 10.1683 25.9146 10.084 25.931C9.32108 26.0732 8.81137 26.8278 8.94674 27.6075L10.4689 36.242C10.592 36.9352 11.1897 37.4268 11.8557 37.4268C11.9384 37.4268 12.0227 37.4197 12.1053 37.4033C12.87 37.2629 13.3797 36.5083 13.2426 35.7269L11.7204 27.0942C11.5991 26.4009 10.9996 25.9093 10.3353 25.9093ZM11.9647 36.6075C11.9295 36.6148 11.8927 36.6184 11.8557 36.6184C11.5604 36.6184 11.2985 36.3933 11.2459 36.0962L9.72371 27.4634C9.66401 27.1214 9.88893 26.7899 10.2247 26.727C10.26 26.7217 10.2933 26.7179 10.3355 26.7179C10.6289 26.7179 10.891 26.9412 10.9436 27.2383L12.4658 35.8711C12.5255 36.2149 12.3021 36.5464 11.9647 36.6075ZM13.2426 35.7271L11.7204 27.0943C11.5991 26.4011 10.9996 25.9095 10.3353 25.9095C10.2527 25.9095 10.1683 25.9146 10.084 25.931C9.32108 26.0732 8.81137 26.8278 8.94674 27.6075L10.4689 36.2422C10.592 36.9354 11.1897 37.427 11.8557 37.427C11.9384 37.427 12.0227 37.4197 12.1053 37.4033C12.87 37.2629 13.3797 36.5085 13.2426 35.7271ZM11.9647 36.6075C11.9295 36.6148 11.8927 36.6184 11.8557 36.6184C11.5604 36.6184 11.2985 36.3933 11.2459 36.0962L9.72371 27.4634C9.66401 27.1214 9.88893 26.7899 10.2247 26.727C10.26 26.7217 10.2933 26.7179 10.3355 26.7179C10.6289 26.7179 10.891 26.9412 10.9436 27.2383L12.4658 35.8711C12.5255 36.2149 12.3021 36.5464 11.9647 36.6075ZM29.9179 25.931C29.8318 25.9148 29.7492 25.9093 29.6666 25.9093C29.0004 25.9093 28.4028 26.4009 28.2798 27.0942L26.7576 35.7269C26.6205 36.5085 27.1319 37.2629 27.8931 37.4033C27.9775 37.4195 28.0618 37.4268 28.1444 37.4268C28.8124 37.4268 29.4082 36.9352 29.5295 36.242L31.0517 27.6075C31.1905 26.8278 30.6789 26.0732 29.9179 25.931ZM28.1444 36.6184C28.1075 36.6184 28.0707 36.6148 28.0337 36.6075C27.6979 36.5464 27.4747 36.2149 27.5346 35.8711L29.0585 27.2385C29.1095 26.9414 29.3714 26.7179 29.6666 26.7179C29.7088 26.7179 29.7423 26.7215 29.7721 26.727C29.9373 26.7576 30.0779 26.8513 30.1729 26.9917C30.2678 27.1304 30.3047 27.2997 30.2747 27.4636L28.7525 36.0981C28.7015 36.3951 28.4396 36.6184 28.1444 36.6184ZM20.9941 26.2622C20.741 25.9993 20.3858 25.8373 19.9991 25.8373C19.2258 25.8373 18.5913 26.4873 18.5913 27.2815V36.053C18.5913 36.849 19.2256 37.4972 19.9991 37.4972C20.7761 37.4972 21.409 36.849 21.409 36.053V27.2815C21.4089 26.8854 21.2506 26.5234 20.9941 26.2622ZM19.3822 36.053V27.2815C19.3822 26.9322 19.6581 26.6477 19.9991 26.6477C20.1643 26.6477 20.319 26.7126 20.4333 26.8331C20.5547 26.9556 20.6197 27.1141 20.6197 27.2815V36.053C20.6197 36.4041 20.3421 36.6886 19.9993 36.6886C19.6581 36.6886 19.3822 36.4041 19.3822 36.053ZM29.9179 25.931C29.8318 25.9148 29.7492 25.9093 29.6666 25.9093C29.0004 25.9093 28.4028 26.4009 28.2798 27.0942L26.7576 35.7269C26.6205 36.5085 27.1319 37.2629 27.8931 37.4033C27.9775 37.4195 28.0618 37.4268 28.1444 37.4268C28.8124 37.4268 29.4082 36.9352 29.5295 36.242L31.0517 27.6075C31.1905 26.8278 30.6789 26.0732 29.9179 25.931ZM28.1444 36.6184C28.1075 36.6184 28.0707 36.6148 28.0337 36.6075C27.6979 36.5464 27.4747 36.2149 27.5346 35.8711L29.0585 27.2385C29.1095 26.9414 29.3714 26.7179 29.6666 26.7179C29.7088 26.7179 29.7423 26.7215 29.7721 26.727C29.9373 26.7576 30.0779 26.8513 30.1729 26.9917C30.2678 27.1304 30.3047 27.2997 30.2747 27.4636L28.7525 36.0981C28.7015 36.3951 28.4396 36.6184 28.1444 36.6184ZM19.9991 25.8373C19.2258 25.8373 18.5911 26.4873 18.5911 27.2815V36.053C18.5911 36.849 19.2256 37.4972 19.9991 37.4972C20.7761 37.4972 21.4089 36.849 21.4089 36.053V27.2815C21.4089 26.8854 21.2508 26.5234 20.9941 26.2624C20.7409 25.9995 20.3858 25.8373 19.9991 25.8373ZM19.3822 36.053V27.2815C19.3822 26.9322 19.6581 26.6477 19.9991 26.6477C20.1643 26.6477 20.319 26.7126 20.4333 26.8331C20.5547 26.9556 20.6197 27.1141 20.6197 27.2815V36.053C20.6197 36.4041 20.3421 36.6886 19.9993 36.6886C19.6581 36.6886 19.3822 36.4041 19.3822 36.053ZM11.7204 27.0943C11.5991 26.4011 10.9996 25.9095 10.3353 25.9095C10.2527 25.9095 10.1683 25.9146 10.084 25.931C9.32108 26.0732 8.81137 26.8278 8.94674 27.6075L10.4689 36.2422C10.592 36.9354 11.1897 37.427 11.8557 37.427C11.9384 37.427 12.0227 37.4197 12.1053 37.4033C12.87 37.2629 13.3797 36.5085 13.2426 35.7271L11.7204 27.0943ZM11.9647 36.6075C11.9295 36.6148 11.8927 36.6184 11.8557 36.6184C11.5604 36.6184 11.2985 36.3933 11.2459 36.0962L9.72371 27.4634C9.66401 27.1214 9.88893 26.7899 10.2247 26.727C10.26 26.7217 10.2933 26.7179 10.3355 26.7179C10.6289 26.7179 10.891 26.9412 10.9436 27.2383L12.4658 35.8711C12.5255 36.2149 12.3021 36.5464 11.9647 36.6075Z" fill="white"/>
<path d="M33.8841 19.0371H23.7422V19.8457H33.8841V19.0371Z" fill="#534F70"/>
<path d="M20.5797 22.2769C19.8603 22.5431 19.0594 22.1578 18.7996 21.4208L14.6487 9.6443C14.3889 8.90734 14.765 8.0868 15.4843 7.82064C16.2037 7.55448 17.0046 7.93977 17.2644 8.67673L21.4153 20.4533C21.675 21.1902 21.2989 22.011 20.5797 22.2769Z" fill="#09160C"/>
<path d="M39.2116 21.9089C39.2116 22.4753 38.9845 22.9911 38.6192 23.3652C38.256 23.7373 37.7525 23.9701 37.1996 23.9701H2.80296C1.69537 23.9701 0.791016 23.0416 0.791016 21.9089C0.791016 21.3424 1.01801 20.8247 1.38142 20.4525C1.74674 20.0783 2.25021 19.8457 2.80296 19.8457H37.1994C38.3053 19.8455 39.2116 20.774 39.2116 21.9089Z" fill="#019934"/>
<path d="M2.81836 23.9707L6.1097 37.3917C6.36846 38.4496 7.29642 39.1899 8.36061 39.1899H31.6412C32.7054 39.1899 33.6314 38.4496 33.8921 37.3917L37.1834 23.9707H2.81836ZM12.1061 37.4038C11.3441 37.5453 10.6075 37.0215 10.4694 36.2406L8.9472 27.6075C8.81097 26.8268 9.32224 26.0723 10.0845 25.9307C10.1693 25.9146 10.2523 25.9085 10.3352 25.9085C11.0006 25.9085 11.5988 26.4001 11.7214 27.0939L13.2436 35.7272C13.3796 36.5077 12.8703 37.2623 12.1061 37.4038ZM21.4097 36.0527C21.4097 36.8476 20.7759 37.4969 19.9999 37.4969C19.2259 37.4969 18.5921 36.8476 18.5921 36.0527V27.282C18.5921 26.4871 19.2259 25.8377 19.9999 25.8377C20.387 25.8377 20.7403 25.9995 20.9951 26.2625C21.2517 26.5235 21.4097 26.8855 21.4097 27.282V36.0527ZM31.0527 27.6075L29.5305 36.2406C29.3943 37.0213 28.6577 37.5453 27.8938 37.4038C27.1317 37.2623 26.6203 36.5077 26.7584 35.727L28.2806 27.0937C28.403 26.3999 29.0014 25.9083 29.6667 25.9083C29.7497 25.9083 29.8326 25.9144 29.9175 25.9306C30.6796 26.0723 31.191 26.8268 31.0527 27.6075Z" fill="#019934"/>
<path d="M37.1824 23.9707L37.0404 24.5505L2.98896 24.6662L2.81836 23.9707H37.1824Z" fill="white"/>
<path d="M38.793 17.9211C38.7847 17.9382 38.7755 17.957 38.7652 17.973C38.7477 18.0089 38.721 18.0637 38.6812 18.1355C38.671 18.1515 38.6618 18.1706 38.6498 18.1903C38.6351 18.2159 38.6184 18.2451 38.6009 18.2764C38.5815 18.3114 38.5603 18.3453 38.5391 18.3793C38.4966 18.4474 38.4476 18.5238 38.3914 18.6062C37.3335 20.1816 33.9144 23.9973 25.2037 24.9818C20.6751 17.1123 21.7189 11.9818 22.3127 10.2559C22.3211 10.2295 22.3303 10.2012 22.3414 10.1736C22.3589 10.1235 22.3764 10.0735 22.3959 10.0243C22.4198 9.95618 22.4448 9.89573 22.467 9.84559C22.5335 9.68593 22.5769 9.60645 22.5769 9.60645C23.8179 7.06591 26.8328 6.03772 29.3107 7.30825C30.7978 8.07064 31.7532 9.48715 32.0109 11.047C33.3842 10.3233 35.0635 10.2579 36.5506 11.0203C39.0302 12.2921 40.0339 15.3808 38.793 17.9211Z" fill="#FF902A"/>
<path d="M25.2036 25.3865C25.0649 25.3865 24.9351 25.3116 24.8636 25.1873C20.284 17.2292 21.2939 12.0002 21.9405 10.1214C21.9482 10.096 21.9614 10.0568 21.9765 10.0193C21.9891 9.98198 22.0087 9.92669 22.0301 9.87228C22.0525 9.80792 22.0816 9.73734 22.1073 9.67866C22.1766 9.51207 22.2272 9.41854 22.2328 9.40823C22.8713 8.10036 23.9832 7.1127 25.3553 6.64456C26.7266 6.17624 28.1941 6.28346 29.4874 6.94664C30.8723 7.65658 31.8935 8.95129 32.2921 10.4716C33.7187 9.88686 35.3422 9.94856 36.7275 10.6587C39.3974 12.0275 40.4824 15.3667 39.1462 18.102C39.1356 18.1235 39.1238 18.1469 39.1112 18.169C39.0907 18.2106 39.0631 18.2657 39.0248 18.3351L38.6659 18.1622L39.01 18.3608L38.9434 18.4782C38.9213 18.5176 38.8967 18.5577 38.8719 18.5973C38.8267 18.6697 38.7747 18.7511 38.7148 18.8387C37.6187 20.4707 34.1076 24.3826 25.2471 25.3842C25.2326 25.3856 25.218 25.3865 25.2036 25.3865ZM27.0703 7.1671C26.5786 7.1671 26.085 7.24854 25.6048 7.41229C24.433 7.81215 23.483 8.6558 22.9301 9.78783C22.9167 9.81308 22.882 9.88011 22.8305 10.0042C22.8084 10.0543 22.7874 10.1048 22.7677 10.1614C22.7446 10.2206 22.729 10.2652 22.7133 10.3104C22.6996 10.3454 22.6942 10.3632 22.689 10.3797C22.0816 12.1449 21.1519 17.014 25.4148 24.5501C33.763 23.5413 37.0401 19.905 38.0664 18.3768C38.1213 18.2968 38.1671 18.2252 38.2068 18.1615C38.2243 18.1333 38.242 18.1048 38.2584 18.0758L38.3222 17.964C38.3309 17.948 38.3394 17.9327 38.3481 17.9188C38.3724 17.8742 38.3956 17.8266 38.4113 17.7947C38.4177 17.7817 38.4264 17.7657 38.434 17.7535L38.4402 17.74L38.4404 17.7398C39.5817 15.4035 38.6549 12.5515 36.3742 11.3821C35.0616 10.7093 33.4983 10.7184 32.192 11.4068C32.0799 11.4659 31.9473 11.4668 31.8345 11.4088C31.7219 11.3512 31.6431 11.2419 31.6221 11.1147C31.3768 9.63083 30.4466 8.34305 29.1341 7.67009C28.4822 7.33601 27.7785 7.1671 27.0703 7.1671Z" fill="white"/>
<path d="M32.9833 8.94188C32.9833 8.94188 27.2157 5.10449 32.9833 0.302734C38.7534 5.10449 32.9833 8.94188 32.9833 8.94188Z" fill="#019934"/>
<path d="M32.9827 9.2461C32.9266 9.2461 32.8704 9.22974 32.8213 9.19703C32.717 9.12751 30.2625 7.466 30.1287 4.89274C30.0426 3.23621 30.94 1.61311 32.796 0.0678739C32.9048 -0.0226246 33.0606 -0.0226246 33.1694 0.0678739C35.026 1.61275 35.9238 3.23621 35.8377 4.89257C35.7039 7.46582 33.2484 9.12768 33.1439 9.19703C33.095 9.22974 33.0388 9.2461 32.9827 9.2461ZM32.9827 0.69763C31.4098 2.06222 30.6488 3.46077 30.72 4.85718C30.8173 6.76459 32.456 8.16705 32.9827 8.57047C33.5096 8.16723 35.1489 6.76477 35.2463 4.85718C35.3174 3.46077 34.5563 2.06222 32.9827 0.69763Z" fill="white"/>
<path d="M32.9821 9.24614C32.8184 9.24614 32.6855 9.1103 32.6855 8.94264V0.303499C32.6855 0.136015 32.8183 0 32.9821 0C33.1457 0 33.2784 0.135837 33.2784 0.303499V8.94282C33.2786 9.11031 33.1457 9.24614 32.9821 9.24614Z" fill="white"/>
<path d="M32.9838 4.66507C32.8981 4.66507 32.8165 4.62702 32.7601 4.56052L30.971 2.44972C30.8637 2.32331 30.8769 2.13146 31.0005 2.02159C31.1241 1.91171 31.311 1.92522 31.4184 2.05181L32.9838 3.89877L34.5492 2.05181C34.6564 1.92522 34.843 1.91171 34.9671 2.02159C35.0907 2.13146 35.1039 2.32331 34.9966 2.44972L33.2075 4.56052C33.1513 4.62702 33.0697 4.66507 32.9838 4.66507Z" fill="white"/>
<path d="M32.9826 7.58961C32.9042 7.58961 32.829 7.55779 32.7732 7.50071L30.2099 4.87572C30.0941 4.75731 30.0941 4.56511 30.2099 4.4467C30.3256 4.32811 30.5129 4.32811 30.6286 4.4467L32.9691 6.84358L35.309 4.13004C35.417 4.00416 35.6044 3.99243 35.7271 4.10355C35.8498 4.2145 35.8613 4.40616 35.753 4.53186L33.2046 7.4872C33.1506 7.54996 33.0734 7.58695 32.9918 7.58961C32.9889 7.58961 32.9858 7.58961 32.9826 7.58961Z" fill="white"/>
</svg>
