<?xml version="1.0" standalone="no"?>
<!DOCTYPE svg PUBLIC "-//W3C//DTD SVG 20010904//EN"
 "http://www.w3.org/TR/2001/REC-SVG-20010904/DTD/svg10.dtd">
<svg version="1.0" xmlns="http://www.w3.org/2000/svg"
 width="1080.000000pt" height="1080.000000pt" viewBox="0 0 1080.000000 1080.000000"
 preserveAspectRatio="xMidYMid meet">

<g transform="translate(0.000000,1080.000000) scale(0.100000,-0.100000)"
fill="#000000" stroke="none">
<path d="M3350 8914 c-586 -83 -1037 -273 -1369 -576 -149 -136 -333 -439
-405 -667 -47 -148 -60 -236 -61 -396 0 -210 46 -406 126 -542 43 -71 195
-227 274 -280 248 -166 456 -196 890 -127 111 17 306 62 316 72 4 4 -15 44
-41 89 -149 258 -169 567 -52 798 86 170 279 363 417 414 145 54 413 86 601
71 149 -13 256 -40 374 -97 83 -40 107 -58 190 -142 162 -163 227 -261 279
-417 55 -164 91 -460 91 -751 0 -297 -169 -941 -337 -1279 -48 -97 -123 -216
-143 -229 -5 -3 -14 -14 -20 -25 -8 -15 38 -59 338 -323 378 -331 465 -407
468 -404 1 1 37 65 79 142 93 169 250 487 299 607 156 378 268 836 327 1338
27 225 33 683 11 840 -78 559 -350 1045 -752 1347 -271 203 -599 364 -904 443
-334 86 -766 127 -996 94z"/>
<path d="M3796 7539 c-237 -35 -414 -141 -520 -313 -72 -116 -90 -179 -90
-326 l-1 -125 58 -115 c32 -63 63 -119 68 -125 6 -6 44 25 103 84 l93 93 -34
56 c-90 151 -85 293 18 446 114 171 255 246 464 246 112 0 200 -18 278 -55
l52 -26 -38 35 c-47 42 -162 99 -243 120 -67 17 -116 18 -208 5z"/>
<path d="M7590 7513 c-267 -15 -527 -73 -721 -161 -124 -56 -438 -257 -526
-337 l-53 -47 0 -170 0 -170 71 66 c243 230 553 428 744 475 341 85 437 101
635 108 124 4 195 1 285 -11 567 -79 1031 -369 1372 -856 73 -105 192 -340
228 -452 14 -46 29 -90 32 -98 3 -8 7 -26 8 -40 2 -14 11 -77 21 -140 22 -138
25 -594 5 -695 -6 -33 -13 -71 -15 -85 -2 -14 -13 -62 -25 -108 -12 -46 -19
-88 -15 -94 4 -6 3 -8 -3 -5 -6 4 -16 -12 -23 -36 -18 -60 -90 -212 -132 -277
-19 -30 -37 -59 -38 -65 -2 -5 -9 -14 -16 -20 -6 -5 -46 -55 -87 -110 -233
-312 -498 -519 -825 -645 -269 -104 -507 -152 -756 -151 -198 0 -333 22 -540
86 -348 108 -564 241 -843 521 -116 115 -157 166 -226 270 -122 189 -194 312
-231 398 -19 43 -35 79 -37 81 -2 1 -83 -178 -180 -398 l-176 -402 36 -39 c54
-57 240 -216 376 -321 274 -211 563 -375 755 -429 95 -26 339 -74 475 -92 180
-24 523 -24 700 0 233 32 506 112 680 199 506 253 899 577 1071 882 48 86 50
90 34 80 -9 -5 -11 -4 -6 4 4 6 11 9 15 6 13 -8 72 111 65 132 -4 13 -3 14 3
5 7 -9 14 -2 27 27 10 21 15 44 11 50 -4 7 -1 10 7 9 8 -2 12 5 11 20 -2 13 1
21 6 18 9 -6 35 54 27 62 -3 2 2 11 10 19 9 9 12 23 8 35 -4 15 -3 18 7 13 9
-6 11 -4 6 7 -3 9 0 21 6 27 9 10 9 12 -3 9 -8 -2 -19 -7 -23 -13 -5 -5 -5 1
-1 15 4 14 10 27 14 30 3 3 10 14 14 25 6 16 9 17 17 5 7 -11 8 -6 3 14 -4 18
-3 27 3 23 11 -7 28 59 49 188 15 96 18 170 4 105 l-7 -35 -2 42 c-1 40 13 66
22 41 3 -10 1 162 -3 232 -1 8 2 56 6 107 8 105 -6 237 -41 393 -26 118 -49
179 -59 161 -4 -6 -12 -9 -17 -6 -5 4 -3 13 6 21 17 17 21 49 5 39 -5 -3 -10
3 -10 14 0 12 -5 21 -11 21 -8 0 -8 4 -1 13 7 8 5 26 -8 56 -9 25 -19 39 -21
32 -3 -8 -9 -3 -17 13 -7 16 -8 26 -2 26 6 0 1 17 -10 37 -11 21 -20 44 -20
51 0 7 -5 10 -12 6 -7 -4 -8 -3 -4 4 11 18 -124 252 -145 252 -5 0 -8 4 -7 9
5 15 -104 151 -115 144 -5 -3 -7 -1 -4 4 9 15 -114 145 -241 254 -264 228
-582 385 -967 477 -177 43 -412 59 -655 45z m2210 -1397 c0 -6 -7 -2 -15 8 -8
11 -15 25 -15 30 0 6 7 2 15 -8 8 -11 15 -25 15 -30z m65 -177 c4 -19 3 -35
-5 -42 -8 -9 -10 -8 -5 4 3 8 1 28 -4 42 -6 15 -7 27 -2 27 5 0 12 -14 16 -31z
m-91 -24 c5 -22 4 -26 -4 -15 -5 8 -10 24 -10 34 0 26 6 18 14 -19z m57 -16
c-5 -13 -10 -19 -10 -12 -1 15 10 45 15 40 3 -2 0 -15 -5 -28z m-137 -45 c3
-8 2 -12 -4 -9 -6 3 -10 10 -10 16 0 14 7 11 14 -7z m34 -25 c-3 -8 -7 -3 -11
10 -4 17 -3 21 5 13 5 -5 8 -16 6 -23z m19 -31 c-3 -8 -6 -5 -6 6 -1 11 2 17
5 13 3 -3 4 -12 1 -19z m160 -20 c-3 -8 -6 -5 -6 6 -1 11 2 17 5 13 3 -3 4
-12 1 -19z m-170 -110 c-3 -7 -5 -2 -5 12 0 14 2 19 5 13 2 -7 2 -19 0 -25z
m202 -180 c-1 -76 -3 -86 -10 -58 -8 32 -3 150 7 150 2 0 4 -42 3 -92z m-202
-155 c-3 -10 -5 -2 -5 17 0 19 2 27 5 18 2 -10 2 -26 0 -35z m197 -88 c-4 -8
-10 -12 -15 -9 -11 6 -2 24 11 24 5 0 7 -7 4 -15z m-174 -195 c0 -5 -5 -10
-11 -10 -5 0 -7 5 -4 10 3 6 8 10 11 10 2 0 4 -4 4 -10z m-18 -42 c-7 -7 -12
-8 -12 -2 0 14 12 26 19 19 2 -3 -1 -11 -7 -17z m-25 -30 c-3 -8 -6 -5 -6 6
-1 11 2 17 5 13 3 -3 4 -12 1 -19z m169 -175 c-10 -10 -19 5 -10 18 6 11 8 11
12 0 2 -7 1 -15 -2 -18z m-85 -24 c-5 -13 -10 -19 -10 -12 -1 15 10 45 15 40
3 -2 0 -15 -5 -28z m-71 -56 c0 -13 -4 -23 -8 -23 -4 0 -8 16 -8 35 0 21 3 30
8 22 4 -6 8 -22 8 -34z m47 -165 c-3 -8 -6 -5 -6 6 -1 11 2 17 5 13 3 -3 4
-12 1 -19z"/>
<path d="M7635 6394 c-614 -44 -1109 -250 -1237 -513 -31 -64 -31 -186 -1
-254 47 -102 152 -199 306 -282 49 -26 85 -51 80 -55 -4 -3 -28 -12 -53 -19
-89 -26 -148 -53 -173 -79 -25 -26 -26 -34 -29 -147 l-3 -120 -85 -10 c-63 -7
-84 -14 -82 -24 2 -7 28 -56 58 -109 53 -93 54 -96 40 -126 -26 -55 -96 -217
-96 -221 0 -9 109 -5 152 4 24 5 90 17 147 25 102 16 179 42 213 73 16 14 18
34 18 149 0 117 2 134 18 142 22 12 174 29 372 42 199 13 1020 13 1187 0 200
-16 346 -32 366 -42 15 -8 17 -25 17 -143 l0 -134 33 -25 c66 -50 199 -81 403
-93 77 -4 92 -3 97 11 4 9 -15 61 -43 121 -28 58 -50 112 -50 120 0 9 23 61
51 117 57 114 56 118 -28 118 -84 0 -83 -2 -83 116 0 102 0 104 -32 139 -35
41 -84 68 -166 94 -31 10 -58 23 -60 29 -2 6 17 20 42 31 136 60 280 184 331
287 25 51 30 70 30 139 0 70 -4 87 -30 135 -100 185 -354 332 -745 431 -192
48 -380 69 -655 73 -143 2 -282 2 -310 0z m513 -78 c7 -4 49 -9 95 -12 117 -6
141 -14 145 -49 l4 -28 22 28 c22 27 25 28 67 19 35 -7 45 -14 47 -32 l3 -22
17 20 c16 19 21 20 77 9 72 -14 85 -23 85 -58 0 -38 -14 -54 -39 -46 -11 3
-21 5 -21 2 0 -2 -9 -46 -21 -98 -11 -52 -21 -107 -20 -122 0 -33 -17 -42 -65
-32 -31 5 -35 9 -29 28 20 62 45 164 51 206 6 45 5 47 -18 46 -13 -1 -30 -5
-36 -9 -8 -5 -17 5 -27 28 -25 59 -35 41 -14 -26 38 -127 33 -212 -15 -244
-37 -23 -89 -7 -96 31 l-5 29 -12 -27 c-12 -26 -15 -27 -70 -21 -69 8 -79 15
-63 45 15 27 43 256 35 278 -10 27 -22 -3 -60 -156 -35 -140 -40 -153 -60
-153 -24 0 -35 22 -35 73 0 16 -4 26 -10 22 -5 -3 -10 -21 -10 -39 0 -36 -21
-62 -44 -53 -15 6 -19 25 -38 200 -13 127 -20 149 -39 130 -8 -8 -10 -59 -8
-167 l4 -156 -92 0 -93 0 2 58 c5 103 -2 276 -9 268 -4 -4 -8 -15 -8 -24 0
-10 -9 -18 -22 -20 -21 -3 -23 -8 -23 -75 0 -40 5 -101 10 -137 5 -35 7 -66 5
-69 -3 -2 -23 -5 -46 -5 l-41 -1 -4 125 c-4 112 -20 233 -23 173 -1 -32 -29
-28 -35 5 -2 15 -3 -40 0 -123 5 -173 -1 -195 -61 -195 -50 0 -61 25 -80 170
-8 69 -21 138 -27 153 -7 18 -7 32 -1 38 5 5 49 11 98 14 48 2 91 7 94 11 8 8
545 -1 559 -10z m-810 -41 c41 -34 63 -96 69 -190 6 -93 -11 -148 -51 -166
-32 -15 -68 6 -98 57 -26 43 -32 43 -24 -2 10 -53 -13 -84 -63 -84 -36 0 -39
2 -50 40 -16 55 -16 55 1 58 9 2 24 -11 35 -29 11 -17 23 -27 27 -21 3 5 -22
51 -56 101 -52 77 -62 100 -66 144 -5 61 4 73 63 82 40 7 40 6 53 -34 16 -54
15 -61 -6 -61 -11 0 -24 11 -30 25 -6 14 -16 25 -22 25 -16 0 -13 -8 23 -58
17 -25 45 -67 60 -92 26 -40 28 -42 23 -15 -24 122 -15 201 27 230 30 21 51
19 85 -10z m513 -345 c13 0 18 -15 23 -65 4 -36 4 -70 0 -76 -11 -18 -44 22
-44 53 0 15 -4 28 -10 28 -13 0 -13 -22 -1 -52 32 -79 61 -220 61 -295 0 -71
-3 -85 -22 -108 -19 -21 -28 -25 -55 -19 -18 4 -33 11 -33 15 0 5 -11 2 -25
-7 -23 -15 -27 -15 -49 -1 -19 13 -25 14 -29 3 -4 -9 -44 -13 -161 -15 l-155
-2 4 83 c4 71 3 78 -7 51 -12 -37 -22 -41 -38 -15 -8 13 -10 1 -8 -53 l3 -70
-59 -2 c-33 -2 -65 2 -72 8 -8 7 -13 6 -16 -3 -5 -15 -138 -27 -168 -16 -17 6
-18 11 -8 33 8 18 8 29 1 36 -20 20 -33 0 -27 -42 6 -37 5 -39 -19 -39 -30 0
-37 14 -26 55 12 44 31 294 24 314 -7 22 12 39 53 47 36 7 35 11 52 -186 13
-139 18 -170 31 -170 13 0 11 317 -2 341 -7 15 -7 24 1 34 16 20 107 37 130
25 39 -21 53 -125 23 -187 -13 -29 -14 -39 -4 -55 7 -11 15 -51 18 -90 4 -42
9 -64 14 -56 11 17 10 344 -1 373 -12 31 6 55 40 55 26 0 30 -4 36 -37 12 -67
22 -70 29 -10 4 32 12 60 17 63 19 12 173 32 183 24 6 -5 19 -2 29 6 22 16
103 19 125 5 8 -5 23 -29 32 -53 l18 -43 0 33 c1 18 8 47 17 63 12 24 20 30
37 25 12 -3 29 -6 38 -6z m177 -9 c7 -4 16 -33 19 -65 7 -66 14 -64 28 7 9 45
13 52 36 55 34 4 55 -21 43 -51 -10 -25 -3 -430 8 -407 6 14 11 79 25 333 l6
119 31 -6 c17 -4 36 -13 42 -21 6 -8 16 -105 24 -217 12 -198 21 -252 35 -217
6 17 1 378 -6 414 -4 18 1 20 46 17 62 -4 90 -22 110 -68 21 -52 20 -146 -3
-174 -18 -22 -18 -24 0 -59 11 -22 18 -57 18 -93 0 -32 4 -58 10 -58 14 0 13
355 -1 382 -19 35 2 43 68 28 32 -7 69 -18 83 -23 14 -5 36 -11 50 -12 35 -4
100 -33 100 -45 0 -5 7 -7 15 -4 17 7 124 -33 141 -52 5 -7 8 -29 6 -49 -4
-30 -7 -35 -24 -29 -18 5 -19 1 -15 -108 2 -62 6 -122 8 -133 4 -18 -1 -20
-40 -20 l-45 0 3 153 c3 145 2 154 -16 148 -20 -6 -55 19 -66 48 -12 32 -19
11 -12 -37 6 -37 10 -44 26 -40 17 5 19 -1 19 -51 0 -55 -11 -70 -36 -47 -5 6
-9 -14 -9 -55 -1 -35 3 -64 7 -64 4 0 8 9 8 20 0 11 2 20 4 20 2 0 11 3 20 6
13 5 16 -1 16 -33 0 -70 -8 -73 -145 -62 -66 5 -142 10 -170 10 -27 1 -56 5
-62 11 -9 7 -13 40 -13 99 0 60 -4 89 -11 89 -9 0 -10 -27 -6 -94 4 -68 2 -96
-6 -98 -7 -2 -47 -2 -90 0 l-79 4 7 48 c7 50 -6 73 -28 51 -8 -8 -8 -19 1 -43
17 -45 2 -58 -68 -58 -69 0 -90 16 -71 56 6 14 10 48 10 77 -1 29 -4 40 -6 25
-3 -22 -10 -28 -28 -28 -14 0 -25 7 -28 18 -3 9 -5 -3 -5 -28 0 -25 3 -54 7
-65 13 -30 -5 -56 -30 -46 -21 7 -22 12 -19 182 4 244 4 260 -4 296 -4 18 -5
37 -1 43 7 12 45 13 63 1z m-1114 -203 c10 -38 7 -58 -9 -58 -8 0 -15 5 -15
10 0 6 -4 10 -10 10 -5 0 -10 -19 -10 -41 0 -36 2 -40 15 -29 20 16 21 14 28
-42 6 -46 6 -48 -18 -48 -24 0 -25 -3 -25 -58 0 -32 5 -63 12 -70 16 -16 2
-28 -42 -36 -48 -8 -68 5 -52 36 13 24 10 256 -3 291 -6 13 2 21 36 37 59 26
85 26 93 -2z m788 -532 c17 -26 -4 -45 -29 -25 -13 11 -17 10 -28 -4 -7 -10
-11 -26 -8 -37 4 -15 13 -19 42 -17 35 1 38 4 52 47 19 58 45 61 64 7 19 -54
25 -57 25 -8 0 51 21 64 50 30 l19 -24 1 23 c0 13 6 22 15 22 11 0 15 -12 15
-49 0 -50 16 -111 30 -111 11 0 16 26 19 89 3 66 5 71 37 71 25 0 32 -14 13
-26 -8 -4 -8 -9 0 -17 7 -7 17 -3 31 16 27 35 62 35 89 1 l21 -27 21 27 c26
33 44 33 73 1 28 -30 32 -31 39 -5 7 28 34 25 68 -9 33 -33 35 -50 14 -91 -13
-25 -22 -30 -50 -30 -24 0 -35 5 -35 15 0 20 -26 19 -34 -1 -8 -22 -66 -15
-80 11 -6 11 -12 22 -13 24 -2 2 -12 -8 -24 -23 -29 -37 -67 -32 -88 11 -20
41 -41 43 -41 3 0 -16 -1 -33 -2 -37 -2 -5 8 -10 22 -11 25 -4 73 -32 55 -32
-6 0 -3 -5 5 -11 11 -8 7 -9 -18 -4 -18 4 -38 2 -45 -3 -28 -23 -328 -15 -343
9 -3 5 -17 9 -32 10 -36 1 61 28 103 29 33 0 74 20 44 20 -9 0 -19 9 -22 21
-3 13 -10 18 -17 14 -7 -4 -10 -15 -7 -24 3 -11 -3 -16 -20 -17 -12 -1 -23 2
-23 7 0 5 -7 9 -15 9 -8 0 -15 -4 -15 -10 0 -20 -39 -9 -59 16 -20 25 -21 25
-21 5 0 -19 -5 -21 -60 -19 -67 2 -67 2 -62 85 4 59 20 75 54 54 15 -10 23 -9
35 1 12 10 17 9 27 -4 10 -14 14 -14 35 3 24 20 59 17 73 -5z m-235 -28 c-1
-24 -6 -46 -11 -50 -6 -4 -11 -17 -11 -30 0 -18 -6 -24 -29 -26 -16 -2 -40 2
-53 9 -20 11 -25 10 -37 -7 -10 -13 -18 -16 -25 -9 -7 7 -5 28 7 68 30 94 50
100 72 22 15 -52 30 -44 30 16 0 42 5 49 35 49 20 0 22 -5 22 -42z m-276 10
c4 -6 15 -5 27 3 28 17 38 5 24 -26 -7 -14 -12 -37 -12 -50 0 -34 -10 -55 -26
-55 -9 0 -14 11 -14 29 0 37 -16 81 -30 81 -5 0 -10 -24 -10 -54 0 -30 -4 -57
-9 -60 -16 -10 -32 22 -29 60 2 23 -2 39 -9 41 -10 3 -13 -11 -13 -50 0 -52
-2 -56 -27 -61 -42 -8 -96 -5 -111 7 -11 8 -18 5 -32 -13 -27 -36 -34 -8 -17
61 19 72 45 75 67 7 8 -27 18 -48 23 -48 4 0 7 27 7 61 0 75 22 78 30 4 7 -68
28 -70 32 -3 2 39 7 53 18 53 8 0 21 5 28 12 14 14 74 14 83 1z m1291 -20 c-3
-35 11 -36 32 -3 21 32 51 32 80 0 l23 -25 15 22 c15 22 16 22 42 4 23 -14 27
-23 22 -44 -9 -35 -9 -43 -1 -69 6 -20 4 -22 -29 -20 -29 2 -38 7 -43 25 l-5
23 -22 -20 c-34 -32 -63 -27 -88 14 -21 36 -43 42 -43 12 0 -21 -22 -43 -32
-33 -9 9 -6 123 3 138 3 5 16 8 27 6 17 -2 21 -9 19 -30z m307 -62 c-3 -44 6
-70 22 -61 5 4 9 18 9 33 0 65 30 94 59 58 10 -11 8 -17 -6 -25 -16 -9 -16
-12 -3 -21 13 -9 13 -12 -3 -21 -17 -10 -17 -12 -2 -28 10 -12 25 -16 40 -13
29 5 30 11 10 38 -8 10 -15 27 -15 36 0 19 28 38 48 31 15 -6 16 -30 0 -35 -9
-3 -7 -15 6 -43 18 -37 18 -39 0 -52 -21 -15 -40 -17 -49 -3 -3 5 -18 9 -33 9
-15 0 -47 4 -72 8 l-45 8 -3 47 c-3 50 12 93 29 82 6 -3 9 -25 8 -48z m-1921
-15 c3 -56 -9 -81 -38 -81 -22 0 -40 41 -40 90 0 52 14 51 26 -2 14 -65 37
-63 28 2 -6 43 -4 52 7 48 9 -3 15 -23 17 -57z m-120 19 c13 -13 22 -33 22
-51 0 -17 4 -38 10 -48 8 -16 4 -19 -32 -25 -34 -6 -45 -3 -64 15 -30 28 -32
81 -4 109 25 25 41 25 68 0z m2276 4 c21 -8 21 -32 0 -36 -13 -3 -12 -7 7 -32
17 -21 20 -32 12 -45 -14 -22 -57 -21 -61 2 -2 10 3 17 12 17 14 0 14 4 -1 35
-13 28 -14 37 -3 50 14 17 13 17 34 9z m66 -51 c0 -53 -16 -75 -25 -35 -7 34
1 72 16 72 5 0 9 -17 9 -37z m-15 -83 c3 -5 -1 -10 -9 -10 -9 0 -16 5 -16 10
0 6 4 10 9 10 6 0 13 -4 16 -10z m-2204 -235 c-1 -66 -4 -121 -6 -123 -2 -2
-8 -1 -14 3 -12 7 -16 227 -4 239 19 19 25 -10 24 -119z m-59 82 c-5 -7 -9
-48 -9 -92 l1 -80 -44 -9 c-50 -11 -166 5 -187 26 -11 12 -9 21 9 58 28 56 92
96 168 108 60 9 76 6 62 -11z m2100 -74 c5 -92 -2 -133 -21 -133 -10 0 -24
206 -16 220 4 6 12 10 19 10 10 0 15 -26 18 -97z m136 61 c60 -18 142 -85 142
-117 0 -36 -96 -62 -188 -51 l-57 6 1 82 c1 44 2 84 3 89 2 12 39 8 99 -9z"/>
<path d="M7848 6284 c-11 -11 -10 -104 1 -104 6 0 12 3 14 8 7 12 -8 104 -15
96z"/>
<path d="M8157 6283 c-10 -10 -8 -93 2 -93 13 0 25 80 14 91 -5 5 -12 6 -16 2z"/>
<path d="M7490 6258 c0 -55 25 -258 32 -258 4 0 8 19 8 43 0 65 -23 237 -32
237 -4 0 -8 -10 -8 -22z"/>
<path d="M8055 6243 c7 -42 12 -50 21 -40 10 10 -6 77 -18 77 -6 0 -8 -13 -3
-37z"/>
<path d="M8326 6199 c-6 -39 2 -68 11 -41 3 6 11 12 19 12 16 0 17 -8 8 -62
-7 -41 -15 -46 -37 -24 -13 13 -15 10 -21 -22 -8 -52 -7 -82 3 -82 5 0 11 9
14 19 5 20 58 38 77 26 5 -3 10 -19 10 -36 0 -16 5 -29 10 -29 15 0 12 39 -10
108 -11 35 -20 76 -20 90 -1 23 -39 82 -53 82 -3 0 -7 -19 -11 -41z"/>
<path d="M7843 6070 c-1 -33 3 -60 8 -60 5 0 9 27 9 60 0 78 -14 78 -17 0z"/>
<path d="M7280 6248 c0 -7 7 -49 16 -93 8 -44 18 -106 21 -137 3 -32 9 -58 14
-58 12 0 11 36 -1 97 -5 26 -14 81 -20 120 -7 40 -16 75 -21 79 -5 3 -9 -1 -9
-8z"/>
<path d="M7660 5775 c0 -57 4 -95 10 -95 6 0 10 38 10 95 0 57 -4 95 -10 95
-6 0 -10 -38 -10 -95z"/>
<path d="M7580 5831 c0 -17 -5 -33 -10 -36 -15 -9 -38 12 -43 38 -2 12 -5 -6
-6 -41 -1 -45 3 -62 12 -61 34 4 37 -2 37 -66 0 -58 -2 -65 -19 -65 -11 0 -22
8 -24 18 -3 9 -5 -20 -6 -65 -1 -81 10 -109 23 -58 10 39 34 31 39 -12 2 -21
4 55 5 170 1 114 0 207 -3 207 -3 0 -5 -13 -5 -29z"/>
<path d="M7430 5640 c0 -127 4 -200 10 -200 6 0 10 73 10 200 0 127 -4 200
-10 200 -6 0 -10 -73 -10 -200z"/>
<path d="M7150 5694 c0 -47 4 -73 10 -69 6 3 10 37 10 76 0 39 -4 69 -10 69
-6 0 -10 -32 -10 -76z"/>
<path d="M7750 5739 c0 -12 -7 -36 -16 -55 -15 -31 -15 -37 0 -68 10 -21 16
-60 16 -104 0 -39 5 -74 11 -77 7 -5 9 12 7 50 -2 35 1 59 8 62 12 4 34 -39
34 -67 0 -11 5 -20 10 -20 16 0 12 40 -10 99 -10 29 -27 87 -36 127 -16 75
-24 92 -24 53z"/>
<path d="M7660 5536 c0 -47 5 -88 10 -91 6 -4 10 27 10 84 0 54 -4 91 -10 91
-6 0 -10 -35 -10 -84z"/>
<path d="M6961 5533 c-1 -24 4 -43 9 -43 12 0 12 37 0 65 -7 15 -9 10 -9 -22z"/>
<path d="M7150 5490 c0 -40 4 -70 10 -70 6 0 10 30 10 70 0 40 -4 70 -10 70
-6 0 -10 -30 -10 -70z"/>
<path d="M8400 5741 c0 -47 4 -81 10 -81 6 0 10 31 10 74 0 41 -4 78 -10 81
-6 4 -10 -23 -10 -74z"/>
<path d="M8581 5748 c0 -33 2 -38 9 -23 12 28 12 65 0 65 -5 0 -10 -19 -9 -42z"/>
<path d="M8639 5753 c-15 -38 -14 -89 6 -208 30 -187 42 -165 35 66 -4 117 -8
164 -17 167 -7 2 -18 -9 -24 -25z"/>
<path d="M8216 5597 c-5 -21 -6 -41 -2 -44 12 -12 17 5 14 43 l-4 39 -8 -38z"/>
<path d="M8581 5451 c-1 -24 2 -32 9 -25 7 7 7 19 1 35 -9 23 -10 22 -10 -10z"/>
<path d="M8077 5154 c-11 -12 -8 -41 6 -52 18 -16 39 1 35 29 -3 23 -27 37
-41 23z"/>
<path d="M8206 5153 c-3 -4 -6 -19 -6 -35 0 -39 34 -35 38 3 3 25 -18 46 -32
32z"/>
<path d="M8320 5121 c0 -33 15 -49 23 -27 7 18 -3 56 -14 56 -5 0 -9 -13 -9
-29z"/>
<path d="M7540 5114 c0 -8 5 -12 10 -9 6 4 8 11 5 16 -9 14 -15 11 -15 -7z"/>
<path d="M7858 5073 c-4 -30 -2 -33 20 -33 23 0 24 1 10 18 -9 9 -18 24 -20
32 -3 8 -7 0 -10 -17z"/>
<path d="M8536 5112 c-9 -27 3 -54 23 -50 22 5 22 62 -1 66 -9 2 -19 -5 -22
-16z"/>
<path d="M6692 5058 c-16 -16 -15 -28 4 -50 16 -17 18 -17 31 9 22 43 -3 73
-35 41z"/>
<path d="M9952 5340 c0 -14 2 -19 5 -12 2 6 2 18 0 25 -3 6 -5 1 -5 -13z"/>
<path d="M2080 4839 c-192 -22 -322 -75 -453 -186 -165 -142 -307 -373 -343
-561 -51 -263 -19 -471 93 -601 33 -40 100 -87 109 -79 2 3 -7 25 -20 49 -119
213 -140 512 -51 716 57 128 195 301 298 372 71 48 182 98 272 121 260 67 720
8 985 -125 127 -64 378 -228 595 -390 144 -106 399 -320 770 -645 307 -268
420 -356 675 -522 407 -265 752 -444 1074 -557 160 -56 578 -165 729 -190 317
-53 874 -54 1259 -1 238 33 347 68 482 154 66 42 188 137 183 142 -1 2 -75
-21 -162 -51 -350 -119 -432 -130 -965 -129 -428 1 -483 5 -860 64 -329 52
-395 69 -620 157 -404 158 -697 318 -1075 588 -364 260 -567 422 -815 650
-164 151 -736 601 -885 697 -264 170 -611 298 -887 328 -111 12 -279 11 -388
-1z"/>
<path d="M7392 4718 c-21 -21 -13 -47 18 -63 41 -21 41 -50 -1 -41 -21 4 -29
2 -27 -6 7 -21 44 -27 67 -12 30 22 26 51 -9 69 -39 20 -42 50 -4 41 19 -5 25
-3 22 6 -6 18 -50 22 -66 6z"/>
<path d="M7502 4721 c4 -13 18 -16 19 -4 0 4 -5 9 -11 12 -7 2 -11 -2 -8 -8z"/>
<path d="M7933 4723 c-22 -8 -14 -22 14 -25 38 -4 39 -21 3 -56 -40 -41 -38
-52 10 -52 22 0 40 5 40 10 0 6 -7 10 -15 10 -8 0 -15 6 -15 14 0 7 7 19 15
26 8 7 15 22 15 34 0 37 -30 55 -67 39z"/>
<path d="M8047 4712 c-19 -21 -22 -73 -7 -103 20 -36 76 -17 93 31 3 11 8 7
16 -13 13 -34 35 -43 67 -29 20 10 24 19 24 55 0 57 -27 86 -65 69 -15 -7 -25
-20 -25 -32 0 -29 -13 -25 -33 10 -21 34 -46 38 -70 12z m51 -48 c4 -41 -22
-65 -38 -35 -6 11 -8 32 -4 46 9 36 38 29 42 -11z m110 -6 c-4 -51 -31 -61
-36 -15 -4 37 4 57 23 57 13 0 15 -9 13 -42z"/>
<path d="M8284 4703 c-3 -10 -12 -30 -20 -44 -15 -30 -10 -39 22 -39 13 0 27
-8 33 -17 9 -17 11 -17 25 2 19 25 19 25 1 49 -15 19 -15 19 -28 1 -20 -26
-29 -4 -11 29 17 35 17 36 -1 36 -9 0 -18 -8 -21 -17z"/>
<path d="M9861 4694 c0 -11 3 -14 6 -6 3 7 2 16 -1 19 -3 4 -6 -2 -5 -13z"/>
<path d="M7264 4688 c3 -11 0 -18 -8 -18 -8 0 -16 5 -18 11 -2 6 -14 5 -33 -5
-26 -14 -37 -28 -19 -25 3 1 19 -11 34 -26 28 -27 28 -27 39 -7 7 13 23 22 44
24 40 4 42 19 3 29 -16 5 -33 14 -39 21 -6 9 -7 8 -3 -4z"/>
<path d="M8452 4685 c-7 -8 -24 -15 -38 -15 -33 0 -27 -24 7 -28 13 -2 32 -13
41 -25 l17 -22 18 21 c10 11 27 24 37 28 15 5 17 9 8 18 -9 9 -15 9 -24 0 -17
-17 -33 -15 -18 3 16 19 5 34 -12 17 -17 -17 -28 -15 -22 3 8 19 3 19 -14 0z
m38 -55 c0 -5 -4 -10 -10 -10 -5 0 -10 5 -10 10 0 6 5 10 10 10 6 0 10 -4 10
-10z"/>
<path d="M7680 4668 c-11 -12 -20 -27 -20 -34 0 -20 40 -53 56 -47 10 4 9 9
-8 22 -25 21 -19 50 13 58 16 4 17 8 7 14 -19 13 -25 11 -48 -13z"/>
<path d="M7500 4641 c0 -30 4 -41 16 -41 11 0 14 9 12 37 -4 52 -28 56 -28 4z"/>
<path d="M7557 4674 c-9 -9 -9 -47 -1 -68 9 -24 24 -9 24 25 0 22 5 29 20 29
16 0 20 -7 20 -37 0 -26 3 -34 11 -26 6 6 9 26 7 44 -3 31 -6 34 -38 37 -20 2
-39 0 -43 -4z"/>
<path d="M7772 4668 c-20 -20 -14 -56 13 -74 14 -9 29 -14 33 -10 3 4 0 11 -7
16 -16 9 -24 60 -10 60 5 0 9 -4 9 -10 0 -5 9 -10 20 -10 11 0 20 4 20 8 0 15
-24 32 -45 32 -12 0 -26 -5 -33 -12z"/>
<path d="M3631 3689 c-67 -75 -257 -250 -386 -353 -213 -170 -472 -320 -675
-391 -275 -95 -464 -129 -715 -129 -194 1 -307 15 -475 60 -170 46 -370 167
-492 298 -33 36 -65 63 -70 60 -4 -3 -6 -10 -2 -15 3 -5 10 -7 15 -3 5 3 8 0
7 -8 -2 -7 4 -12 12 -10 8 2 0 -12 -17 -30 -18 -19 -33 -40 -33 -47 0 -7 -5
-9 -10 -6 -6 3 -10 -1 -10 -9 0 -9 -7 -16 -15 -16 -11 0 -15 -13 -15 -54 0
-30 -5 -58 -11 -62 -7 -4 -10 17 -7 70 2 52 -1 76 -8 76 -15 0 -24 -33 -24
-90 0 -38 -5 -50 -30 -72 -27 -23 -30 -33 -32 -90 -1 -34 0 -83 1 -108 l2 -45
-20 25 -20 25 -17 -23 c-12 -18 -19 -21 -30 -11 -8 6 -14 16 -14 21 0 6 6 6
14 -1 10 -8 16 -9 21 -1 4 6 1 9 -7 8 -7 -2 -12 3 -10 11 3 12 1 12 -13 1 -9
-7 -14 -18 -12 -24 3 -6 -3 -20 -12 -31 -15 -18 -15 -19 1 -7 11 9 18 10 23 2
5 -8 11 -7 21 1 12 10 19 8 37 -11 12 -13 15 -19 6 -12 -12 9 -19 9 -29 -1
-10 -10 -11 -9 -5 3 5 8 4 11 0 7 -18 -16 -13 -35 9 -30 20 4 20 4 3 -10 -16
-14 -16 -15 0 -28 9 -8 14 -9 10 -2 -4 7 1 14 13 18 11 4 18 11 15 16 -4 5 -1
9 4 9 6 0 11 -7 11 -15 0 -8 -6 -15 -13 -15 -7 0 -13 -9 -14 -21 -1 -15 2 -19
14 -15 11 5 14 2 9 -10 -5 -12 -1 -14 17 -9 17 5 19 4 7 -4 -19 -13 14 -43
150 -135 291 -198 666 -307 1164 -338 395 -25 818 37 1136 165 404 163 1075
577 1269 782 52 55 53 56 35 77 -46 50 -675 586 -715 608 -12 7 -28 -5 -68
-51z m-2725 -561 c3 -4 -1 -5 -10 -4 -8 1 -18 5 -22 8 -3 4 1 5 10 4 8 -1 18
-5 22 -8z"/>
<path d="M720 3337 c0 -2 6 -10 14 -16 11 -9 16 -9 22 1 4 7 4 10 -1 6 -4 -4
-14 -3 -22 3 -7 6 -13 9 -13 6z"/>
<path d="M804 3188 c3 -22 22 -29 20 -8 -3 25 -5 30 -14 30 -5 0 -8 -10 -6
-22z"/>
<path d="M750 3129 c0 -5 5 -7 10 -4 6 3 10 8 10 11 0 2 -4 4 -10 4 -5 0 -10
-5 -10 -11z"/>
<path d="M4514 2906 c-46 -53 -218 -205 -318 -280 -336 -252 -746 -465 -1116
-578 -264 -81 -607 -134 -935 -145 l-190 -6 85 -29 c226 -76 314 -89 551 -77
385 18 573 59 984 214 235 88 413 179 629 323 158 104 336 246 476 379 l104
100 -103 67 c-57 37 -109 70 -116 72 -7 3 -30 -15 -51 -40z"/>
<path d="M584 2788 c-4 -7 -3 -8 5 -4 6 4 14 0 17 -8 3 -9 10 -16 15 -16 15 0
10 15 -11 27 -14 9 -21 10 -26 1z"/>
<path d="M500 2745 c-7 -9 -10 -18 -7 -21 3 -3 10 4 17 15 13 25 8 27 -10 6z"/>
</g>
</svg>
