<svg width="40" height="40" viewBox="0 0 40 40" fill="none" xmlns="http://www.w3.org/2000/svg">
<g clip-path="url(#clip0_3934_707)">
<path d="M40 20C40 8.9543 31.0457 0 20 0C8.9543 0 0 8.9543 0 20C0 31.0457 8.9543 40 20 40C31.0457 40 40 31.0457 40 20Z" fill="white"/>
<path fill-rule="evenodd" clip-rule="evenodd" d="M19.75 29.4664L16.449 20.9782C16.3369 20.6899 16.0593 20.5 15.75 20.5H13.75C12.2312 20.5 11 21.7312 11 23.25V30.25C11 30.6642 11.3358 31 11.75 31H27.75C28.1642 31 28.5 30.6642 28.5 30.25V23.25C28.5 21.7312 27.2688 20.5 25.75 20.5H23.75C23.4407 20.5 23.1631 20.6899 23.051 20.9782L19.75 29.4664Z" fill="#4AAF57"/>
<path fill-rule="evenodd" clip-rule="evenodd" d="M18.112 20.8557C18.2487 20.6345 18.4901 20.5 18.75 20.5H20.75C21.0099 20.5 21.2513 20.6345 21.388 20.8557C21.5246 21.0768 21.5371 21.3529 21.4208 21.5854L20.5224 23.3823L20.9942 27.1569C21.0081 27.2681 20.9969 27.3809 20.9615 27.4871L20.4615 28.9871C20.3594 29.2934 20.0728 29.5 19.75 29.5C19.4272 29.5 19.1406 29.2934 19.0385 28.9871L18.5385 27.4871C18.5031 27.3809 18.4919 27.2681 18.5058 27.1569L18.9776 23.3823L18.0792 21.5854C17.9629 21.3529 17.9754 21.0768 18.112 20.8557Z" fill="#4AAF57"/>
<path fill-rule="evenodd" clip-rule="evenodd" d="M15.5 13.75C15.5 11.4027 17.4028 9.5 19.75 9.5C22.0972 9.5 24 11.4027 24 13.75V14.75C24 17.0972 22.0972 19 19.75 19C17.4028 19 15.5 17.0972 15.5 14.75V13.75Z" fill="#4AAF57"/>
</g>
<defs>
<clipPath id="clip0_3934_707">
<rect width="40" height="40" fill="white"/>
</clipPath>
</defs>
</svg>
