<svg width="28" height="28" viewBox="0 0 28 28" fill="none" xmlns="http://www.w3.org/2000/svg">
<path d="M1.7908 13.8108C1.35633 13.8085 1.00227 14.1588 1 14.5932V25.0108H7.73333V13.8108H1.7908ZM3.53333 22.0774C3.53333 22.2189 3.47714 22.3545 3.37712 22.4546C3.2771 22.5546 3.14145 22.6108 3 22.6108C2.85855 22.6108 2.7229 22.5546 2.62288 22.4546C2.52286 22.3545 2.46667 22.2189 2.46667 22.0774V20.9314C2.46667 20.7899 2.52286 20.6543 2.62288 20.5543C2.7229 20.4542 2.85855 20.398 3 20.398C3.14145 20.398 3.2771 20.4542 3.37712 20.5543C3.47714 20.6543 3.53333 20.7899 3.53333 20.9314V22.0774ZM3.53333 17.6136C3.53333 17.755 3.47714 17.8907 3.37712 17.9907C3.2771 18.0907 3.14145 18.1469 3 18.1469C2.85855 18.1469 2.7229 18.0907 2.62288 17.9907C2.52286 17.8907 2.46667 17.755 2.46667 17.6136V16.4674C2.46667 16.326 2.52286 16.1903 2.62288 16.0903C2.7229 15.9903 2.85855 15.9341 3 15.9341C3.14145 15.9341 3.2771 15.9903 3.37712 16.0903C3.47714 16.1903 3.53333 16.326 3.53333 16.4674V17.6136ZM6.26667 22.0774C6.26667 22.2189 6.21048 22.3545 6.11046 22.4546C6.01044 22.5546 5.87478 22.6108 5.73333 22.6108C5.59188 22.6108 5.45623 22.5546 5.35621 22.4546C5.25619 22.3545 5.2 22.2189 5.2 22.0774V20.9314C5.2 20.7899 5.25619 20.6543 5.35621 20.5543C5.45623 20.4542 5.59188 20.398 5.73333 20.398C5.87478 20.398 6.01044 20.4542 6.11046 20.5543C6.21048 20.6543 6.26667 20.7899 6.26667 20.9314V22.0774ZM6.26667 17.6136C6.26667 17.755 6.21048 17.8907 6.11046 17.9907C6.01044 18.0907 5.87478 18.1469 5.73333 18.1469C5.59188 18.1469 5.45623 18.0907 5.35621 17.9907C5.25619 17.8907 5.2 17.755 5.2 17.6136V16.4674C5.2 16.326 5.25619 16.1903 5.35621 16.0903C5.45623 15.9903 5.59188 15.9341 5.73333 15.9341C5.87478 15.9341 6.01044 15.9903 6.11046 16.0903C6.21048 16.1903 6.26667 16.326 6.26667 16.4674V17.6136ZM13.9143 6.37744L8.8 10.7277V25.0108H11.1333V19.4567C11.1316 19.3888 11.1437 19.3212 11.169 19.2582C11.1942 19.1951 11.232 19.1378 11.2801 19.0899C11.3282 19.0419 11.3856 19.0042 11.4488 18.9792C11.5119 18.9541 11.5795 18.9422 11.6474 18.9441H16.2319C16.2992 18.9424 16.3661 18.9546 16.4284 18.9799C16.4908 19.0052 16.5472 19.0431 16.5943 19.0912C16.6413 19.1393 16.678 19.1966 16.7019 19.2595C16.7258 19.3224 16.7365 19.3895 16.7333 19.4567V25.0108H19V10.7228L13.9143 6.37744ZM16.2319 15.9441H11.6173C11.4758 15.9441 11.3402 15.8879 11.2401 15.7879C11.1401 15.6879 11.0839 15.5522 11.0839 15.4108C11.0839 15.2693 11.1401 15.1337 11.2401 15.0336C11.3402 14.9336 11.4758 14.8774 11.6173 14.8774H16.2319C16.3734 14.8774 16.509 14.9336 16.6091 15.0336C16.7091 15.1337 16.7653 15.2693 16.7653 15.4108C16.7653 15.5522 16.7091 15.6879 16.6091 15.7879C16.509 15.8879 16.3734 15.9441 16.2319 15.9441ZM26.2196 13.8108H20.0667V25.0108H27V14.6036C27.0035 14.1692 26.654 13.8142 26.2196 13.8108ZM22.8 22.0774C22.8 22.2189 22.7438 22.3545 22.6438 22.4546C22.5438 22.5546 22.4081 22.6108 22.2667 22.6108C22.1252 22.6108 21.9896 22.5546 21.8895 22.4546C21.7895 22.3545 21.7333 22.2189 21.7333 22.0774V20.9314C21.7333 20.7899 21.7895 20.6543 21.8895 20.5543C21.9896 20.4542 22.1252 20.398 22.2667 20.398C22.4081 20.398 22.5438 20.4542 22.6438 20.5543C22.7438 20.6543 22.8 20.7899 22.8 20.9314V22.0774ZM22.8 17.6136C22.8 17.755 22.7438 17.8907 22.6438 17.9907C22.5438 18.0907 22.4081 18.1469 22.2667 18.1469C22.1252 18.1469 21.9896 18.0907 21.8895 17.9907C21.7895 17.8907 21.7333 17.755 21.7333 17.6136V16.4674C21.7333 16.326 21.7895 16.1903 21.8895 16.0903C21.9896 15.9903 22.1252 15.9341 22.2667 15.9341C22.4081 15.9341 22.5438 15.9903 22.6438 16.0903C22.7438 16.1903 22.8 16.326 22.8 16.4674V17.6136ZM25.4667 22.0774C25.4667 22.2189 25.4105 22.3545 25.3105 22.4546C25.2104 22.5546 25.0748 22.6108 24.9333 22.6108C24.7919 22.6108 24.6562 22.5546 24.5562 22.4546C24.4562 22.3545 24.4 22.2189 24.4 22.0774V20.9314C24.4 20.7899 24.4562 20.6543 24.5562 20.5543C24.6562 20.4542 24.7919 20.398 24.9333 20.398C25.0748 20.398 25.2104 20.4542 25.3105 20.5543C25.4105 20.6543 25.4667 20.7899 25.4667 20.9314V22.0774ZM25.4667 17.6136C25.4667 17.755 25.4105 17.8907 25.3105 17.9907C25.2104 18.0907 25.0748 18.1469 24.9333 18.1469C24.7919 18.1469 24.6562 18.0907 24.5562 17.9907C24.4562 17.8907 24.4 17.755 24.4 17.6136V16.4674C24.4 16.326 24.4562 16.1903 24.5562 16.0903C24.6562 15.9903 24.7919 15.9341 24.9333 15.9341C25.0748 15.9341 25.2104 15.9903 25.3105 16.0903C25.4105 16.1903 25.4667 16.326 25.4667 16.4674V17.6136Z" fill="#FF981F"/>
<path d="M13.9408 3L6.30859 9.534L7.27313 10.6563L13.5945 5.27C13.6912 5.18763 13.814 5.14245 13.941 5.14259C14.068 5.14272 14.1908 5.18816 14.2873 5.27073L20.5824 10.6585L21.5691 9.53093L13.9408 3ZM12.2008 20.0109H15.6675V25.0109H12.2008V20.0109Z" fill="#FF981F"/>
</svg>
