<svg width="48" height="48" viewBox="0 0 48 48" fill="none" xmlns="http://www.w3.org/2000/svg">
<rect width="48" height="48" rx="8" fill="#DC2626"/>
<path d="M23.804 20.5026C22.5153 20.5026 21.4707 21.2861 21.4707 22.2527C21.4707 23.2191 22.5153 24.0027 23.804 24.0027C25.0926 24.0027 26.1374 24.7862 26.1374 25.7527C26.1374 26.7191 25.0926 27.5027 23.804 27.5027M23.804 20.5026C24.82 20.5026 25.6842 20.9896 26.0045 21.6693M23.804 20.5026V19.3359M23.804 27.5027C22.788 27.5027 21.9237 27.0157 21.6035 26.336M23.804 27.5027V28.6693" stroke="white" stroke-width="2" stroke-linecap="round"/>
<path d="M25.5501 12.918C25.5501 12.918 24.598 12.918 23.8001 12.918C18.5754 12.918 15.963 12.918 14.3399 14.5411C12.7168 16.1642 12.7168 18.7766 12.7168 24.0013C12.7168 29.226 12.7168 31.8384 14.3399 33.4616C15.963 35.0847 18.5754 35.0847 23.8001 35.0847C29.0248 35.0847 31.6372 35.0847 33.2604 33.4616C34.8835 31.8384 34.8835 29.226 34.8835 24.0013C34.8835 23.2035 34.8835 22.2513 34.8835 22.2513" stroke="white" stroke-width="2" stroke-linecap="round"/>
<path d="M29.0508 18.7493L33.9225 13.8748M34.8841 18.1406L34.7462 14.5339C34.7462 13.6838 34.2386 13.1542 33.314 13.0873L29.6693 12.916" stroke="white" stroke-width="2" stroke-linecap="round" stroke-linejoin="round"/>
</svg>
