<svg width="48" height="48" viewBox="0 0 48 48" fill="none" xmlns="http://www.w3.org/2000/svg">
<rect width="48" height="48" rx="8" fill="#019934"/>
<path d="M34.0328 29.6406C33.2671 25.0337 30.8833 21.6032 28.8111 19.5882C28.2081 19.0018 27.9066 18.7087 27.2405 18.4373C26.5745 18.166 26.002 18.166 24.857 18.166H22.3422C21.1972 18.166 20.6247 18.166 19.9587 18.4373C19.2927 18.7087 18.9912 19.0018 18.3882 19.5882C16.3159 21.6032 13.9322 25.0337 13.1664 29.6406C12.5967 33.0683 15.7588 35.666 19.2926 35.666H27.9066C31.4404 35.666 34.6026 33.0683 34.0328 29.6406Z" stroke="white" stroke-width="2" stroke-linecap="round" stroke-linejoin="round"/>
<path d="M18.065 15.184C17.8243 14.8337 17.4755 14.3581 18.1961 14.2497C18.9369 14.1382 19.706 14.6453 20.4589 14.6349C21.1401 14.6255 21.4871 14.3234 21.8593 13.892C22.2513 13.4378 22.8584 12.334 23.599 12.334C24.3396 12.334 24.9466 13.4378 25.3386 13.892C25.7109 14.3234 26.0578 14.6255 26.7389 14.6349C27.4919 14.6453 28.2611 14.1382 29.0018 14.2497C29.7224 14.3581 29.3736 14.8337 29.1329 15.184L28.0445 16.7681C27.579 17.4457 27.3463 17.7845 26.8591 17.9759C26.372 18.1673 25.7425 18.1673 24.4835 18.1673H22.7144C21.4554 18.1673 20.8259 18.1673 20.3388 17.9759C19.8516 17.7845 19.6189 17.4457 19.1533 16.7681L18.065 15.184Z" stroke="white" stroke-width="2" stroke-linejoin="round"/>
<path d="M25.4971 25.0711C25.2449 24.14 23.9611 23.2998 22.42 23.9284C20.879 24.5568 20.6342 26.5793 22.9652 26.7942C24.0187 26.8912 24.7056 26.6815 25.3345 27.2749C25.9634 27.8683 26.0802 29.5187 24.4725 29.9634C22.8649 30.4081 21.273 29.7133 21.0996 28.7264M23.4146 22.8242V23.7114M23.4146 30.1003V30.9909" stroke="white" stroke-width="2" stroke-linecap="round" stroke-linejoin="round"/>
</svg>
