<svg width="48" height="48" viewBox="0 0 48 48" fill="none" xmlns="http://www.w3.org/2000/svg">
<rect width="48" height="48" rx="8" fill="#9E2FE9"/>
<path d="M34.9004 18.166V23.9993M13.9004 18.166C13.9004 21.7413 13.9004 29.5692 13.9004 30.0209C13.9004 31.6338 16.1703 32.5927 20.7101 34.5104C22.534 35.2808 23.4458 35.666 24.4004 35.666V23.2466" stroke="white" stroke-width="2" stroke-linecap="round" stroke-linejoin="round"/>
<path d="M27.9004 32.1667C27.9004 32.1667 28.9212 32.1667 29.9421 34.5C29.9421 34.5 33.1847 28.6667 36.0671 27.5" stroke="white" stroke-width="2" stroke-linecap="round" stroke-linejoin="round"/>
<path d="M20.114 21.3073L16.7059 19.6581C14.8356 18.7531 13.9004 18.3006 13.9004 17.584C13.9004 16.8674 14.8356 16.4149 16.7059 15.5098L20.114 13.8607C22.2173 12.8429 23.2691 12.334 24.4004 12.334C25.5317 12.334 26.5835 12.8429 28.6868 13.8607L32.0949 15.5098C33.9652 16.4149 34.9004 16.8674 34.9004 17.584C34.9004 18.3006 33.9652 18.7531 32.0949 19.6581L28.6868 21.3073C26.5835 22.3251 25.5317 22.834 24.4004 22.834C23.2691 22.834 22.2173 22.3251 20.114 21.3073Z" stroke="white" stroke-width="2" stroke-linecap="round" stroke-linejoin="round"/>
<path d="M17.4004 24L19.7337 25.1667" stroke="white" stroke-width="2" stroke-linecap="round" stroke-linejoin="round"/>
<path d="M30.2331 14.666L18.5664 20.4993" stroke="white" stroke-width="2" stroke-linecap="round" stroke-linejoin="round"/>
</svg>
