<svg width="48" height="48" viewBox="0 0 48 48" fill="none" xmlns="http://www.w3.org/2000/svg">
<rect width="48" height="48" rx="8" fill="#FF8617"/>
<path d="M19.5326 28.6673H28.0063C33.2418 28.6673 34.0381 25.3783 35.0037 20.5812C35.2823 19.1976 35.4216 18.5058 35.0867 18.0449C34.7517 17.584 34.1097 17.584 32.8257 17.584H32.3659M17.1992 17.584H18.9492" stroke="white" stroke-width="2" stroke-linecap="round"/>
<path d="M22.4492 18.1667C22.4492 18.1667 23.6159 18.1667 24.7826 20.5C24.7826 20.5 28.4885 14.6667 31.7826 13.5" stroke="white" stroke-width="2" stroke-linecap="round" stroke-linejoin="round"/>
<path d="M19.5319 28.6673L16.4738 14.1014C16.2141 13.0627 15.2808 12.334 14.2101 12.334H13.1152" stroke="white" stroke-width="2" stroke-linecap="round"/>
<path d="M20.5592 28.666H20.0792C18.4886 28.666 17.1992 30.0092 17.1992 31.666C17.1992 31.9421 17.4141 32.166 17.6792 32.166H30.6159" stroke="white" stroke-width="2" stroke-linecap="round" stroke-linejoin="round"/>
<path d="M22.4492 35.666C23.4157 35.666 24.1992 34.8825 24.1992 33.916C24.1992 32.9495 23.4157 32.166 22.4492 32.166C21.4827 32.166 20.6992 32.9495 20.6992 33.916C20.6992 34.8825 21.4827 35.666 22.4492 35.666Z" stroke="white" stroke-width="2"/>
<path d="M30.6152 35.666C31.5817 35.666 32.3652 34.8825 32.3652 33.916C32.3652 32.9495 31.5817 32.166 30.6152 32.166C29.6487 32.166 28.8652 32.9495 28.8652 33.916C28.8652 34.8825 29.6487 35.666 30.6152 35.666Z" stroke="white" stroke-width="2"/>
</svg>
