<svg width="258" height="149" viewBox="0 0 258 149" fill="none" xmlns="http://www.w3.org/2000/svg">
<g filter="url(#filter0_d_1029_3780)">
<rect x="24" y="20" width="210" height="101" rx="8" fill="white"/>
<g clip-path="url(#clip0_1029_3780)">
<path d="M157.752 82.5009V74.8758C157.752 72.999 157.05 72.0606 155.299 72.0606C154.598 72.0606 153.78 72.1782 153.313 72.2951V83.4392C153.313 83.7912 152.962 84.1432 152.611 84.1432H149.924C149.574 84.1432 149.223 83.7912 149.223 83.4392V70.4183C149.223 69.9489 149.574 69.5975 149.924 69.48C151.677 68.8936 153.429 68.5416 155.298 68.5416C159.503 68.5416 161.84 70.7703 161.84 74.8764V83.5568C161.84 83.9087 161.489 84.2607 161.139 84.2607H159.503C158.453 84.2601 157.752 83.4392 157.752 82.5009ZM168.266 77.9259L168.149 78.9818C168.149 80.3897 169.083 81.2105 170.602 81.2105C171.769 81.2105 172.821 80.8586 173.99 80.2722C174.107 80.2722 174.223 80.1546 174.34 80.1546C174.574 80.1546 174.691 80.2722 174.808 80.3891C174.925 80.5066 175.158 80.8586 175.158 80.8586C175.392 81.2105 175.626 81.6794 175.626 82.0314C175.626 82.6178 175.275 83.2042 174.808 83.4392C173.523 84.1432 172.005 84.4951 170.369 84.4951C168.5 84.4951 166.981 84.0256 165.813 83.0873C164.645 82.0314 163.944 80.6241 163.944 78.8643V74.2894C163.944 70.6528 166.281 68.4241 170.253 68.4241C174.108 68.4241 176.327 70.5359 176.327 74.2894V77.1045C176.327 77.4564 175.977 77.8084 175.626 77.8084H168.267L168.266 77.9259ZM168.149 75.3452H172.588V74.1724C172.588 72.7646 171.77 71.8262 170.368 71.8262C168.966 71.8262 168.149 72.6471 168.149 74.1724V75.3452ZM197.938 77.9259L197.821 78.9818C197.821 80.3897 198.756 81.2105 200.274 81.2105C201.442 81.2105 202.494 80.8586 203.662 80.2722C203.779 80.2722 203.896 80.1546 204.013 80.1546C204.246 80.1546 204.363 80.2722 204.48 80.3891C204.597 80.5066 204.831 80.8586 204.831 80.8586C205.064 81.2105 205.298 81.6794 205.298 82.0314C205.298 82.6178 204.948 83.2042 204.481 83.4392C203.196 84.1432 201.677 84.4951 200.042 84.4951C198.173 84.4951 196.654 84.0256 195.486 83.0873C194.318 82.0314 193.617 80.6241 193.617 78.8643V74.2894C193.617 70.6528 195.954 68.4241 199.926 68.4241C203.781 68.4241 206 70.5359 206 74.2894V77.1045C206 77.4564 205.65 77.8084 205.299 77.8084H197.94V77.9259H197.938ZM197.821 75.3452H202.26V74.1724C202.26 72.7646 201.443 71.8262 200.041 71.8262C198.639 71.8262 197.821 72.6471 197.821 74.1724V75.3452ZM129.13 84.2601H130.766C131.116 84.2601 131.467 83.9081 131.467 83.5561V74.8758C131.467 70.8872 129.364 68.541 125.859 68.541C124.808 68.541 123.64 68.7754 122.939 69.0105V64.67C122.939 63.7316 122.121 62.9102 121.186 62.9102H119.551C119.2 62.9102 118.85 63.2621 118.85 63.6141V83.5561C118.85 83.9081 119.2 84.2601 119.551 84.2601H122.238C122.588 84.2601 122.939 83.9081 122.939 83.5561V72.5295C123.523 72.2951 124.341 72.1776 124.925 72.1776C126.677 72.1776 127.378 72.9984 127.378 74.9927V82.6178C127.495 83.4392 128.196 84.2601 129.13 84.2601ZM146.77 74.4063V78.7468C146.77 82.3833 144.318 84.612 140.228 84.612C136.256 84.612 133.686 82.3833 133.686 78.7468V74.4063C133.686 70.7697 136.139 68.541 140.228 68.541C144.318 68.541 146.77 70.7703 146.77 74.4063ZM142.682 74.4063C142.682 72.9984 141.865 72.06 140.345 72.06C138.826 72.06 138.009 72.8809 138.009 74.4063V78.7468C138.009 80.1546 138.826 80.9755 140.345 80.9755C141.865 80.9755 142.682 80.1546 142.682 78.7468V74.4063ZM116.631 72.4126C116.631 76.1667 113.827 78.7474 110.089 78.7474C109.154 78.7474 108.336 78.6299 107.519 78.2779V83.5568C107.519 83.9087 107.168 84.2607 106.818 84.2607H104.131C103.78 84.2607 103.43 83.9087 103.43 83.5568V64.905C103.43 64.4355 103.78 64.0842 104.131 63.9667C105.883 63.3803 107.635 63.0283 109.504 63.0283C113.71 63.0283 116.63 65.609 116.63 69.5975C116.631 69.5969 116.631 72.4126 116.631 72.4126ZM112.425 69.3624C112.425 67.4857 111.14 66.5473 109.388 66.5473C108.336 66.5473 107.635 66.8993 107.635 66.8993V74.6413C108.336 74.9933 108.687 75.1108 109.504 75.1108C111.257 75.1108 112.542 74.0549 112.542 72.2957V69.3631H112.425V69.3624ZM192.097 72.4126C192.097 76.1667 189.294 78.7474 185.555 78.7474C184.621 78.7474 183.803 78.6299 182.985 78.2779V83.5568C182.985 83.9087 182.635 84.2607 182.284 84.2607H179.597C179.247 84.2607 178.896 83.9087 178.896 83.5568V64.905C178.896 64.4355 179.247 64.0842 179.597 63.9667C181.35 63.3803 183.102 63.0283 184.971 63.0283C189.176 63.0283 192.097 65.609 192.097 69.5975C192.097 69.5969 192.097 72.4126 192.097 72.4126ZM187.892 69.3624C187.892 67.4857 186.607 66.5473 184.854 66.5473C183.803 66.5473 183.102 66.8993 183.102 66.8993V74.6413C183.803 74.9933 184.153 75.1108 184.971 75.1108C186.723 75.1108 188.008 74.0549 188.008 72.2957V69.3631H187.892V69.3624Z" fill="#5F259F"/>
<path d="M72.9112 91.4959C84.4601 91.4959 93.8223 82.0948 93.8223 70.4979C93.8223 58.9011 84.4601 49.5 72.9112 49.5C61.3622 49.5 52 58.9011 52 70.4979C52 82.0948 61.3622 91.4959 72.9112 91.4959Z" fill="#5F259F"/>
<path d="M82.4026 65.0192C82.4026 64.1983 81.7016 63.4944 80.8841 63.4944H78.0806L71.6556 56.1043C71.0717 55.4004 70.1372 55.166 69.2027 55.4004L66.9832 56.1043C66.6327 56.2219 66.5156 56.6907 66.7497 56.9252L73.7587 63.6119H63.1269C62.7764 63.6119 62.543 63.8463 62.543 64.1983V65.3711C62.543 66.192 63.244 66.8959 64.0614 66.8959H65.697V72.5267C65.697 76.7497 67.9164 79.2135 71.655 79.2135C72.823 79.2135 73.7581 79.0959 74.9261 78.6271V82.3811C74.9261 83.437 75.7435 84.2579 76.795 84.2579H78.4305C78.7811 84.2579 79.1316 83.9059 79.1316 83.554V66.779H81.8186C82.1691 66.779 82.4026 66.5445 82.4026 66.1926V65.0192ZM74.9261 75.1074C74.225 75.4594 73.2905 75.5769 72.5895 75.5769C70.7205 75.5769 69.786 74.6385 69.786 72.5267V66.8959H74.9261V75.1074Z" fill="white"/>
</g>
</g>
<defs>
<filter id="filter0_d_1029_3780" x="0" y="0" width="258" height="149" filterUnits="userSpaceOnUse" color-interpolation-filters="sRGB">
<feFlood flood-opacity="0" result="BackgroundImageFix"/>
<feColorMatrix in="SourceAlpha" type="matrix" values="0 0 0 0 0 0 0 0 0 0 0 0 0 0 0 0 0 0 127 0" result="hardAlpha"/>
<feOffset dy="4"/>
<feGaussianBlur stdDeviation="12"/>
<feComposite in2="hardAlpha" operator="out"/>
<feColorMatrix type="matrix" values="0 0 0 0 0 0 0 0 0 0 0 0 0 0 0 0 0 0 0.08 0"/>
<feBlend mode="normal" in2="BackgroundImageFix" result="effect1_dropShadow_1029_3780"/>
<feBlend mode="normal" in="SourceGraphic" in2="effect1_dropShadow_1029_3780" result="shape"/>
</filter>
<clipPath id="clip0_1029_3780">
<rect width="154" height="42" fill="white" transform="translate(52 49.5)"/>
</clipPath>
</defs>
</svg>
