<svg width="258" height="148" viewBox="0 0 258 148" fill="none" xmlns="http://www.w3.org/2000/svg">
<g filter="url(#filter0_d_1029_3730)">
<rect x="24" y="20" width="210" height="100" rx="8" fill="white"/>
<path d="M76.1442 64.4846C76.1442 63.1569 77.2375 62.6462 79.0483 62.6462C81.645 62.6462 84.925 63.4292 87.5217 64.8251V56.8244C84.6858 55.7009 81.8842 55.2583 79.0483 55.2583C72.1125 55.2583 67.5 58.8672 67.5 64.8932C67.5 74.2897 80.4833 72.7917 80.4833 76.8431C80.4833 78.4092 79.1167 78.9199 77.2033 78.9199C74.3675 78.9199 70.7458 77.7623 67.8758 76.1963V84.2991C71.0533 85.6609 74.265 86.2397 77.2033 86.2397C84.31 86.2397 89.1958 82.733 89.1958 76.6389C89.1617 66.4933 76.1442 68.2977 76.1442 64.4846ZM99.2408 48.4493L90.9042 50.2196L90.87 77.49C90.87 82.5287 94.6625 86.2397 99.7192 86.2397C102.521 86.2397 104.571 85.729 105.698 85.1162V78.2049C104.605 78.6475 99.2067 80.2136 99.2067 75.1749V63.0888H105.698V55.8371H99.2067L99.2408 48.4493ZM116.324 58.3565L115.778 55.8371H108.398V85.6268H116.939V65.4379C118.955 62.8164 122.372 63.2931 123.431 63.6676V55.8371C122.338 55.4286 118.34 54.6796 116.324 58.3565ZM125.515 55.8371H134.091V85.6268H125.515V55.8371ZM125.515 53.2497L134.091 51.4112V44.5L125.515 46.3044V53.2497ZM151.926 55.2583C148.577 55.2583 146.425 56.8244 145.229 57.9139L144.785 55.8031H137.268V95.5L145.81 93.6956L145.844 84.0607C147.074 84.9459 148.885 86.2056 151.892 86.2056C158.007 86.2056 163.577 81.3031 163.577 70.5107C163.543 60.6375 157.905 55.2583 151.926 55.2583ZM149.876 78.7156C147.86 78.7156 146.664 78.0007 145.844 77.1155L145.81 64.4846C146.698 63.4973 147.928 62.8164 149.876 62.8164C152.985 62.8164 155.137 66.2891 155.137 70.749C155.137 75.3111 153.019 78.7156 149.876 78.7156ZM190.5 70.8511C190.5 62.1355 186.263 55.2583 178.166 55.2583C170.034 55.2583 165.114 62.1355 165.114 70.783C165.114 81.0307 170.923 86.2056 179.259 86.2056C183.325 86.2056 186.4 85.2864 188.723 83.9927V77.1836C186.4 78.3411 183.735 79.0561 180.353 79.0561C177.038 79.0561 174.1 77.8985 173.724 73.8812H190.432C190.432 73.4386 190.5 71.6682 190.5 70.8511ZM173.622 67.6168C173.622 63.7697 175.979 62.1696 178.132 62.1696C180.216 62.1696 182.437 63.7697 182.437 67.6168H173.622Z" fill="#6772E5"/>
</g>
<defs>
<filter id="filter0_d_1029_3730" x="0" y="0" width="258" height="148" filterUnits="userSpaceOnUse" color-interpolation-filters="sRGB">
<feFlood flood-opacity="0" result="BackgroundImageFix"/>
<feColorMatrix in="SourceAlpha" type="matrix" values="0 0 0 0 0 0 0 0 0 0 0 0 0 0 0 0 0 0 127 0" result="hardAlpha"/>
<feOffset dy="4"/>
<feGaussianBlur stdDeviation="12"/>
<feComposite in2="hardAlpha" operator="out"/>
<feColorMatrix type="matrix" values="0 0 0 0 0 0 0 0 0 0 0 0 0 0 0 0 0 0 0.08 0"/>
<feBlend mode="normal" in2="BackgroundImageFix" result="effect1_dropShadow_1029_3730"/>
<feBlend mode="normal" in="SourceGraphic" in2="effect1_dropShadow_1029_3730" result="shape"/>
</filter>
</defs>
</svg>
