<svg width="258" height="149" viewBox="0 0 258 149" fill="none" xmlns="http://www.w3.org/2000/svg">
<g filter="url(#filter0_d_1029_3787)">
<rect x="24" y="20" width="210" height="101" rx="8" fill="white"/>
<g clip-path="url(#clip0_1029_3787)">
<path d="M55.8027 61.9926L54.4062 67.188L62.3995 61.963L57.1718 81.6782L62.4811 81.6826L70.204 52.5625" fill="#3395FF"/>
<path d="M47.1989 73.3942L45 81.6825H55.882L60.3349 64.8218L47.1989 73.3942ZM84.9992 66.0972C84.7332 67.0965 84.2207 67.8305 83.4564 68.2992C82.6939 68.767 81.6237 69.0018 80.2423 69.0018H75.8533L77.3943 63.1943H81.7833C83.163 63.1943 84.1108 63.4273 84.6251 63.9023C85.1393 64.3773 85.2635 65.1032 84.9992 66.107M89.5434 65.9815C90.102 63.8844 89.8715 62.2712 88.85 61.1419C87.8304 60.0217 86.0411 59.457 83.4875 59.457H73.6925L67.7962 81.6924H72.5549L74.9312 72.7301H78.0522C78.7527 72.7301 79.3042 72.8466 79.7067 73.0707C80.1102 73.3037 80.3469 73.707 80.4196 74.2896L81.269 81.6924H86.3674L85.541 74.7914C85.3725 73.2499 84.6747 72.3447 83.4485 72.0759C85.0117 71.6188 86.3213 70.857 87.3764 69.7995C88.4242 68.7497 89.1727 67.4339 89.5434 65.9905M101.111 73.7339C100.712 75.2396 100.1 76.3778 99.2728 77.1754C98.4446 77.973 97.4551 78.3674 96.3007 78.3674C95.125 78.3674 94.3278 77.982 93.9067 77.2023C93.4846 76.4226 93.4704 75.2933 93.8623 73.8146C94.2543 72.3358 94.8794 71.1797 95.7394 70.3462C96.5995 69.5127 97.605 69.0959 98.7594 69.0959C99.9121 69.0959 100.701 69.4992 101.1 70.2996C101.508 71.1035 101.517 72.2533 101.118 73.75L101.111 73.7339ZM103.196 65.865L102.6 68.1146C102.343 67.308 101.844 66.6627 101.106 66.1787C100.367 65.7037 99.4519 65.4617 98.3604 65.4617C97.0215 65.4617 95.7359 65.8113 94.5034 66.5103C93.2709 67.2094 92.1892 68.1952 91.2671 69.4679C90.3449 70.7405 89.6711 72.1834 89.2366 73.8056C88.811 75.4367 88.7223 76.8617 88.9795 78.0985C89.2455 79.3443 89.8041 80.2943 90.6641 80.9575C91.5331 81.6296 92.6414 81.9612 93.998 81.9612C95.076 81.9668 96.1418 81.7311 97.1191 81.2711C98.0853 80.8306 98.9447 80.1822 99.6372 79.3711L99.0165 81.7157H103.618L107.82 65.8731H103.21L103.196 65.865ZM124.357 65.865H110.974L110.039 69.3962H117.825L107.531 78.3853L106.652 81.7013H120.466L121.401 78.1702H113.058L123.51 69.0466M136.136 73.707C135.722 75.2664 135.107 76.4387 134.296 77.2023C133.485 77.973 132.502 78.3584 131.349 78.3584C128.937 78.3584 128.144 76.8079 128.967 73.707C129.375 72.1655 129.992 71.0067 130.817 70.2261C131.641 69.4428 132.641 69.052 133.815 69.052C134.968 69.052 135.747 69.4401 136.147 70.2216C136.548 71.0013 136.545 72.1637 136.136 73.7052M138.83 66.461C137.77 65.7942 136.418 65.4608 134.769 65.4608C133.099 65.4608 131.554 65.7924 130.131 66.4557C128.715 67.1147 127.47 68.0985 126.496 69.3289C125.494 70.5747 124.773 72.0355 124.331 73.7025C123.896 75.3632 123.843 76.8214 124.18 78.0698C124.517 79.3156 125.226 80.2745 126.29 80.9377C127.363 81.6063 128.729 81.9388 130.404 81.9388C132.054 81.9388 133.588 81.6036 134.997 80.9368C136.407 80.2665 137.613 79.3147 138.615 78.06C139.617 76.8106 140.335 75.3534 140.778 73.6864C141.222 72.0194 141.275 70.5639 140.938 69.3128C140.601 68.0671 139.901 67.1081 138.846 66.4404M155.258 70.097L156.437 65.7862C156.038 65.58 155.515 65.4725 154.859 65.4725C153.804 65.4725 152.793 65.736 151.817 66.2701C150.979 66.7236 150.266 67.3635 149.663 68.1648L150.275 65.8435L148.938 65.8489H145.658L141.428 81.6852H146.095L148.289 73.4068C148.609 72.2031 149.183 71.2558 150.012 70.5837C150.837 69.9088 151.865 69.5709 153.107 69.5709C153.869 69.5709 154.579 69.7475 155.252 70.0997M168.242 73.7832C167.843 75.262 167.24 76.3912 166.415 77.1709C165.591 77.9542 164.598 78.345 163.445 78.345C162.293 78.345 161.503 77.9506 161.087 77.162C160.661 76.3688 160.652 75.2261 161.051 73.724C161.45 72.2229 162.062 71.0712 162.904 70.2736C163.747 69.4697 164.74 69.0681 165.892 69.0681C167.027 69.0681 167.79 69.4804 168.198 70.3139C168.606 71.1474 168.614 72.3035 168.223 73.7823M171.485 66.487C170.621 65.788 169.517 65.4384 168.178 65.4384C167.005 65.4384 165.887 65.7073 164.827 66.2504C163.767 66.7926 162.907 67.532 162.246 68.4677L162.262 68.3601L163.045 65.8417H158.488L157.326 70.2243L157.291 70.3766L152.503 88.4302H157.176L159.587 79.3425C159.827 80.1509 160.314 80.7854 161.059 81.2443C161.804 81.7013 162.723 81.9281 163.817 81.9281C165.173 81.9281 166.468 81.5965 167.696 80.9333C168.928 80.2683 169.992 79.3111 170.897 78.0743C171.801 76.8375 172.472 75.4036 172.901 73.7814C173.335 72.1565 173.424 70.7073 173.175 69.4392C172.923 68.1692 172.363 67.1861 171.5 66.4906M186.985 73.7187C186.586 75.2154 185.974 76.3625 185.15 77.1512C184.325 77.9453 183.332 78.3405 182.18 78.3405C181 78.3405 180.202 77.9551 179.786 77.1754C179.36 76.3957 179.351 75.2664 179.741 73.7877C180.131 72.3089 180.754 71.1528 181.614 70.3193C182.474 69.4858 183.48 69.0699 184.635 69.0699C185.787 69.0699 186.568 69.4732 186.975 70.2709C187.383 71.0712 187.386 72.2211 186.989 73.7213L186.985 73.7187ZM189.069 65.8453L188.472 68.0948C188.215 67.2838 187.719 66.6385 186.983 66.159C186.238 65.6804 185.325 65.442 184.234 65.442C182.895 65.442 181.602 65.7915 180.368 66.4906C179.136 67.1897 178.054 68.1701 177.132 69.4392C176.21 70.7082 175.536 72.1547 175.101 73.7769C174.671 75.4054 174.587 76.833 174.844 78.0752C175.104 79.312 175.663 80.2674 176.529 80.9342C177.392 81.5974 178.506 81.9326 179.863 81.9326C180.953 81.9326 181.995 81.7031 182.984 81.2425C183.948 80.7999 184.805 80.1507 185.496 79.3398L184.875 81.6861H189.477L193.678 65.8498H189.076L189.069 65.8453ZM212.997 65.8507L213 65.8462H210.172C210.081 65.8462 210.001 65.8507 209.919 65.8525H208.451L207.698 66.91L207.512 67.161L207.432 67.2865L201.469 75.6823L200.236 65.8507H195.353L197.827 80.7908L192.365 88.4356H197.232L198.554 86.5418C198.591 86.4863 198.624 86.4397 198.669 86.3805L200.212 84.1668L200.256 84.1041L207.166 74.2008L212.991 65.8659L213 65.8606H212.997V65.8507Z" fill="#072654"/>
</g>
</g>
<defs>
<filter id="filter0_d_1029_3787" x="0" y="0" width="258" height="149" filterUnits="userSpaceOnUse" color-interpolation-filters="sRGB">
<feFlood flood-opacity="0" result="BackgroundImageFix"/>
<feColorMatrix in="SourceAlpha" type="matrix" values="0 0 0 0 0 0 0 0 0 0 0 0 0 0 0 0 0 0 127 0" result="hardAlpha"/>
<feOffset dy="4"/>
<feGaussianBlur stdDeviation="12"/>
<feComposite in2="hardAlpha" operator="out"/>
<feColorMatrix type="matrix" values="0 0 0 0 0 0 0 0 0 0 0 0 0 0 0 0 0 0 0.08 0"/>
<feBlend mode="normal" in2="BackgroundImageFix" result="effect1_dropShadow_1029_3787"/>
<feBlend mode="normal" in="SourceGraphic" in2="effect1_dropShadow_1029_3787" result="shape"/>
</filter>
<clipPath id="clip0_1029_3787">
<rect width="168" height="36" fill="white" transform="translate(45 52.5)"/>
</clipPath>
</defs>
</svg>
