<svg width="258" height="148" viewBox="0 0 258 148" fill="none" xmlns="http://www.w3.org/2000/svg">
<g filter="url(#filter0_d_1029_3751)">
<rect x="24" y="20" width="210" height="100" rx="8" fill="white"/>
<path d="M76.213 59.4805H56.4369C55.7728 59.4805 55.207 60.0399 55.207 60.7209V62.9342C55.207 63.6152 55.7728 64.1746 56.4369 64.1746H76.213C76.9017 64.1746 77.4428 63.6152 77.4674 62.9342V60.7452C77.4674 60.0399 76.9017 59.4805 76.213 59.4805ZM76.213 71.763H56.4369C56.1171 71.763 55.7974 71.8846 55.576 72.1278C55.33 72.371 55.207 72.6629 55.207 73.0034V75.2167C55.207 75.8977 55.7728 76.4571 56.4369 76.4571H76.213C76.9017 76.4571 77.4428 75.922 77.4674 75.2167V73.0034C77.4428 72.2981 76.9017 71.763 76.213 71.763ZM67.5794 77.8921H56.4369C56.1171 77.8921 55.7974 78.0137 55.576 78.2569C55.3546 78.5001 55.207 78.792 55.207 79.1325V81.3458C55.207 82.0268 55.7728 82.5862 56.4369 82.5862H67.5548C68.2435 82.5862 68.7846 82.0268 68.7846 81.3701V79.1568C68.8092 78.4272 68.2681 77.8677 67.5794 77.8921ZM77.4674 65.6096H56.4369C56.1171 65.6096 55.7974 65.7312 55.576 65.9744C55.3546 66.2176 55.207 66.5095 55.207 66.85V69.0633C55.207 69.7443 55.7728 70.3037 56.4369 70.3037H77.4428C78.1315 70.3037 78.6727 69.7443 78.6727 69.0633V66.85C78.6973 66.169 78.1316 65.6339 77.4674 65.6096Z" fill="#00C3F7"/>
<path d="M100.467 64.4425C99.8517 63.8101 99.1384 63.3237 98.3267 62.9832C97.515 62.6427 96.6541 62.4724 95.7686 62.4724C94.9077 62.4481 94.0714 62.6427 93.2843 63.0075C92.7678 63.2507 92.3004 63.5912 91.9069 64.0047V63.6155C91.9069 63.421 91.8331 63.2264 91.7101 63.0805C91.5871 62.9345 91.3903 62.8372 91.169 62.8372H88.4387C88.2419 62.8372 88.0451 62.9102 87.9221 63.0805C87.7746 63.2264 87.7008 63.421 87.7254 63.6155V81.8082C87.7254 82.0028 87.7992 82.1974 87.9221 82.3433C88.0697 82.4893 88.2419 82.5622 88.4387 82.5622H91.2428C91.4395 82.5622 91.6117 82.4893 91.7593 82.3433C91.9069 82.2217 92.0053 82.0271 91.9807 81.8082V75.5819C92.3742 76.0196 92.8908 76.3358 93.4565 76.5304C94.1944 76.7979 94.9569 76.9439 95.744 76.9439C96.6295 76.9439 97.515 76.7736 98.3267 76.4331C99.1384 76.0926 99.8763 75.6062 100.491 74.9738C101.131 74.3171 101.623 73.5388 101.967 72.6876C102.361 71.739 102.533 70.7175 102.508 69.696C102.533 68.6745 102.336 67.6529 101.967 66.6801C101.598 65.8775 101.106 65.0992 100.467 64.4425ZM97.9578 71.0337C97.8102 71.4228 97.5888 71.7633 97.2936 72.0795C96.7279 72.6876 95.9162 73.0281 95.0799 73.0281C94.6618 73.0281 94.2436 72.9551 93.85 72.7605C93.4811 72.5903 93.1367 72.3714 92.8416 72.0795C92.5464 71.7877 92.325 71.4228 92.1774 71.0337C91.8577 70.2067 91.8577 69.3068 92.1774 68.4799C92.325 68.0907 92.571 67.7502 92.8416 67.4584C93.1367 67.1665 93.4811 66.9233 93.85 66.753C94.2436 66.5828 94.6618 66.4855 95.0799 66.4855C95.5227 66.4855 95.9162 66.5585 96.3344 66.753C96.7033 66.9233 97.0477 67.1422 97.3182 67.4341C97.6134 67.7259 97.8102 68.0664 97.9824 68.4556C98.2775 69.3068 98.2529 70.2067 97.9578 71.0337ZM117.537 62.8616H114.758C114.561 62.8616 114.364 62.9345 114.241 63.0805C114.093 63.2264 114.02 63.421 114.02 63.6399V63.9804C113.675 63.5669 113.233 63.2507 112.765 63.0318C112.003 62.667 111.166 62.4967 110.33 62.4967C108.535 62.4967 106.837 63.2021 105.558 64.4425C104.894 65.0992 104.378 65.8775 104.033 66.7287C103.64 67.6773 103.443 68.6988 103.468 69.7446C103.443 70.7661 103.64 71.7877 104.033 72.7605C104.402 73.6118 104.894 74.3901 105.558 75.0468C106.813 76.3115 108.535 77.0168 110.306 77.0168C111.142 77.0412 111.978 76.8466 112.741 76.4818C113.208 76.2385 113.675 75.9224 114.02 75.5332V75.898C114.02 76.0926 114.093 76.2872 114.241 76.4331C114.389 76.5547 114.561 76.652 114.758 76.652H117.537C117.734 76.652 117.931 76.579 118.054 76.4331C118.201 76.2872 118.275 76.0926 118.275 75.898V63.6642C118.275 63.4696 118.201 63.275 118.078 63.1291C117.931 62.9588 117.734 62.8616 117.537 62.8616ZM113.774 71.0337C113.626 71.4228 113.405 71.7633 113.11 72.0795C112.814 72.3714 112.495 72.6146 112.126 72.7848C111.339 73.1497 110.429 73.1497 109.641 72.7848C109.272 72.6146 108.928 72.3714 108.633 72.0795C108.338 71.7877 108.116 71.4228 107.969 71.0337C107.674 70.2067 107.674 69.3068 107.969 68.4799C108.116 68.0907 108.338 67.7746 108.633 67.4584C108.928 67.1665 109.248 66.9233 109.641 66.753C110.429 66.3882 111.339 66.3882 112.101 66.753C112.47 66.9233 112.814 67.1422 113.085 67.4341C113.356 67.7259 113.577 68.0664 113.749 68.4556C114.093 69.3068 114.093 70.2067 113.774 71.0337ZM145.233 69.3798C144.84 69.0393 144.373 68.7474 143.881 68.5529C143.364 68.334 142.798 68.188 142.257 68.0664L140.142 67.6529C139.601 67.5557 139.207 67.4097 139.01 67.2395C138.838 67.1179 138.715 66.9233 138.715 66.7044C138.715 66.4855 138.838 66.2909 139.109 66.1207C139.478 65.9261 139.871 65.8288 140.289 65.8531C140.831 65.8531 141.372 65.9747 141.864 66.1693C142.356 66.3882 142.823 66.6071 143.266 66.899C143.881 67.2881 144.422 67.2152 144.791 66.7774L145.799 65.6342C145.996 65.4397 146.094 65.1964 146.119 64.9289C146.094 64.637 145.947 64.3938 145.725 64.1993C145.307 63.8344 144.619 63.4453 143.708 63.0561C142.798 62.667 141.642 62.4724 140.289 62.4724C139.453 62.4481 138.641 62.5697 137.854 62.8129C137.19 63.0318 136.551 63.348 135.985 63.7615C135.468 64.1506 135.075 64.637 134.78 65.2208C134.509 65.7802 134.362 66.3882 134.362 66.9963C134.362 68.1394 134.706 69.0636 135.395 69.7446C136.083 70.4256 136.993 70.8877 138.125 71.1066L140.339 71.5931C140.806 71.666 141.298 71.812 141.741 72.0309C141.987 72.1282 142.134 72.3714 142.134 72.6389C142.134 72.8821 142.011 73.101 141.741 73.2956C141.47 73.4902 141.027 73.6118 140.437 73.6118C139.847 73.6118 139.232 73.4902 138.691 73.2226C138.174 72.9794 137.707 72.6632 137.264 72.2984C137.067 72.1525 136.87 72.0309 136.624 71.9336C136.378 71.8606 136.059 71.9336 135.739 72.2011L134.534 73.101C134.189 73.3443 134.017 73.7577 134.116 74.1469C134.189 74.5603 134.509 74.9495 135.124 75.4116C136.649 76.4331 138.469 76.9682 140.314 76.9196C141.175 76.9196 142.036 76.8223 142.848 76.5791C143.561 76.3602 144.225 76.044 144.815 75.6062C145.356 75.217 145.799 74.7063 146.094 74.0982C146.39 73.5145 146.537 72.8821 146.537 72.2254C146.562 71.6417 146.439 71.058 146.193 70.5229C145.947 70.1338 145.627 69.7203 145.233 69.3798ZM157.384 72.7119C157.261 72.493 157.04 72.3471 156.77 72.2984C156.524 72.2984 156.253 72.3714 156.056 72.5173C155.712 72.7362 155.318 72.8578 154.925 72.8821C154.802 72.8821 154.654 72.8578 154.531 72.8335C154.384 72.8092 154.261 72.7362 154.162 72.6389C154.039 72.5173 153.941 72.3714 153.867 72.2254C153.769 71.9822 153.719 71.739 153.744 71.4958V66.5098H157.335C157.557 66.5098 157.753 66.4125 157.901 66.2666C158.049 66.1207 158.147 65.9504 158.147 65.7315V63.6155C158.147 63.3966 158.073 63.2021 157.901 63.0805C157.753 62.9345 157.557 62.8616 157.36 62.8616H153.744V59.4565C153.744 59.2619 153.67 59.043 153.523 58.9214C153.375 58.7998 153.203 58.7268 153.006 58.7025H150.202C150.005 58.7025 149.809 58.7755 149.661 58.9214C149.513 59.0674 149.415 59.2619 149.415 59.4565V62.8616H147.816C147.619 62.8616 147.423 62.9345 147.275 63.1048C147.152 63.2507 147.078 63.4453 147.078 63.6399V65.7558C147.078 65.9504 147.152 66.145 147.275 66.2909C147.398 66.4612 147.595 66.5341 147.816 66.5341H149.415V72.4687C149.39 73.174 149.538 73.8793 149.833 74.5117C150.104 75.0468 150.448 75.5089 150.915 75.898C151.358 76.2629 151.875 76.5304 152.44 76.6763C153.006 76.8466 153.596 76.9439 154.187 76.9439C154.949 76.9439 155.736 76.8223 156.474 76.5791C157.163 76.3602 157.778 75.971 158.27 75.4602C158.59 75.1441 158.614 74.6333 158.368 74.2685L157.384 72.7119ZM172.585 62.8616H169.806C169.609 62.8616 169.437 62.9345 169.289 63.0805C169.142 63.2264 169.068 63.421 169.068 63.6399V63.9804C168.724 63.5669 168.306 63.2507 167.814 63.0318C167.051 62.667 166.215 62.4967 165.379 62.4967C163.583 62.4967 161.886 63.2021 160.607 64.4425C159.943 65.0992 159.426 65.8775 159.082 66.7287C158.688 67.6773 158.491 68.6988 158.516 69.7203C158.491 70.7418 158.688 71.7633 159.082 72.7362C159.426 73.5875 159.967 74.3658 160.607 75.0225C161.861 76.2872 163.558 76.9925 165.354 76.9925C166.19 77.0168 167.027 76.8223 167.789 76.4818C168.281 76.2385 168.724 75.9224 169.068 75.5332V75.898C169.068 76.0926 169.142 76.2872 169.289 76.4088C169.437 76.5547 169.609 76.6277 169.806 76.6277H172.585C173.004 76.6277 173.323 76.3115 173.323 75.898V63.6642C173.323 63.4696 173.25 63.275 173.127 63.1291C173.004 62.9588 172.807 62.8616 172.585 62.8616ZM168.847 71.0337C168.699 71.4228 168.478 71.7633 168.183 72.0795C167.887 72.3714 167.568 72.6146 167.199 72.7848C166.805 72.9551 166.387 73.0524 165.944 73.0524C165.501 73.0524 165.108 72.9551 164.714 72.7848C164.345 72.6146 164.001 72.3714 163.706 72.0795C163.411 71.7877 163.189 71.4228 163.066 71.0337C162.771 70.2067 162.771 69.3068 163.066 68.4799C163.214 68.0907 163.435 67.7502 163.706 67.4584C164.001 67.1665 164.345 66.9233 164.714 66.753C165.108 66.5828 165.526 66.4855 165.944 66.4855C166.362 66.4855 166.781 66.5585 167.199 66.753C167.568 66.9233 167.887 67.1422 168.183 67.4341C168.478 67.7259 168.699 68.0664 168.847 68.4556C169.166 69.2825 169.166 70.2067 168.847 71.0337ZM187.836 72.5173L186.237 71.3012C185.942 71.058 185.647 70.985 185.401 71.0823C185.179 71.1796 184.982 71.3255 184.81 71.4958C184.466 71.9093 184.048 72.2741 183.605 72.5903C183.113 72.8578 182.596 73.0037 182.055 72.9551C181.416 72.9551 180.825 72.7848 180.309 72.42C179.792 72.0552 179.399 71.5688 179.202 70.9607C179.054 70.5472 178.981 70.1338 178.981 69.7203C178.981 69.2825 179.054 68.869 179.202 68.4312C179.35 68.0421 179.546 67.7016 179.842 67.4097C180.137 67.1179 180.457 66.8747 180.825 66.7287C181.219 66.5585 181.637 66.4612 182.08 66.4612C182.621 66.4369 183.162 66.5828 183.63 66.8503C184.097 67.1422 184.49 67.507 184.835 67.9448C184.982 68.1151 185.179 68.261 185.401 68.3583C185.647 68.4556 185.942 68.3826 186.237 68.1394L187.836 66.9476C188.032 66.826 188.18 66.6314 188.254 66.4125C188.352 66.1693 188.328 65.9018 188.18 65.6829C187.565 64.7343 186.729 63.956 185.72 63.3966C184.663 62.8129 183.408 62.4967 182.006 62.4967C181.022 62.4967 180.038 62.6913 179.104 63.0561C178.218 63.421 177.431 63.9317 176.767 64.5884C176.103 65.2451 175.562 66.0234 175.193 66.899C174.43 68.7231 174.43 70.7661 175.193 72.5903C175.562 73.4415 176.078 74.2442 176.767 74.8765C178.169 76.2385 180.038 76.9682 182.006 76.9682C183.408 76.9682 184.663 76.652 185.72 76.0683C186.729 75.5089 187.59 74.7306 188.205 73.7577C188.328 73.5388 188.352 73.2713 188.278 73.0524C188.18 72.8578 188.032 72.6632 187.836 72.5173ZM202.643 75.363L198.24 68.9906L202.004 64.0776C202.176 63.8587 202.25 63.5426 202.151 63.275C202.077 63.0805 201.905 62.8859 201.438 62.8859H198.462C198.289 62.8859 198.117 62.9345 197.97 63.0075C197.773 63.1048 197.625 63.2507 197.527 63.421L194.526 67.58H193.813V57.754C193.813 57.5594 193.739 57.3648 193.591 57.2189C193.444 57.073 193.272 57 193.075 57H190.295C190.099 57 189.902 57.073 189.754 57.2189C189.607 57.3648 189.533 57.5351 189.533 57.754V75.8737C189.533 76.0926 189.607 76.2629 189.754 76.4088C189.902 76.5547 190.099 76.6277 190.295 76.6277H193.075C193.272 76.6277 193.468 76.5547 193.591 76.4088C193.739 76.2629 193.813 76.0683 193.813 75.8737V71.0823H194.6L197.871 76.044C198.068 76.4088 198.437 76.6277 198.831 76.6277H201.954C202.422 76.6277 202.619 76.4088 202.717 76.2142C202.84 75.9224 202.815 75.6062 202.643 75.363ZM133.328 62.8616H130.205C129.959 62.8616 129.737 62.9345 129.565 63.1048C129.417 63.2507 129.319 63.421 129.27 63.6155L126.958 72.0795H126.392L123.932 63.6155C123.883 63.4453 123.809 63.275 123.686 63.1048C123.539 62.9345 123.342 62.8372 123.121 62.8372H119.948C119.529 62.8372 119.283 62.9588 119.16 63.2507C119.087 63.4939 119.087 63.7615 119.16 64.0047L123.096 75.9224C123.17 76.0926 123.244 76.2872 123.391 76.4088C123.539 76.5547 123.76 76.6277 123.982 76.6277H125.654L125.507 77.0168L125.138 78.1113C125.015 78.4518 124.818 78.7437 124.523 78.9626C124.252 79.1572 123.932 79.2788 123.588 79.2544C123.293 79.2544 123.022 79.1815 122.752 79.0842C122.481 78.9626 122.235 78.8167 122.014 78.6464C121.817 78.5005 121.571 78.4275 121.3 78.4275H121.276C120.981 78.4518 120.71 78.5978 120.563 78.8653L119.579 80.3003C119.185 80.9326 119.406 81.3218 119.652 81.5407C120.194 82.0271 120.809 82.392 121.497 82.6109C122.26 82.8784 123.047 83 123.834 83C125.261 83 126.441 82.6109 127.351 81.8569C128.286 81.0299 128.999 79.9598 129.344 78.7437L133.919 64.0047C134.017 63.7371 134.042 63.4696 133.943 63.2264C133.919 63.0561 133.747 62.8616 133.328 62.8616Z" fill="#011B33"/>
</g>
<defs>
<filter id="filter0_d_1029_3751" x="0" y="0" width="258" height="148" filterUnits="userSpaceOnUse" color-interpolation-filters="sRGB">
<feFlood flood-opacity="0" result="BackgroundImageFix"/>
<feColorMatrix in="SourceAlpha" type="matrix" values="0 0 0 0 0 0 0 0 0 0 0 0 0 0 0 0 0 0 127 0" result="hardAlpha"/>
<feOffset dy="4"/>
<feGaussianBlur stdDeviation="12"/>
<feComposite in2="hardAlpha" operator="out"/>
<feColorMatrix type="matrix" values="0 0 0 0 0 0 0 0 0 0 0 0 0 0 0 0 0 0 0.08 0"/>
<feBlend mode="normal" in2="BackgroundImageFix" result="effect1_dropShadow_1029_3751"/>
<feBlend mode="normal" in="SourceGraphic" in2="effect1_dropShadow_1029_3751" result="shape"/>
</filter>
</defs>
</svg>
