<svg width="258" height="148" viewBox="0 0 258 148" fill="none" xmlns="http://www.w3.org/2000/svg">
<g filter="url(#filter0_d_1029_3791)">
<rect x="24" y="20" width="210" height="100" rx="8" fill="white"/>
<path d="M109.344 59.3477H100.715C100.429 59.3475 100.153 59.4506 99.9356 59.6384C99.7184 59.8262 99.5745 60.0863 99.53 60.3719L96.0399 82.7691C96.0238 82.873 96.0302 82.9792 96.0586 83.0804C96.087 83.1816 96.1368 83.2753 96.2044 83.3552C96.272 83.4351 96.356 83.4992 96.4504 83.543C96.5449 83.5869 96.6476 83.6096 96.7515 83.6094H100.871C101.157 83.6096 101.434 83.5063 101.651 83.3182C101.868 83.1302 102.012 82.8697 102.056 82.5839L102.997 76.543C103.042 76.2574 103.185 75.9971 103.402 75.8091C103.619 75.6211 103.895 75.5177 104.181 75.5175H106.913C112.597 75.5175 115.878 72.7333 116.735 67.2161C117.121 64.8023 116.751 62.9058 115.635 61.5775C114.408 60.119 112.233 59.3477 109.344 59.3477ZM110.34 67.5277C109.868 70.6618 107.502 70.6618 105.214 70.6618H103.912L104.826 64.8087C104.853 64.6375 104.939 64.4815 105.069 64.3689C105.199 64.2563 105.365 64.1944 105.536 64.1944H106.133C107.691 64.1944 109.161 64.1944 109.921 65.0935C110.374 65.6299 110.513 66.4268 110.34 67.5277ZM135.14 67.4268H131.007C130.836 67.4268 130.67 67.4887 130.54 67.6013C130.41 67.7139 130.324 67.8699 130.297 68.0411L130.114 69.211L129.825 68.787C128.93 67.4728 126.935 67.0335 124.944 67.0335C120.378 67.0335 116.477 70.5341 115.718 75.4447C115.323 77.8942 115.884 80.2365 117.257 81.87C118.517 83.3719 120.318 83.9977 122.462 83.9977C126.142 83.9977 128.182 81.603 128.182 81.603L127.998 82.7652C127.981 82.8691 127.987 82.9754 128.015 83.0767C128.044 83.1781 128.093 83.272 128.16 83.3521C128.228 83.4322 128.312 83.4966 128.406 83.5408C128.5 83.585 128.603 83.608 128.707 83.6081H132.429C132.715 83.6083 132.992 83.505 133.209 83.317C133.426 83.1289 133.57 82.8685 133.614 82.5826L135.847 68.2672C135.864 68.1635 135.858 68.0574 135.83 67.9563C135.802 67.8552 135.753 67.7615 135.685 67.6816C135.618 67.6017 135.534 67.5375 135.44 67.4935C135.346 67.4496 135.243 67.4268 135.14 67.4268ZM129.379 75.5673C128.981 77.9568 127.107 79.5609 124.717 79.5609C123.517 79.5609 122.558 79.1714 121.942 78.4332C121.332 77.7001 121.099 76.6567 121.294 75.4945C121.666 73.1254 123.571 71.469 125.925 71.469C127.098 71.469 128.052 71.8636 128.68 72.6082C129.31 73.3604 129.56 74.4102 129.379 75.5673ZM157.148 67.4268H152.995C152.8 67.4271 152.607 67.4758 152.434 67.5686C152.261 67.6614 152.113 67.7956 152.002 67.9594L146.275 76.4983L143.847 68.2927C143.773 68.0425 143.621 67.8231 143.413 67.6672C143.206 67.5112 142.955 67.4269 142.697 67.4268H138.616C138.501 67.4265 138.388 67.4539 138.286 67.5067C138.184 67.5595 138.096 67.6362 138.03 67.7304C137.963 67.8246 137.919 67.9336 137.902 68.0483C137.886 68.163 137.896 68.2801 137.933 68.3898L142.507 81.976L138.207 88.1203C138.131 88.2292 138.085 88.3573 138.076 88.4906C138.067 88.6239 138.094 88.7572 138.155 88.8759C138.215 88.9946 138.307 89.0941 138.42 89.1636C138.532 89.233 138.662 89.2697 138.794 89.2697H142.941C143.135 89.27 143.326 89.2227 143.497 89.1319C143.669 89.0412 143.816 88.9097 143.927 88.7486L157.739 68.5699C157.814 68.4607 157.857 68.3329 157.866 68.2002C157.874 68.0676 157.846 67.9352 157.785 67.8175C157.724 67.6997 157.633 67.601 157.52 67.5322C157.408 67.4633 157.279 67.4269 157.148 67.4268Z" fill="#253B80"/>
<path d="M170.895 59.3489H162.265C161.979 59.3491 161.703 59.4523 161.486 59.6401C161.269 59.8278 161.126 60.0878 161.081 60.3732L157.591 82.7703C157.575 82.8741 157.581 82.9802 157.609 83.0813C157.637 83.1824 157.687 83.2761 157.754 83.356C157.821 83.4358 157.905 83.5 157.999 83.544C158.094 83.5879 158.196 83.6107 158.3 83.6107H162.729C162.929 83.6104 163.122 83.538 163.274 83.4064C163.425 83.2748 163.526 83.0927 163.557 82.893L164.547 76.5443C164.591 76.2587 164.735 75.9984 164.952 75.8104C165.169 75.6223 165.445 75.5189 165.731 75.5188H168.461C174.147 75.5188 177.427 72.7346 178.285 67.2174C178.672 64.8036 178.3 62.907 177.183 61.5788C175.958 60.1203 173.784 59.3489 170.895 59.3489ZM171.891 67.529C171.42 70.6631 169.054 70.6631 166.765 70.6631H165.465L166.379 64.81C166.406 64.6387 166.492 64.4826 166.622 64.37C166.752 64.2573 166.917 64.1955 167.089 64.1957H167.685C169.242 64.1957 170.714 64.1957 171.473 65.0948C171.926 65.6312 172.064 66.4281 171.891 67.529ZM196.689 67.4281H192.559C192.388 67.4276 192.222 67.4894 192.092 67.6021C191.962 67.7148 191.876 67.871 191.85 68.0424L191.667 69.2123L191.377 68.7883C190.482 67.4741 188.489 67.0347 186.498 67.0347C181.931 67.0347 178.032 70.5354 177.273 75.446C176.879 77.8955 177.438 80.2378 178.811 81.8712C180.073 83.3732 181.872 83.9989 184.016 83.9989C187.695 83.9989 189.735 81.6043 189.735 81.6043L189.551 82.7665C189.535 82.8706 189.541 82.9771 189.569 83.0786C189.597 83.1801 189.647 83.2742 189.715 83.3544C189.782 83.4345 189.866 83.4989 189.961 83.5429C190.056 83.5869 190.159 83.6096 190.263 83.6094H193.984C194.27 83.6093 194.546 83.5058 194.763 83.3178C194.98 83.1298 195.123 82.8695 195.168 82.5839L197.402 68.2685C197.418 68.1645 197.412 68.0582 197.383 67.957C197.354 67.8558 197.305 67.7621 197.237 67.6823C197.169 67.6024 197.085 67.5384 196.991 67.4945C196.896 67.4506 196.793 67.428 196.689 67.4281ZM190.929 75.5686C190.533 77.9581 188.657 79.5622 186.267 79.5622C185.069 79.5622 184.108 79.1726 183.492 78.4345C182.881 77.7014 182.652 76.658 182.843 75.4958C183.218 73.1267 185.121 71.4702 187.474 71.4702C188.648 71.4702 189.602 71.8649 190.23 72.6094C190.862 73.3617 191.112 74.4115 190.929 75.5686ZM201.561 59.9632L198.019 82.7703C198.003 82.8741 198.009 82.9802 198.037 83.0813C198.066 83.1824 198.115 83.2761 198.182 83.356C198.25 83.4358 198.334 83.5 198.428 83.544C198.522 83.5879 198.625 83.6107 198.728 83.6107H202.289C202.881 83.6107 203.383 83.1765 203.474 82.5852L206.967 60.1893C206.983 60.0855 206.977 59.9793 206.949 59.8782C206.92 59.777 206.871 59.6832 206.804 59.6033C206.736 59.5233 206.653 59.459 206.558 59.4149C206.464 59.3708 206.361 59.3478 206.258 59.3477H202.27C202.099 59.3483 201.934 59.4106 201.804 59.5234C201.674 59.6361 201.588 59.7921 201.561 59.9632Z" fill="#179BD7"/>
<path d="M60.2006 87.9649L60.8606 83.7223L59.3905 83.6878H52.3711L57.2493 52.3813C57.2638 52.2857 57.3118 52.1985 57.3845 52.1357C57.4572 52.0728 57.5498 52.0386 57.6455 52.0391H69.4813C73.4105 52.0391 76.1222 52.8667 77.5379 54.5001C78.2016 55.2664 78.6243 56.0672 78.8287 56.9484C79.0433 57.873 79.047 58.9778 78.8376 60.3251L78.8224 60.4235V61.2868L79.4861 61.6674C79.9928 61.9272 80.4483 62.2787 80.83 62.7044C81.3978 63.3596 81.765 64.1923 81.9202 65.1795C82.0804 66.1949 82.0274 67.403 81.765 68.7708C81.4621 70.3443 80.9726 71.7146 80.3114 72.836C79.728 73.8405 78.9436 74.7105 78.0086 75.3902C77.1303 76.0211 76.0868 76.5001 74.907 76.8066C73.7638 77.108 72.4604 77.26 71.0308 77.26H70.1096C69.451 77.26 68.8112 77.5001 68.309 77.9305C67.8075 78.3654 67.4749 78.9665 67.3702 79.6265L67.3008 80.0084L66.1349 87.486L66.0819 87.7606C66.0681 87.8474 66.0441 87.8908 66.0087 87.9202C65.9745 87.9486 65.9318 87.9643 65.8876 87.9649H60.2006Z" fill="#253B80"/>
<path d="M80.1174 60.5195C80.0821 60.7481 80.0417 60.9819 79.9963 61.222C78.4354 69.333 73.0955 72.1351 66.2754 72.1351H62.8029C61.9688 72.1351 61.266 72.7481 61.136 73.5808L59.3581 84.9933L58.8547 88.2283C58.8346 88.3566 58.8423 88.4878 58.8771 88.6128C58.9119 88.7379 58.9731 88.8538 59.0565 88.9526C59.1398 89.0514 59.2433 89.1307 59.3599 89.1852C59.4764 89.2396 59.6033 89.2678 59.7316 89.2679H65.8905C66.6198 89.2679 67.2394 88.7315 67.3542 88.0035L67.4148 87.6868L68.5744 80.2385L68.6488 79.8298C68.7624 79.0993 69.3832 78.5629 70.1125 78.5629H71.0337C77.0008 78.5629 81.672 76.1108 83.0373 69.015C83.6076 66.0508 83.3123 63.5757 81.8032 61.835C81.3249 61.2965 80.7536 60.8507 80.1174 60.5195Z" fill="#179BD7"/>
<path d="M78.4814 59.8605C77.9831 59.7145 77.4761 59.6007 76.9635 59.5195C75.9507 59.3619 74.927 59.2863 73.9023 59.2934H64.6255C64.2725 59.2931 63.931 59.4207 63.6627 59.6531C63.3945 59.8854 63.2173 60.2072 63.1631 60.5603L61.1896 73.2117L61.1328 73.5808C61.1943 73.178 61.3962 72.8108 61.7019 72.5457C62.0076 72.2805 62.397 72.1348 62.7997 72.135H66.2722C73.0923 72.135 78.4322 69.3317 79.9931 61.2219C80.0398 60.9818 80.0789 60.7481 80.1142 60.5195C79.7024 60.3009 79.2731 60.1176 78.831 59.9716C78.7151 59.9327 78.5985 59.8956 78.4814 59.8605Z" fill="#222D65"/>
<path d="M63.1661 60.5631C63.2199 60.2099 63.397 59.888 63.6654 59.6557C63.9337 59.4235 64.2755 59.2964 64.6285 59.2975H73.9054C75.0044 59.2975 76.0303 59.3703 76.9665 59.5236C77.6001 59.6243 78.2249 59.7751 78.8353 59.9744C79.2958 60.1289 79.7236 60.3115 80.1185 60.5223C80.5829 57.5248 80.1147 55.484 78.5135 53.636C76.7482 51.6015 73.5622 50.7305 69.4852 50.7305H57.6495C56.8167 50.7305 56.1063 51.3435 55.9776 52.1775L51.0477 83.8057C51.0247 83.9526 51.0334 84.1027 51.0733 84.2458C51.1131 84.3889 51.1831 84.5216 51.2784 84.6347C51.3737 84.7478 51.4921 84.8387 51.6255 84.9011C51.7588 84.9634 51.9039 84.9958 52.0508 84.996H59.3579L61.1926 73.2145L63.1661 60.5631Z" fill="#253B80"/>
</g>
<defs>
<filter id="filter0_d_1029_3791" x="0" y="0" width="258" height="148" filterUnits="userSpaceOnUse" color-interpolation-filters="sRGB">
<feFlood flood-opacity="0" result="BackgroundImageFix"/>
<feColorMatrix in="SourceAlpha" type="matrix" values="0 0 0 0 0 0 0 0 0 0 0 0 0 0 0 0 0 0 127 0" result="hardAlpha"/>
<feOffset dy="4"/>
<feGaussianBlur stdDeviation="12"/>
<feComposite in2="hardAlpha" operator="out"/>
<feColorMatrix type="matrix" values="0 0 0 0 0 0 0 0 0 0 0 0 0 0 0 0 0 0 0.08 0"/>
<feBlend mode="normal" in2="BackgroundImageFix" result="effect1_dropShadow_1029_3791"/>
<feBlend mode="normal" in="SourceGraphic" in2="effect1_dropShadow_1029_3791" result="shape"/>
</filter>
</defs>
</svg>
