<svg width="258" height="148" viewBox="0 0 258 148" fill="none" xmlns="http://www.w3.org/2000/svg">
<g filter="url(#filter0_d_1029_3755)">
<rect x="24" y="20" width="210" height="100" rx="8" fill="white"/>
<g clip-path="url(#clip0_1029_3755)">
<path d="M117.598 62.3672C109.47 62.3672 102.875 69.0214 102.875 77.1828C102.875 85.3442 109.488 91.9984 117.598 91.9984C125.708 91.9984 132.321 85.3442 132.321 77.1828C132.321 69.0214 125.726 62.3672 117.598 62.3672ZM117.598 84.9867C113.33 84.9867 109.855 81.4899 109.855 77.1947C109.855 72.8995 113.33 69.4027 117.598 69.4027C121.866 69.4027 125.341 72.8995 125.341 77.1947C125.341 81.4899 121.866 84.9867 117.598 84.9867Z" fill="#FF902A"/>
<path d="M166.574 57.2396C169.108 57.2396 171.168 55.1725 171.168 52.6168C171.168 50.0612 169.108 48 166.574 48C164.041 48 161.98 50.0672 161.98 52.6228C161.98 55.1784 164.041 57.2396 166.574 57.2396Z" fill="#FF902A"/>
<path d="M87.5363 62.3797C87.1515 62.3499 86.7845 62.332 86.4056 62.332C82.8536 62.332 79.4851 63.7975 77.0698 66.3829C74.6544 63.8094 71.2978 62.332 67.7813 62.332C60.7365 62.338 55 68.0927 55 75.1817V91.3973H61.885V75.3783C61.885 72.4355 64.2885 69.7249 67.1182 69.433C67.3195 69.4152 67.5149 69.4032 67.6984 69.4032C70.8834 69.4032 73.4822 72.0185 73.5 75.2234V91.3913H80.5389V75.3485C80.5389 72.4236 82.9246 69.713 85.7722 69.4211C85.9734 69.4032 86.1688 69.3913 86.3523 69.3913C89.5373 69.3913 92.1539 71.9946 92.1658 75.1817V91.3973H99.2046V75.3783C99.2046 72.1317 98.0088 68.9982 95.8539 66.5855C93.705 64.1549 90.7509 62.6597 87.5363 62.3797Z" fill="#FF902A"/>
<path d="M143.156 48.6914H136.117V91.4285H143.156V48.6914ZM156.63 48.6914H149.591V91.4285H156.63V48.6914ZM170.098 63.0781H163.059V91.4166H170.098V63.0781Z" fill="#FF902A"/>
<path d="M203 76.524C203 72.765 201.543 69.2264 198.915 66.5278C196.268 63.8351 192.776 62.3398 189.058 62.3398H188.874C185.02 62.3875 181.374 63.9245 178.651 66.6827C175.927 69.4408 174.394 73.0867 174.353 76.9827C174.305 80.9561 175.821 84.7151 178.621 87.5627C181.421 90.4102 185.127 91.983 189.076 91.983H189.093C194.268 91.983 199.116 89.195 201.768 84.7151L202.106 84.1433L196.292 81.2659L196.002 81.7425C194.534 84.1611 192.012 85.5909 189.212 85.5909C185.63 85.5909 182.54 83.1901 181.587 79.7707H203V76.524ZM188.78 68.7736C191.994 68.7736 194.871 70.9004 195.884 73.9147H181.693C182.688 70.9004 185.565 68.7736 188.78 68.7736Z" fill="#FF902A"/>
</g>
</g>
<defs>
<filter id="filter0_d_1029_3755" x="0" y="0" width="258" height="148" filterUnits="userSpaceOnUse" color-interpolation-filters="sRGB">
<feFlood flood-opacity="0" result="BackgroundImageFix"/>
<feColorMatrix in="SourceAlpha" type="matrix" values="0 0 0 0 0 0 0 0 0 0 0 0 0 0 0 0 0 0 127 0" result="hardAlpha"/>
<feOffset dy="4"/>
<feGaussianBlur stdDeviation="12"/>
<feComposite in2="hardAlpha" operator="out"/>
<feColorMatrix type="matrix" values="0 0 0 0 0 0 0 0 0 0 0 0 0 0 0 0 0 0 0.08 0"/>
<feBlend mode="normal" in2="BackgroundImageFix" result="effect1_dropShadow_1029_3755"/>
<feBlend mode="normal" in="SourceGraphic" in2="effect1_dropShadow_1029_3755" result="shape"/>
</filter>
<clipPath id="clip0_1029_3755">
<rect width="148" height="44" fill="white" transform="translate(55 48)"/>
</clipPath>
</defs>
</svg>
