<svg width="258" height="148" viewBox="0 0 258 148" fill="none" xmlns="http://www.w3.org/2000/svg">
<g filter="url(#filter0_d_1029_3736)">
<rect x="24" y="20" width="210" height="100" rx="8" fill="white"/>
<g clip-path="url(#clip0_1029_3736)">
<path d="M92.6924 67.8469H89.4669V73.7989C89.4669 74.2953 89.5905 74.6575 89.8383 74.8855C90.0858 75.1134 90.4468 75.2426 90.9218 75.273C91.3967 75.3008 91.9879 75.2983 92.6924 75.2578V78.6061C90.1614 78.8923 88.378 78.6542 87.3401 77.8893C86.3018 77.127 85.7838 75.7618 85.7838 73.7964V67.8443H83.3008V64.2959H85.7838V61.406L89.4669 60.2891V64.2959H92.6924V67.8469Z" fill="#624EC4"/>
<path d="M106.838 76.8207C105.373 78.2796 103.584 79.009 101.473 79.009C99.3609 79.009 97.5775 78.2796 96.1202 76.8207C94.6651 75.3618 93.9375 73.5737 93.9375 71.4537C93.9375 69.3338 94.6651 67.5482 96.1202 66.0868C97.575 64.6279 99.3609 63.8984 101.473 63.8984C103.584 63.8984 105.373 64.6279 106.838 66.0868C108.303 67.5457 109.036 69.3363 109.036 71.4537C109.036 73.5711 108.303 75.3618 106.838 76.8207ZM98.7193 74.2879C99.452 75.0325 100.369 75.4049 101.473 75.4049C102.577 75.4049 103.499 75.0325 104.241 74.2879C104.984 73.5433 105.355 72.5985 105.355 71.4537C105.355 70.3089 104.984 69.3642 104.241 68.6195C103.499 67.8749 102.577 67.5026 101.473 67.5026C100.369 67.5026 99.4493 67.8749 98.7193 68.6195C97.9868 69.3642 97.6206 70.3089 97.6206 71.4537C97.6206 72.5985 97.9868 73.5433 98.7193 74.2879Z" fill="#624EC4"/>
<path d="M121.17 64.2969H125.108L119.905 78.6299C119.162 80.6738 118.18 82.1581 116.954 83.0851C115.729 84.0122 114.204 84.4273 112.38 84.3311V80.8967C113.37 80.9144 114.153 80.7068 114.734 80.2661C115.315 79.8279 115.775 79.1213 116.118 78.1487L110.266 64.2969H114.289L118.01 73.9138L121.17 64.2969Z" fill="#624EC4"/>
<path d="M137.262 64.2969H141.2L135.996 78.6299C135.253 80.6738 134.271 82.1581 133.046 83.0851C131.821 84.0122 130.295 84.4273 128.471 84.3311V80.8967C129.461 80.9144 130.244 80.7068 130.825 80.2661C131.406 79.8279 131.866 79.1213 132.21 78.1487L126.359 64.2969H130.383L134.104 73.9138L137.262 64.2969Z" fill="#624EC4"/>
<path d="M144.338 62.5827C143.729 62.5827 143.201 62.3572 142.754 61.9089C142.307 61.4606 142.082 60.9313 142.082 60.3209C142.082 59.7105 142.304 59.1761 142.754 58.7176C143.201 58.2592 143.729 58.0312 144.338 58.0312C144.967 58.0312 145.502 58.2592 145.949 58.7176C146.396 59.1761 146.621 59.7105 146.621 60.3209C146.621 60.9313 146.396 61.4606 145.949 61.9089C145.505 62.3572 144.967 62.5827 144.338 62.5827ZM142.511 78.6075V64.2973H146.194V78.6075H142.511Z" fill="#624EC4"/>
<path d="M155.745 63.8981C157.668 63.8981 159.31 64.6276 160.669 66.0865C162.03 67.5453 162.71 69.336 162.71 71.4534C162.71 73.5708 162.03 75.3589 160.669 76.8204C159.307 78.2792 157.668 79.0087 155.745 79.0087C153.747 79.0087 152.207 78.3122 151.12 76.9192V78.6085H147.438V58.5742H151.12V65.9877C152.207 64.5947 153.747 63.8981 155.745 63.8981ZM152.237 74.3585C152.979 75.1133 153.922 75.4881 155.063 75.4881C156.205 75.4881 157.153 75.1108 157.903 74.3585C158.653 73.6037 159.029 72.6362 159.029 71.4534C159.029 70.2706 158.653 69.3031 157.903 68.5483C157.15 67.7961 156.205 67.4187 155.063 67.4187C153.922 67.4187 152.979 67.7961 152.237 68.5483C151.494 69.3031 151.123 70.2706 151.123 71.4534C151.123 72.6388 151.494 73.6063 152.237 74.3585Z" fill="#624EC4"/>
<path d="M171.441 58.5768C173.364 58.5768 174.98 59.2252 176.294 60.5219C177.607 61.8187 178.264 63.4118 178.264 65.3013C178.264 67.1908 177.607 68.7839 176.294 70.0807C174.98 71.3774 173.364 72.0258 171.441 72.0258H167.93V78.6085H163.992V58.5742H171.441V58.5768ZM171.441 68.3356C172.278 68.3356 172.972 68.0443 173.525 67.4618C174.076 66.8792 174.354 66.1599 174.354 65.3013C174.354 64.4249 174.079 63.6981 173.525 63.1256C172.972 62.5532 172.28 62.267 171.441 62.267H167.93V68.3356H171.441Z" fill="#624EC4"/>
<path d="M191.097 64.2986H194.78V78.6088H191.097V76.9195C189.993 78.3125 188.442 79.009 186.444 79.009C184.542 79.009 182.91 78.2796 181.549 76.8207C180.187 75.3618 179.508 73.5737 179.508 71.4537C179.508 69.3338 180.187 67.5482 181.549 66.0868C182.91 64.6279 184.542 63.8984 186.444 63.8984C188.442 63.8984 189.993 64.595 191.097 65.988V64.2986ZM184.305 74.3588C185.047 75.1136 185.99 75.4884 187.132 75.4884C188.273 75.4884 189.22 75.1111 189.971 74.3588C190.721 73.6041 191.097 72.6365 191.097 71.4537C191.097 70.2709 190.721 69.3034 189.971 68.5486C189.218 67.7964 188.273 67.419 187.132 67.419C185.99 67.419 185.047 67.7964 184.305 68.5486C183.562 69.3034 183.191 70.2709 183.191 71.4537C183.191 72.6391 183.562 73.6066 184.305 74.3588Z" fill="#624EC4"/>
<path d="M206.926 64.2969H210.864L205.66 78.6299C204.917 80.6738 203.935 82.1581 202.71 83.0851C201.485 84.0122 199.959 84.4273 198.135 84.3311V80.8967C199.125 80.9144 199.908 80.7068 200.489 80.2661C201.07 79.8279 201.53 79.1213 201.874 78.1487L196.023 64.2969H200.047L203.768 73.9138L206.926 64.2969Z" fill="#624EC4"/>
<path d="M62.4481 61.2031H57.828C57.5501 61.2031 57.3077 61.3905 57.2344 61.659L51.2124 84.1907C51.1088 84.5807 51.4018 84.9655 51.806 84.9655H56.4261C56.7039 84.9655 56.9464 84.7782 57.0197 84.5099L63.0417 61.9782C63.1453 61.5881 62.8497 61.2031 62.4481 61.2031Z" fill="#624EC4"/>
<path d="M53.7626 67.1094H49.1425C48.8647 67.1094 48.6222 67.2968 48.5489 67.5653L47.2632 72.3801C47.1596 72.7701 47.4526 73.1551 47.8568 73.1551H52.4768C52.7547 73.1551 52.9972 72.9677 53.0705 72.6992L54.3562 67.8844C54.4598 67.4918 54.1667 67.1094 53.7626 67.1094Z" fill="#624EC4"/>
<path d="M71.1526 55.2305H66.5325C66.2547 55.2305 66.0122 55.4179 65.9389 55.6864L59.9194 78.218C59.8159 78.608 60.1089 78.993 60.513 78.993H65.1331C65.411 78.993 65.6535 78.8056 65.7267 78.5371L71.7437 56.0055C71.8498 55.6129 71.5568 55.2305 71.1526 55.2305Z" fill="#FC9026"/>
<path d="M77.454 58.25H72.8339C72.5561 58.25 72.3136 58.4374 72.2403 58.7059L70.9546 63.5207C70.851 63.9108 71.144 64.2958 71.5482 64.2958H76.1683C76.4461 64.2958 76.6885 64.1083 76.7619 63.8398L78.0477 59.025C78.1512 58.635 77.8582 58.25 77.454 58.25Z" fill="#FC9026"/>
</g>
</g>
<defs>
<filter id="filter0_d_1029_3736" x="0" y="0" width="258" height="148" filterUnits="userSpaceOnUse" color-interpolation-filters="sRGB">
<feFlood flood-opacity="0" result="BackgroundImageFix"/>
<feColorMatrix in="SourceAlpha" type="matrix" values="0 0 0 0 0 0 0 0 0 0 0 0 0 0 0 0 0 0 127 0" result="hardAlpha"/>
<feOffset dy="4"/>
<feGaussianBlur stdDeviation="12"/>
<feComposite in2="hardAlpha" operator="out"/>
<feColorMatrix type="matrix" values="0 0 0 0 0 0 0 0 0 0 0 0 0 0 0 0 0 0 0.08 0"/>
<feBlend mode="normal" in2="BackgroundImageFix" result="effect1_dropShadow_1029_3736"/>
<feBlend mode="normal" in="SourceGraphic" in2="effect1_dropShadow_1029_3736" result="shape"/>
</filter>
<clipPath id="clip0_1029_3736">
<rect width="164" height="30" fill="white" transform="translate(47 55)"/>
</clipPath>
</defs>
</svg>
