<svg width="258" height="148" viewBox="0 0 258 148" fill="none" xmlns="http://www.w3.org/2000/svg">
<g filter="url(#filter0_d_1029_3732)">
<rect x="24" y="20" width="210" height="100" rx="8" fill="white"/>
<g clip-path="url(#clip0_1029_3732)">
<path d="M192.568 61.8036C191.406 58.4934 188.239 56.1163 184.52 56.1163H184.443C182.025 56.1163 179.846 57.1189 178.295 58.7286C176.742 57.1189 174.563 56.1163 172.147 56.1163H172.07C169.944 56.1163 168.002 56.8918 166.51 58.175V57.5224C166.459 56.8724 165.922 56.3617 165.259 56.3617H159.555C158.857 56.3617 158.294 56.9235 158.294 57.6209V88.4913C158.294 89.1893 158.857 89.7505 159.555 89.7505H165.259C165.895 89.7505 166.419 89.277 166.502 88.6648L166.5 66.5036C166.5 66.426 166.502 66.3541 166.51 66.2816C166.601 65.2923 167.328 64.4796 168.477 64.3775H169.529C170.009 64.4204 170.415 64.5888 170.734 64.8428C171.23 65.2357 171.506 65.8403 171.506 66.5036L171.528 88.5556C171.528 89.2536 172.094 89.8178 172.789 89.8178H178.494C179.167 89.8178 179.715 89.2831 179.747 88.6173L179.744 66.4745C179.742 65.7469 180.08 65.0893 180.673 64.699C180.965 64.5117 181.317 64.3862 181.722 64.3485H182.773C184.008 64.4556 184.754 65.3888 184.751 66.4745L184.773 88.4969C184.773 89.1949 185.339 89.7561 186.034 89.7561H191.739C192.433 89.7561 193 89.1944 193 88.4969V64.8117C193 63.1964 192.817 62.5092 192.568 61.8036ZM153.947 56.4423H150.684V51.1587C150.684 50.525 150.169 50.0117 149.533 50.0117C149.458 50.0117 149.386 50.0224 149.316 50.0357C145.699 51.025 146.423 56.0173 139.82 56.4423H139.178C139.081 56.4423 138.99 56.4556 138.902 56.4745H138.897L138.902 56.477C138.338 56.6025 137.914 57.1 137.914 57.699V63.3842C137.914 64.0765 138.48 64.6408 139.178 64.6408H142.62L142.615 88.7464C142.615 89.4337 143.173 89.9898 143.863 89.9898H149.503C150.19 89.9898 150.748 89.4337 150.748 88.7464L150.751 64.6408H153.947C154.642 64.6408 155.208 64.0765 155.208 63.3842V57.6995C155.209 57.0066 154.643 56.4423 153.947 56.4423Z" fill="#54C1F0"/>
<path d="M133.423 56.4424H127.718C127.023 56.4424 126.459 57.0067 126.459 57.6991V69.4537C126.446 70.1812 125.856 70.7639 125.123 70.7639H122.735C121.995 70.7639 121.396 70.1705 121.396 69.4322L121.375 57.6991C121.375 57.0067 120.809 56.4424 120.114 56.4424H114.409C113.711 56.4424 113.147 57.0067 113.147 57.6991V70.5822C113.147 75.4756 116.649 78.9649 121.562 78.9649C121.562 78.9649 125.249 78.9649 125.362 78.9863C126.027 79.0613 126.545 79.6174 126.545 80.3021C126.545 80.9787 126.038 81.5322 125.38 81.6149C125.348 81.62 125.318 81.6281 125.283 81.6338L116.941 81.6633C116.243 81.6633 115.68 82.2276 115.68 82.92V88.6021C115.68 89.2975 116.244 89.8588 116.941 89.8588H126.268C131.184 89.8588 134.683 86.372 134.683 81.4761V57.6996C134.684 57.0067 134.121 56.4424 133.423 56.4424ZM78.7062 56.4414H66.237C65.553 56.4414 65 56.9945 65 57.6741V63.244C65 63.2547 65.0026 63.2654 65.0026 63.2761C65.0026 63.3026 65 63.3297 65 63.3537V88.5628C65 89.2475 65.5151 89.8062 66.154 89.822H71.9663C72.6611 89.822 73.2273 89.2603 73.2273 88.5654L73.2488 79.9261H78.7068C83.2738 79.9261 86.4564 76.7684 86.4564 72.1985V64.1797C86.4559 59.6098 83.2733 56.4414 78.7062 56.4414ZM78.2045 70.3669C78.2045 71.1021 77.606 71.7011 76.8682 71.7011L73.2483 71.7037V64.6741H76.8682C77.606 64.6741 78.2045 65.2674 78.2045 66.0057V70.3669ZM100.967 56.4735H93.052C92.3516 56.4735 91.7853 57.0031 91.7853 57.6526V59.8639C91.7853 59.8771 91.7878 59.8934 91.7878 59.9067C91.7878 59.9225 91.7853 59.9389 91.7853 59.9547V62.9843C91.7853 63.6715 92.3864 64.2327 93.1267 64.2327H100.664C101.26 64.3261 101.732 64.7593 101.799 65.4358V66.1684C101.732 66.8128 101.265 67.2832 100.697 67.3368H96.9642C91.9998 67.3368 88.4634 70.623 88.4634 75.2383V81.848C88.4634 86.4363 91.5037 89.7011 96.4327 89.7011H106.777C108.634 89.7011 110.139 88.3001 110.139 86.5751V65.0062C110.139 59.7761 107.435 56.4735 100.967 56.4735ZM101.875 81.0924C101.875 81.1649 101.864 81.2343 101.853 81.3011C101.84 81.3639 101.822 81.4256 101.799 81.4858C101.622 81.9832 101.123 82.344 100.53 82.344H98.1556C97.4152 82.344 96.8111 81.7822 96.8111 81.0924V80.02C96.8111 80.0067 96.8085 79.9934 96.8085 79.9797L96.8111 77.1266V76.2338L96.8136 76.2256C96.8162 75.5383 97.4147 74.9822 98.1551 74.9822H100.53C101.273 74.9822 101.874 75.5409 101.874 76.2338V81.0924H101.875Z" fill="#233266"/>
</g>
</g>
<defs>
<filter id="filter0_d_1029_3732" x="0" y="0" width="258" height="148" filterUnits="userSpaceOnUse" color-interpolation-filters="sRGB">
<feFlood flood-opacity="0" result="BackgroundImageFix"/>
<feColorMatrix in="SourceAlpha" type="matrix" values="0 0 0 0 0 0 0 0 0 0 0 0 0 0 0 0 0 0 127 0" result="hardAlpha"/>
<feOffset dy="4"/>
<feGaussianBlur stdDeviation="12"/>
<feComposite in2="hardAlpha" operator="out"/>
<feColorMatrix type="matrix" values="0 0 0 0 0 0 0 0 0 0 0 0 0 0 0 0 0 0 0.08 0"/>
<feBlend mode="normal" in2="BackgroundImageFix" result="effect1_dropShadow_1029_3732"/>
<feBlend mode="normal" in="SourceGraphic" in2="effect1_dropShadow_1029_3732" result="shape"/>
</filter>
<clipPath id="clip0_1029_3732">
<rect width="128" height="40" fill="white" transform="translate(65 50)"/>
</clipPath>
</defs>
</svg>
