<svg width="258" height="148" viewBox="0 0 258 148" fill="none" xmlns="http://www.w3.org/2000/svg">
<g filter="url(#filter0_d_1029_3804)">
<rect x="24" y="20" width="210" height="100" rx="8" fill="white"/>
<path d="M99.8681 60.9321H99.9255C100.27 60.9321 100.471 61.1905 100.471 61.535V77.0092C100.471 77.2676 100.27 77.5547 99.9255 77.5547C99.6672 77.5547 99.3801 77.3537 99.3801 77.0092V61.4776C99.3801 61.1905 99.581 60.9321 99.8681 60.9321ZM85.1404 61.736H95.2747C95.6192 61.736 95.8201 62.0805 95.8201 62.3389C95.8201 62.5973 95.6192 62.8843 95.2747 62.8843H85.6859V69.3439H94.356C94.6144 69.3439 94.9015 69.5448 94.9015 69.8893C94.9015 70.1477 94.7005 70.4348 94.356 70.4348H85.772V77.0953C85.7146 77.4398 85.4275 77.6982 85.1117 77.6982C84.7672 77.6982 84.5088 77.4398 84.5088 77.0953V62.3676H84.5662C84.5582 62.2875 84.567 62.2066 84.5923 62.1302C84.6175 62.0538 84.6585 61.9835 84.7126 61.9239C84.7668 61.8644 84.8329 61.8169 84.9065 61.7845C84.9802 61.7521 85.0599 61.7356 85.1404 61.736ZM114.567 66.5304C114.567 66.1859 114.309 65.9849 114.022 65.9849C113.677 65.9849 113.476 66.2433 113.476 66.5304V72.9899C113.476 75.2005 111.668 76.9231 109.457 76.8656C107.103 76.8656 105.753 75.3441 105.753 72.9325V66.5304C105.753 66.1859 105.495 65.9849 105.208 65.9849C104.95 65.9849 104.663 66.2433 104.663 66.5304V73.1335C104.663 75.8608 106.414 77.8705 109.285 77.8705C111.036 77.9279 112.701 77.0092 113.505 75.4589V77.124C113.505 77.4685 113.763 77.6695 114.05 77.6695C114.395 77.6695 114.596 77.4111 114.596 77.124H114.538V66.5304H114.567ZM124.759 66.6165C124.759 66.8749 124.5 67.0759 124.213 67.0759H120.51V74.4828C120.51 76.1479 121.457 76.7508 122.864 76.7508C123.323 76.7508 123.811 76.6934 124.213 76.5498C124.472 76.5498 124.673 76.7508 124.673 77.0092C124.673 77.2101 124.529 77.4111 124.328 77.4685C123.783 77.6695 123.18 77.7269 122.663 77.7269C120.912 77.7269 119.448 76.7221 119.448 74.5976V67.0759H118.184C117.926 67.0759 117.639 66.8175 117.639 66.5304C117.639 66.272 117.897 66.071 118.184 66.071H119.448V62.8843C119.448 62.626 119.649 62.3389 119.907 62.3389H119.964C120.223 62.3389 120.51 62.5973 120.51 62.8843V66.071H124.213C124.5 66.071 124.759 66.3294 124.759 66.6165ZM133.372 67.0759C133.63 67.0759 133.917 66.8749 133.917 66.6165C133.917 66.3581 133.659 66.071 133.372 66.071H129.668V62.8843C129.668 62.626 129.41 62.3389 129.123 62.3389H129.065C128.807 62.3389 128.606 62.5973 128.606 62.8843V66.071H127.343C127.084 66.071 126.797 66.272 126.797 66.5304C126.797 66.7888 127.056 67.0759 127.343 67.0759H128.606V74.5976C128.606 76.7221 130.07 77.7269 131.821 77.7269C132.367 77.7269 132.97 77.6695 133.486 77.4685C133.687 77.4111 133.831 77.2101 133.831 77.0092C133.831 76.7508 133.63 76.5498 133.372 76.5498C132.97 76.6934 132.51 76.7508 132.022 76.7508C130.615 76.7508 129.668 76.1479 129.668 74.4828V67.0759H133.372ZM135.927 71.8128C135.927 68.4252 138.281 65.7553 141.439 65.7553C144.74 65.7553 146.807 68.4252 146.807 71.8128C146.807 72.0712 146.549 72.3583 146.262 72.3583H137.132C137.333 75.2292 139.429 76.8943 141.697 76.8943C143.104 76.8943 144.511 76.2915 145.458 75.2866C145.515 75.2292 145.659 75.1431 145.803 75.1431C146.061 75.1431 146.348 75.4015 146.348 75.6886C146.348 75.8321 146.291 75.947 146.147 76.0905C144.999 77.3537 143.334 78.014 141.64 77.9566C138.539 77.9566 135.927 75.545 135.927 71.899V71.8128ZM151.171 69.4013C151.918 67.4778 153.726 66.071 155.793 65.9275C156.138 65.9275 156.396 66.1859 156.396 66.5878C156.396 66.8462 156.195 67.1907 155.851 67.1907H155.793C153.296 67.4491 151.171 69.2577 151.171 72.9899V77.2676C151.114 77.6121 150.913 77.813 150.568 77.813C150.31 77.813 150.023 77.5547 150.023 77.2676V66.5878C150.08 66.2433 150.281 66.0423 150.626 66.0423C150.884 66.0423 151.171 66.3007 151.171 66.5878V69.4013ZM174.11 65.3246C173.306 65.3246 172.645 65.8701 172.445 66.6452L170.492 72.8464L168.54 66.6452C168.339 65.8414 167.593 65.2385 166.731 65.2385H166.53C165.669 65.2385 164.923 65.784 164.722 66.6452L162.77 72.789L160.903 66.5878C160.703 65.8414 160.042 65.2672 159.238 65.2672H159.181C158.32 65.2672 157.631 66.0136 157.631 66.8749C157.631 67.1333 157.688 67.4204 157.774 67.6787L160.789 76.2915C160.99 77.1527 161.736 77.7556 162.655 77.813H162.798C163.66 77.813 164.406 77.2101 164.664 76.3489L166.617 70.2051L168.569 76.3489C168.77 77.2101 169.574 77.813 170.435 77.813H170.578C171.526 77.813 172.33 77.2101 172.531 76.2915L175.545 67.6213C175.603 67.4204 175.689 67.162 175.689 66.961V66.9036C175.66 66.0136 175 65.3246 174.11 65.3246ZM178.818 65.9275C180.081 65.5256 181.373 65.2672 182.722 65.3246C184.588 65.3246 185.938 65.8701 186.943 66.7314C187.89 67.7936 188.349 69.2003 188.292 70.6071V76.0618C188.292 77.0092 187.545 77.7269 186.627 77.7269C185.766 77.7269 185.019 77.124 184.962 76.2627C184.014 77.2676 182.665 77.8705 181.258 77.7843C179.048 77.7843 177.095 76.4637 177.095 74.0522C177.095 71.3822 179.105 70.119 182.005 70.119C183.009 70.119 184.014 70.2626 184.962 70.5784V70.3774C184.962 68.9132 184.1 68.1668 182.349 68.1668C181.545 68.1668 180.741 68.2242 179.938 68.5113C179.794 68.5687 179.593 68.5687 179.478 68.5687C178.674 68.6261 178.014 68.0233 178.014 67.2481C177.957 66.6739 178.272 66.1285 178.818 65.9275ZM198.627 66.473C198.828 65.7265 199.488 65.2672 200.235 65.2672C201.182 65.2672 201.9 66.0136 201.9 66.8749V66.9323C201.9 67.1907 201.843 67.4778 201.699 67.7362L198.082 76.3489C197.737 77.2101 196.933 77.7556 196.072 77.813H195.871C194.924 77.7556 194.206 77.1527 193.919 76.2915L190.158 67.6787C190.014 67.4204 189.957 67.1333 189.957 66.8749C190.014 65.9275 190.761 65.2672 191.622 65.2672C192.426 65.2672 193.086 65.8127 193.287 66.5304L195.9 73.5354L198.627 66.473ZM203.278 72.0712C203.422 75.4015 206.292 78.014 209.651 77.813C211.202 77.813 212.666 77.3537 213.872 76.3489C214.216 76.0905 214.331 75.746 214.331 75.3441V75.2866C214.331 74.5402 213.728 73.966 212.982 73.966C212.723 73.966 212.379 74.0234 212.178 74.2244C211.431 74.7699 210.57 75.0857 209.68 75.0283C208.216 75.0857 206.924 74.0809 206.723 72.6167H213.642C214.503 72.5593 215.192 71.8128 215.106 70.9516V70.6932C215.106 67.6787 212.494 65.1524 209.278 65.2385C205.718 65.2385 203.221 68.1094 203.221 71.5832V72.0712H203.278Z" fill="#10112B"/>
<path d="M137.046 71.2672C137.247 68.7408 139.056 66.7886 141.352 66.7886C143.965 66.7886 145.372 68.913 145.515 71.2672H137.046ZM184.99 73.2768C184.99 74.5974 183.842 75.4013 182.234 75.3439C181.172 75.3439 180.368 74.7984 180.368 73.8797V73.8223C180.368 72.8175 181.315 72.1572 182.779 72.1572C183.526 72.1572 184.33 72.3581 184.99 72.6165V73.2768ZM209.307 67.9944C207.9 67.9944 206.952 68.9992 206.694 70.6069H211.862C211.661 69.0566 210.713 67.9944 209.307 67.9944Z" fill="white"/>
<path d="M67.1676 53.2668C82.2685 50.9988 72.5936 63.8604 67.914 67.4778C71.1294 69.9468 74.431 73.4205 75.8377 77.3537C78.4502 84.5596 72.0194 85.6219 67.1676 83.8132C61.8564 81.9471 57.1768 77.9566 54.0763 73.277C53.215 73.277 52.2676 73.1334 51.3776 72.8751C53.1289 77.813 53.8753 82.8658 53.3872 86.9999C53.3872 78.6743 49.4254 70.4061 43.7123 63.5159C41.7027 61.1044 43.7697 59.3244 45.5784 61.6498C46.8129 63.3437 47.9325 65.0949 48.9373 66.9036C50.9183 60.1283 60.5645 54.2142 67.1676 53.2668ZM65.0144 65.5256C67.9714 63.7169 76.9574 54.0707 68.5743 54.9319C63.7512 55.4774 57.8946 59.9273 55.483 62.7982C58.842 62.3963 62.2583 63.8604 65.0144 65.5256ZM56.6888 73.0186C59.3874 76.0331 63.0622 78.9614 67.024 80.0236C69.3208 80.6265 71.8472 80.3681 70.9285 77.0953C69.9811 74.0808 67.5695 71.4396 65.2154 69.43C64.5551 69.8893 63.8086 70.3774 63.0622 70.6932C61.0526 71.8128 58.8994 72.6167 56.6888 73.0186Z" fill="#EBA12A"/>
<path d="M55.3974 64.923C57.6941 64.722 60.1631 65.9278 62.0579 67.1336C60.2492 67.9948 58.2396 68.5403 56.1438 68.6551C53.072 68.6838 52.4404 65.21 55.3974 64.923Z" fill="white"/>
</g>
<defs>
<filter id="filter0_d_1029_3804" x="0" y="0" width="258" height="148" filterUnits="userSpaceOnUse" color-interpolation-filters="sRGB">
<feFlood flood-opacity="0" result="BackgroundImageFix"/>
<feColorMatrix in="SourceAlpha" type="matrix" values="0 0 0 0 0 0 0 0 0 0 0 0 0 0 0 0 0 0 127 0" result="hardAlpha"/>
<feOffset dy="4"/>
<feGaussianBlur stdDeviation="12"/>
<feComposite in2="hardAlpha" operator="out"/>
<feColorMatrix type="matrix" values="0 0 0 0 0 0 0 0 0 0 0 0 0 0 0 0 0 0 0.08 0"/>
<feBlend mode="normal" in2="BackgroundImageFix" result="effect1_dropShadow_1029_3804"/>
<feBlend mode="normal" in="SourceGraphic" in2="effect1_dropShadow_1029_3804" result="shape"/>
</filter>
</defs>
</svg>
