<svg width="258" height="149" viewBox="0 0 258 149" fill="none" xmlns="http://www.w3.org/2000/svg">
<g filter="url(#filter0_d_1029_3762)">
<rect x="24" y="20" width="210" height="101" rx="8" fill="white"/>
<path d="M126.92 58.2897V79.7236H122.927V65.7824L117.595 79.7236H114.572L109.211 65.7824V79.7236H105.219V58.2897H109.753L116.084 74.227L122.414 58.2897H126.92Z" fill="black"/>
<path d="M129.84 71.1562C129.84 69.4366 130.154 67.9114 130.781 66.5808C131.428 65.2501 132.293 64.2265 133.376 63.51C134.479 62.7935 135.705 62.4352 137.055 62.4352C138.234 62.4352 139.26 62.6911 140.135 63.2029C141.028 63.7147 141.741 64.3596 142.273 65.1375V62.7116H146.294V79.7236H142.273V77.2363C141.76 78.0347 141.047 78.7 140.135 79.2323C139.241 79.7441 138.205 80 137.026 80C135.696 80 134.479 79.6315 133.376 78.8945C132.293 78.1575 131.428 77.1237 130.781 75.7931C130.154 74.4419 129.84 72.8963 129.84 71.1562ZM142.273 71.2176C142.273 70.1736 142.083 69.283 141.703 68.5461C141.323 67.7886 140.81 67.2154 140.163 66.8264C139.517 66.417 138.823 66.2123 138.082 66.2123C137.34 66.2123 136.656 66.4068 136.028 66.7957C135.401 67.1847 134.888 67.7579 134.488 68.5154C134.108 69.2523 133.918 70.1326 133.918 71.1562C133.918 72.1798 134.108 73.0806 134.488 73.8585C134.888 74.6159 135.401 75.1994 136.028 75.6088C136.675 76.0182 137.359 76.223 138.082 76.223C138.823 76.223 139.517 76.0285 140.163 75.6395C140.81 75.2301 141.323 74.6569 141.703 73.9199C142.083 73.1624 142.273 72.2617 142.273 71.2176Z" fill="black"/>
<path d="M158.948 62.466C160.83 62.466 162.351 63.1108 163.511 64.4005C164.67 65.6698 165.25 67.4508 165.25 69.7437V79.7236H161.258V70.3271C161.258 68.976 160.944 67.9421 160.317 67.2256C159.689 66.4887 158.834 66.1202 157.75 66.1202C156.648 66.1202 155.773 66.4887 155.127 67.2256C154.499 67.9421 154.186 68.976 154.186 70.3271V79.7236H150.193V62.7116H154.186V64.8304C154.718 64.0935 155.393 63.5202 156.21 63.1108C157.047 62.6809 157.959 62.466 158.948 62.466Z" fill="black"/>
<path d="M183.961 62.7116V79.7236H179.94V77.5741C179.427 78.3111 178.752 78.8945 177.915 79.3244C177.098 79.7339 176.204 79.9386 175.235 79.9386C173.999 79.9386 172.906 79.6622 171.955 79.1095C171.005 78.5363 170.254 77.7072 169.703 76.6222C169.17 75.5167 168.904 74.2065 168.904 72.6916V62.7116H172.896V72.0774C172.896 73.4286 173.21 74.4726 173.837 75.2096C174.465 75.9261 175.32 76.2844 176.404 76.2844C177.507 76.2844 178.372 75.9261 178.999 75.2096C179.626 74.4726 179.94 73.4286 179.94 72.0774V62.7116H183.961Z" fill="black"/>
<path d="M186.873 71.1562C186.873 69.4366 187.187 67.9114 187.814 66.5808C188.461 65.2501 189.326 64.2265 190.409 63.51C191.512 62.7935 192.738 62.4352 194.088 62.4352C195.267 62.4352 196.293 62.6911 197.168 63.2029C198.061 63.7147 198.774 64.3596 199.306 65.1375V62.7116H203.327V79.7236H199.306V77.2363C198.793 78.0347 198.08 78.7 197.168 79.2323C196.274 79.7441 195.238 80 194.059 80C192.729 80 191.512 79.6315 190.409 78.8945C189.326 78.1575 188.461 77.1237 187.814 75.7931C187.187 74.4419 186.873 72.8963 186.873 71.1562ZM199.306 71.2176C199.306 70.1736 199.116 69.283 198.736 68.5461C198.356 67.7886 197.843 67.2154 197.196 66.8264C196.55 66.417 195.856 66.2123 195.115 66.2123C194.373 66.2123 193.689 66.4068 193.061 66.7957C192.434 67.1847 191.921 67.7579 191.521 68.5154C191.141 69.2523 190.951 70.1326 190.951 71.1562C190.951 72.1798 191.141 73.0806 191.521 73.8585C191.921 74.6159 192.434 75.1994 193.061 75.6088C193.708 76.0182 194.392 76.223 195.115 76.223C195.856 76.223 196.55 76.0285 197.196 75.6395C197.843 75.2301 198.356 74.6569 198.736 73.9199C199.116 73.1624 199.306 72.2617 199.306 71.2176Z" fill="black"/>
<path d="M211.219 57V79.7236H207.226V57H211.219Z" fill="black"/>
<g clip-path="url(#clip0_1029_3762)">
<path d="M101.597 62.0276L76.3245 87.3002C76.2069 87.4178 76.0475 87.4838 75.8812 87.4838C75.7149 87.4838 75.5555 87.4178 75.4379 87.3002L61.2891 73.1514C61.1715 73.0338 61.1055 72.8743 61.1055 72.7081C61.1055 72.5418 61.1715 72.3824 61.2891 72.2648L86.5616 46.9922C86.6791 46.8746 86.8386 46.8086 87.0048 46.8086C87.1711 46.8086 87.3306 46.8746 87.4481 46.9922L101.597 61.1411C101.655 61.1993 101.701 61.2684 101.733 61.3444C101.764 61.4205 101.781 61.502 101.781 61.5843C101.781 61.6666 101.764 61.7482 101.733 61.8242C101.701 61.9003 101.655 61.9694 101.597 62.0276Z" fill="#5CC45C"/>
<path d="M101.599 61.1395L97.7881 57.3281L71.6289 83.4873L75.4402 87.2986C75.5578 87.4162 75.7173 87.4822 75.8835 87.4822C76.0498 87.4822 76.2092 87.4162 76.3268 87.2986L101.599 62.026C101.717 61.9084 101.783 61.749 101.783 61.5827C101.783 61.4165 101.717 61.257 101.599 61.1395Z" fill="#4EAD4E"/>
<path d="M66.7192 74.3483C67.2706 73.3281 67.2706 72.0867 66.7192 71.0664C66.6452 70.9294 66.6666 70.7609 66.7767 70.6508L84.9477 52.4799C85.0578 52.3697 85.2263 52.3484 85.3633 52.4225C86.3833 52.9739 87.6247 52.9739 88.6451 52.4224C88.7821 52.3484 88.9506 52.3697 89.0607 52.4797L96.1079 59.5269C96.218 59.637 96.2394 59.8056 96.1653 59.9426C95.6138 60.9628 95.6138 62.2041 96.1653 63.2244C96.2393 63.3614 96.2179 63.5299 96.1079 63.64L77.9369 81.8111C77.8268 81.9212 77.6582 81.9426 77.5213 81.8685C76.501 81.3171 75.2596 81.3171 74.2395 81.8685C74.1026 81.9426 73.934 81.9212 73.8239 81.8111L66.7767 74.7639C66.6666 74.6538 66.6452 74.4851 66.7192 74.3483Z" fill="#A0E557"/>
<path d="M96.1649 63.224C95.6134 62.2037 95.6134 60.9624 96.1649 59.9421C96.2389 59.8052 96.2175 59.6366 96.1075 59.5265L92.0498 55.4688C91.3208 56.6009 91.3208 58.0688 92.0498 59.2009L73.4977 77.7529C72.3656 77.024 70.8975 77.0241 69.7656 77.7529L73.8234 81.8106C73.9335 81.9207 74.102 81.942 74.239 81.868C75.2591 81.3167 76.5004 81.3166 77.5207 81.8681C77.6577 81.9421 77.8262 81.9207 77.9363 81.8106L96.1074 63.6396C96.2175 63.5296 96.2389 63.3609 96.1649 63.224Z" fill="#93CC4A"/>
<path d="M85.0898 70.7927C87.1026 68.7799 87.1025 65.5165 85.0897 63.5037C83.0768 61.491 79.8135 61.491 77.8007 63.5039C75.7879 65.5167 75.788 68.7801 77.8008 70.7929C79.8137 72.8056 83.077 72.8056 85.0898 70.7927Z" fill="#F3E8D7"/>
<path d="M75.3324 79.3836L83.1086 71.6074C84.0047 70.7113 84.3857 69.6395 83.4896 68.7433C82.0772 66.9895 76.9215 68.3959 74.4758 70.8416C73.3842 71.9332 72.2926 73.025 71.2013 74.1169C70.8381 74.4802 70.3459 74.6843 69.8259 74.6843H69.7991C68.9411 74.6843 67.9362 73.8535 67.7149 73.0245L67.7144 65.8391L68.9975 64.5559L70.4073 63.1461L76.0066 57.5469C73.703 57.2887 71.4124 57.1491 70.5238 57.0426C69.5359 56.9242 68.6933 57.3669 67.9266 58.0012L60.7585 63.6563C59.7471 64.4933 59.0174 65.621 58.6683 66.8866C57.8857 69.7212 56.2373 74.7353 55.1911 76.7293L49.9648 81.9556L59.013 91.0037L61.5295 88.4873C62.0024 88.0143 62.5872 87.6686 63.2296 87.4823L68.4852 85.7127C70.1363 85.1462 71.5897 84.1171 72.6723 82.7479L75.3324 79.3836Z" fill="#FCD7C3"/>
<path d="M72.6734 82.7484L75.3335 79.3842L83.1096 71.608C84.0057 70.7119 84.3868 69.6401 83.4906 68.744C82.9715 68.0992 81.9465 67.8817 80.7361 67.9858C78.9635 68.1382 77.3115 68.9486 76.0534 70.2067L71.1047 75.1554L68.4446 78.5197C67.362 79.8889 65.9086 80.918 64.2575 81.4844L59.0019 83.2541C58.3595 83.4404 57.7746 83.786 57.3016 84.259L54.7852 86.7755L59.0139 91.0042L61.5304 88.4878C62.0033 88.0148 62.5882 87.6691 63.2306 87.4828L68.4862 85.7132C70.1372 85.1467 71.5907 84.1176 72.6734 82.7484Z" fill="#FFCDAC"/>
<path d="M57.5447 93.8986L47.0724 83.4262C46.9801 83.3339 46.9069 83.2243 46.8569 83.1038C46.807 82.9832 46.7812 82.854 46.7812 82.7235C46.7812 82.593 46.807 82.4637 46.8569 82.3432C46.9069 82.2226 46.9801 82.113 47.0724 82.0208L48.9153 80.1778C49.0076 80.0855 49.1171 80.0123 49.2377 79.9624C49.3583 79.9124 49.4875 79.8867 49.618 79.8867C49.7485 79.8867 49.8777 79.9124 49.9983 79.9624C50.1189 80.0123 50.2284 80.0855 50.3207 80.1778L60.7931 90.6503C60.8854 90.7426 60.9587 90.8521 61.0086 90.9727C61.0586 91.0932 61.0843 91.2225 61.0843 91.353C61.0843 91.4835 61.0586 91.6127 61.0086 91.7333C60.9587 91.8539 60.8854 91.9634 60.7931 92.0557L58.9502 93.8985C58.8579 93.9908 58.7484 94.064 58.6278 94.114C58.5072 94.164 58.378 94.1897 58.2475 94.1897C58.117 94.1897 57.9877 94.164 57.8671 94.1141C57.7466 94.0641 57.637 93.9909 57.5447 93.8986Z" fill="#464C50"/>
<path d="M60.7924 90.6535L57.2405 87.1016L53.9922 90.3499L57.5441 93.9018C57.6364 93.9941 57.7459 94.0673 57.8665 94.1173C57.9871 94.1672 58.1163 94.1929 58.2468 94.1929C58.3773 94.1929 58.5065 94.1672 58.6271 94.1173C58.7477 94.0673 58.8572 93.9941 58.9495 93.9018L60.7923 92.059C60.8846 91.9667 60.9578 91.8571 61.0078 91.7366C61.0578 91.616 61.0835 91.4868 61.0835 91.3562C61.0835 91.2257 61.0578 91.0965 61.0079 90.9759C60.9579 90.8553 60.8847 90.7458 60.7924 90.6535Z" fill="#33393A"/>
<path d="M82.8021 71.3678C81.7701 70.3357 80.0968 70.3357 79.0648 71.3678L77.8907 72.5419C77.3594 73.0732 77.3594 73.9345 77.8907 74.4658L79.0721 75.6472L83.0768 71.6425L82.8021 71.3678Z" fill="#EFEFEF"/>
</g>
</g>
<defs>
<filter id="filter0_d_1029_3762" x="0" y="0" width="258" height="149" filterUnits="userSpaceOnUse" color-interpolation-filters="sRGB">
<feFlood flood-opacity="0" result="BackgroundImageFix"/>
<feColorMatrix in="SourceAlpha" type="matrix" values="0 0 0 0 0 0 0 0 0 0 0 0 0 0 0 0 0 0 127 0" result="hardAlpha"/>
<feOffset dy="4"/>
<feGaussianBlur stdDeviation="12"/>
<feComposite in2="hardAlpha" operator="out"/>
<feColorMatrix type="matrix" values="0 0 0 0 0 0 0 0 0 0 0 0 0 0 0 0 0 0 0.08 0"/>
<feBlend mode="normal" in2="BackgroundImageFix" result="effect1_dropShadow_1029_3762"/>
<feBlend mode="normal" in="SourceGraphic" in2="effect1_dropShadow_1029_3762" result="shape"/>
</filter>
<clipPath id="clip0_1029_3762">
<rect width="55" height="55" fill="white" transform="translate(46.7812 43)"/>
</clipPath>
</defs>
</svg>
