<svg width="24" height="24" viewBox="0 0 24 24" fill="none" xmlns="http://www.w3.org/2000/svg">
<path d="M23.8966 6.69643C23.8966 5.66071 23.5518 4.78571 22.8621 4.07143C22.1725 3.35714 21.3449 3 20.3794 3H3.62076C2.65524 3 1.82765 3.35714 1.138 4.07143C0.448343 4.78571 0.103516 5.66071 0.103516 6.69643V16.6071C0.103516 17.6429 0.448343 18.5179 1.138 19.2321C1.82765 19.9464 2.65524 20.3036 3.62076 20.3036H20.3794C21.3449 20.3036 22.1725 19.9464 22.8621 19.2321C23.5518 18.5179 23.8966 17.6429 23.8966 16.6071V6.69643ZM9.62076 15.8571V6.53571L16.4483 11.1964L9.62076 15.8571Z" fill="#019934"/>
</svg>
