<svg width="297" height="48" viewBox="0 0 297 48" fill="none" xmlns="http://www.w3.org/2000/svg">
<path d="M85.4487 38.8232C82.5887 38.8232 80.2127 38.3172 78.3207 37.3052C76.4507 36.2932 75.0427 34.8852 74.0967 33.0812C73.1727 31.2552 72.7107 29.1212 72.7107 26.6792C72.7107 24.3032 73.1947 22.2132 74.1627 20.4092C75.1307 18.5832 76.5717 17.1642 78.4857 16.1522C80.3997 15.1182 82.7647 14.6012 85.5807 14.6012C87.5607 14.6012 89.2107 14.7772 90.5307 15.1292C91.8507 15.4812 92.8407 15.9542 93.5007 16.5482C94.1827 17.1422 94.5237 17.8022 94.5237 18.5282C94.5237 19.3422 94.1057 20.0792 93.2697 20.7392C92.4557 21.3772 91.1687 21.6962 89.4087 21.6962C89.4087 20.6402 89.2547 19.7712 88.9467 19.0892C88.6387 18.3852 88.1987 17.8572 87.6267 17.5052C87.0547 17.1532 86.3507 16.9772 85.5147 16.9772C84.1067 16.9772 82.9627 17.3622 82.0827 18.1322C81.2247 18.8802 80.5977 19.9802 80.2017 21.4322C79.8277 22.8622 79.6407 24.6112 79.6407 26.6792C79.6407 28.7472 79.8387 30.4962 80.2347 31.9262C80.6527 33.3562 81.3237 34.4452 82.2477 35.1932C83.1717 35.9412 84.3927 36.3152 85.9107 36.3152C86.1527 36.3152 86.4057 36.3042 86.6697 36.2822C86.9557 36.2602 87.2527 36.2382 87.5607 36.2162V31.6952C87.5607 31.1452 87.4947 30.6942 87.3627 30.3422C87.2527 29.9902 87.0437 29.7262 86.7357 29.5502C86.4497 29.3742 86.0317 29.2862 85.4817 29.2862H84.8547V27.2732H96.1737V29.2862H95.8767C95.4147 29.2862 95.0517 29.3742 94.7877 29.5502C94.5457 29.7262 94.3807 30.0012 94.2927 30.3752C94.2047 30.7492 94.1607 31.2332 94.1607 31.8272V36.8432C92.7527 37.5032 91.3337 37.9982 89.9037 38.3282C88.4957 38.6582 87.0107 38.8232 85.4487 38.8232ZM96.9845 38.4932V36.4802H97.1495C97.6555 36.4802 98.0735 36.4252 98.4035 36.3152C98.7555 36.2052 99.0195 35.9852 99.1955 35.6552C99.3935 35.3032 99.4925 34.7862 99.4925 34.1042V25.0622C99.4925 24.4022 99.4155 23.9182 99.2615 23.6102C99.1295 23.2802 98.9095 23.0712 98.6015 22.9832C98.2935 22.8732 97.8975 22.8182 97.4135 22.8182H97.2815V20.8052H104.971L105.664 23.8742H105.829C106.203 23.0162 106.632 22.3342 107.116 21.8282C107.6 21.3002 108.161 20.9262 108.799 20.7062C109.437 20.4862 110.185 20.3762 111.043 20.3762C112.341 20.3762 113.265 20.6952 113.815 21.3332C114.387 21.9492 114.673 22.7192 114.673 23.6432C114.673 24.8752 114.222 25.7552 113.32 26.2832C112.418 26.8112 111.23 27.0752 109.756 27.0752C109.756 26.4592 109.723 25.9422 109.657 25.5242C109.591 25.1062 109.459 24.7872 109.261 24.5672C109.063 24.3252 108.755 24.2042 108.337 24.2042C107.941 24.2042 107.589 24.3472 107.281 24.6332C106.995 24.9192 106.753 25.3152 106.555 25.8212C106.357 26.3052 106.203 26.8552 106.093 27.4712C105.983 28.0652 105.928 28.6812 105.928 29.3192V34.2692C105.928 34.9072 106.005 35.3912 106.159 35.7212C106.335 36.0292 106.577 36.2382 106.885 36.3482C107.193 36.4362 107.545 36.4802 107.941 36.4802H109.096V38.4932H96.9845ZM124.657 38.8232C121.819 38.8232 119.586 38.0532 117.958 36.5132C116.33 34.9732 115.516 32.6522 115.516 29.5502C115.516 26.4482 116.297 24.1382 117.859 22.6202C119.421 21.0802 121.72 20.3102 124.756 20.3102C127.594 20.3102 129.827 21.0802 131.455 22.6202C133.083 24.1382 133.897 26.4482 133.897 29.5502C133.897 32.6522 133.116 34.9732 131.554 36.5132C129.992 38.0532 127.693 38.8232 124.657 38.8232ZM124.723 36.4802C125.383 36.4802 125.911 36.2162 126.307 35.6882C126.703 35.1602 126.978 34.3792 127.132 33.3452C127.308 32.3112 127.396 31.0462 127.396 29.5502C127.396 27.2622 127.187 25.5462 126.769 24.4022C126.373 23.2582 125.68 22.6862 124.69 22.6862C123.7 22.6862 123.007 23.2582 122.611 24.4022C122.237 25.5462 122.05 27.2622 122.05 29.5502C122.05 31.8162 122.248 33.5432 122.644 34.7312C123.04 35.8972 123.733 36.4802 124.723 36.4802ZM144.313 38.8232C142.575 38.8232 141.057 38.5482 139.759 37.9982C138.461 37.4482 137.449 36.5132 136.723 35.1932C135.997 33.8512 135.634 32.0142 135.634 29.6822C135.634 27.2842 136.019 25.4142 136.789 24.0722C137.559 22.7082 138.593 21.7402 139.891 21.1682C141.189 20.5962 142.641 20.3102 144.247 20.3102C146.051 20.3102 147.47 20.4862 148.504 20.8382C149.538 21.1902 150.275 21.6412 150.715 22.1912C151.155 22.7192 151.375 23.2692 151.375 23.8412C151.375 24.2812 151.254 24.7652 151.012 25.2932C150.77 25.8212 150.275 26.2722 149.527 26.6462C148.779 26.9982 147.646 27.1742 146.128 27.1742C146.128 26.3602 146.073 25.6122 145.963 24.9302C145.875 24.2262 145.71 23.6652 145.468 23.2472C145.226 22.8072 144.896 22.5872 144.478 22.5872C143.994 22.5872 143.576 22.7962 143.224 23.2142C142.872 23.6322 142.597 24.3582 142.399 25.3922C142.201 26.4042 142.102 27.8232 142.102 29.6492C142.102 31.0792 142.212 32.2782 142.432 33.2462C142.652 34.1922 142.993 34.9072 143.455 35.3912C143.917 35.8752 144.511 36.1172 145.237 36.1172C146.073 36.1172 146.821 35.9852 147.481 35.7212C148.163 35.4572 148.746 35.1052 149.23 34.6652C149.714 34.2032 150.077 33.7082 150.319 33.1802C150.671 33.3562 150.913 33.6092 151.045 33.9392C151.199 34.2472 151.276 34.5552 151.276 34.8632C151.276 35.4352 151.034 36.0292 150.55 36.6452C150.088 37.2612 149.351 37.7782 148.339 38.1962C147.327 38.6142 145.985 38.8232 144.313 38.8232ZM162.091 38.8232C158.967 38.8232 156.646 38.0312 155.128 36.4472C153.632 34.8412 152.884 32.5972 152.884 29.7152C152.884 26.6132 153.654 24.2702 155.194 22.6862C156.734 21.1022 158.901 20.3102 161.695 20.3102C164.291 20.3102 166.326 20.9922 167.8 22.3562C169.296 23.6982 170.044 25.6782 170.044 28.2962V30.1112H159.352C159.396 32.1792 159.781 33.6862 160.507 34.6322C161.255 35.5782 162.333 36.0512 163.741 36.0512C164.863 36.0512 165.754 35.7652 166.414 35.1932C167.096 34.6212 167.613 33.8952 167.965 33.0152C168.383 33.1252 168.724 33.3232 168.988 33.6092C169.274 33.8952 169.417 34.2582 169.417 34.6982C169.417 35.3582 169.175 36.0072 168.691 36.6452C168.207 37.2832 167.426 37.8112 166.348 38.2292C165.292 38.6252 163.873 38.8232 162.091 38.8232ZM163.741 27.7682C163.741 26.1402 163.587 24.8972 163.279 24.0392C162.993 23.1592 162.52 22.7192 161.86 22.7192C161.156 22.7192 160.573 23.1482 160.111 24.0062C159.649 24.8642 159.418 26.1182 159.418 27.7682H163.741ZM170.594 38.4932V36.4802H170.759C171.265 36.4802 171.683 36.4252 172.013 36.3152C172.365 36.2052 172.629 35.9852 172.805 35.6552C173.003 35.3032 173.102 34.7862 173.102 34.1042V25.0622C173.102 24.4022 173.025 23.9182 172.871 23.6102C172.739 23.2802 172.519 23.0712 172.211 22.9832C171.903 22.8732 171.507 22.8182 171.023 22.8182H170.891V20.8052H178.58L179.273 23.8742H179.438C179.812 23.0162 180.241 22.3342 180.725 21.8282C181.209 21.3002 181.77 20.9262 182.408 20.7062C183.046 20.4862 183.794 20.3762 184.652 20.3762C185.95 20.3762 186.874 20.6952 187.424 21.3332C187.996 21.9492 188.282 22.7192 188.282 23.6432C188.282 24.8752 187.831 25.7552 186.929 26.2832C186.027 26.8112 184.839 27.0752 183.365 27.0752C183.365 26.4592 183.332 25.9422 183.266 25.5242C183.2 25.1062 183.068 24.7872 182.87 24.5672C182.672 24.3252 182.364 24.2042 181.946 24.2042C181.55 24.2042 181.198 24.3472 180.89 24.6332C180.604 24.9192 180.362 25.3152 180.164 25.8212C179.966 26.3052 179.812 26.8552 179.702 27.4712C179.592 28.0652 179.537 28.6812 179.537 29.3192V34.2692C179.537 34.9072 179.614 35.3912 179.768 35.7212C179.944 36.0292 180.186 36.2382 180.494 36.3482C180.802 36.4362 181.154 36.4802 181.55 36.4802H182.705V38.4932H170.594ZM188.399 43.6082C189.565 43.6082 190.544 43.4872 191.336 43.2452C192.15 43.0252 192.821 42.6952 193.349 42.2552C193.899 41.8372 194.339 41.3422 194.669 40.7702C195.021 40.1982 195.329 39.5712 195.593 38.8892L189.785 24.2702C189.631 23.8302 189.466 23.5112 189.29 23.3132C189.114 23.1152 188.905 22.9832 188.663 22.9172C188.443 22.8512 188.168 22.8182 187.838 22.8182H187.673V20.8052H198.332V22.8182H198.167C197.463 22.8182 196.968 22.9062 196.682 23.0822C196.396 23.2582 196.253 23.5332 196.253 23.9072C196.253 24.1272 196.286 24.3582 196.352 24.6002C196.418 24.8422 196.495 25.0842 196.583 25.3262L198.332 30.5072C198.486 30.9252 198.607 31.3432 198.695 31.7612C198.805 32.1572 198.893 32.5312 198.959 32.8832C199.025 33.2352 199.069 33.5432 199.091 33.8072C199.157 33.3232 199.223 32.9052 199.289 32.5532C199.377 32.2012 199.465 31.9042 199.553 31.6622L201.533 25.6892C201.599 25.5132 201.676 25.2272 201.764 24.8312C201.852 24.4352 201.896 24.1272 201.896 23.9072C201.896 23.4892 201.753 23.2142 201.467 23.0822C201.181 22.9282 200.719 22.8402 200.081 22.8182H199.916V20.8052H207.209V22.8182H207.077C206.681 22.8402 206.329 22.9392 206.021 23.1152C205.713 23.2692 205.438 23.5112 205.196 23.8412C204.976 24.1712 204.767 24.5892 204.569 25.0952L199.586 38.3942C199.036 39.8462 198.508 41.0452 198.002 41.9912C197.496 42.9592 196.891 43.7182 196.187 44.2682C195.483 44.8182 194.57 45.2032 193.448 45.4232C192.348 45.6652 190.918 45.7862 189.158 45.7862H188.399V43.6082ZM223.169 38.8232C221.387 38.8232 219.935 38.6692 218.813 38.3612C217.691 38.0532 216.822 37.6572 216.206 37.1732C215.59 36.6892 215.161 36.1832 214.919 35.6552C214.699 35.1272 214.589 34.6542 214.589 34.2362C214.589 33.2462 214.798 32.4872 215.216 31.9592C215.656 31.4312 216.206 31.0682 216.866 30.8702C217.526 30.6502 218.23 30.5402 218.978 30.5402C218.978 32.0362 219.22 33.2242 219.704 34.1042C220.21 34.9842 220.837 35.6222 221.585 36.0182C222.355 36.3922 223.125 36.5792 223.895 36.5792C225.061 36.5792 225.952 36.2492 226.568 35.5892C227.206 34.9072 227.525 34.1922 227.525 33.4442C227.525 32.7402 227.283 32.1352 226.799 31.6292C226.337 31.1232 225.666 30.6502 224.786 30.2102C223.928 29.7702 222.905 29.3082 221.717 28.8242C220.045 28.1422 218.747 27.4162 217.823 26.6462C216.899 25.8762 216.25 25.0512 215.876 24.1712C215.502 23.2912 215.315 22.3672 215.315 21.3992C215.315 19.9912 215.7 18.7812 216.47 17.7692C217.262 16.7572 218.329 15.9762 219.671 15.4262C221.013 14.8762 222.52 14.6012 224.192 14.6012C225.974 14.6012 227.426 14.8102 228.548 15.2282C229.692 15.6462 230.528 16.1742 231.056 16.8122C231.584 17.4282 231.848 18.0772 231.848 18.7592C231.848 19.5732 231.485 20.2662 230.759 20.8382C230.055 21.4102 228.823 21.6962 227.063 21.6962C227.063 20.9482 226.92 20.2112 226.634 19.4852C226.348 18.7372 225.93 18.1212 225.38 17.6372C224.852 17.1312 224.192 16.8782 223.4 16.8782C222.586 16.8782 221.893 17.0762 221.321 17.4722C220.771 17.8682 220.496 18.5062 220.496 19.3862C220.496 19.8262 220.639 20.2772 220.925 20.7392C221.211 21.2012 221.772 21.7072 222.608 22.2572C223.466 22.7852 224.709 23.3792 226.337 24.0392C228.009 24.6992 229.307 25.4142 230.231 26.1842C231.177 26.9322 231.837 27.7462 232.211 28.6262C232.585 29.4842 232.772 30.4412 232.772 31.4972C232.772 32.9272 232.376 34.1922 231.584 35.2922C230.814 36.3922 229.703 37.2612 228.251 37.8992C226.821 38.5152 225.127 38.8232 223.169 38.8232ZM233.48 38.4932V36.4802H233.612C234.052 36.4802 234.437 36.4362 234.767 36.3482C235.119 36.2382 235.394 36.0292 235.592 35.7212C235.79 35.3912 235.889 34.9072 235.889 34.2692V17.2742C235.889 16.7242 235.746 16.3282 235.46 16.0862C235.196 15.8222 234.899 15.6462 234.569 15.5582C234.239 15.4702 233.986 15.4262 233.81 15.4262H233.315V13.4132H242.324V17.9672C242.324 18.5612 242.313 19.1552 242.291 19.7492C242.291 20.3212 242.28 20.8602 242.258 21.3662C242.236 21.8722 242.203 22.3232 242.159 22.7192H242.423C242.687 22.3012 243.017 21.9162 243.413 21.5642C243.809 21.1902 244.326 20.8932 244.964 20.6732C245.602 20.4312 246.394 20.3102 247.34 20.3102C249.166 20.3102 250.508 20.8052 251.366 21.7952C252.246 22.7852 252.686 24.3912 252.686 26.6132V34.1702C252.686 34.8302 252.741 35.3252 252.851 35.6552C252.983 35.9852 253.192 36.2052 253.478 36.3152C253.764 36.4252 254.149 36.4802 254.633 36.4802H254.765V38.4932H246.251V28.0322C246.251 26.6242 246.108 25.5352 245.822 24.7652C245.558 23.9952 245.074 23.6102 244.37 23.6102C243.776 23.6102 243.336 23.8632 243.05 24.3692C242.764 24.8752 242.577 25.5132 242.489 26.2832C242.401 27.0312 242.357 27.7902 242.357 28.5602V34.3682C242.357 34.9622 242.423 35.4132 242.555 35.7212C242.709 36.0072 242.929 36.2052 243.215 36.3152C243.523 36.4252 243.919 36.4802 244.403 36.4802H244.535V38.4932H233.48ZM265.108 38.8232C262.27 38.8232 260.037 38.0532 258.409 36.5132C256.781 34.9732 255.967 32.6522 255.967 29.5502C255.967 26.4482 256.748 24.1382 258.31 22.6202C259.872 21.0802 262.171 20.3102 265.207 20.3102C268.045 20.3102 270.278 21.0802 271.906 22.6202C273.534 24.1382 274.348 26.4482 274.348 29.5502C274.348 32.6522 273.567 34.9732 272.005 36.5132C270.443 38.0532 268.144 38.8232 265.108 38.8232ZM265.174 36.4802C265.834 36.4802 266.362 36.2162 266.758 35.6882C267.154 35.1602 267.429 34.3792 267.583 33.3452C267.759 32.3112 267.847 31.0462 267.847 29.5502C267.847 27.2622 267.638 25.5462 267.22 24.4022C266.824 23.2582 266.131 22.6862 265.141 22.6862C264.151 22.6862 263.458 23.2582 263.062 24.4022C262.688 25.5462 262.501 27.2622 262.501 29.5502C262.501 31.8162 262.699 33.5432 263.095 34.7312C263.491 35.8972 264.184 36.4802 265.174 36.4802ZM275.029 45.7862V43.7732H275.524C275.722 43.7732 275.986 43.7292 276.316 43.6412C276.646 43.5532 276.943 43.3662 277.207 43.0802C277.471 42.7942 277.603 42.3652 277.603 41.7932V25.1942C277.603 24.4902 277.526 23.9732 277.372 23.6432C277.24 23.3132 277.042 23.0932 276.778 22.9832C276.514 22.8732 276.195 22.8182 275.821 22.8182H275.656V20.8052H282.652L283.444 23.0822H283.576C284.038 22.3342 284.676 21.7182 285.49 21.2342C286.304 20.7282 287.349 20.4752 288.625 20.4752C290.825 20.4752 292.497 21.2232 293.641 22.7192C294.807 24.2152 295.39 26.5692 295.39 29.7812C295.39 32.9712 294.818 35.2922 293.674 36.7442C292.53 38.1962 290.814 38.9222 288.526 38.9222C287.448 38.9222 286.557 38.7682 285.853 38.4602C285.171 38.1302 284.588 37.6572 284.104 37.0412H283.906C283.95 37.5912 283.983 38.1632 284.005 38.7572C284.027 39.3732 284.038 40.0112 284.038 40.6712V41.6612C284.038 42.2772 284.17 42.7282 284.434 43.0142C284.698 43.3222 284.995 43.5202 285.325 43.6082C285.655 43.7182 285.908 43.7732 286.084 43.7732H287.272V45.7862H275.029ZM286.546 36.2492C287.404 36.2492 288.02 35.7432 288.394 34.7312C288.768 33.6972 288.955 32.0802 288.955 29.8802C288.955 27.7902 288.768 26.1622 288.394 24.9962C288.042 23.8082 287.459 23.2142 286.645 23.2142C285.963 23.2142 285.424 23.4782 285.028 24.0062C284.654 24.5342 284.39 25.2932 284.236 26.2832C284.104 27.2512 284.038 28.4172 284.038 29.7812C284.038 31.2772 284.104 32.5092 284.236 33.4772C284.39 34.4232 284.643 35.1272 284.995 35.5892C285.369 36.0292 285.886 36.2492 286.546 36.2492Z" fill="#09160C"/>
<path d="M54.8862 18.0249H45.7884L45.5784 17.4413H39.9739L40.1838 18.0249H31.6903L26.021 2.32129C25.6423 1.2814 24.6438 0.581055 23.5389 0.581055C23.2406 0.581055 22.9425 0.635598 22.6468 0.739305C21.2827 1.22942 20.5721 2.7415 21.0648 4.11095L26.0909 18.0249H4.13462C3.1905 18.0249 2.29836 18.3957 1.62669 19.0673C0.955024 19.739 0.583984 20.6312 0.583984 21.5778C0.583984 23.3803 1.93525 24.8742 3.69623 25.0998L8.45013 44.0165C8.8962 45.8008 10.4938 47.0484 12.3352 47.0484H46.6856C48.5245 47.0484 50.1221 45.8036 50.5733 44.0165L55.3246 25.1024C56.1054 25.0063 56.8262 24.6537 57.3941 24.0883C58.0684 23.4141 58.4394 22.522 58.4394 21.5778C58.4394 19.6171 56.8444 18.0249 54.8862 18.0249ZM30.5672 28.2612C30.8499 28.5413 31.0082 28.9175 31.0082 29.3142V41.947C31.0082 42.7718 30.3365 43.4435 29.5091 43.4435C28.6843 43.4435 28.0152 42.7718 28.0152 41.947V29.3142C28.0152 28.4894 28.6843 27.8177 29.5091 27.8177C29.9086 27.8177 30.2819 27.9734 30.5672 28.2612ZM17.7582 43.3188C17.6727 43.3369 17.5818 43.3446 17.4937 43.3446C16.77 43.3446 16.1503 42.8258 16.0205 42.1152L13.7745 29.6821C13.6294 28.8704 14.1714 28.0896 14.9857 27.9419C15.0661 27.9263 15.1517 27.9186 15.2503 27.9186C15.9608 27.9186 16.5936 28.4476 16.7209 29.148L18.9668 41.5811C19.112 42.3931 18.5699 43.1736 17.7582 43.3188ZM43.7734 27.9188C43.8694 27.9188 43.9575 27.9265 44.0379 27.9421C44.4294 28.012 44.7718 28.2353 45.0002 28.5646C45.2284 28.8939 45.3167 29.2909 45.244 29.6798L42.998 42.1155C42.871 42.8261 42.2536 43.3449 41.5274 43.3449C41.4393 43.3449 41.3484 43.3372 41.2603 43.319C40.8714 43.2491 40.529 43.0286 40.3008 42.6991C40.0727 42.3698 39.9844 41.9729 40.0545 41.5813L42.3005 29.1482C42.4272 28.4479 43.06 27.9188 43.7734 27.9188Z" fill="#09160C"/>
<path d="M54.8856 17.4413H44.9578L45.378 18.6059H54.8856C56.517 18.6059 57.8552 19.9441 57.8552 21.5781C57.8552 22.3924 57.5207 23.1367 56.9812 23.6763C56.4442 24.2104 55.7027 24.5477 54.8856 24.5477H54.8623L50.0072 43.8769C49.6234 45.3993 48.2567 46.4653 46.685 46.4653H12.3345C10.7653 46.4653 9.39615 45.3993 9.01486 43.8769L4.8343 27.2346L4.15751 24.5477H4.13421C2.50024 24.5477 1.16716 23.2095 1.16716 21.5781C1.16716 20.7612 1.50184 20.0168 2.03855 19.4798C2.57553 18.9403 3.31966 18.6059 4.13421 18.6059H26.9204L21.6116 3.91118C21.2303 2.85055 21.7827 1.66777 22.8435 1.28648C23.0743 1.20608 23.3078 1.16459 23.5385 1.16459C24.3787 1.16459 25.1699 1.68595 25.4734 2.51842L31.2802 18.6056H41.0136L40.5934 17.441H32.0999L26.5675 2.12408C26.1058 0.850656 24.887 0 23.5383 0C23.1726 0 22.8095 0.062224 22.4541 0.189234C20.7812 0.790993 19.9152 2.6375 20.5141 4.30501L25.2603 17.441H4.13396C3.0344 17.441 1.99681 17.8715 1.21376 18.6548C0.430447 19.4381 0 20.4754 0 21.5775C0 23.5434 1.38225 25.1955 3.22363 25.6104L3.70351 27.5191L7.88407 44.1589C8.39492 46.2026 10.2261 47.6317 12.3345 47.6317H46.685C48.7909 47.6317 50.6218 46.2025 51.1354 44.1617L55.7984 25.6106C56.5505 25.4421 57.2429 25.0608 57.8057 24.498C58.5891 23.7147 59.0195 22.6774 59.0195 21.5778C59.0198 19.2955 57.1653 17.4413 54.8856 17.4413ZM41.1557 43.892C41.2802 43.9154 41.4046 43.9259 41.5265 43.9259C42.5121 43.9259 43.3912 43.2178 43.5702 42.2194L45.8161 29.7837C46.021 28.6609 45.2664 27.5741 44.1433 27.3693C44.0163 27.346 43.8944 27.338 43.7725 27.338C42.7894 27.338 41.9078 28.0461 41.7262 29.0445L39.4803 41.4776C39.2782 42.603 40.0329 43.6898 41.1557 43.892ZM43.7727 28.5024C43.8349 28.5024 43.8844 28.5075 43.9284 28.5154C44.1722 28.5595 44.3796 28.6944 44.5197 28.8967C44.6597 29.0965 44.7143 29.3402 44.67 29.5763L42.424 42.012C42.3487 42.4399 41.9623 42.7615 41.5268 42.7615C41.4722 42.7615 41.4179 42.7564 41.3634 42.7459C40.8679 42.6578 40.5386 42.1805 40.6269 41.6853L42.8755 29.2521C42.9505 28.824 43.3369 28.5024 43.7727 28.5024ZM29.5085 27.2341C28.3674 27.2341 27.431 28.1703 27.431 29.3141V41.947C27.431 43.0934 28.3672 44.027 29.5085 44.027C30.6549 44.027 31.5885 43.0934 31.5885 41.947V29.3141C31.5885 28.7436 31.3552 28.2222 30.9765 27.8463C30.6029 27.4676 30.079 27.2341 29.5085 27.2341ZM28.5982 41.947V29.3141C28.5982 28.8109 29.0053 28.4012 29.5085 28.4012C29.7523 28.4012 29.9804 28.4947 30.1492 28.6683C30.3281 28.8447 30.4242 29.0729 30.4242 29.3141V41.947C30.4242 42.4527 30.0145 42.8624 29.5087 42.8624C29.0053 42.8624 28.5982 42.4527 28.5982 41.947ZM15.2496 27.3378C15.1277 27.3378 15.0033 27.3455 14.8788 27.369C13.7531 27.5739 13.0011 28.6606 13.2008 29.7835L15.4468 42.2192C15.6283 43.2176 16.5102 43.9256 17.493 43.9256C17.6149 43.9256 17.7393 43.9154 17.8612 43.8918C18.9895 43.6895 19.7415 42.6027 19.5392 41.4773L17.2933 29.0442C17.1143 28.0458 16.2298 27.3378 15.2496 27.3378ZM17.6538 42.7456C17.6018 42.7561 17.5476 42.7613 17.493 42.7613C17.0572 42.7613 16.6708 42.4371 16.5932 42.0092L14.3472 29.5761C14.2591 29.0834 14.591 28.6061 15.0865 28.5154C15.1385 28.5078 15.1876 28.5024 15.2499 28.5024C15.6829 28.5024 16.0695 28.824 16.1471 29.2519L18.3931 41.685C18.4812 42.1802 18.1516 42.6575 17.6538 42.7456ZM19.5392 41.4776L17.2933 29.0445C17.1143 28.0461 16.2298 27.338 15.2496 27.338C15.1277 27.338 15.0033 27.3455 14.8788 27.369C13.7531 27.5739 13.0011 28.6606 13.2008 29.7835L15.4468 42.2194C15.6283 43.2178 16.5102 43.9259 17.493 43.9259C17.6149 43.9259 17.7393 43.9154 17.8612 43.8918C18.9895 43.6895 19.7415 42.603 19.5392 41.4776ZM17.6538 42.7456C17.6018 42.7561 17.5476 42.7613 17.493 42.7613C17.0572 42.7613 16.6708 42.4371 16.5932 42.0092L14.3472 29.5761C14.2591 29.0834 14.591 28.6061 15.0865 28.5154C15.1385 28.5078 15.1876 28.5024 15.2499 28.5024C15.6829 28.5024 16.0695 28.824 16.1471 29.2519L18.3931 41.685C18.4812 42.1802 18.1516 42.6575 17.6538 42.7456ZM44.1435 27.369C44.0165 27.3457 43.8946 27.3378 43.7727 27.3378C42.7897 27.3378 41.908 28.0458 41.7265 29.0442L39.4805 41.4773C39.2782 42.603 40.0329 43.6895 41.156 43.8918C41.2804 43.9151 41.4049 43.9256 41.5268 43.9256C42.5124 43.9256 43.3914 43.2176 43.5704 42.2192L45.8164 29.7835C46.0213 28.6606 45.2664 27.5739 44.1435 27.369ZM41.5268 42.7613C41.4722 42.7613 41.4179 42.7561 41.3634 42.7456C40.8679 42.6575 40.5386 42.1802 40.6269 41.685L42.8755 29.2521C42.9507 28.8243 43.3372 28.5024 43.7727 28.5024C43.8349 28.5024 43.8844 28.5075 43.9284 28.5154C44.1722 28.5595 44.3796 28.6944 44.5197 28.8967C44.6597 29.0965 44.7143 29.3402 44.67 29.5763L42.424 42.012C42.3487 42.4396 41.9623 42.7613 41.5268 42.7613ZM30.9765 27.8461C30.6032 27.4674 30.079 27.2341 29.5085 27.2341C28.3674 27.2341 27.4313 28.1703 27.4313 29.3141V41.947C27.4313 43.0934 28.3672 44.027 29.5085 44.027C30.6549 44.027 31.5888 43.0934 31.5888 41.947V29.3141C31.5885 28.7436 31.355 28.2222 30.9765 27.8461ZM28.5982 41.947V29.3141C28.5982 28.8109 29.0053 28.4012 29.5085 28.4012C29.7523 28.4012 29.9804 28.4947 30.1492 28.6683C30.3281 28.8447 30.4242 29.0729 30.4242 29.3141V41.947C30.4242 42.4527 30.0145 42.8624 29.5087 42.8624C29.0053 42.8624 28.5982 42.4527 28.5982 41.947ZM44.1435 27.369C44.0165 27.3457 43.8946 27.3378 43.7727 27.3378C42.7897 27.3378 41.908 28.0458 41.7265 29.0442L39.4805 41.4773C39.2782 42.603 40.0329 43.6895 41.156 43.8918C41.2804 43.9151 41.4049 43.9256 41.5268 43.9256C42.5124 43.9256 43.3914 43.2176 43.5704 42.2192L45.8164 29.7835C46.0213 28.6606 45.2664 27.5739 44.1435 27.369ZM41.5268 42.7613C41.4722 42.7613 41.4179 42.7561 41.3634 42.7456C40.8679 42.6575 40.5386 42.1802 40.6269 41.685L42.8755 29.2521C42.9507 28.8243 43.3372 28.5024 43.7727 28.5024C43.8349 28.5024 43.8844 28.5075 43.9284 28.5154C44.1722 28.5595 44.3796 28.6944 44.5197 28.8967C44.6597 29.0965 44.7143 29.3402 44.67 29.5763L42.424 42.012C42.3487 42.4396 41.9623 42.7613 41.5268 42.7613ZM29.5085 27.2341C28.3674 27.2341 27.431 28.1703 27.431 29.3141V41.947C27.431 43.0934 28.3672 44.027 29.5085 44.027C30.6549 44.027 31.5885 43.0934 31.5885 41.947V29.3141C31.5885 28.7436 31.3552 28.2222 30.9765 27.8463C30.6029 27.4676 30.079 27.2341 29.5085 27.2341ZM28.5982 41.947V29.3141C28.5982 28.8109 29.0053 28.4012 29.5085 28.4012C29.7523 28.4012 29.9804 28.4947 30.1492 28.6683C30.3281 28.8447 30.4242 29.0729 30.4242 29.3141V41.947C30.4242 42.4527 30.0145 42.8624 29.5087 42.8624C29.0053 42.8624 28.5982 42.4527 28.5982 41.947ZM17.2933 29.0445C17.1143 28.0461 16.2298 27.338 15.2496 27.338C15.1277 27.338 15.0033 27.3455 14.8788 27.369C13.7531 27.5739 13.0011 28.6606 13.2008 29.7835L15.4468 42.2194C15.6283 43.2178 16.5102 43.9259 17.493 43.9259C17.6149 43.9259 17.7393 43.9154 17.8612 43.8918C18.9895 43.6895 19.7415 42.603 19.5392 41.4776L17.2933 29.0445ZM17.6538 42.7456C17.6018 42.7561 17.5476 42.7613 17.493 42.7613C17.0572 42.7613 16.6708 42.4371 16.5932 42.0092L14.3472 29.5761C14.2591 29.0834 14.591 28.6061 15.0865 28.5154C15.1385 28.5078 15.1876 28.5024 15.2499 28.5024C15.6829 28.5024 16.0695 28.824 16.1471 29.2519L18.3931 41.685C18.4812 42.1802 18.1516 42.6575 17.6538 42.7456Z" fill="white"/>
<path d="M49.9956 17.4414H35.0312V18.606H49.9956V17.4414Z" fill="#F6F6F6"/>
<path d="M30.3638 22.1068C29.3024 22.4902 28.1206 21.9353 27.7373 20.8739L21.6126 3.91296C21.2293 2.85156 21.7842 1.6698 22.8456 1.28647C23.907 0.903137 25.0888 1.45804 25.4721 2.51944L31.5967 19.4803C31.9798 20.5417 31.4249 21.7237 30.3638 22.1068Z" fill="#FF902A"/>
<path d="M57.856 21.5779C57.856 22.3937 57.5211 23.1365 56.9821 23.6753C56.4461 24.2113 55.7033 24.5464 54.8874 24.5464H4.13559C2.50136 24.5464 1.16699 23.2093 1.16699 21.5779C1.16699 20.762 1.50193 20.0164 2.03813 19.4804C2.57715 18.9414 3.32001 18.6064 4.13559 18.6064H54.8872C56.5188 18.6062 57.856 19.9434 57.856 21.5779Z" fill="#019934"/>
<path d="M4.15918 24.5469L9.01551 43.8761C9.3973 45.3997 10.7665 46.466 12.3367 46.466H46.6869C48.2571 46.466 49.6235 45.3997 50.0081 43.8761L54.8644 24.5469H4.15918ZM17.8632 43.8936C16.7388 44.0974 15.652 43.343 15.4482 42.2184L13.2022 29.7847C13.0012 28.6603 13.7556 27.5736 14.8802 27.3698C15.0054 27.3465 15.1278 27.3378 15.2502 27.3378C16.232 27.3378 17.1147 28.0458 17.2955 29.045L19.5414 41.4788C19.7422 42.603 18.9906 43.6897 17.8632 43.8936ZM31.5904 41.9477C31.5904 43.0926 30.6553 44.0277 29.5104 44.0277C28.3683 44.0277 27.4332 43.0926 27.4332 41.9477V29.3159C27.4332 28.171 28.3683 27.2358 29.5104 27.2358C30.0814 27.2358 30.6028 27.4689 30.9787 27.8476C31.3574 28.2235 31.5904 28.7449 31.5904 29.3159V41.9477ZM45.8186 29.7847L43.5726 42.2184C43.3716 43.3428 42.2848 44.0974 41.1576 43.8936C40.0332 43.6897 39.2786 42.603 39.4824 41.4786L41.7284 29.0447C41.9089 28.0455 42.7919 27.3375 43.7736 27.3375C43.896 27.3375 44.0184 27.3462 44.1436 27.3695C45.268 27.5736 46.0227 28.6603 45.8186 29.7847Z" fill="#019934"/>
<path d="M54.8639 24.5469L54.6544 25.3819L4.41187 25.5486L4.16016 24.5469H54.8639Z" fill="#FEFEFE"/>
<g filter="url(#filter0_d_2332_192)">
<path d="M46.1851 19.3158C46.3977 18.9534 46.5741 18.6489 46.7546 18.3443C46.9632 17.9912 47.1637 17.6344 47.3843 17.2888C47.5608 17.0104 47.7593 16.7433 47.9498 16.4724C48.3368 15.9175 48.7279 15.3645 49.1129 14.8096C49.4759 14.2865 49.8108 13.7466 50.1998 13.2422C50.5307 12.8144 50.9618 12.4519 51.2807 12.0185C51.9645 11.0919 52.8569 10.3521 53.6931 9.55992C54.2586 9.02374 54.8401 8.50438 55.4317 7.99435C55.6483 7.80753 55.917 7.67301 56.2178 7.47872C55.9351 7.37036 55.7606 7.34047 55.556 7.48993C55.3996 7.60389 55.1891 7.65807 55.0026 7.73653C54.5714 7.91962 54.1363 8.09523 53.7071 8.28579C53.28 8.47635 52.8508 8.66691 52.4397 8.88549C52.1891 9.02001 51.9765 9.21617 51.7379 9.36936C51.391 9.58982 51.024 9.78598 50.6831 10.0158C50.4224 10.1914 50.1797 10.395 49.9411 10.5968C49.4418 11.0209 48.9224 11.4319 48.4592 11.8896C48.0461 12.3006 47.7011 12.7695 47.3201 13.2086C47.1096 13.4533 46.8749 13.6812 46.6724 13.9334C46.4799 14.1726 46.3134 14.4304 46.145 14.6845C45.9786 14.9348 45.8141 15.1852 45.6637 15.443C45.4792 15.7587 45.3168 16.0856 45.1363 16.4032C44.9438 16.7395 44.7473 17.0739 44.5387 17.4027C44.5127 17.4438 44.4064 17.4756 44.3522 17.4625C44.282 17.4438 44.1798 17.3822 44.1697 17.3261C44.0635 16.7732 43.6423 16.3883 43.3034 15.9792C42.8923 15.4803 42.403 15.0301 41.9077 14.5985C41.5969 14.3276 41.2159 14.124 40.8629 13.8961C40.6283 13.7448 40.3957 13.5916 40.151 13.457C39.8382 13.2889 39.5154 13.1376 39.1945 12.9806C38.9659 12.8704 38.7433 12.7396 38.5027 12.6612C38.1698 12.5547 37.8249 12.4856 37.4819 12.4108C37.4378 12.4015 37.3777 12.4575 37.3255 12.4837C37.3596 12.5267 37.3837 12.5808 37.4278 12.6107C37.887 12.9265 38.3543 13.2329 38.8075 13.5561C39.0642 13.7373 39.3028 13.9409 39.5434 14.1408C40.0488 14.5612 40.5621 14.9759 41.0534 15.4093C41.4826 15.7886 41.9157 16.1678 42.2968 16.5863C42.6617 16.9861 42.9866 17.4214 43.2834 17.8679C43.4919 18.1818 43.6183 18.5424 43.8088 18.9366C43.3656 19.0225 43.0086 19.0599 42.6738 19.1645C41.5909 19.5026 40.4859 19.2897 39.391 19.2953C39.0281 19.2971 38.6631 19.0954 38.2981 18.9889C38.0555 18.9179 37.7968 18.8805 37.5702 18.7796C37.135 18.5835 36.7119 18.3649 36.2968 18.1351C35.7233 17.8175 35.264 17.3747 34.859 16.8871C34.6644 16.6536 34.498 16.3958 34.3416 16.1361C34.0669 15.6765 33.7901 15.2169 33.5555 14.7405C33.4292 14.4846 33.3951 14.1913 33.3088 13.9166C33.2005 13.5766 33.0522 13.2441 32.9759 12.8984C32.9118 12.5977 32.9298 12.2801 32.9038 11.9718C32.8396 11.2469 32.7654 10.5239 32.7012 9.79906C32.6892 9.66454 32.7032 9.53003 32.7012 9.39552C32.6972 9.16946 32.8135 9.091 33.0542 9.04056C34.3015 8.7734 35.5689 8.85 36.8202 8.91165C37.4037 8.93967 38.0234 8.98264 38.5929 9.21991C38.8917 9.34508 39.2446 9.35068 39.5595 9.44783C39.8322 9.5319 40.0909 9.66268 40.3476 9.78411C40.7426 9.97093 41.1597 10.1335 41.5207 10.367C42.0461 10.707 42.5996 11.0227 42.9625 11.5458C43.143 11.8055 43.3897 12.026 43.6062 12.2651C43.6203 12.2801 43.6423 12.2894 43.6584 12.3025C43.7667 12.394 43.7406 12.6799 43.9672 12.5659C44.0775 12.5117 44.1036 12.2801 44.1316 12.1231C44.2159 11.6523 44.2379 11.1666 44.3663 10.7089C44.4946 10.2512 44.7172 9.81587 44.9077 9.37497C45.0481 9.0499 45.1744 8.71362 45.3549 8.4091C45.6036 7.99248 45.8663 7.574 46.1831 7.20222C46.5922 6.72395 47.0454 6.27371 47.5146 5.84402C47.9318 5.4629 48.383 5.11167 48.8442 4.77539C49.2793 4.45779 49.7325 4.15888 50.2018 3.88985C50.5166 3.7105 50.8756 3.59841 51.2145 3.45829C51.3749 3.39291 51.5333 3.32378 51.6958 3.264C52.0567 3.13322 52.4217 3.00805 52.7847 2.88101C53.268 2.711 53.7432 2.51484 54.2365 2.37472C54.6276 2.2645 55.0427 2.23274 55.4417 2.14867C55.901 2.05339 56.3542 1.93756 56.8094 1.83107C56.8515 1.82173 56.8936 1.80678 56.9377 1.80491C58.0326 1.72645 59.1296 1.65172 60.2245 1.56952C60.794 1.52655 61.3615 1.45555 61.931 1.42379C62.3481 1.40137 62.5486 1.57512 62.5486 1.96184C62.5507 3.68248 62.5547 5.40312 62.5266 7.12376C62.5186 7.60202 62.4083 8.07842 62.3361 8.55482C62.2819 8.91352 62.2318 9.27408 62.1396 9.62531C62.0513 9.96533 61.911 10.2941 61.7966 10.6304C61.7806 10.679 61.7866 10.735 61.7706 10.7836C61.6462 11.1685 61.5179 11.5496 61.3956 11.9344C61.3114 12.1979 61.2432 12.4669 61.1549 12.7284C61.0848 12.9321 61.0045 13.1357 60.9063 13.33C60.804 13.5355 60.6757 13.7317 60.5574 13.9297C60.3368 14.3015 60.1222 14.6789 59.8896 15.045C59.7191 15.3141 59.5386 15.5831 59.3341 15.8316C59.1316 16.0782 58.909 16.3098 58.6723 16.5284C58.3074 16.8666 57.9384 17.2047 57.5433 17.5111C57.2064 17.7708 56.8334 17.9894 56.4705 18.221C56.2198 18.3817 55.9671 18.5386 55.7064 18.6825C55.534 18.7778 55.3535 18.8674 55.165 18.9291C54.8963 19.0169 54.6135 19.0711 54.3408 19.1533C53.9939 19.2579 53.655 19.3831 53.3081 19.4858C53.0534 19.5605 52.7907 19.6596 52.53 19.6708C51.0741 19.7362 49.6263 19.9996 48.1604 19.8651C47.6711 19.8202 47.1798 19.7717 46.7045 19.6652C46.504 19.6147 46.3315 19.4167 46.1851 19.3158Z" fill="#FF9500"/>
</g>
<defs>
<filter id="filter0_d_2332_192" x="28.6963" y="1.42188" width="37.8535" height="26.4805" filterUnits="userSpaceOnUse" color-interpolation-filters="sRGB">
<feFlood flood-opacity="0" result="BackgroundImageFix"/>
<feColorMatrix in="SourceAlpha" type="matrix" values="0 0 0 0 0 0 0 0 0 0 0 0 0 0 0 0 0 0 127 0" result="hardAlpha"/>
<feOffset dy="4"/>
<feGaussianBlur stdDeviation="2"/>
<feComposite in2="hardAlpha" operator="out"/>
<feColorMatrix type="matrix" values="0 0 0 0 0 0 0 0 0 0 0 0 0 0 0 0 0 0 0.25 0"/>
<feBlend mode="normal" in2="BackgroundImageFix" result="effect1_dropShadow_2332_192"/>
<feBlend mode="normal" in="SourceGraphic" in2="effect1_dropShadow_2332_192" result="shape"/>
</filter>
</defs>
</svg>
